<?xml version="1.0" encoding="utf-8"?>
<!-- Generator: Adobe Illustrator 23.0.1, SVG Export Plug-In . SVG Version: 6.00 Build 0)  -->
<svg version="1.1" id="圖層_1" xmlns="http://www.w3.org/2000/svg" xmlns:xlink="http://www.w3.org/1999/xlink" x="0px" y="0px"
	 viewBox="0 0 1181 2056" style="enable-background:new 0 0 1181 2056;" xml:space="preserve">
<style type="text/css">
	.st0{fill:#88CFDA;}
	.st1{fill:#CACAA8;}
	.st2{fill:#56BA8D;}
	.st3{fill:none;stroke:#FFFFFF;stroke-width:3;stroke-linecap:round;stroke-linejoin:round;}
</style>
<path class="st0" d="M867.4,1188.3c-2.3-6.5-4.9-12.8-7.7-19.1c-4-8.8-9-17.1-14.8-24.8c-5.2-7-10.9-13.5-17.2-19.3
	c-6.7,6.2-13.8,11.8-21.3,16.9c-5.9,4.1-12,7.8-18.3,11.2c2.5,2,5,4.1,7.5,6.2c6.9,5.7,13,12.6,18,20.4c5.1,7.8,9,16.4,11.7,25.5
	L867.4,1188.3z M715.9,1244.6c-1.2-3.7-2.5-7-3.8-10.5c-3.1-8.8-7.2-17-12.2-24.7l-42.4,21.9c1.5,1.9,3,3.6,4.5,5.6
	c2.7,3.4,5,7.1,6.9,11c2,3.9,3.7,7.9,5,12.2L715.9,1244.6z M1598.8,639.1l-32.6,14.9c3.8,4.3,7.2,8.9,10.2,13.9
	c4.6,7.8,8,16.5,9.9,25.5c1.9,9.1,2.3,18.6,1.2,27.9c-1.1,9.4-4.7,18.2-10.5,25.3c-5.6,7.1-12.8,12.7-20.8,16.2
	c3.5,0.6,7.1,0.9,10.6,1c8.9,0.3,17.7-0.7,26.3-2.8c8.8-2.2,17.3-5.4,25.3-9.8c5.7-7,10-15.3,12.7-24.2c2.6-8.9,3.1-18.4,1.3-27.6
	c-1.7-8.8-4.6-17.2-8.7-25c-4.1-8-8.9-15.6-14.2-22.6C1606.2,647.4,1602.6,643.2,1598.8,639.1L1598.8,639.1z M1407.9,840.5
	c-5.5-7.1-10.8-14.4-15.8-21.9c-5.4-7.9-10.5-16-15.6-24.2c-4.3-7.1-8.5-14.3-12.5-21.6c-4.6-8.4-8.6-17.2-11.8-26.3
	c-3.1-9-5.7-18.2-7.7-27.5c-1.9-8.8-3.3-17.7-4.1-26.7c-0.9-9.1-1.2-18.2-1-27.3c-2.5,9.3-6.7,18-12.2,25.6
	c-5.4,7.4-12,13.6-19.6,18.2c-3.1,1.9-6.3,3.6-9.6,5c0.4,6.9,1.3,13.7,2.6,20.5c1.6,8.2,3.8,16.2,6.7,23.9c3.4,9,7.4,17.7,12,26.1
	l12.6,22.8c4.2,7.7,8.6,15.2,12.9,22.7c4.4,7.5,8.8,14.6,13.4,21.6c4.6,7,9.6,13.7,14.6,20.3c5.1,6.6,10.5,12.9,16.1,19
	c-3.7-4.7-6.6-10.2-8.5-16c-2.6-7.5-2.7-15.8-0.1-23.3c1.1-3.3,2.8-6.3,5-8.9c4.4,0.3,8.8,1.1,13,2.4c8.4,2.4,16.3,6.3,23.5,11.5
	C1416.8,851.4,1412.2,846.1,1407.9,840.5L1407.9,840.5z M1452.3,670.9c3.8-8.6,6.7-17.6,8.4-26.9c1.7-8.8,2.6-17.9,2.7-26.9
	c0-9.1-0.7-18.2-2.3-27.1c-1.6-9.1-4-18-7.2-26.6c-3.1-8.4-7-16.5-11.6-24c-4.7-7.6-10-14.8-15.9-21.3c-8.4-3.5-17.3-5.6-26.3-6.3
	c-8.8-0.6-17.6,0.3-26.2,2.8c-3.4,1-6.7,2.2-9.9,3.6c7.2,6,14,12.5,20.3,19.6c6.3,7.1,12.1,14.7,17.2,22.9
	c4.6,7.4,8.4,15.3,11.3,23.6c3,8.5,4.9,17.5,5.6,26.6c0.5,6.9,0.4,13.9-0.3,20.8c0.3,1.1,0.7,2.1,1,3.2c2.8,9.3,6.1,18.4,10.1,27.1
	c4,8.9,8.6,17.4,13.7,25.5c3.5-5.2,6.7-10.8,9.3-16.6L1452.3,670.9z M1266.8,721l0.2-7.8c-7.8-2.6-15.3-6.1-22.4-10.4
	c-7.8-4.7-15.2-10.2-22-16.4l-5-4.4c1.1,4.4,2,8.8,2.7,13.2c1.3,9.2,2.4,18.5,3.3,27.7c0.9,8.6,2.1,17.4,3.4,26.1
	c1.2,8.1,2,16.3,2.5,24.4c0.5,8.8,0.4,17.6-0.3,26.3c-0.8,8.7-2.2,17.3-4.2,25.8l0.8,23.6c6.6-6.2,12.5-13.3,17.5-21.1
	c4.9-7.9,8.9-16.5,11.8-25.5c2.7-8.5,4.8-17.1,6.3-25.9c1.7-9.4,3-18.8,3.9-28.2c0.9-9.5,1.4-18.2,1.6-27.5L1266.8,721z
	 M1219.2,878.5c-6.9-4.8-14.3-8.9-21.9-12.1c-7.6-3.2-15.4-5.4-23.5-6.8c-8.1-1.4-16.3-2-24.5-1.8c-9.1,0.2-18.1,1.4-27,3.4
	c-8,1.8-15.8,4.3-23.4,7.6l19.5,45.4l3-0.2c8.8-0.6,17.6-0.5,26.4,0.4c8.7,0.8,17.4,2.3,25.9,4.4c8.3,2,16.5,4.4,24.7,7.1
	c8.2,2.7,16.2,5.7,24.1,9c8.1,3.4,15.9,7.6,23.3,12.5c7.1,4.7,13.7,10.4,19.6,16.8c5.9,6.5,11.1,13.7,15.5,21.5l0.9-9.6
	c0.6-9.6,0.2-19.3-1-28.8l0,0l-1.4-2.7c-6.7-5.6-12.9-12-18.4-18.9c-5.6-7-10.5-14.5-14.8-22.5c-0.6-1.1-1.1-2.2-1.7-3.2l-3.8-3.6
	C1233.9,889.8,1226.8,883.9,1219.2,878.5L1219.2,878.5z M1141.9,1027.9c-5.5-6.5-11.5-12.6-17.8-18.2c-6.4-5.7-13.1-10.9-20.1-15.7
	c-6.8,6.5-14.6,11.7-23.1,15.4c-7.5,3.3-15.4,5.5-23.5,6.4c4.5,2.9,9,5.8,13.4,8.5c6.9,4.2,13.6,8.9,19.9,14.1
	c7.1,5.7,13.2,12.6,18.3,20.4c4.7,7.2,8.3,15,10.9,23.3c5.8-4.7,12-8.8,18.5-12.3c7.3-4,15-7.3,22.9-9.6c-1.1-3.3-2.5-6.4-4.1-9.4
	C1152.9,1042.5,1147.8,1034.8,1141.9,1027.9L1141.9,1027.9z M1750.2,579.3v-0.7c-6.3-4.9-12.8-9.3-19.4-13.4
	c-7.8-4.8-15.8-9.1-24.1-12.9c-7.3-3.5-14.9-6.4-22.6-8.6c-8.6-2.5-17.3-3.8-26.2-4c-8.9-0.2-17.8,0.7-26.6,2.7
	c4.8,8.4,7.6,17.9,8.3,27.7c0.4,4.7,0.3,9.5-0.4,14.2l4.2-1.1c8.8-2.4,17.8-3.3,26.8-2.5c9.1,0.8,18,3.2,26.3,7
	c7.9,3.7,15.5,8.3,22.6,13.6c6.8,5.3,13.2,11.2,19,17.7c5.9,6.7,11.2,13.8,15.9,21.5l1.3-21.9L1750.2,579.3z M1680.5,456.1
	c-2.8-2.7-5.4-5.6-8-8.6c-5.9-7-10.4-15.4-13.2-24.4c-2.8-8.9-3.8-18.4-2.8-27.8l-39.3-7.3c-2-0.2-4-0.5-6-0.8
	c-7.7-1-15.4-1.6-23.1-1.7c-8.4-0.1-16.9,0.6-25.2,2.2c-8.3,1.6-16.6,4.1-24.5,7.3l11.5-0.5l-11.5,0.5l-10.7,0.4
	c-9,1.2-17.6,4.6-25.3,9.9c-6.8,4.6-12.5,11-16.6,18.5c-4.6,8.3-7.6,17.5-9,27.1c-1.4,9.5-0.8,19.3,1.7,28.6c1.2,4.5,2.9,8.8,5,12.9
	c3.9-4.5,7.8-8.8,11.9-13.1c6.1-6.4,12.7-12.2,19.7-17.4c7-5.2,14.4-9.6,22.1-13.3c7.7-3.8,15.7-6.8,23.9-9c7.9-2.2,16-3.6,24.2-4.2
	c8.2-0.6,16.4-0.4,24.5,0.6c8.2,1,16.3,2.5,24.3,4.5c7.9,2,15.7,4.3,23.5,7c7.8,2.7,15.4,5.6,23,8.9L1680.5,456.1z M1778.1,325.7
	l0.8,0.3c5.1-6.5,9.5-13.7,13.2-21.2c3.9-8.1,6.8-16.7,8.7-25.5c2-9,3.1-18.3,3.1-27.7c0-9.3-0.8-18.5-2.3-27.6
	c-1.4-9-3.7-17.8-6.7-26.3c-3-8.6-6.7-16.9-11-24.8c-4.2-7.6-8.7-15-13.6-22.1c-4.9-7.1-10.2-13.9-15.8-20.4
	c-5.7-6.4-11.8-12.4-18.3-17.9c-6.4-5.4-13.3-10.2-20.4-14.3c-7.2-4.2-14.7-7.8-22.4-10.7l-7,26.3l-1.8,10.1l11.9,7.6
	c5.2,3.4,10.1,7.2,14.8,11.4c6.8,6.3,13,13.6,18.3,21.5c4.8,7.3,9,15.2,12.3,23.5c3.3,8.2,5.9,16.8,7.7,25.5
	c1.8,8.7,2.8,17.6,3,26.6c0.3,9.2-0.3,18.5-1.8,27.6c-1.5,9.6-4.2,19-8,27.8c-3.8,9-8.7,17.4-14.5,25h0.2h1c7.7-0.7,15.5-0.7,23.2,0
	c8.7,0.8,17.2,2.7,25.5,5.6L1778.1,325.7z M1660.8,377.1c2.2-6.4,5-12.5,8.5-18.2c4.9-8.1,11.2-15.1,18.4-20.7l-1.5-2.6l-1.9-4.6
	c-3.8-8.7-8.5-16.9-14.1-24.4c-5.5-7.4-11.8-13.9-18.9-19.5c-7.2-5.7-15-10.4-23.3-14c-1.6,9-3.7,17.9-6.3,26.6
	c-2.1,6.9-4.6,13.7-7.5,20.4c4.7,3.6,9.2,7.4,13.4,11.5c6.3,6.1,12.2,12.8,17.6,19.9L1660.8,377.1z M1956.6,280.6
	c0.7-1.8,1.3-3.6,1.8-5.4c3.1-8.8,5.1-18,6-27.4c1-9.7,0.9-19.5-0.4-29.2c-1.1-8.6-3.2-17.1-6.3-25.1c-3.1-8.3-7-16.1-11.7-23.4
	c-0.6-0.7-1.3-1.4-1.9-2c-6.2-6.7-11.4-14.4-15.2-23c-3.9-8.5-6.8-17.5-8.7-26.7c-1.9-9.3-3.5-18.6-4.8-28
	c-1.3-9.3-4.2-18.2-8.6-26.3c-4.4-8.2-10.2-15.4-17-21.3c-6.7-5.8-13.6-11.1-20.9-15.8c-7.1-4.6-14.4-9.1-21.8-13.3
	c-7.4-4.2-15-8.3-22.5-12.2l-10.3-1.1L1804.1,0L1755,13.7l-0.4,0.2c7.6,2.2,15.2,4.6,22.7,7.3c8.2,3,16.2,6.3,24.2,10.1
	c8,3.7,16.5,8.1,24.6,12.6c8,4.4,15.7,9.3,23.1,14.6c7.6,5.3,13.8,12.6,18,21.2c3.9,7.7,6.2,16.1,7,24.8c0.8,9.2,1.2,18.4,1.2,27.8
	c0,9.8,3.2,19.3,9,26.8c5.3,7,10.4,14.3,15.2,21.9c4.8,7.5,9,15.4,12.6,23.6c2.7,6.1,5.2,12.3,7.4,18.7c3.7,4.9,6.9,10.2,9.8,15.8
	c4.3,8.6,7,17.9,8.1,27.6c1,9.3,0.6,18.7-1.1,27.8l2.7-1.5c6.3-3.5,12.2-7.8,17.6-12.8L1956.6,280.6z M1684.5,123.6l1.8-10.1
	c-8.3-0.7-16.7-0.5-25,0.3l-6.1,0.7h-0.2l4.6,1C1668.1,117.3,1676.4,120,1684.5,123.6L1684.5,123.6z M1654.8,114.5h0.2H1654.8z
	 M996.9,1143.4c0.4-9.1-0.3-18.2-2-27.1c-1.7-8.8-4.3-17.3-7.6-25.5c-3.6-8.8-8.2-17.2-13.6-24.9c-5.5-7.8-11.7-15-18.5-21.5
	c-6.1-6-12.7-11.4-19.6-16.3c-7-4.9-14.2-9.3-21.8-13.1c-8.2,4.1-15.6,9.7-22.1,16.6c-5.7,6.1-10.6,13.1-14.4,20.8l8.2,3
	c7.4,2.7,14.5,6.2,21.2,10.5c7.7,4.8,14.9,10.7,21.4,17.4c6,6.2,11.3,13.2,15.5,20.9c4.5,8,7.1,17.1,7.7,26.4
	c0.8,9.6-0.4,19.3-3.4,28.3l9.9,6.6l6.2,3.7c7.6,4.7,15.7,8.3,24.2,10.5c1.1-2.4,2.1-5.1,3-7.9
	C994.5,1162.5,996.4,1153,996.9,1143.4L996.9,1143.4z M943.3,1167h0.4l14.3-1.7l-9.9-6.6L943.3,1167z"/>
<path class="st1" d="M558.8,1302.4h0.2l114.7-42.3c-1.3-4.2-3-8.3-5-12.2c-2-3.9-4.3-7.6-6.9-10.9c-1.5-1.9-3-3.7-4.5-5.7
	l-105.1,54.7l-12.9,6.3l-0.7,0.4c-4.2,2.3-8.5,4.4-12.8,6.5c-4.4,2-8.5,4.1-12.5,6.1c-4,2-7.7,3.9-11.4,5.7
	c-3.6,1.8-7.4,3.5-11.2,4.8c-2.9,0.8-5.6,2.6-7.5,5.1c-0.3,0.4-0.5,0.9-0.5,1.5c0,1.1,0.3,2.2,0.9,3.1c0.6,0.9,1.5,1.5,2.5,1.8
	c0.6,0.3,1.2,0.3,1.9,0.3c4.7-0.5,9.3-1.7,13.7-3.7c4.3-1.8,8.6-3.7,13-5.2c4.4-1.6,8.8-3.3,13.2-4.9l7.4-2.6l0.4-0.2L558.8,1302.4z
	 M1598.6,639.1l0.2-0.2L1598.6,639.1z M1586.1,693.5c-1.9-9.1-5.2-17.7-9.9-25.5c-3-5-6.4-9.7-10.2-13.9c-8.3,3.2-17.1,4.7-26,4.5
	c-7.2-0.2-14.4-1.5-21.3-4.1c-1.6-13.4-4.5-26.7-8.6-39.4c-3.6-11.5-8.3-22.7-13.9-33.2c-3-5.6-6.3-11.1-9.8-16.4
	c-3.6-5.3-7.5-10.4-11.7-15c-4.4-4.8-9.2-9.2-14.3-13c-9.2-7-19.1-12.8-29.5-17.2l-4.4-1.9c5.9,6.6,11.3,13.7,15.9,21.3
	c4.6,7.6,8.5,15.6,11.6,24c3.2,8.6,5.6,17.5,7.3,26.6c1.5,8.9,2.3,18,2.3,27.1c-0.1,9-1,18-2.7,26.9c-1.8,9.3-4.6,18.4-8.5,26.9
	c-2.6,5.8-5.7,11.4-9.3,16.6c2.5,4.7,5.3,9.1,8.4,13.4c5.7,7.7,12.3,14.6,19.5,20.5l13.6,10.3c7.4,5.7,15.3,10.7,23.5,14.8
	c7.6,3.9,15.4,7.3,23.5,10c8.1,2.7,16.3,4.8,24.7,6.2c8-3.5,15.2-9.1,20.8-16.2c5.7-7.1,9.4-15.9,10.5-25.3
	c1.1-9.3,0.7-18.7-1.2-27.9H1586.1z M1220.8,695.2c-0.7-4.5-1.5-8.9-2.7-13.2c-7.6-5.8-16.1-9.9-25.2-12.1c-8-2.1-16.3-2.4-24.3-0.8
	c-8.8,1.7-17.3,4.8-25.3,9.2c-8,4.3-15.5,9.4-22.6,15.3c-7,5.8-13.5,12.4-19.4,19.6c-5.7,7.1-10.5,15-14.2,23.5
	c-3.9,8.7-6.4,18-7.3,27.7c-1,9.7-1,19.5,0,29.2c1,9,2.4,17.9,4.1,26.7c1.8,8.8,4,17.5,6.7,26c2.4,7.7,5.2,15.2,8.3,22.6
	c7.5-3.2,15.3-5.7,23.2-7.6c8.9-2.1,17.9-3.2,27-3.4c8.2-0.2,16.4,0.4,24.5,1.8c8,1.4,15.9,3.6,23.5,6.8c7.7,3.2,15,7.3,21.9,12.1
	c7.5,5.3,14.7,11.3,21.5,17.7l3.8,3.6c-5-8.1-9.1-16.8-12.3-25.8c-2.9-8-5-16.4-6.3-24.9l-0.8-23.6c2-8.5,3.3-17.1,4.2-25.8
	c0.8-8.8,0.9-17.6,0.3-26.3c-0.4-8.2-1.3-16.3-2.5-24.4c-1.3-8.7-2.4-17.4-3.4-26c-1-9.3-2.1-18.5-3.3-27.7L1220.8,695.2z
	 M1280.2,945.5l-1.1-1.1l1.4,2.7L1280.2,945.5z M1754.3,607.8c-0.8-9.6-2.3-19.1-4.3-28.5l5.3,39.5
	C1755,615.1,1754.7,611.5,1754.3,607.8L1754.3,607.8z M1850.8,350.8c8.9,0.5,17.8-0.5,26.4-2.8c8.6-2.3,16.9-5.8,24.7-10.5
	c7.5-4.5,14.2-10.4,19.9-17.4c5.4-6.6,9.8-14.1,13-22.3l1.1-3.3c1.7-9.1,2.1-18.5,1.1-27.8c-1-9.7-3.8-19.1-8-27.6
	c-2.8-5.6-6.1-10.9-9.8-15.8c-2.2-6.4-4.7-12.6-7.4-18.7c-3.7-8.2-7.9-16.1-12.6-23.6c-4.8-7.5-9.8-14.8-15.2-21.9
	c-5.8-7.5-9.1-17-9-26.8c0-9.3-0.4-18.6-1.2-27.8c-0.8-8.7-3.1-17.2-7-24.8c-4.3-8.6-10.5-15.9-18-21.2
	c-7.5-5.3-15.2-10.2-23.2-14.6c-8.1-4.5-16.3-8.7-24.6-12.6c-8-3.6-16-7.1-24.2-10.1c-7.5-2.8-15.1-5.2-22.7-7.3
	c-7.3,4.2-14.2,9.1-20.7,14.6c-6.4,5.4-12.4,11.5-17.8,18.1c-6,7.3-11.2,15.2-15.7,23.6c-2.9,5.5-5.3,11.2-7.2,17.1
	c7.7,2.9,15.2,6.5,22.4,10.7c7.2,4.2,14,9,20.4,14.3c6.5,5.5,12.6,11.5,18.3,17.9c5.6,6.5,10.9,13.3,15.8,20.4
	c4.9,7.1,9.5,14.5,13.6,22.1c4.3,7.9,8,16.2,11,24.8c3.1,8.5,5.3,17.3,6.7,26.3c1.6,9.1,2.3,18.4,2.3,27.6c0,9.3-1,18.6-3.1,27.7
	c-1.9,8.9-4.8,17.5-8.7,25.5c-3.7,7.6-8.1,14.7-13.2,21.2l0.9,0.3c7.2,4.8,14.8,9,22.6,12.4c7.7,3.4,15.6,6.2,23.8,8.2
	c8.2,2,16.5,3.2,24.9,3.6L1850.8,350.8z M1803.6,0c-9,0.4-17.9,1.9-26.6,4.5c-7.8,2.3-15.3,5.3-22.5,9.2L1803.6,0z"/>
<path class="st1" d="M2005.3,173.7c1.1-8.9,1.4-17.8,1-26.7c-0.4-9.2-1.7-18.2-3.7-27.1c-2.1-9.2-5.4-18.1-9.7-26.4
	c-4.6-8.6-10.2-16.4-16.8-23.2c-5.7-6.1-12.2-11.2-19.2-15.4c-7.7-4.6-16.3-7.3-25.2-7.8c-8.5-0.5-17,0.6-25.1,3.4
	c5.5,5.8,10.8,11.8,15.7,18.2c5.8,7.4,11.1,15.1,16,23.2c4.5,7.4,8.3,15.3,11.2,23.6c3,8.7,4.2,18.1,3.4,27.4
	c-0.6,9.5-3.1,18.8-7.2,27.3c4.7,7.3,8.6,15.2,11.7,23.4c3.1,8.1,5.2,16.5,6.3,25.1c1.3,9.7,1.5,19.5,0.4,29.2c-1,9.4-3,18.6-6,27.4
	c-0.6,1.8-1.2,3.6-1.8,5.4c2.8-2.6,5.3-5.4,7.8-8.4c5.8-7,10.9-14.5,15.4-22.5c4.3-7.7,8.2-15.6,11.6-23.9
	c3.4-8.2,6.3-16.7,8.8-25.3c2.5-8.6,4.3-17.5,5.4-26.5L2005.3,173.7z M1208.5,1054.9c7.8-2,15.3-4.8,22.6-8.3
	c7.9-3.8,15.3-8.7,22-14.6c7-6,13-13.2,17.7-21.5c4.4-7.8,7.8-16.3,10.1-25.1c-4.4-7.8-9.6-15-15.5-21.5
	c-5.9-6.5-12.4-12.1-19.6-16.8c-7.4-4.9-15.2-9.1-23.3-12.5c-7.9-3.3-15.9-6.3-24.1-9c-8.2-2.7-16.4-5.1-24.7-7.1
	c-8.5-2.1-17.2-3.5-25.9-4.4c-8.8-0.9-17.6-1-26.4-0.4l-3,0.2c3.3,8.7,5.1,18,5.3,27.4c0.3,9.6-1.3,19.2-4.8,28.1
	c-3.5,9-8.5,17.3-14.9,24.3c7,4.7,13.8,9.9,20.1,15.6c6.3,5.6,12.3,11.7,17.8,18.3c5.9,6.9,11.1,14.6,15.4,22.8
	c1.6,3,2.9,6.2,4.1,9.4c7.1-1.5,14.4-2.2,21.6-2.1c8.6,0.1,17.2-0.9,25.6-3L1208.5,1054.9z M1949.8,115.2
	c-2.9-8.3-6.7-16.2-11.2-23.6c-4.9-8.1-10.2-15.8-16-23.2c-5-6.3-10.3-12.4-15.7-18.2c-5.5-6.6-11.6-12.7-18-18.2
	c-6.3-5.5-13.1-10.3-20.3-14.3c-7.1-4-14.4-7.5-22-10.2c-7.2-2.6-14.5-4.6-22-6.2c7.6,3.7,15.1,7.7,22.5,12
	c7.4,4.2,14.7,8.8,21.8,13.8c7.2,4.7,14.1,10,20.7,15.7c6.8,5.9,12.6,13.1,17,21.3c4.4,8.1,7.3,17,8.6,26.3c1.3,9.4,2.9,18.8,4.8,28
	c1.9,9.2,4.8,18.2,8.7,26.7c3.8,8.5,9,16.3,15.2,23c0.7,0.7,1.3,1.3,1.9,2c4.2-8.4,6.6-17.7,7.3-27.3c0.8-9.3-0.3-18.7-3.4-27.4"/>
<path class="st2" d="M813.7,1179.8c-5-7.8-11-14.7-18-20.5c-2.5-2.1-5-4.1-7.5-6.2l-14.1,9.1l-21.1,13.9l-17.8,12
	c-6.9,4.6-14,9.1-21.1,13.3c-4.7,2.6-9.4,5.3-14.2,8c5.1,7.6,9.2,15.9,12.4,24.7c1.3,3.7,2.5,7,3.8,10.5l109.3-39.2
	C822.7,1196.3,818.8,1187.7,813.7,1179.8L813.7,1179.8z M1421.7,856.5c6.7,4.5,13.6,8.5,20.8,11.9c8.1,3.9,17.1,5,25.7,3.1
	c9-2,17.3-6.4,24.2-13c6.8-6.3,12.3-14.1,16.2-22.8c3.9-8.6,6-18.1,6.3-27.7c0.3-9.5-0.7-19-2.9-28.2c-2.2-9.5-5.9-18.6-10.7-26.9
	c-4.7-7.8-10.3-14.9-16.8-21.1l-13.6-10.3c-7.3-5.9-13.8-12.8-19.5-20.5c-3.1-4.2-5.9-8.7-8.4-13.4c-5.2-8.1-9.8-16.7-13.7-25.5
	c-3.9-8.8-7.3-17.8-10.1-27.1c-0.3-1.1-0.7-2.1-1-3.2c0.7-6.9,0.8-13.8,0.3-20.8c-0.7-9.1-2.6-18.1-5.6-26.6
	c-2.9-8.3-6.7-16.2-11.3-23.6c-5.1-8.2-10.8-15.8-17.2-22.9c-6.4-7.1-13.2-13.6-20.5-19.6c-8.2,4.2-15.6,9.9-21.9,16.9
	c-6.1,6.7-11,14.7-14.3,23.4c-3.5,9.1-5.5,18.8-6,28.6c-0.6,9.8,1,19.7,4.4,28.8c3.2,8.6,7.8,16.4,13.6,23.2
	c0.7,0.9,1.5,1.7,2.2,2.6c0.6-5.7,0.6-11.4,0-17.1c-1-9.5-3.5-18.7-7.4-27.2c4,8.5,6.5,17.7,7.4,27.2c0.6,5.7,0.6,11.4,0,17.1
	l-2.7,23.5c-0.2,9.1,0.1,18.3,1,27.3c0.9,9,2.3,17.9,4.1,26.7c2,9.4,4.6,18.6,7.7,27.5c3.2,9.1,7.2,17.9,11.8,26.3
	c4,7.3,8.2,14.5,12.5,21.6c5,8.2,10.1,16.3,15.6,24.2c5.5,7.9,10.3,14.6,15.8,21.9c4.3,5.6,8.9,10.8,13.7,15.8V856.5z M1657.6,447.5
	c-7.8-2.7-15.6-5-23.5-7c-8-2-16.1-3.5-24.3-4.5c-8.1-1-16.4-1.2-24.5-0.6c-8.2,0.6-16.2,2-24.2,4.2c-8.2,2.2-16.2,5.3-23.9,9
	c-7.7,3.7-15.1,8.2-22.1,13.3c-7,5.2-13.6,11-19.7,17.4c-4,4.3-8,8.7-11.9,13.1c4.3,8.7,10,16.6,16.8,23.2
	c6.6,6.4,14.3,11.4,22.6,14.8c8,3.4,16.3,5.8,24.7,7.1c8.3,1.3,16.6,1.7,25,1.3c8.5-0.4,16.9-1.8,25.1-4.1
	c8.5-2.5,17.6-1.8,25.6,2.1c2.9,1.4,5.6,3.3,8,5.7c8.8-2,17.7-2.9,26.6-2.7c8.8,0.2,17.6,1.5,26.2,4c7.7,2.2,15.3,5.1,22.6,8.5
	c8.2,3.8,16.2,8.2,23.9,13c6.7,4.2,13.2,8.6,19.4,13.4c-1.7-5-3.5-10.1-5.4-15.1c-2.8-7.9-5.9-15.7-9.3-23.4
	c-3.4-7.6-7-15.1-10.9-22.5c-3.9-7.5-8.2-14.8-12.8-21.9c-4.6-7.1-9.6-13.9-14.8-20.5c-5.2-6.6-10.7-13-16.5-19.1
	c-7.6-3.3-15.2-6.2-22.9-8.9"/>
<path class="st1" d="M1119.9,1081.9c-2.6-8.3-6.2-16.1-10.8-23.3c-5-7.8-11.2-14.7-18.3-20.4c-6.4-5.2-13-9.9-19.9-14.1
	c-4.5-2.7-8.9-5.5-13.4-8.5c-8.5,1.4-17.1,1.5-25.7,0.3l-3.9-0.3c-7.7-2.2-15.5-4.5-23.3-6.8c-7.9-2.4-15.9-4-24-4.8
	c-8.3-0.9-16.6-1-24.9-0.3c-14.4,1.2-28.6,5-41.9,11.3c7.5,3.8,14.8,8.2,21.8,13.1c6.9,4.9,13.4,10.3,19.6,16.3
	c6.8,6.5,12.9,13.7,18.4,21.5c5.4,7.7,10,16,13.6,24.9c3.3,8.2,5.9,16.8,7.7,25.5c1.7,8.9,2.3,18,1.9,27.1
	c-0.5,9.6-2.4,19.1-5.5,28.1c-0.9,2.7-1.9,5.4-3,7.9l4.1,1.2c8.3,2.4,16.8,3.8,25.3,3.9c8.9,0.1,17.7-1.1,26.3-3.6
	c8.7-2.5,17-6.4,24.7-11.6c6.9-4.6,12.9-10.5,17.7-17.5c0.4-0.6,0.7-1.2,0.9-1.9c1.5-7.3,2.9-14.6,4.3-21.7
	c2-9.5,5.6-18.5,10.7-26.5c4.8-7.6,10.8-14.3,17.7-19.8H1119.9z M1722.1,321.8c1.9-0.5,3.9-1,5.8-1.5c5.8-7.6,10.6-16,14.5-25
	c3.8-8.9,6.4-18.2,8-27.8c1.4-9.1,2-18.3,1.8-27.6c-0.3-9-1.3-17.9-3.1-26.6c-1.8-8.8-4.4-17.3-7.7-25.5
	c-3.3-8.3-7.5-16.1-12.3-23.4c-5.3-8-11.4-15.2-18.3-21.5c-4.6-4.2-9.6-8-14.8-11.4l-11.9-7.7c-8.1-3.5-16.4-6.2-24.9-8l-4.6-1h-0.2
	c-8.3,4.1-15.6,10.4-21.1,18.2c-5.4,7.5-8.9,16.5-10.1,26c-1.2,9.5-1.4,19.1-0.4,28.7c0.8,9,2,18,3.4,27c1.4,9,2.3,18.1,2.5,27.3
	c0.3,9.2,0,18.3-0.8,27.5c0,1.3-0.2,2.6-0.3,3.9c8.3,3.6,16.1,8.3,23.3,13.9c7.1,5.6,13.4,12.1,18.9,19.5
	c5.6,7.5,10.3,15.7,14.1,24.4c0.7,1.5,1.3,3.1,2,4.6l1.5,2.6l9.5-6.8C1704.9,327.2,1713.4,323.9,1722.1,321.8"/>
<path class="st3" d="M1653.5,117.1h-0.2h-0.2 M1684.4,115.9l-1.8,10.3 M1280.6,945.7v0.3 M1280.2,944.2l-1.1-1.1 M1279.1,943.1
	c-6.7-5.5-12.8-11.8-18.3-18.7 M1279.1,943.1l-18.3-18.7 M1260.8,924.5c-5.6-6.9-10.5-14.4-14.7-22.4 M1260.8,924.5l-14.7-22.4
	 M1246.1,902.1l-1.7-3.2 M1244.4,898.9c-4.9-8-9-16.6-12.2-25.5c-2.8-8-4.9-16.3-6.3-24.8l-0.8-23.5L1244.4,898.9z M1597.7,639.4
	l-0.2,0.2 M542,1289.3l-0.7,0.4c-4.2,2.2-8.4,4.4-12.7,6.4c-4.3,2.1-8.5,4.1-12.4,6.1l-11.3,5.7c-3.6,1.8-7.3,3.4-11.1,4.7
	 M542,1289.3l-48.4,23.3 M542,1289.3l12.9-6.4l104.7-54.4l42.2-21.9 M493.6,1312.6c-2.9,0.8-5.6,2.6-7.5,5.1 M493.6,1312.6l-7.5,5.1
	 M1822.2,4.6l-10.3-1.1l-10.1-0.2 M1801.9,3.2c-8.9,0.4-17.8,1.9-26.5,4.5 M1801.9,3.2l-26.5,4.5 M1775.4,7.7
	c-7.7,2.3-15.3,5.3-22.5,9.2 M1775.4,7.7l-22.5,9.2 M1752.9,16.8l-0.4,0.2 M1752.5,17c-7.2,4.2-14.1,9-20.6,14.4 M1752.5,17
	l-20.6,14.4 M1731.9,31.4c-6.4,5.4-12.3,11.4-17.6,18 M1731.9,31.4l-17.6,18 M1714.3,49.4c-6,7.2-11.2,15.1-15.6,23.5 M1714.3,49.4
	l-15.6,23.5 M1698.7,72.9c-2.9,5.4-5.2,11.1-7.1,17 M1698.7,72.9l-7.1,17 M1691.5,90l-7,26.1 M1684.6,116.1
	c-8.3-0.6-16.6-0.5-24.9,0.4 M1684.6,116.1l-24.9,0.4 M1659.7,116.5l-6.1,0.7h-0.3h-0.2 M1653.2,117.1c-8.3,4.1-15.5,10.4-21,18.2
	 M1653.2,117.1l-21,18.2 M1632.2,135.4c-5.4,7.5-8.9,16.4-10.1,25.9 M1632.2,135.4l-10.1,25.9 M1622.1,161.2
	c-1.2,9.5-1.4,19-0.5,28.5 M1622.1,161.2l-0.5,28.5 M1621.7,189.8c0.9,9,2,18,3.3,26.9 M1621.7,189.8l3.3,26.9 M1625,216.6
	c1.4,9,2.3,18,2.5,27.1 M1625,216.6l2.5,27.1 M1627.5,243.8c0.3,9.1,0.1,18.2-0.7,27.3 M1627.5,243.8l-0.7,27.3 M1626.8,271.1
	c0,1.3-0.2,2.6-0.3,3.9 M1626.8,271.1l-0.3,3.9 M1626.4,275c-1.6,9-3.7,17.8-6.3,26.5 M1626.4,275l-6.3,26.5 M1620.1,301.4
	c-2.1,6.9-4.6,13.7-7.4,20.3 M1620.1,301.4l-7.4,20.3 M1612.6,321.7c-3.9,8.2-8.5,16-13.8,23.3 M1612.6,321.7l-13.8,23.3
	 M1598.8,345c-5.1,7.2-11,13.7-17.4,19.5 M1598.8,345l-17.4,19.5 M1581.4,364.6c-6.6,6-13.7,11.3-21.2,15.8 M1581.4,364.6
	l-21.2,15.8 M1560.2,380.4c-7.4,4.5-15,8.5-22.8,11.9 M1560.2,380.4l-22.8,11.9 M1537.4,392.3c-3.4,1.5-7,2.9-10.6,4.2
	 M1537.4,392.3l-10.6,4.2 M1526.8,396.5c-9,1.3-17.6,4.6-25.2,9.9 M1526.8,396.5l-25.2,9.9 M1501.6,406.4
	c-6.8,4.6-12.5,10.9-16.5,18.5 M1501.6,406.4l-16.5,18.5 M1485,424.8c-4.6,8.3-7.6,17.4-9,26.9 M1485,424.8l-9,26.9 M1476.1,451.8
	c-1.4,9.5-0.8,19.2,1.7,28.5 M1476.1,451.8l1.7,28.5 M1477.8,480.2c1.2,4.5,2.9,8.8,5,12.8 M1477.8,480.2l5,12.8 M1482.7,493.1
	c4.3,8.7,10,16.5,16.8,23.1 M1482.7,493.1l16.8,23.1 M1499.5,516.1c6.6,6.4,14.2,11.5,22.5,14.9 M1499.5,516.1L1522,531 M1522,531
	c7.9,3.4,16.2,5.7,24.6,7 M1522,531l24.6,7 M1546.6,538c8.2,1.3,16.6,1.7,24.9,1.4 M1546.6,538l24.9,1.4 M1571.5,539.4
	c8.4-0.4,16.8-1.8,25-4.1 M1571.5,539.4l25-4.1 M1596.5,535.2c8.5-2.5,17.5-1.8,25.5,2.1 M1596.5,535.2l25.5,2.1 M1622,537.4
	c2.9,1.4,5.6,3.3,7.9,5.6 M1622,537.4l7.9,5.6 M1630,543c4.7,8.4,7.5,17.8,8.2,27.6 M1630,543l8.2,27.6 M1638.2,570.6
	c0.4,4.7,0.3,9.4-0.4,14.1 M1638.2,570.6l-0.4,14.1 M1637.8,584.7c-2.8,9.3-6.9,18-12.1,26 M1637.8,584.7l-12.1,26 M1625.7,610.7
	c-4.9,7.6-10.8,14.5-17.5,20.2 M1625.7,610.7l-17.5,20.2 M1608.2,630.9c-3.4,3-7,5.7-10.8,8.1 M1608.2,630.9l-10.8,8.1 M1597.4,639
	l-0.2,0.2l-32.5,14.8 M1564.7,654.1c-8.3,3.2-17.1,4.7-25.9,4.5 M1564.7,654.1l-25.9,4.5 M1538.8,658.6c-7.2-0.2-14.3-1.6-21.1-4.1
	 M1538.8,658.6l-21.1-4.1 M1517.8,654.5c-1.6-13.4-4.5-26.5-8.6-39.3 M1517.8,654.5l-8.6-39.3 M1509.2,615.2
	c-3.6-11.5-8.3-22.6-13.8-33.1 M1509.2,615.2l-13.8-33.1 M1495.3,582.1c-3-5.6-6.3-11-9.8-16.3 M1495.3,582.1l-9.8-16.3
	 M1485.6,565.8c-3.6-5.3-7.5-10.3-11.8-15 M1485.6,565.8l-11.8-15 M1473.8,550.8c-4.4-4.8-9.2-9.1-14.3-13 M1473.8,550.8l-14.3-13
	 M1459.5,537.8c-9.1-6.9-19-12.7-29.4-17.1 M1459.5,537.8l-29.4-17.1 M1430.1,520.7l-4.4-1.9 M1425.7,518.8
	c-8.4-3.5-17.2-5.6-26.2-6.2 M1425.7,518.8l-26.2-6.2 M1399.5,512.6c-8.8-0.7-17.6,0.3-26.1,2.7 M1399.5,512.6l-26.1,2.7
	 M1373.5,515.3c-3.4,1-6.7,2.2-9.9,3.6 M1373.5,515.3l-9.9,3.6 M1363.6,519c-8.2,4.1-15.6,9.9-21.8,16.9 M1363.6,519l-21.8,16.9
	 M1341.8,535.8c-6.1,6.7-10.9,14.6-14.2,23.3 M1341.8,535.8l-14.2,23.3 M1327.6,559.2c-3.5,9-5.5,18.7-6,28.5 M1327.6,559.2l-6,28.5
	 M1321.6,587.6c-0.5,9.8,1,19.6,4.4,28.6 M1321.6,587.6l4.4,28.6 M1325.9,616.2c3.2,8.5,7.7,16.4,13.4,23.2 M1325.9,616.2l13.4,23.2
	 M1339.4,639.4c0.7,0.8,1.4,1.7,2.2,2.6 M1339.4,639.4l2.2,2.6 M1341.5,642l-2.7,23.2 M1338.8,665.2c-2.6,9.2-6.7,17.7-12.2,25.2
	 M1338.8,665.2l-12.2,25.2 M1326.7,690.4c-5.4,7.4-12,13.5-19.6,18.1 M1326.7,690.4l-19.6,18.1 M1307.1,708.4
	c-3.1,1.9-6.3,3.6-9.6,5 M1307.1,708.4l-9.6,5 M1297.5,713.5c-8.5,2.9-17.7,3.2-26.3,0.7 M1297.5,713.5l-26.3,0.7 M1271.2,714.2
	l-4.2-1.3 M1267,712.8c-7.8-2.6-15.2-6.1-22.3-10.4 M1267,712.8l-22.3-10.4 M1244.7,702.4c-7.8-4.7-15.1-10.2-21.9-16.3
	 M1244.7,702.4l-21.9-16.3 M1222.7,686.1c-1.6-1.5-3.3-3-5-4.4 M1222.7,686.1l-5-4.4 M1217.8,681.7c-7.4-5.7-15.7-9.7-24.5-12
	 M1217.8,681.7l-24.5-12 M1193.3,669.7c-7.9-2.1-16.2-2.4-24.2-0.8 M1193.3,669.7l-24.2-0.8 M1169.1,668.9
	c-8.8,1.7-17.3,4.8-25.3,9.1 M1169.1,668.9l-25.3,9.1 M1143.8,678c-7.9,4.3-15.5,9.4-22.5,15.2 M1143.8,678l-22.5,15.2
	 M1121.3,693.3c-7,5.8-13.5,12.4-19.4,19.6 M1121.3,693.3l-19.4,19.6 M1102,712.8c-5.7,7-10.5,14.9-14.2,23.4 M1102,712.8
	l-14.2,23.4 M1087.8,736.2c-3.8,8.7-6.3,18-7.3,27.5 M1087.8,736.2l-7.3,27.5 M1080.5,763.7c-1.1,9.7-1.1,19.5,0,29.2 M1080.5,763.7
	v29.2 M1080.5,792.9c1,9,2.4,17.9,4.1,26.6 M1080.5,792.9l4.1,26.6 M1084.6,819.5c1.8,8.8,4,17.4,6.7,25.9 M1084.6,819.5l6.7,25.9
	 M1091.3,845.4c2.3,7.6,5,15.1,8.1,22.4 M1091.3,845.4l8.1,22.4 M1099.4,867.8l19.4,45.2 M1118.9,913c3.3,8.7,5,17.9,5.3,27.3
	 M1118.9,913l5.3,27.3 M1124.2,940.3c0.4,9.6-1.3,19.2-4.8,28 M1124.2,940.3l-4.8,28 M1119.4,968.2c-3.5,9-8.6,17.2-15,24.1
	 M1119.4,968.2l-15,24.1 M1104.4,992.4c-6.8,6.5-14.6,11.7-22.9,15.4 M1104.4,992.4l-22.9,15.4 M1081.5,1007.7
	c-7.5,3.3-15.4,5.5-23.5,6.4 M1081.5,1007.7l-23.5,6.4 M1058,1014.1c-8.5,1.4-17.1,1.5-25.6,0.4 M1058,1014.1l-25.6,0.4
	 M1032.4,1014.4l-3.8-0.5 M1028.6,1013.9c-7.7-2.2-15.4-4.5-23.1-6.8 M1028.6,1013.9l-23.1-6.8 M1005.5,1007.1
	c-7.8-2.4-15.8-4-23.8-4.8 M1005.5,1007.1l-23.8-4.8 M981.6,1002.3c-8.2-0.8-16.5-0.9-24.8-0.2 M981.6,1002.3l-24.8-0.2
	 M956.9,1002.1c-8.4,0.7-16.8,2.3-24.9,4.8 M956.9,1002.1l-24.9,4.8 M931.9,1006.8c-5.7,1.7-11.3,3.9-16.8,6.5 M931.9,1006.8
	l-16.8,6.5 M915.2,1013.3c-8.1,4.1-15.6,9.7-22,16.5 M915.2,1013.3l-22,16.5 M893.2,1029.8c-5.7,6.1-10.6,13-14.4,20.6
	 M893.2,1029.8l-14.4,20.6 M878.8,1050.4c-2.9,9.3-6.8,18.2-11.4,26.6 M878.8,1050.4l-11.4,26.6 M867.4,1077
	c-4.1,7.5-8.8,14.5-14.1,20.9 M867.4,1077l-14.1,20.9 M853.3,1098c-5.1,6.2-10.5,12.1-16.2,17.6 M853.3,1098l-16.2,17.6
	 M837.1,1115.6l-7.7,7.5 M829.4,1123.1c-6.7,6.2-13.8,11.8-21.2,16.9 M829.4,1123.1l-21.2,16.9 M808.2,1139.9
	c-5.9,4.1-12,7.7-18.2,11 M808.2,1139.9l-18.2,11 M790,1150.9l-14,9 M776,1159.9c-7,4.5-14,9.1-21,13.7 M776,1159.9l-21,13.7
	 M755,1173.7l-17.8,11.9 M737.2,1185.6c-6.9,4.6-13.9,9-21,13.2 M737.2,1185.6l-21,13.2 M716.2,1198.7c-4.7,2.7-9.5,5.4-14.4,8
	 M716.2,1198.7l-14.4,8 M486.1,1317.7c-0.3,0.4-0.5,0.9-0.5,1.4 M486.1,1317.7l-0.5,1.4 M485.6,1319.2c0,1.1,0.3,2.2,0.9,3.1
	c0.6,0.9,1.5,1.5,2.5,1.8 M485.6,1319.2l3.4,4.9 M489,1324.1c0.6,0.3,1.2,0.4,1.9,0.3 M489,1324.1l1.9,0.3 M490.9,1324.4
	c4.7-0.5,9.3-1.7,13.6-3.7 M490.9,1324.4l13.6-3.7 M504.5,1320.7c4.3-1.8,8.6-3.6,12.9-5.2 M504.5,1320.7l12.9-5.2 M517.4,1315.5
	c4.4-1.7,8.8-3.3,13.2-4.9 M517.4,1315.5l13.2-4.9 M530.6,1310.7c2.5-0.9,5-1.8,7.4-2.6L530.6,1310.7z M538.5,1307.8l23.1-8.6
	 M944.4,1164.7l-382.7,134.6l114.3-42.1l41.9-15.3L827,1203 M1726.5,321.8h-0.3l-5.8,1.5c-8.6,2.2-17,5.4-25,9.6l-9.3,6.9
	c-7.2,5.6-13.4,12.6-18.3,20.7c-3.4,5.5-6.3,11.5-8.5,17.7l-4,18.2c-0.9,9.4,0,18.8,2.8,27.7c2.7,9,7.2,17.3,13,24.3
	c2.5,3,5.2,5.9,7.9,8.5c5.7,6.1,11.2,12.4,16.4,19c5.2,6.6,10.1,13.4,14.7,20.5c4.7,7,8.8,14.3,12.8,21.9
	c3.9,7.6,7.5,14.8,10.9,22.4s6.4,15.4,9.2,23.2c1.8,5,3.6,10.1,5.3,15.1v0.6c2,9.3,3.5,18.8,4.3,28.4c0.3,3.6,0.6,7.3,1,10.9
	l-1.3,21.6c-0.7,9.2-2.9,18.3-6.3,26.7c-3.5,8.7-8.6,16.6-15,23c-6.4,6.5-13.9,11.7-22,15.3c-8.2,3.6-17.1,4.8-25.8,3.4
	c-6.7-1-13.2-3.3-19.2-6.8c-5.1,3.2-9.8,7-14.2,11.3c-6.6,6.4-12.2,13.9-16.8,22.1c-1.8,3.3-4,6.4-6.4,9.2c-0.8,0.9-1.8,1.7-2.8,2.3
	c-2.3,1.3-4.5,2.6-6.9,3.6c-8,4.3-16.5,7.6-25.2,9.7c-8.6,2.1-17.4,3.1-26.2,2.8c-3.5-0.1-7.1-0.4-10.6-1
	c-8.3-1.4-16.5-3.4-24.5-6.1c-8-2.7-15.9-6.1-23.5-10c-8.1-4.1-15.9-9-23.3-14.6c6.5,6.1,12.1,13.2,16.8,21
	c4.9,8.2,8.5,17.2,10.8,26.7c2.2,9.1,3.2,18.6,2.9,28.1c-0.3,9.6-2.5,19-6.4,27.5c-3.9,8.7-9.4,16.4-16.2,22.7
	c-6.9,6.5-15.2,11-24.1,13c-8.6,2-17.6,0.9-25.6-3.1c-7.2-3.4-14.1-7.4-20.7-11.9c-7.2-5.2-15.1-9-23.5-11.4
	c-4.2-1.2-8.6-2-12.9-2.4c-2.2,2.6-3.8,5.6-5,8.8c-2.5,7.5-2.4,15.7,0.2,23.1c1.9,5.8,4.8,11.2,8.5,16c2.9,9.3,3.8,19.2,2.5,28.9
	c-1.2,9.3-4.7,18.2-10.1,25.5c-5.5,7.7-12.2,14.2-19.8,19.3c-7.4,5.1-16,7.9-24.8,8.3c-8.5,0.4-17-1.2-24.8-4.7
	c-8.3-3.6-16-8.5-22.9-14.6c-2.9-2.5-5.7-5.3-8.3-8.2l0.3,1.5v0.3c1.3,9.5,1.6,19.1,1,28.6l-0.9,9.6c-2.2,8.8-5.6,17.2-10.1,25
	c-4.7,8.2-10.6,15.5-17.6,21.4c-6.7,5.8-14,10.6-21.8,14.3c-7.2,3.5-14.8,6.3-22.5,8.3c-8.3,2.1-16.9,3.1-25.5,3
	c-7.2-0.1-14.4,0.6-21.5,2.1c-14.8,4.5-28.8,11.9-41.2,21.9c-6.8,5.4-12.7,12-17.6,19.5c-5.1,8-8.8,16.9-10.8,26.4
	c-1.3,7.3-2.7,14.5-4.2,21.6c-0.2,0.7-0.5,1.3-0.9,1.9c-4.8,7-10.8,12.9-17.6,17.4c-15.2,10.2-32.8,15.4-50.7,15.1
	c-8.5-0.1-17-1.4-25.3-3.9l-4-1.2c-8.5-2.2-16.6-5.6-24.2-10.3l-6.2-3.6l-14.3,1.6 M1886.2,35.3c6.4,5.5,12.4,11.6,17.9,18.2
	L1886.2,35.3z M1886.2,35.3c-6.3-5.4-13-10.2-20.1-14.3 M1886.2,35.3L1866.1,21 M1866.1,21c-7-4-14.4-7.5-21.9-10.2 M1866.1,21
	l-21.9-10.2 M1844.2,10.8c-7.2-2.5-14.5-4.6-21.9-6.1 M1548.8,395.6l-11.5,0.4l-10.6,0.4L1548.8,395.6z M1933.5,296.3
	c1.7-9.1,2.1-18.4,1.1-27.7c-1-9.7-3.8-19-8.1-27.5c-2.8-5.5-6-10.8-9.7-15.7L1933.5,296.3z M1334.3,598.1c4,8.5,6.5,17.7,7.4,27.1
	c0.6,5.7,0.6,11.4,0,17L1334.3,598.1z M1483.7,731.9l-13.4-10.2c-7.2-5.9-13.8-12.8-19.4-20.5c-3.1-4.2-5.9-8.6-8.4-13.3
	c-5.1-8.1-9.7-16.7-13.7-25.5c-3.9-8.7-7.3-17.8-10.1-27l-1-3.2L1483.7,731.9z M1943.2,172.2c4.1-8.4,6.6-17.6,7.2-27.1
	c0.8-9.3-0.3-18.6-3.4-27.3c-2.9-8.2-6.7-16.1-11.2-23.5c-4.9-8.1-10.2-15.8-15.9-23.1c-5-6.2-10.1-12.3-15.7-18L1943.2,172.2z
	 M1904.2,53.4c8.1-2.7,16.6-3.8,25.1-3.3c8.8,0.5,17.3,3.2,25.1,7.7c7,4.1,13.4,9.3,19.1,15.3c6.5,6.8,12,14.6,16.6,23.1
	c4.3,8.2,7.5,17.1,9.7,26.3c2,8.9,3.2,17.9,3.7,27c0.4,8.9,0.1,17.8-1,26.6c-1,9-2.8,17.8-5.3,26.4c-2.4,8.6-5.4,17-8.8,25.2
	c-3.4,8.2-7.2,16.1-11.5,23.8c-4.5,8-9.6,15.5-15.4,22.4c-2.4,2.9-5,5.7-7.8,8.3c-5.4,4.9-11.3,9.2-17.5,12.7l-2.7,1.5
	c-0.4,1.1-0.8,2.2-1.2,3.3c-3.1,8.1-7.5,15.6-12.9,22.2c-5.7,6.9-12.4,12.8-19.9,17.3c-7.7,4.7-16,8.2-24.6,10.4
	c-8.6,2.2-17.4,3.1-26.2,2.6c-8.4-0.4-16.7-1.6-24.8-3.6c-8.1-2-16-4.8-23.7-8.2c-7.8-3.5-15.3-7.6-22.5-12.4l-0.9-0.3l-0.8-0.3
	c-8.3-2.8-16.8-4.7-25.4-5.5c-7.7-0.7-15.4-0.7-23.2,0L1904.2,53.4z"/>
</svg>
