<svg width="1181" height="2013" viewBox="0 0 1181 2013" fill="none" xmlns="http://www.w3.org/2000/svg">
<g style="mix-blend-mode:soft-light" opacity="0.58">
<g style="mix-blend-mode:soft-light" opacity="0.58">
<path d="M188.842 1003.25L164.994 982.961C151.31 1007.75 139.562 1033.75 129.875 1060.67C127.527 1067.35 125.213 1073.99 122.831 1080.56V1081.4L131.988 1068.74C149.173 1045.11 168.256 1023.2 189.01 1003.25" fill="#89CFD9"/>
</g>
<g style="mix-blend-mode:soft-light" opacity="0.58">
<path d="M816.65 1441.47C803.408 1425.62 791.893 1408.16 782.336 1389.44C768.379 1362.52 759.005 1333.08 754.664 1302.53L745.708 1303.34C740.71 1303.12 735.645 1302.86 730.715 1302.72C702.484 1301.87 674.262 1304.72 646.658 1311.22C619.443 1317.52 593.117 1327.73 568.371 1341.57C543.143 1355.7 519.609 1373.15 498.302 1393.53C519.608 1411.36 539.779 1430.74 558.677 1451.54C573.756 1468.13 587.924 1485.67 601.108 1504.08C617.118 1494.81 633.616 1486.57 650.516 1479.41C675.699 1468.7 701.618 1460.16 728.031 1453.87L816.65 1441.47Z" fill="#89CFD9"/>
</g>
<g style="mix-blend-mode:soft-light" opacity="0.58">
<path d="M852.137 1004.27L854.116 1002.26C844.418 977.058 832.167 953.109 817.589 930.86C802.114 907.046 783.847 885.533 763.251 866.865C742.561 847.492 719.774 830.939 695.395 817.573C671.2 804.092 645.9 793.099 619.825 784.737C594.144 776.28 567.749 770.645 541.034 767.917C514.219 765 487.229 764.451 460.332 766.275C434.369 768.055 408.522 771.453 382.917 776.455C357.254 781.499 331.868 788.088 306.877 796.193C281.81 804.509 257.337 814.814 233.655 827.023C210.274 839.155 187.839 853.334 166.57 869.419C145.168 885.672 124.98 903.74 106.195 923.453L164.994 982.96L188.842 1003.25C201.186 994.587 213.574 985.976 226.007 977.415C242.353 966.223 259.491 956.463 277.259 948.227C303.708 936.098 331.416 927.521 359.773 922.687C385.931 918.176 412.458 916.733 438.899 918.382C491.505 921.773 543.037 936.024 590.744 960.376C615.238 972.857 638.521 987.977 660.243 1005.51C683.242 1024.03 703.863 1045.81 721.558 1070.27C739.474 1095.19 754.439 1122.47 766.102 1151.45V1150.54L766.806 1148.68V1148.38L767.175 1147.33C776.358 1122.31 787.583 1098.25 800.717 1075.41C815.428 1049.81 832.646 1026.02 852.07 1004.45" fill="#89CFD9"/>
</g>
<g style="mix-blend-mode:soft-light" opacity="0.58">
<path d="M1052.59 1494.41C1041.45 1499.13 1030.08 1503.18 1018.54 1506.56C991.621 1514.64 963.443 1516.5 935.825 1511.99C908.391 1507.74 882.13 1497.07 858.846 1480.73L783.074 1591.79C779.552 1597.55 775.963 1603.35 772.307 1609.12C758.6 1631.33 746.036 1654.35 734.673 1678.07C722.198 1704.06 711.947 1731.23 704.049 1759.25C696.214 1787.43 690.68 1816.31 687.513 1845.54L702.976 1809.06L687.513 1845.54L673.224 1879.14C663.509 1908.73 659.835 1940.27 662.457 1971.56C664.655 1999.38 673.123 2026.19 687.11 2049.6C702.273 2075.68 721.877 2098.37 744.87 2116.44C767.737 2134.66 794.12 2146.98 822.017 2152.45C835.53 2155.05 849.256 2156.12 862.972 2155.63C856.912 2137.24 851.187 2118.67 845.798 2099.91C837.822 2071.8 832.12 2042.97 828.759 2013.77C825.289 1984.75 824.267 1955.44 825.706 1926.21C826.965 1896.96 830.579 1867.9 836.507 1839.34C847.876 1783.75 868.497 1730.89 897.352 1683.36C911.733 1659.59 927.356 1636.74 944.144 1614.92C960.669 1593.34 978.01 1572.5 996.167 1552.38C1014.32 1532.27 1033.13 1512.94 1052.59 1494.41Z" fill="#89CFD9"/>
</g>
<g style="mix-blend-mode:soft-light" opacity="0.58">
<path d="M1023.07 814.618C1037.09 788.014 1047.54 759.362 1054.09 729.535C1060.63 699.568 1063.34 668.765 1062.14 637.994C1061.07 608.219 1055.4 578.853 1045.37 551.123C1035.94 524.851 1022.57 500.464 1005.79 478.955C1003.55 476.146 1001.2 473.337 998.918 470.6C977.469 452.045 953.473 437.271 927.808 426.818C900.998 416.03 872.525 410.976 843.953 411.932C825.352 412.548 806.84 414.99 788.642 419.229C768.785 416.797 748.928 415.423 729.071 415.106C702.374 414.534 675.675 416.181 649.208 420.032C622.542 423.899 596.245 429.117 570.317 435.501C542.305 442.798 512.82 439.022 487.132 424.848C462.781 411.494 437.971 399.333 412.702 388.363C388.805 378.246 363.263 373.529 337.635 374.498C308.986 375.327 280.999 384.052 256.296 399.856C231.608 415.321 207.692 432.201 184.65 450.424C161.237 468.739 138.44 487.967 116.257 508.107C95.1257 527.566 74.7209 547.73 55.0429 568.599C36.9973 587.863 19.656 607.748 3.0191 628.252C3.53421 656.731 6.20424 685.115 11.0021 713.117C15.9395 740.715 23.2156 767.756 32.7374 793.895C43.0811 822.903 56.2368 850.63 71.9817 876.606C82.0346 893.335 93.4876 909.017 106.195 923.453C124.996 903.76 145.183 885.694 166.57 869.419C187.84 853.345 210.275 839.179 233.655 827.059C257.365 814.855 281.873 804.575 306.978 796.303C331.969 788.198 357.355 781.608 383.018 776.564C408.622 771.563 434.47 768.164 460.433 766.385C487.263 764.594 514.182 765.131 540.934 767.99C567.658 770.745 594.064 776.391 619.758 784.846C645.833 793.208 671.133 804.201 695.328 817.683C719.717 831.023 742.525 847.538 763.251 866.865C783.838 885.488 802.105 906.952 817.589 930.714C832.199 953.006 844.473 977.004 854.183 1002.26L856.397 999.853C879.246 984.422 900.937 967.05 921.268 947.898C941.304 928.963 959.953 908.36 977.048 886.275C994.266 863.883 1009.66 839.908 1023.07 814.618Z" fill="#7565AB"/>
</g>
<g style="mix-blend-mode:soft-light" opacity="0.58">
<path d="M782.705 81.9615C761.047 65.8845 738.101 51.9638 714.145 40.3685C689.582 28.4544 664.015 19.156 637.804 12.6033C610.637 5.85863 582.755 3.15839 554.921 4.57662C526.006 6.20721 497.443 12.2246 470.059 22.4543C445.981 31.4109 423.158 43.9468 402.237 59.7056C379.072 77.0461 359.734 99.7631 345.618 126.218C331.997 151.755 322.661 179.725 318.047 208.82C341.101 200.137 364.447 192.609 388.083 186.236C415.699 178.972 443.705 173.586 471.938 170.109C497.792 166.851 523.896 166.655 549.789 169.526C576.982 172.79 603.129 182.773 626.231 198.714C650.321 214.345 671.074 235.377 687.11 260.41C712.996 256.429 739.209 255.597 765.263 257.929C790.717 260.089 815.822 265.702 839.995 274.639C867.091 284.516 892.898 298.165 916.773 315.247C939.903 331.806 961.061 351.414 979.765 373.623C983.656 377.928 987.379 382.38 991.035 387.05C988.231 374.787 984.701 362.734 980.47 350.966C970.555 323.03 958.27 296.158 943.775 270.699C929.797 246.275 914.438 222.819 897.788 200.465C881.106 178.064 863.184 156.79 844.121 136.762C825.178 116.506 804.564 98.1861 782.538 82.0344L782.705 81.9615ZM1938.26 3818.51C1944.33 3791.68 1948 3764.27 1949.23 3736.67C1950.65 3706.9 1948.62 3677.05 1943.2 3647.83C1937.67 3617.54 1927.27 3588.56 1912.47 3562.2C1898.57 3537.08 1881.4 3514.28 1861.49 3494.52C1834.74 3496.84 1808.33 3502.54 1782.8 3511.49C1757.42 3520.39 1733.15 3532.64 1710.51 3547.97C1687.02 3563.82 1664.87 3581.89 1644.3 3601.97C1624.18 3621.67 1604.7 3642.24 1585.87 3663.67C1567.04 3685.09 1549 3707.17 1531.73 3729.89C1514 3753.41 1497.67 3778.13 1482.83 3803.92C1467.93 3829.88 1454.9 3857.05 1443.85 3885.2C1442.65 3888.27 1441.41 3891.37 1440.2 3894.62C1467.71 3897.08 1494.6 3904.88 1519.59 3917.64C1545.3 3930.4 1568.01 3949.32 1586.04 3972.99C1604.6 3996.96 1618.78 4024.58 1627.8 4054.35C1650.25 4039.39 1673.62 4026.13 1697.73 4014.65C1721.58 4003.13 1746.16 3993.51 1771.29 3985.87C1797.94 3977.58 1825.38 3972.68 1853.07 3971.27C1863.23 3970.76 1873.41 3971.1 1883.52 3972.29C1889.85 3948.1 1898.49 3924.69 1909.32 3902.46C1922.09 3875.87 1931.81 3847.68 1938.26 3818.51ZM549.621 169.672C523.728 166.801 497.625 166.997 471.77 170.255C443.538 173.732 415.532 179.118 387.915 186.382C364.234 192.779 340.889 200.307 317.879 208.966C292.662 216.591 268.07 226.476 244.355 238.519C220.958 250.325 198.613 264.456 177.606 280.732C156.842 296.756 137.343 314.635 119.31 334.183C102.231 352.727 86.2657 372.445 71.5122 393.216C92.2859 375.119 113.529 357.631 135.242 340.75C156.955 323.87 179.071 307.78 201.588 292.48C224.387 276.969 248.097 263.099 272.564 250.96C297.837 238.305 325.057 230.881 352.83 229.069C380.388 227.145 408.029 231.023 434.236 240.489C460.623 250.219 487.334 258.732 514.369 266.029C541.289 273.501 568.933 277.445 596.714 277.777C624.6 278.189 652.349 273.477 678.792 263.84C681.475 262.709 684.159 261.651 686.943 260.738C670.927 235.669 650.185 214.6 626.097 198.933C602.995 182.992 576.848 173.008 549.655 169.745" fill="#F29666"/>
</g>
<g style="mix-blend-mode:soft-light" opacity="0.58">
<path d="M1696.09 5220.74C1668.53 5224.92 1641.73 5233.74 1616.66 5246.9C1607.67 5251.61 1598.65 5256.42 1589.83 5261.27C1590.9 5280.14 1592.11 5298.96 1593.18 5317.75C1594.97 5346.07 1596.85 5374.41 1598.82 5402.8C1600.7 5427.12 1602.55 5451.31 1604.39 5475.37C1606.49 5503.51 1607.9 5531.65 1608.61 5559.79C1608.95 5578.28 1608.95 5597 1608.61 5615.95C1635.92 5611.28 1663.66 5610.32 1691.19 5613.1C1702.13 5614.12 1713.1 5615.33 1724.06 5616.75L1779.64 5221.54C1751.96 5216.8 1723.77 5216.58 1696.02 5220.89L1696.09 5220.74ZM1726.75 2872.96C1748.14 2858.75 1768.57 2842.9 1787.9 2825.53C1809.95 2806.37 1825.78 2780.03 1833.08 2750.37C1840.86 2719.78 1841.17 2687.51 1833.98 2656.75C1827.17 2626.7 1814.84 2598.47 1797.72 2573.75C1780.78 2549.23 1759.31 2528.84 1734.7 2513.87C1710.23 2499.19 1683.92 2488.45 1656.61 2481.99C1628.44 2475.25 1599.46 2473.51 1570.78 2476.84C1543.52 2479.96 1516.8 2487.21 1491.38 2498.37L1444.89 2525.7C1418.85 2539.59 1391.33 2549.94 1362.95 2556.49C1347.46 2559.92 1331.77 2562.15 1315.99 2563.17C1287.29 2567.41 1258.34 2569.29 1229.39 2568.78C1200.7 2568.41 1172.07 2565.81 1143.72 2561.01C1140.36 2560.5 1137.28 2560.03 1133.89 2559.63C1116.93 2547.52 1098.96 2537.17 1080.22 2528.72C1055.36 2517.75 1029.2 2510.65 1002.51 2507.64C976.555 2504.62 950.368 2504.95 924.488 2508.62C895.804 2512.58 867.497 2519.28 839.895 2528.65C812.316 2538.03 785.409 2549.6 759.393 2563.27C758.493 2594.61 762.788 2625.87 772.072 2655.55C780.855 2684.14 794.688 2710.58 812.793 2733.4C831.542 2757.23 853.832 2777.47 878.736 2793.28C903.63 2809.14 931.512 2818.65 960.277 2821.08C987.364 2823.51 1014.63 2820.62 1040.78 2812.54L1050.61 2809.59C1036.58 2799.58 1021.6 2791.25 1005.93 2784.74C979.745 2774.02 951.993 2768.56 924.018 2768.61C951.993 2768.56 979.745 2774.02 1005.93 2784.74C1021.6 2791.25 1036.58 2799.58 1050.61 2809.59L1107.63 2851.58C1131.23 2865.41 1155.62 2877.6 1180.65 2888.07C1205.39 2898.23 1230.67 2906.78 1256.35 2913.68C1283.74 2920.95 1311.54 2926.22 1339.57 2929.44C1368.13 2932.69 1396.9 2933.16 1425.54 2930.86C1450.46 2928.96 1475.28 2926.34 1500.07 2923.2C1528.85 2919.53 1557.42 2915.1 1585.77 2909.92C1612.47 2905.05 1639.07 2899.22 1665.57 2892.41C1686.26 2887.08 1706.66 2880.49 1726.68 2872.67L1726.75 2872.96ZM996.234 1552.49C978.077 1572.63 960.724 1593.45 944.177 1614.95C927.42 1636.85 911.81 1659.75 897.419 1683.55C868.548 1731.01 847.936 1783.84 836.607 1839.41C830.685 1867.98 827.06 1897.06 825.773 1926.32C824.365 1955.55 825.398 1984.86 828.859 2013.88C832.255 2043.09 837.956 2071.92 845.899 2100.06C851.31 2118.76 857.035 2137.32 863.072 2155.74C892.127 2155.03 920.841 2148.77 947.9 2137.24C974.234 2125.95 998.473 2109.57 1019.45 2088.9C1039.8 2069.18 1057.97 2046.94 1073.58 2022.64C1088.84 1998.82 1102.06 1973.54 1113.1 1947.11C1124.37 1920.39 1132.88 1892.38 1138.45 1863.6C1144.12 1833.62 1159.12 1806.67 1180.92 1787.31C1188.84 1780.35 1197.71 1774.78 1207.21 1770.78C1214.72 1740.89 1225.26 1712 1238.64 1684.64C1251.87 1657.52 1268.07 1632.23 1286.88 1609.34C1303.85 1588.6 1322.25 1569.31 1341.92 1551.62C1363.73 1531.76 1386.6 1513.32 1410.41 1496.41C1430.83 1481.97 1451.84 1468.42 1473.44 1455.77C1457.78 1453.92 1442 1452.17 1426.08 1450.52C1401.34 1447.74 1376.53 1446.05 1351.65 1445.44C1326.76 1444.84 1301.87 1445.27 1276.98 1446.76C1251.69 1448.07 1226.46 1450.72 1201.28 1454.71C1176.1 1458.7 1151.09 1464.08 1126.24 1470.84C1101.47 1477.53 1076.87 1485.35 1052.45 1494.3C1033.02 1513 1014.26 1532.4 996.167 1552.49" fill="#57BA8D"/>
</g>
<g style="mix-blend-mode:soft-light" opacity="0.58">
<path d="M816.65 1441.47L728.032 1453.73C701.613 1460 675.693 1468.54 650.516 1479.27C633.616 1486.43 617.118 1494.66 601.108 1503.93C617.119 1527.95 630.937 1553.61 642.365 1580.55C653.792 1606.95 662.553 1634.62 668.494 1663.08C674.629 1692.19 678.29 1721.86 679.429 1751.7C680.591 1781.13 680.008 1810.61 677.685 1839.96C676.634 1853 675.181 1866.01 673.325 1879L687.613 1845.4C690.76 1816.15 696.305 1787.28 704.183 1759.11C712.062 1731.1 722.29 1703.94 734.74 1677.97C746.119 1654.23 758.694 1631.2 772.408 1608.97C776.064 1603.21 779.653 1597.41 783.175 1591.64L858.947 1480.58L816.65 1441.47Z" fill="#5869B0"/>
</g>
<g style="mix-blend-mode:soft-light" opacity="0.58">
<path d="M1881.28 4131.59C1855.82 4127.73 1829.99 4127.82 1804.57 4131.88C1776.83 4136.26 1749.91 4145.43 1724.84 4159.06C1702.12 4171.31 1680.19 4185.22 1659.19 4200.69C1645.51 4210.86 1631.63 4220.72 1617.57 4230.28C1608.84 4258.56 1596.66 4285.45 1581.38 4310.22C1579.26 4313.87 1577.08 4317.22 1574.97 4320.8C1558.15 4341.52 1541.03 4362.2 1523.58 4382.82C1505.95 4403.69 1490.1 4426.26 1476.22 4450.25C1462.05 4474.6 1449.83 4500.23 1439.7 4526.87C1421.92 4573.27 1411.49 4622.62 1408.87 4672.81C1429.68 4655.03 1451.58 4638.82 1474.41 4624.28C1497.11 4610.02 1520.76 4597.6 1545.15 4587.14C1572 4575.65 1599.79 4566.93 1628.13 4561.09C1656.05 4555.33 1684.49 4553.24 1712.86 4554.85C1739.21 4556.35 1765.36 4560.77 1790.88 4568.06C1816.65 4575.6 1841.44 4586.63 1864.67 4600.89C1889.05 4616.46 1911.19 4635.83 1930.38 4658.4C1936.19 4665.22 1941.59 4672.11 1946.72 4679.05L1955.71 4668.32C1974.13 4646.25 1989.9 4621.73 2002.67 4595.35C2015.89 4568.1 2025.5 4538.95 2031.21 4508.77C2037.09 4478.25 2038.84 4446.95 2036.41 4415.88C2034.44 4388.08 2027.6 4360.95 2016.28 4335.94C2015.31 4333.88 2014.01 4332.02 2012.46 4330.43C1995.69 4315.5 1978.85 4300.71 1961.95 4286.07C1939.93 4266.17 1921.65 4241.85 1908.08 4214.45C1895.15 4188.49 1886.22 4160.4 1881.65 4131.3L1881.28 4131.59ZM761.474 1171.52C762.95 1164.73 764.493 1158.02 766.103 1151.27C754.396 1122.4 739.445 1095.21 721.592 1070.34C703.882 1045.86 683.25 1024.06 660.244 1005.51C638.522 987.896 615.214 972.726 590.677 960.23C566.982 948.083 542.272 938.431 516.885 931.407C491.354 924.343 465.264 919.932 438.966 918.236C412.514 916.608 385.978 918.051 359.807 922.541C331.442 927.461 303.726 936.085 277.26 948.227C259.508 956.452 242.392 966.213 226.075 977.415C213.53 985.989 201.186 994.563 188.843 1003.25C168.089 1023.19 149.006 1045.11 131.821 1068.74C128.769 1072.9 125.75 1077.13 122.664 1081.4V1082.02C121.367 1113.6 127.23 1145.05 139.737 1173.6C151.638 1201.27 170.178 1224.94 193.405 1242.11C216.47 1259.63 241.436 1273.98 267.734 1284.84C292.667 1295.32 317.768 1304.83 343.036 1313.37C368.658 1321.8 393.661 1332.31 417.835 1344.82C442.231 1357.13 465.861 1371.15 488.575 1386.81L498.269 1393.53C519.577 1373.15 543.11 1355.7 568.338 1341.57C593.085 1327.73 619.41 1317.52 646.626 1311.22C674.232 1304.74 702.452 1301.89 730.682 1302.72L745.675 1303.34L754.631 1302.53L750.505 1263.17C750.997 1232.27 754.665 1201.53 761.44 1171.52" fill="#B273AE"/>
</g>
<g style="mix-blend-mode:soft-light" opacity="0.58">
<path d="M1590.47 6445.18C1590.89 6446.03 1591.49 6446.76 1592.21 6447.33C1594.49 6448.67 1597.11 6449.15 1599.67 6448.69C1602.22 6448.24 1604.57 6446.87 1606.33 6444.81C1607.51 6443.66 1608.41 6442.22 1608.98 6440.62C1614.38 6425.7 1617.84 6410.03 1619.25 6394.06C1620.65 6378.27 1622.36 6362.1 1624.34 6346.12C1626.32 6330.14 1628.4 6313.94 1630.62 6298.07C1631.89 6289.1 1633.17 6280.12 1634.47 6271.29C1634.48 6271.13 1634.48 6270.98 1634.47 6270.82C1634.42 6270.45 1634.42 6270.08 1634.47 6269.72L1645.41 6185.44C1645.36 6185.23 1645.36 6185 1645.41 6184.79L1700.22 5768.86L1720.74 5616.31L1776.59 5220.89L1792.09 5066.19C1793.03 5058.13 1793.9 5050.03 1794.84 5041.93C1797.92 5015.4 1801.81 4988.66 1806.38 4962.39C1811.04 4934.99 1816.77 4907.66 1823.48 4880.74C1830.19 4853.81 1837.74 4826.56 1846.16 4800.03C1846.22 4799.81 1846.31 4799.6 1846.43 4799.41C1846.4 4799.2 1846.4 4799 1846.43 4798.79L1859.84 4761.03L1832 4779.27C1831.62 4779.56 1831.19 4779.77 1830.73 4779.87C1830.28 4779.97 1829.81 4779.96 1829.35 4779.85C1828.77 4779.69 1828.25 4779.34 1827.85 4778.85C1827.44 4778.36 1827.18 4777.75 1827.09 4777.11C1827.01 4776.46 1827.09 4775.8 1827.34 4775.2C1827.6 4774.61 1828 4774.11 1828.51 4773.76L1828.88 4773.54L1832.61 4771.21L1864.17 4750.59L1882.92 4736.91C1905.88 4720.26 1926.55 4700.14 1944.3 4677.15L1953.39 4666.2C1971.54 4644.36 1987.1 4620.12 1999.71 4594.07C2012.83 4567.08 2022.35 4538.2 2027.99 4508.3C2033.81 4478.1 2035.56 4447.14 2033.19 4416.39C2031.11 4389 2024.29 4362.28 2013.06 4337.65C2012.26 4335.99 2011.22 4334.48 2009.98 4333.17C1993.21 4318.32 1976.27 4303.43 1959.66 4288.95C1937.34 4268.73 1918.8 4244.03 1905.06 4216.2C1891.96 4190 1882.9 4161.66 1878.22 4132.28C1869.91 4078.98 1870.69 4024.48 1880.5 3971.49C1880.5 3971.49 1880.5 3971.27 1880.5 3971.23C1886.93 3946.82 1895.64 3923.19 1906.5 3900.71C1919.13 3874.53 1928.77 3846.76 1935.21 3818.03C1941.25 3791.39 1944.89 3764.16 1946.08 3736.75C1947.5 3707.27 1945.49 3677.71 1940.11 3648.78C1934.66 3618.9 1924.45 3590.29 1909.92 3564.24C1896.18 3539.45 1879.23 3516.93 1859.61 3497.37C1851.69 3491.89 1843.84 3486.42 1836.13 3480.95C1812.09 3465.51 1786.66 3452.8 1760.22 3443.04L1759.32 3442.71L1756.33 3441.87L1752.98 3443.41C1728.41 3456.14 1702.74 3466.16 1676.33 3473.32C1649.83 3480.53 1622.75 3484.94 1595.46 3486.49C1591.84 3486.49 1588.25 3486.82 1584.76 3487.08C1556.28 3490.7 1527.51 3491.01 1498.96 3487.99C1473.66 3485.13 1448.69 3479.54 1424.4 3471.32H1424.03L1361.21 3439.87C1360.84 3439.69 1360.51 3439.43 1360.24 3439.12C1359.96 3438.8 1359.75 3438.43 1359.61 3438.02C1359.47 3437.61 1359.4 3437.18 1359.42 3436.74C1359.43 3436.31 1359.53 3435.88 1359.7 3435.49C1360.05 3434.71 1360.66 3434.1 1361.41 3433.8C1362.16 3433.5 1362.99 3433.53 1363.72 3433.88L1426.38 3465.22C1450.28 3473.26 1474.85 3478.72 1499.73 3481.53C1527.86 3484.48 1556.2 3484.17 1584.26 3480.58H1584.46L1595.26 3479.93C1622.09 3478.37 1648.71 3474 1674.76 3466.86C1700.78 3459.78 1726.1 3449.9 1750.33 3437.39L1754.69 3435.49L1755.02 3435.31C1766.18 3431.76 1777.1 3427.37 1787.69 3422.17C1813.37 3409.54 1837.2 3392.89 1858.43 3372.73C1878.63 3353.57 1894.84 3329.94 1905.96 3303.41C1917.53 3276.1 1922.33 3245.98 1919.88 3216.03C1917.54 3185.4 1910.19 3155.48 1898.18 3127.66C1886.72 3100.9 1868.97 3077.89 1846.73 3060.97C1823.67 3043.24 1797.15 3031.57 1769.25 3026.85C1751.31 3031.3 1732.81 3032.37 1714.54 3030.03C1690.55 3027.37 1668.27 3015.34 1651.81 2996.17C1644.55 2987.7 1638.86 2977.79 1635.04 2966.98C1634.88 2966.51 1634.82 2966 1634.86 2965.49C1634.9 2964.99 1635.04 2964.5 1635.28 2964.06C1642.62 2950.78 1651.1 2938.29 1660.6 2926.74C1679.2 2904.12 1701.04 2884.93 1725.27 2869.9C1746.53 2855.84 1766.84 2840.16 1786.05 2822.98C1807.56 2804.19 1823.04 2778.46 1830.26 2749.5C1837.88 2719.45 1838.2 2687.77 1831.16 2657.55C1824.43 2627.94 1812.27 2600.1 1795.41 2575.72C1778.7 2551.6 1757.57 2531.52 1733.36 2516.76C1709.16 2502.27 1683.18 2491.64 1656.21 2485.2C1628.35 2478.57 1599.7 2476.86 1571.35 2480.13C1544.35 2483.23 1517.88 2490.39 1492.69 2501.4L1446.34 2528.61C1420.03 2542.64 1392.24 2553.1 1363.59 2559.77C1347.97 2563.17 1332.16 2565.4 1316.26 2566.45C1287.44 2570.72 1258.37 2572.61 1229.28 2572.1C1200.45 2571.67 1171.68 2569.07 1143.18 2564.3C1140.06 2563.82 1136.81 2563.28 1133.49 2562.87C1132.7 2562.76 1131.98 2562.31 1131.48 2561.63C1130.98 2560.95 1130.74 2560.09 1130.81 2559.23C1130.91 2558.37 1131.33 2557.59 1131.95 2557.06C1132.58 2556.53 1133.37 2556.29 1134.16 2556.38C1137.51 2556.78 1140.87 2557.26 1144.02 2557.8C1172.24 2562.51 1200.73 2565.1 1229.28 2565.54C1258.11 2566.05 1286.93 2564.16 1315.49 2559.88H1315.72C1331.35 2558.86 1346.9 2556.66 1362.25 2553.28C1390.38 2546.8 1417.67 2536.54 1443.48 2522.74L1489.84 2495.52C1515.21 2480.99 1539.35 2464.05 1561.99 2444.92C1583.02 2427.14 1602.93 2407.83 1621.56 2387.13C1640.19 2366.24 1657.36 2343.86 1672.91 2320.18C1679.45 2310.28 1685.4 2299.93 1690.72 2289.2C1703.89 2262.36 1714.03 2233.89 1720.91 2204.41C1727.86 2174.4 1731.48 2143.59 1731.71 2112.65C1732.01 2103.71 1732.11 2094.81 1731.95 2086.01C1731.87 2082.27 1731.23 2078.58 1730.03 2075.07C1726.2 2063.72 1721.29 2052.84 1715.38 2042.6C1700.29 2016.07 1688.85 1987.3 1681.4 1957.19C1676.38 1937.11 1673.34 1916.52 1672.34 1895.74C1672.32 1895.19 1672.42 1894.63 1672.64 1894.13C1672.87 1893.62 1673.2 1893.19 1673.62 1892.86C1691.13 1879.55 1706.34 1862.99 1718.56 1843.94C1734.43 1819.2 1744.03 1790.36 1746.4 1760.31C1748.66 1730.28 1745.86 1700.05 1738.15 1671.11C1730.7 1642.27 1717.76 1615.46 1700.18 1592.41C1683.1 1569.7 1662.7 1550.2 1639.81 1534.69L1585.07 1499.63C1575 1495.36 1565.14 1491.16 1555.15 1486.93C1528.92 1475.75 1502.02 1466.52 1474.65 1459.31L1472.97 1458.87C1457.47 1456.97 1441.57 1455.22 1425.84 1453.65C1401.32 1450.88 1376.37 1449.17 1351.68 1448.58C1326.99 1448 1302.04 1448.58 1277.22 1449.9C1252.4 1451.21 1226.74 1453.87 1201.78 1457.81C1176.82 1461.75 1151.74 1467.26 1127.01 1473.83C1102.29 1480.4 1077.74 1488.42 1053.59 1497.25C1042.43 1502.02 1031.06 1506.16 1019.51 1509.66C992.217 1517.82 963.657 1519.7 935.657 1515.17C907.747 1510.85 881.021 1500.04 857.303 1483.46L856.967 1483.17L814.671 1443.95C814.364 1443.63 814.072 1443.28 813.799 1442.93C800.674 1427.07 789.232 1409.65 779.686 1391.01C765.567 1363.74 756.069 1333.93 751.645 1303.01L747.553 1263.49C747.536 1263.36 747.536 1263.23 747.553 1263.09C748.02 1231.94 751.699 1200.94 758.521 1170.68C759.964 1164 761.54 1157.21 763.15 1150.54V1149.77C763.263 1149.19 763.492 1148.64 763.821 1148.16C763.847 1147.65 763.985 1147.15 764.223 1146.71C764.252 1146.48 764.308 1146.26 764.391 1146.05C773.577 1120.87 784.802 1096.64 797.933 1073.63C812.831 1047.7 830.3 1023.64 850.024 1001.86L854.183 997.518C854.365 997.337 854.555 997.166 854.754 997.007C877.542 981.717 899.168 964.465 919.423 945.417C939.386 926.599 957.948 906.091 974.935 884.086C991.971 861.877 1007.18 838.083 1020.38 812.976C1034.28 786.634 1044.64 758.265 1051.14 728.732C1057.62 699.089 1060.34 668.621 1059.23 638.176C1058.09 608.753 1052.42 579.745 1042.46 552.363C1033.16 526.41 1019.97 502.317 1003.41 481.071C1001.23 478.408 999.018 475.672 996.704 473.008C975.554 454.828 951.924 440.352 926.668 430.102C900.189 419.511 872.085 414.557 843.886 415.508C825.463 416.141 807.13 418.583 789.112 422.805C788.329 422.991 787.511 422.835 786.833 422.371C786.156 421.907 785.673 421.172 785.489 420.324C785.32 419.453 785.476 418.545 785.923 417.799C786.369 417.053 787.07 416.531 787.871 416.347C806.242 412.028 824.933 409.512 843.718 408.831C872.7 407.903 901.576 413.031 928.781 423.936C952.801 433.734 975.395 447.251 995.865 464.069C995.865 462.792 995.865 461.588 995.865 460.421C995.669 436.13 992.991 411.938 987.882 388.29C985.121 376.17 981.625 364.261 977.417 352.644C967.586 324.847 955.391 298.109 940.99 272.778C927.171 248.488 911.981 225.154 895.507 202.909C878.925 180.607 861.104 159.43 842.142 139.498C823.324 119.378 802.857 101.169 780.994 85.0988C759.482 69.1286 736.693 55.2938 712.904 43.7612C688.497 31.9727 663.114 22.7368 637.099 16.1784C610.184 9.50613 582.561 6.84269 554.988 8.26118C526.415 9.88713 498.191 15.843 471.132 25.9565C447.315 34.8293 424.74 47.2424 404.048 62.8429C381.226 79.9646 362.195 102.398 348.335 128.516C335.746 152.066 326.869 177.741 322.071 204.478C343.471 196.561 365.441 189.556 387.411 183.682C415.104 176.374 443.188 170.951 471.501 167.446C497.57 164.205 523.883 164.009 549.99 166.862C577.648 170.217 604.238 180.386 627.741 196.597C652.177 212.462 673.227 233.805 689.492 259.206C689.723 259.559 689.887 259.96 689.975 260.383C690.063 260.806 690.073 261.244 690.004 261.672C689.935 262.099 689.79 262.508 689.575 262.873C689.36 263.239 689.081 263.555 688.754 263.803C688.086 264.293 687.269 264.484 686.475 264.334C685.681 264.185 684.971 263.707 684.494 263C668.698 238.362 648.28 217.646 624.588 202.216C601.835 186.525 576.093 176.68 549.319 173.429C523.659 170.595 497.793 170.791 472.172 174.013C444.121 177.506 416.296 182.879 388.854 190.103C365.374 196.415 341.895 203.931 319.22 212.541H318.952C293.889 220.056 269.443 229.819 245.864 241.729C222.645 253.46 200.469 267.493 179.618 283.651C158.929 299.557 139.497 317.314 121.523 336.736C104.567 355.102 88.6928 374.611 73.9939 395.149L56.2166 425.395C56.1045 425.607 55.9694 425.803 55.8141 425.979L40.8878 456.59C29.1705 484.804 20.3189 514.325 14.4902 544.628C9.29546 571.75 6.4876 599.348 6.10466 627.048V628.435C6.64522 656.653 9.28126 684.777 13.9871 712.533C18.8873 739.954 26.1072 766.824 35.5546 792.8C45.863 821.552 58.9271 849.043 74.5306 874.818C84.5126 891.322 95.8637 906.795 108.442 921.045L166.939 980.37L190.72 1000.73C191.055 1001 191.335 1001.34 191.543 1001.73C191.751 1002.12 191.882 1002.55 191.93 1003C191.977 1003.45 191.938 1003.9 191.817 1004.33C191.696 1004.77 191.493 1005.17 191.224 1005.51C190.717 1006.18 189.99 1006.62 189.195 1006.72C188.401 1006.82 187.6 1006.58 186.964 1006.06L165.832 988.032C152.981 1011.68 141.909 1036.43 132.726 1062.02C130.412 1068.59 128.097 1075.19 125.749 1081.69V1082.46C124.514 1113.45 130.272 1144.3 142.52 1172.32C154.176 1199.43 172.304 1222.65 195.014 1239.56C217.928 1256.91 242.71 1271.13 268.806 1281.92C293.561 1292.24 318.818 1301.84 343.941 1310.34C369.751 1318.86 394.944 1329.46 419.31 1342.05C443.793 1354.44 467.532 1368.5 490.386 1384.15C493.74 1386.45 496.826 1388.64 500.079 1390.83C500.154 1390.92 500.245 1390.99 500.348 1391.05C521.742 1409.02 542.013 1428.52 561.025 1449.42C576.165 1466.13 590.41 1483.77 603.691 1502.25C619.832 1526.49 633.773 1552.37 645.317 1579.53C656.796 1606.16 665.623 1634.04 671.647 1662.71C677.8 1692.02 681.471 1721.88 682.615 1751.92C683.794 1781.49 683.212 1811.12 680.871 1840.62C680.469 1846.38 679.899 1852.18 679.261 1857.95L700.527 1807.89C700.693 1807.5 700.928 1807.15 701.219 1806.86C701.51 1806.57 701.851 1806.34 702.222 1806.2C702.593 1806.05 702.987 1805.99 703.381 1806.01C703.776 1806.03 704.162 1806.13 704.518 1806.32C704.884 1806.5 705.213 1806.75 705.487 1807.07C705.761 1807.38 705.975 1807.76 706.115 1808.17C706.255 1808.57 706.32 1809.01 706.305 1809.44C706.29 1809.88 706.196 1810.3 706.028 1810.7L676.31 1880.6C666.792 1909.71 663.188 1940.72 665.744 1971.49C667.933 1998.79 676.236 2025.1 689.928 2048.11C704.917 2073.83 724.269 2096.21 746.949 2114.07C769.468 2131.99 795.435 2144.1 822.889 2149.5C836.167 2152.07 849.659 2153.11 863.139 2152.6C891.858 2151.91 920.241 2145.73 946.994 2134.36C972.99 2123.2 996.921 2107.04 1017.63 2086.63C1037.79 2067.06 1055.79 2045.02 1071.3 2020.96C1086.42 1997.29 1099.55 1972.2 1110.55 1945.98C1121.66 1919.38 1130.04 1891.51 1135.53 1862.91C1141.42 1832.21 1156.82 1804.64 1179.14 1784.79C1187.31 1777.59 1196.47 1771.81 1206.27 1767.68C1206.54 1767.55 1206.82 1767.49 1207.11 1767.5C1236.4 1764.86 1265.83 1769.87 1292.98 1782.09C1306.11 1787.76 1318.56 1795.1 1330.08 1803.98C1330.25 1804.07 1330.4 1804.19 1330.51 1804.35C1351.13 1826.85 1368.59 1852.51 1382.34 1880.53C1395.47 1907.05 1404.92 1935.54 1410.38 1965.07C1413.23 1979.93 1415.16 1994.98 1416.15 2010.12V2010.6C1416.28 2011.15 1416.28 2011.73 1416.15 2012.28L1408.13 2134.47C1408.13 2134.47 1408.13 2134.65 1408.13 2134.72C1404.34 2165.47 1395.54 2195.23 1382.14 2222.61C1371.22 2245.01 1357.19 2265.44 1340.54 2283.18C1340.14 2283.61 1339.64 2283.91 1339.09 2284.06C1338.54 2284.2 1337.96 2284.17 1337.42 2283.98C1300.17 2269.7 1261.66 2259.6 1222.51 2253.85C1168.38 2245.42 1113.38 2246.06 1059.43 2255.74C1040.43 2258.98 1021.7 2263.86 1003.41 2270.34C984.664 2277.03 966.492 2285.5 949.107 2295.66C917.827 2313.84 888.642 2335.99 862.166 2361.66L850.896 2372.6C829.778 2393.37 811.683 2417.51 797.229 2444.19C783 2470.17 772.801 2498.52 767.041 2528.1C764.694 2539.76 763.124 2551.59 762.345 2563.49C761.462 2594.38 765.7 2625.2 774.856 2654.45C783.559 2682.65 797.23 2708.74 815.107 2731.25C833.647 2754.87 855.728 2774.9 880.413 2790.5C904.927 2806.1 932.368 2815.45 960.68 2817.87C987.362 2820.25 1014.22 2817.4 1039.97 2809.44L1043.33 2808.49C1007.51 2784.47 966.23 2771.83 924.152 2772.01C923.751 2772.01 923.354 2771.93 922.982 2771.77C922.609 2771.61 922.271 2771.36 921.984 2771.06C921.697 2770.76 921.469 2770.39 921.311 2769.99C921.154 2769.59 921.071 2769.16 921.066 2768.72C921.075 2767.84 921.398 2767 921.968 2766.37C922.537 2765.75 923.309 2765.39 924.119 2765.37C969.594 2765.22 1014.1 2779.65 1052.08 2806.85L1109.1 2848.84L1109.51 2849.21C1130.19 2870.77 1146.98 2896.35 1159.01 2924.62C1170.78 2952.35 1177.38 2982.33 1178.43 3012.84C1178.96 3025.32 1178.75 3037.83 1177.8 3050.28C1177.8 3050.28 1177.8 3050.28 1177.8 3050.5C1173.04 3081.84 1160.25 3111.09 1140.9 3134.89C1137.7 3138.73 1134.53 3142.62 1131.38 3146.56C1113.12 3167.03 1092.96 3185.38 1071.2 3201.29C1047.45 3218.68 1022.29 3233.69 996.033 3246.13C989.895 3248.98 983.656 3251.93 977.518 3255.07C952.251 3269.6 929.748 3289.21 911.205 3312.86C894.564 3334.21 882.122 3359.05 874.644 3385.83C866.596 3415.29 862.418 3445.84 862.233 3476.57C861.975 3507.26 864.401 3537.92 869.479 3568.11C874.531 3598.13 882.283 3627.53 892.623 3655.89C902.691 3683.51 916.237 3709.47 932.873 3733.02C949.897 3757.25 970.518 3778.21 993.886 3795.05C1017.5 3812.07 1042.86 3826.04 1069.46 3836.68C1094.21 3846.46 1119.77 3855.1 1145.09 3862.4C1170.5 3869.59 1196.26 3875.24 1222.24 3879.33C1245.73 3883.13 1269.39 3885.56 1293.12 3886.63L1440.06 3891.44H1440.23C1468.12 3893.98 1495.38 3901.89 1520.73 3914.79C1546.83 3927.78 1569.91 3947 1588.25 3971.02C1607.04 3995.22 1621.43 4023.07 1630.68 4053.11V4053.33C1637.91 4084.23 1640.35 4116.23 1637.93 4148C1635.6 4176.58 1629.63 4204.66 1620.18 4231.45C1611.39 4259.97 1599.13 4287.09 1583.72 4312.08C1581.54 4315.51 1579.43 4319.05 1577.35 4322.55C1577.24 4322.69 1577.14 4322.83 1577.05 4322.99C1560.28 4343.57 1543 4364.51 1525.63 4385.01C1508.15 4405.74 1492.44 4428.15 1478.67 4451.96C1464.61 4476.19 1452.47 4501.68 1442.38 4528.14C1432.03 4555.13 1424.16 4583.17 1418.9 4611.84C1415.22 4631.98 1412.82 4652.38 1411.72 4672.88C1409.95 4731.45 1425.49 4789.1 1456.06 4837.35C1476.18 4860.06 1494.16 4884.9 1509.73 4911.49C1523.54 4935.12 1535.21 4960.14 1544.58 4986.21C1553.61 5011.14 1561.25 5036.65 1567.46 5062.58C1570.21 5073.96 1573.06 5085.67 1575.94 5097.31C1582.42 5127.19 1587.03 5157.52 1589.73 5188.09C1591.74 5212.24 1592.68 5236.76 1592.58 5261.06C1593.69 5279.77 1594.83 5298.67 1595.93 5317.43C1597.68 5345.63 1599.59 5374.23 1601.57 5402.47C1603.45 5426.62 1605.29 5450.79 1607.1 5474.97C1609.25 5502.99 1610.66 5531.48 1611.33 5559.58C1611.7 5578.07 1611.73 5597.01 1611.33 5615.87L1607.61 5778.49L1599.09 6182.74L1597.01 6231.96V6234.7C1597.01 6250.86 1596.3 6267.28 1595.46 6283.77C1594.63 6300.26 1593.85 6316.1 1593.28 6331.02C1592.71 6345.94 1592.21 6360.79 1591.81 6374.58C1591.38 6388.61 1590.15 6402.6 1588.12 6416.47C1586.21 6426.05 1587.04 6436.05 1590.5 6445.11L1590.47 6445.18ZM1586.74 6450.73C1586.04 6449.86 1585.45 6448.9 1584.97 6447.88C1580.99 6437.61 1580.03 6426.26 1582.21 6415.37C1584.18 6401.78 1585.38 6388.07 1585.8 6374.33C1586.24 6360.57 1586.74 6345.9 1587.31 6330.8C1587.88 6315.69 1588.55 6299.82 1589.46 6283.37C1590.37 6266.91 1590.8 6250.53 1591 6234.62V6231.96C1590.99 6231.88 1590.99 6231.79 1591 6231.71L1593.05 6182.52L1601.8 5778.56L1605.59 5615.91C1605.86 5597.16 1605.79 5578.33 1605.59 5559.94C1604.92 5531.96 1603.51 5503.65 1601.4 5475.7C1599.57 5451.54 1597.72 5427.37 1595.87 5403.17C1593.85 5374.93 1591.94 5346.25 1590.2 5318.05C1588.96 5299.33 1587.82 5280.28 1586.84 5261.57C1586.84 5261.57 1586.84 5261.57 1586.84 5261.35C1586.84 5237.23 1586.01 5212.86 1584.03 5188.89C1581.36 5158.69 1576.8 5128.73 1570.37 5099.21C1567.52 5087.57 1564.64 5075.86 1561.89 5064.4C1555.72 5038.75 1548.16 5013.52 1539.25 4988.84C1530.04 4963.17 1518.54 4938.53 1504.93 4915.29C1489.57 4888.97 1471.79 4864.41 1451.87 4841.99L1451.53 4841.55C1420.15 4792.05 1404.2 4732.9 1406.02 4672.81C1407.13 4651.97 1409.56 4631.25 1413.3 4610.78C1418.61 4581.68 1426.58 4553.22 1437.11 4525.84C1447.31 4499.03 1459.6 4473.21 1473.84 4448.68C1487.84 4424.52 1503.8 4401.79 1521.54 4380.74C1538.84 4360.24 1556.05 4339.41 1572.76 4318.72C1574.87 4315.07 1576.95 4311.71 1579.1 4308.32C1594.22 4283.8 1606.26 4257.18 1614.88 4229.18C1624.14 4202.94 1629.98 4175.42 1632.26 4147.42C1634.65 4116.42 1632.27 4085.19 1625.22 4055.04C1616.29 4025.69 1602.33 3998.45 1584.06 3974.77C1566.17 3951.58 1543.7 3933.08 1518.32 3920.67C1493.67 3908.06 1467.14 3900.35 1440 3897.9L1293.18 3893.08C1269.21 3891.99 1245.31 3889.55 1221.57 3885.79C1195.35 3881.66 1169.36 3875.94 1143.72 3868.68C1118.13 3861.38 1092.5 3852.59 1067.51 3842.77C1040.46 3831.9 1014.67 3817.64 990.666 3800.27C966.738 3783.11 945.636 3761.7 928.244 3736.93C911.205 3712.92 897.33 3686.45 887.021 3658.27C876.528 3629.5 868.663 3599.68 863.542 3569.24C858.419 3538.63 855.948 3507.57 856.162 3476.46C856.373 3445.1 860.641 3413.93 868.841 3383.86C876.563 3356.21 889.417 3330.58 906.61 3308.56C925.626 3284.35 948.669 3264.26 974.532 3249.34H974.7C980.905 3246.17 987.278 3243.14 993.484 3240.33C1019.39 3228.04 1044.22 3213.2 1067.65 3196C1089.03 3180.41 1108.83 3162.4 1126.71 3142.26C1129.8 3138.39 1132.99 3134.56 1136.17 3130.65C1154.79 3107.88 1167.12 3079.86 1171.76 3049.8C1172.67 3037.67 1172.87 3025.48 1172.36 3013.32C1171.33 2983.64 1164.93 2954.48 1153.51 2927.51C1141.87 2900.17 1125.65 2875.42 1105.68 2854.54L1050 2813.56L1041.55 2816.12C1015.08 2824.27 987.491 2827.2 960.076 2824.76C930.849 2822.28 902.522 2812.61 877.227 2796.49C851.972 2780.52 829.372 2760.03 810.377 2735.89C792.013 2712.72 777.986 2685.88 769.087 2656.86C759.653 2626.83 755.3 2595.18 756.24 2563.46C757.02 2551.18 758.635 2538.99 761.07 2526.97C766.939 2496.69 777.353 2467.66 791.896 2441.05C806.693 2413.83 825.22 2389.22 846.838 2368.08C850.561 2364.43 854.351 2360.78 858.141 2357.13C884.959 2331 914.512 2308.4 946.189 2289.78C963.892 2279.5 982.402 2270.95 1001.5 2264.24C1020.11 2257.61 1039.18 2252.59 1058.52 2249.25C1077.49 2245.86 1096.62 2243.56 1115.81 2242.35C1151.77 2240.22 1187.83 2241.89 1223.48 2247.35C1262.41 2253.08 1300.7 2263.05 1337.79 2277.12C1353.49 2260.16 1366.77 2240.72 1377.17 2219.48C1390.2 2192.79 1398.78 2163.79 1402.5 2133.85L1410.51 2012.1V2011.62C1410.48 2011.38 1410.48 2011.13 1410.51 2010.89C1409.58 1995.9 1407.67 1981 1404.81 1966.31C1399.46 1937.43 1390.22 1909.57 1377.37 1883.63C1363.93 1856.27 1346.88 1831.2 1326.76 1809.2C1315.67 1800.69 1303.7 1793.61 1291.1 1788.11C1264.94 1776.37 1236.6 1771.54 1208.39 1774.03C1199.17 1777.84 1190.57 1783.21 1182.9 1789.94C1161.64 1808.83 1147.02 1835.09 1141.47 1864.33C1135.76 1893.27 1127.15 1921.45 1115.81 1948.36C1104.68 1974.96 1091.36 2000.42 1076.03 2024.43C1060.23 2048.9 1041.91 2071.32 1021.42 2091.27C1000.21 2112.17 975.698 2128.75 949.074 2140.19C921.678 2151.85 892.616 2158.2 863.206 2158.95C849.276 2159.45 835.336 2158.36 821.614 2155.7C793.273 2150.15 766.46 2137.67 743.193 2119.22C719.897 2100.86 700.023 2077.86 684.628 2051.43C670.441 2027.52 661.861 2000.2 659.639 1971.85C657.007 1940.2 660.692 1908.3 670.44 1878.34C672.284 1865.57 673.794 1852.58 674.767 1839.81C677.063 1810.6 677.634 1781.25 676.477 1751.96C675.338 1722.32 671.712 1692.87 665.643 1663.95C659.662 1635.69 650.902 1608.2 639.514 1581.97C628.173 1555.21 614.457 1529.72 598.559 1505.86C585.469 1487.6 571.402 1470.19 556.43 1453.73C537.663 1433.08 517.637 1413.83 496.49 1396.12L486.864 1389.48C464.216 1373.96 440.69 1360.02 416.425 1347.74C392.316 1335.27 367.38 1324.8 341.828 1316.4C316.604 1307.82 291.213 1298.15 266.358 1287.76C239.83 1276.79 214.641 1262.32 191.358 1244.67C167.848 1227.14 149.075 1203.09 136.986 1175.02C124.298 1145.99 118.333 1114.02 119.611 1081.91V1081.29C119.598 1081.06 119.598 1080.83 119.611 1080.59L119.812 1079.76C119.801 1079.61 119.801 1079.46 119.812 1079.32C122.194 1072.75 124.508 1066.11 126.856 1059.47C136.394 1033.23 147.846 1007.87 161.103 983.617L104.282 925.861C91.3274 911.22 79.6181 895.333 69.298 878.394C53.5206 852.268 40.3107 824.411 29.886 795.281C20.3008 768.854 12.9799 741.52 8.01656 713.627C3.18411 685.434 0.502793 656.854 0 628.179V626.683C0.364758 598.552 3.21781 570.524 8.5197 542.987C14.4581 512.197 23.4555 482.2 35.3534 453.525L50.548 422.33C50.7413 422 50.9542 421.683 51.1853 421.382L68.862 391.537C68.9372 391.484 68.9957 391.408 69.0297 391.318C83.8634 370.441 99.9186 350.625 117.095 331.993C135.299 312.309 154.978 294.308 175.928 278.178C197.047 261.806 219.503 247.578 243.013 235.673C266.304 223.826 290.445 214.065 315.195 206.485C319.992 177.748 329.308 150.125 342.733 124.831C357.126 97.7916 376.881 74.5835 400.56 56.8958C421.685 40.9466 444.749 28.2741 469.086 19.2432C496.713 8.86394 525.534 2.72402 554.719 1.00063C582.88 -0.38752 611.084 2.34909 638.575 9.13685C664.966 15.7809 690.71 25.164 715.453 37.1574C739.57 48.8423 762.672 62.8603 784.483 79.0423C806.654 95.3276 827.403 113.794 846.469 134.208C865.63 154.288 883.622 175.649 900.337 198.166C916.977 220.647 932.324 244.225 946.29 268.765C960.866 294.413 973.218 321.479 983.186 349.616C987.466 361.516 991.04 373.703 993.886 386.101C999.148 410.255 1001.88 434.978 1002.04 459.801C1002.04 462.902 1002.04 466.04 1002.04 469.031C1004.12 471.464 1006.16 473.896 1008.18 476.328C1025.21 498.141 1038.82 522.872 1048.43 549.517C1058.6 577.594 1064.36 607.33 1065.47 637.483C1066.62 668.556 1063.83 699.654 1057.18 729.9C1050.59 760.052 1040.04 789.015 1025.85 815.895C1012.44 841.341 996.996 865.453 979.698 887.953C962.508 910.188 943.745 930.926 923.582 949.978C903.124 969.123 881.335 986.518 858.41 1002.01L854.183 1006.68C834.936 1028.05 817.886 1051.63 803.333 1077.02C790.408 1099.67 779.363 1123.53 770.328 1148.31V1148.71C770.271 1149.42 770.026 1150.09 769.624 1150.65C769.605 1150.74 769.605 1150.84 769.624 1150.94L769.456 1151.85C769.456 1151.85 769.456 1151.85 769.456 1152.11C767.88 1158.75 766.102 1165.53 764.861 1172.28C757.996 1201.96 754.204 1232.39 753.557 1262.98L757.649 1302.17C761.986 1332.27 771.233 1361.28 784.952 1387.84C794.405 1406.19 805.736 1423.33 818.729 1438.91L860.892 1478.03C883.771 1494.05 909.559 1504.52 936.496 1508.71C963.707 1513.15 991.471 1511.35 1018 1503.42C1029.37 1499.98 1040.57 1495.88 1051.55 1491.16C1075.96 1482.15 1100.85 1474.23 1125.61 1467.56C1150.36 1460.88 1175.92 1455.44 1200.98 1451.39C1226.03 1447.34 1251.62 1444.72 1276.81 1443.33C1302 1441.94 1326.86 1441.54 1351.65 1442.02C1376.43 1442.49 1401.66 1444.35 1426.34 1447.12C1442.14 1448.73 1458.08 1450.48 1473.71 1452.34C1473.83 1452.36 1473.95 1452.36 1474.08 1452.34L1475.92 1452.78C1503.55 1460.1 1530.7 1469.41 1557.19 1480.65L1587.38 1493.5H1587.82L1642.79 1528.78C1666.29 1544.68 1687.25 1564.65 1704.81 1587.92C1723 1611.83 1736.35 1639.64 1743.99 1669.54C1751.9 1699.26 1754.76 1730.31 1752.44 1761.15C1749.98 1792.35 1740.02 1822.3 1723.56 1847.99C1711.27 1867.17 1696.02 1883.9 1678.48 1897.42C1679.68 1917.08 1682.7 1936.55 1687.5 1955.54C1694.82 1985.05 1706.05 2013.23 1720.84 2039.2C1726.96 2049.84 1732.04 2061.14 1736.01 2072.92C1737.44 2077.1 1738.21 2081.51 1738.29 2085.98C1738.29 2094.88 1738.29 2103.93 1738.05 2112.83C1737.81 2144.21 1734.13 2175.44 1727.08 2205.87C1720.05 2235.9 1709.69 2264.88 1696.22 2292.19C1690.77 2303.17 1684.68 2313.76 1677.98 2323.9C1662.24 2347.84 1644.87 2370.46 1626.02 2391.58C1607.24 2412.54 1587.13 2432.04 1565.85 2449.95C1551.46 2462.15 1536.45 2473.47 1520.9 2483.85C1537.13 2478.86 1553.73 2475.39 1570.51 2473.49C1599.51 2470.11 1628.83 2471.86 1657.32 2478.67C1684.96 2485.21 1711.57 2496.09 1736.34 2510.96C1761.25 2526.15 1782.96 2546.84 1800.07 2571.7C1817.48 2596.77 1830.03 2625.42 1836.97 2655.91C1844.26 2687.23 1843.93 2720.07 1836.03 2751.21C1828.57 2781.5 1812.46 2808.42 1790.01 2828.08C1770.55 2845.44 1749.99 2861.29 1728.49 2875.51C1704.88 2890.2 1683.59 2908.91 1665.43 2930.94C1656.5 2941.78 1648.51 2953.49 1641.55 2965.92C1645.06 2975.35 1650.1 2984 1656.44 2991.46C1671.94 3009.47 1692.89 3020.77 1715.44 3023.28C1733.2 3025.61 1751.19 3024.55 1768.61 3020.14C1768.98 3020.05 1769.37 3020.05 1769.75 3020.14C1798.74 3024.99 1826.3 3037.11 1850.25 3055.53C1873.39 3073.1 1891.84 3097.01 1903.72 3124.85C1916.04 3153.36 1923.57 3184.05 1925.95 3215.45C1928.48 3246.52 1923.51 3277.77 1911.53 3306.11C1900.01 3333.42 1883.27 3357.75 1862.43 3377.48C1840.78 3398.08 1816.46 3415.1 1790.24 3427.97C1782.39 3431.62 1774.34 3435.27 1766.16 3438.26C1791.55 3447.98 1816.02 3460.36 1839.21 3475.22C1847.23 3480.77 1855.15 3486.35 1863.16 3491.97L1863.53 3492.3C1883.66 3512.27 1901.01 3535.31 1915.05 3560.7C1930.01 3587.41 1940.54 3616.76 1946.15 3647.43C1951.64 3676.9 1953.69 3707.01 1952.25 3737.04C1951.04 3764.86 1947.34 3792.49 1941.22 3819.53C1934.65 3848.8 1924.83 3877.09 1911.97 3903.77C1901.33 3925.79 1892.79 3948.93 1886.48 3972.84C1881.28 4000.45 1878.66 4028.57 1878.66 4056.76C1878.5 4081.66 1880.36 4106.53 1884.23 4131.08C1888.79 4159.82 1897.62 4187.56 1910.39 4213.2C1923.79 4240.26 1941.82 4264.27 1963.52 4283.95C1980.29 4298.54 1997.06 4313.32 2014.04 4328.21C2014.04 4328.21 2014.04 4328.21 2014.04 4328.39C2015.84 4330.24 2017.34 4332.41 2018.46 4334.81C2030.01 4360.19 2037.02 4387.73 2039.13 4415.95C2043.81 4478.67 2031.96 4541.55 2004.98 4597.21C1992.17 4623.79 1976.31 4648.49 1957.79 4670.73C1954.77 4674.38 1951.78 4678.02 1948.76 4681.45C1930.63 4704.85 1909.58 4725.36 1886.21 4742.38C1880.2 4746.73 1874.2 4751.07 1868.19 4755.48L1852.13 4801.27C1852.13 4801.45 1852.13 4801.6 1851.89 4801.78C1851.87 4801.94 1851.87 4802.1 1851.89 4802.26C1843.51 4828.67 1835.93 4855.67 1829.32 4882.52C1822.71 4909.38 1816.94 4936.41 1812.31 4963.67C1807.79 4989.83 1803.93 5016.5 1800.81 5042.8C1799.9 5050.94 1799 5058.96 1798.13 5067.06L1782.6 5221.8L1727.02 5617.22L1706.52 5769.73L1651.68 6185.66C1651.68 6185.88 1651.68 6186.14 1651.51 6186.32L1640.61 6270.63C1640.64 6270.82 1640.64 6271 1640.61 6271.18C1640.66 6271.57 1640.66 6271.96 1640.61 6272.35C1639.27 6281.11 1638 6290.08 1636.75 6299.06C1634.54 6314.85 1632.43 6330.94 1630.45 6346.96C1628.47 6362.98 1626.79 6378.89 1625.42 6394.65C1623.96 6411.22 1620.36 6427.48 1614.72 6442.95C1613.84 6445.53 1612.4 6447.83 1610.52 6449.67C1607.83 6452.65 1604.31 6454.6 1600.51 6455.23C1596.7 6455.85 1592.81 6455.12 1589.43 6453.13C1589.38 6453.11 1589.34 6453.1 1589.29 6453.1C1589.25 6453.1 1589.2 6453.11 1589.16 6453.13C1588.29 6452.52 1587.5 6451.79 1586.81 6450.94" fill="white"/>
</g>
<g style="mix-blend-mode:soft-light" opacity="0.58">
<path d="M825.539 504.203C825.035 498.913 824.365 493.878 823.56 489.208C822.648 484.441 821.472 479.738 820.038 475.125C818.669 470.68 816.975 466.361 814.973 462.209L814.805 461.844V461.589L813.598 459.144L808.633 450.935V450.716C806.281 447.306 803.679 444.109 800.852 441.157L799.845 440.063L796.491 437.071C795.653 436.268 794.177 435.064 792.231 433.422C791.695 433.057 791.326 432.729 791.091 432.547L787.737 430.321C787.007 429.791 786.245 429.316 785.456 428.898L784.953 428.533L783.276 427.548C779.921 425.76 777.104 424.338 774.588 423.279L771.938 422.331L771.469 422.039L756.308 417.661H755.872L749.935 416.53L727.294 414.888V415.107H727.462L738.866 416.238L755.637 419.522H755.972L769.624 424.155L779.687 429.19L780.76 429.81L781.263 430.175L781.8 430.431L782.806 431.124L783.343 431.452L788.005 434.736L788.206 434.955L788.944 435.502C789.27 435.827 789.631 436.109 790.018 436.341L796.391 442.325L797.766 443.967C800.36 446.791 802.697 449.882 804.742 453.197L804.977 453.453L808.935 460.494V460.859L809.103 461.187C809.36 461.648 809.595 462.123 809.807 462.61L810.31 463.705V464.106C812.052 468.073 813.531 472.17 814.738 476.365C815.935 480.819 816.92 485.337 817.69 489.901C818.327 494.316 818.864 499.059 819.166 504.13C819.467 509.202 819.501 514.346 819.4 519.126C819.3 523.905 818.931 529.561 818.562 534.596C818.193 539.63 817.421 545.14 816.684 550.394L813.598 568.636V569.183L806.487 599.539C805.548 603.187 803.971 608.733 801.791 616.14L789.447 654.011L771.972 700.858C768.238 710.101 763.519 721.29 757.817 734.424C748.425 755.951 738.296 777.915 727.428 800.316C718.483 819.045 708.041 840.012 696.1 863.217L603.087 1034.26L578.065 1078.48C578.065 1078.48 578.065 1078.48 578.065 1078.7L645.552 970.082L703.244 867.631C714.894 845.74 725.594 824.847 735.344 804.95C746.525 781.989 756.766 759.891 766.068 738.657C771.368 726.495 776.109 715.185 780.29 704.725C784.964 693.293 789.324 681.922 793.372 670.612L810.143 619.314L814.704 602.312C815.644 598.517 816.952 592.899 818.629 585.456C819.904 579.29 821.01 573.744 821.983 568.673C822.721 564.367 823.56 558.895 824.465 552.072C825.371 545.249 825.706 540.141 825.975 535.727C826.377 529.597 826.511 524.234 826.511 519.746C826.511 513.641 826.31 508.46 825.908 504.203" fill="white"/>
</g>
<g style="mix-blend-mode:soft-light" opacity="0.58">
<path d="M603.557 1441.54L580.245 1407.54L554.15 1376.27L543.383 1364.92L542.88 1364.41L542.444 1363.94L525.941 1348.03L501.388 1326.83L500.415 1326.07L498.403 1324.5C497.531 1323.8 496.893 1323.22 496.457 1322.97C496.148 1322.67 495.823 1322.39 495.485 1322.13L453.557 1292.5L425.751 1275.79L395.06 1259.81C395.06 1259.81 394.858 1259.81 394.892 1259.81C394.925 1259.81 394.892 1259.81 394.892 1259.81L396.066 1260.58C397.15 1261.32 398.269 1262 399.42 1262.62C399.856 1262.98 400.695 1263.46 401.902 1264.26L417.902 1274.48C418.333 1274.66 418.739 1274.9 419.109 1275.21L445.943 1293.45L490.185 1327.45L491.158 1328.26L530.67 1364.74L536.44 1370.72L536.976 1371.16L547.81 1382.98C553.311 1389.19 558.242 1394.95 562.569 1400.35L571.055 1410.97L589.805 1437.31L602.115 1456.79C606.375 1464.09 610.064 1470.69 613.117 1476.57L623.179 1496.49C626.332 1503.38 629.217 1509.95 631.867 1516.3L632.571 1518.09V1518.45V1518.82L638.944 1535.71C643.003 1546.91 646.827 1559.1 650.382 1572.19L654.742 1589.16V1589.71L659.204 1610.72L664.403 1642.28V1643.12L665.375 1650.42C665.375 1650.6 665.375 1650.64 665.577 1650.42C665.778 1650.2 665.577 1650.42 665.577 1650.42L664.201 1628.53C663.363 1619.44 662.357 1611.05 661.25 1603.35L658.935 1588.76V1588.28V1587.74L655.95 1573.14C655.829 1572.38 655.661 1571.62 655.447 1570.88L652.294 1557.31L639.514 1515.68V1515.31V1514.95L639.246 1514.44L636.965 1508.35V1508.05L625.93 1482.51L615.565 1462.01L615.263 1461.28L614.894 1460.73L603.557 1441.54Z" fill="white"/>
</g>
<g style="mix-blend-mode:soft-light" opacity="0.58">
<path d="M1211.84 1754.37C1211.84 1754.37 1211.84 1754.37 1211.64 1754.18L1166.49 1762.76L1140.97 1769.87C1132.28 1772.61 1123.9 1775.49 1115.91 1778.59L1102.9 1783.99C1099.14 1785.67 1094.71 1787.64 1089.68 1790.01C1081.01 1794.27 1072.29 1799.05 1063.52 1804.35L1042.02 1819.13L1027.26 1831.17C1023.47 1834.6 1019.95 1837.92 1016.63 1841.24L1005.73 1852.95L998.414 1862.11C996.134 1864.91 993.651 1868.45 990.834 1872.61L987.48 1877.83L987.01 1878.52L982.884 1885.49L978.088 1894.61L969.837 1913.99V1914.39L964.872 1930.44L964.671 1931.39C964.671 1931.39 964.671 1931.57 964.671 1931.39C964.671 1931.21 964.839 1931.39 964.839 1931.39L970.541 1918.4C972.755 1913.66 975.27 1908.84 977.987 1903.81L979.765 1900.74L980 1900.09L987.346 1888.45L996.737 1875.39L1012.47 1857.14C1015.99 1853.5 1019.18 1850.25 1022.16 1847.55L1043.96 1829.31C1047.32 1826.72 1051.28 1823.87 1055.7 1820.77L1068.05 1813C1076.55 1807.74 1084.99 1802.99 1093.37 1798.73L1116.42 1787.79L1160.02 1770.78L1211.74 1754.47C1211.74 1754.47 1211.91 1754.47 1211.74 1754.29" fill="white"/>
</g>
<g style="mix-blend-mode:soft-light" opacity="0.58">
<path d="M718.64 1153.31C718.64 1153.31 718.64 1153.13 718.64 1153.31C718.64 1153.49 718.472 1153.31 718.64 1153.31L709.114 1177.72L708.779 1178.81L708.578 1179.32L702.842 1200.74L699.488 1221.28V1221.65V1221.94L699.253 1224.82C699.052 1226.32 698.917 1227.52 698.884 1228.47L698.347 1235.77C698.079 1241.13 698.012 1246.27 698.347 1251.24L699.387 1267.4C699.957 1272.58 700.796 1278.12 701.903 1283.96L708.343 1308.81L717.869 1333.03C720.284 1338.07 722.911 1343.18 725.751 1348.36L734.539 1362.95C737.558 1367.44 740.778 1371.96 744.065 1376.45L748.962 1382.91L769.423 1406.04C770.966 1407.68 772.777 1409.33 774.521 1411.11L775.461 1412.1L800.013 1433.99L811.787 1443.07C815.521 1445.9 820.172 1449.23 825.74 1453.07L838.218 1461.17C838.218 1461.17 838.385 1461.17 838.419 1461.17L793.305 1420.45L768.249 1393.38L749.868 1370.36L749.7 1369.92L732.929 1343.36C730.145 1338.4 727.663 1333.47 725.483 1328.77L717.533 1309.65L711.529 1290.02L709.684 1282.14C708.578 1277.07 707.672 1271.89 706.934 1266.45C706.263 1262.14 705.76 1257 705.358 1251.05L704.888 1236.46C704.888 1232.55 704.888 1227.88 705.358 1222.27L706.532 1209.13C707.404 1201.43 708.647 1193.78 710.255 1186.22L714.313 1168.82L718.64 1153.31Z" fill="white"/>
</g>
<g style="mix-blend-mode:soft-light" opacity="0.58">
<path d="M885.68 890.107H885.848C885.848 890.107 885.848 889.924 885.848 890.107C884.3 889.254 882.683 888.558 881.018 888.027C879.441 887.516 877.664 887.005 876.121 886.641L864.045 885.181H860.691L855.593 885.437L845.53 886.896C842.136 887.502 838.776 888.318 835.468 889.34C832.113 890.253 828.96 891.311 825.707 892.442L816.08 896.09C812.726 897.586 809.372 899.082 806.655 900.468C805.38 901.089 802.328 902.658 797.464 905.248L781.767 914.406L739.235 944.725L736.787 947.133L706.968 983.618C700.595 991.937 695.798 998.212 692.645 1002.44C686.507 1010.73 681.878 1017.04 678.759 1021.6L640.018 1081.47C635.993 1088.37 632.135 1095.3 628.379 1102.27L617.41 1123.68C613.318 1132.11 609.964 1139.37 607.348 1145.58L593.931 1179.29L589.772 1191.4L577.797 1236.17V1236.9L575.047 1251.13V1251.86L574.845 1252.59L574.342 1256.23V1256.56L573.101 1266.01V1266.74V1267.51L571.491 1285.75L573.906 1270.79L575.65 1261.89C576.791 1256.31 577.663 1252.37 578.233 1250.1L581.051 1238.43C583.13 1230.77 585.344 1223.03 587.759 1215.37C588.128 1214.42 589.369 1210.66 591.549 1204.06L600.975 1178.89L614.157 1149.08C618.081 1140.72 621.57 1133.64 624.555 1127.81L635.758 1106.97C639.112 1100.88 643.104 1094.02 647.598 1086.54L672.822 1046.81C675.706 1042.4 680.168 1035.86 686.239 1027.4C692.31 1018.94 696.838 1012.81 699.957 1008.46C703.077 1004.12 707.84 997.519 713.978 989.711L742.858 953.226L742.455 953.627L743.059 953.043L742.858 953.226L758.589 940.566C760.4 939.179 761.943 938.085 762.648 937.355L791.93 916.449L809.439 905.978C813.363 903.752 816.382 902.329 818.428 901.235L827.35 896.929C829.933 895.835 833.019 894.631 836.642 893.281C840.264 891.931 843.048 891.238 846.302 890.399C849.52 889.511 852.778 888.805 856.062 888.282L857.27 888.063H857.941H858.243H858.544H859.819H860.389H861.899H862.234L867.232 887.845H869.11L875.986 888.392L885.68 890.107Z" fill="white"/>
</g>
<g style="mix-blend-mode:soft-light" opacity="0.58">
<path d="M459.628 1213.47L471.401 1236.24C471.756 1236.85 472.059 1237.5 472.307 1238.17L477.137 1248.9C477.431 1249.38 477.668 1249.89 477.842 1250.43L484.785 1267.14C484.785 1267.14 484.785 1267.14 485.02 1267.14L482.135 1255.43C480.961 1251.02 479.653 1246.64 478.21 1242.22L470.328 1220.77L458.018 1196.11C457.079 1194.54 456.576 1193.7 456.442 1193.52L451.679 1185.63C449.8 1182.75 447.419 1179.36 444.601 1175.53L440.241 1169.91L432.459 1160.79C429.642 1157.94 428.199 1156.41 428.031 1156.23L426.388 1154.44L418.841 1147.33C415.286 1144.3 412.133 1141.67 408.98 1139.3L398.716 1132C397.542 1131.31 396.737 1130.8 396.166 1130.4L393.483 1128.79C393.07 1128.48 392.633 1128.21 392.175 1127.99L382.951 1122.81L382.247 1122.55L378.289 1120.55L359.404 1112.77L336.562 1106.57L311.339 1102.92L298.224 1102.38H297.419C297.419 1102.38 297.217 1102.38 297.419 1102.38H298.123L308.186 1104.49C310.768 1104.97 314.894 1105.95 320.596 1107.41L336.361 1111.86L361.216 1121.28L364.201 1122.73C368.662 1124.81 371.949 1126.38 374.263 1127.66L374.901 1127.95L378.658 1129.96L379.228 1130.4L389.29 1136.38L390.531 1137.15L403.311 1146.27L403.881 1146.74C404.384 1147.14 405.189 1147.73 406.229 1148.6L413.072 1155.1C416.135 1157.75 419.087 1160.52 421.927 1163.42L436.652 1179.72L438.061 1181.51C441.146 1185.43 443.528 1188.57 445.205 1190.93L459.628 1213.47Z" fill="white"/>
</g>
<g style="mix-blend-mode:soft-light" opacity="0.58">
<path d="M234.024 784.92C234.695 786.89 235.802 789.881 237.378 793.822L241.202 802.615C243.885 808.708 246.803 814.472 249.889 820.018L260.489 836.692C264.294 842.043 268.358 847.171 272.664 852.052L278.065 857.89L278.434 858.328L279.339 859.167C281.318 861.21 283.599 863.472 286.282 865.989L290.676 869.93C291.025 870.16 291.351 870.429 291.649 870.732L301.041 878.029C303.791 880.109 306.374 881.897 308.722 883.356C311.07 884.816 313.955 886.786 316.537 888.282L320.529 890.544L320.999 890.836L332.537 896.71C342.738 901.53 353.254 905.518 364 908.64C368.326 909.954 373.358 911.304 378.959 912.654L393.148 915.463L428.434 919.367C431.419 919.549 434.337 919.622 437.289 919.732H454.06C454.06 919.732 454.06 919.732 454.06 919.513H453.859L409.684 913.238L365.978 901.526L359.471 899.118L358.566 898.826L332.94 887.224L320.864 880.146C319.221 879.16 316.672 877.555 313.351 875.366L306.072 870.112C301.108 866.245 296.446 862.377 292.152 858.4L284.169 850.775L283.968 850.337L279.071 845.156C274.971 840.536 271.119 835.663 267.532 830.562L257.47 814.874C251.378 804.307 246.116 793.2 241.739 781.672L236.003 764.889C234.426 759.635 232.883 753.944 231.374 748.325L228.02 732.417C227.383 728.988 226.913 726.397 226.678 724.756L223.324 703.339L219.534 651.603H219.332V651.822L218.293 691.043L220.741 725.887L224.565 750.113C226.913 761.956 230.075 773.591 234.024 784.92Z" fill="white"/>
</g>
<g style="mix-blend-mode:soft-light" opacity="0.58">
<path d="M333.376 1050.79H326.667C323.313 1050.79 318.282 1050.57 311.64 1050.2L289.771 1047.65L269.109 1043.27C264.782 1042.14 260.455 1040.86 256.229 1039.62L238.686 1032.8L238.015 1032.43L217.186 1022.07L216.683 1021.71L205.345 1014.78L204.876 1014.52L188.977 1003.17C188.977 1003.17 188.977 1003.17 188.809 1003.17L207.157 1019.63V1019.81L210.511 1022.36L211.014 1022.84L218.762 1028.2C219.1 1028.46 219.459 1028.68 219.836 1028.86L220.942 1029.62L230.737 1035.5C238.239 1039.68 245.98 1043.34 253.914 1046.44L260.388 1048.85L286.886 1056.15L307.012 1059.21L333.141 1060.49H333.309L341.191 1061.26C346.135 1061.83 351.05 1062.67 355.916 1063.77C360.712 1064.91 365.442 1066.29 370.205 1067.93L388.619 1076.07L390.229 1077.02C391.605 1077.75 393.584 1078.92 396.435 1080.67C404.274 1085.53 411.714 1091.13 418.673 1097.38L436.518 1115.62L449.934 1132.77C453.758 1138.09 456.978 1142.76 459.527 1146.81L467.477 1159.55C467.477 1159.55 467.477 1159.55 467.712 1159.55C467.947 1159.55 467.712 1159.55 467.712 1159.55L466.135 1155.9L454.194 1132.77L445.675 1119.23L431.553 1100.66L420.988 1089.42L407.034 1077.53L394.422 1069.1C391.37 1067.31 389.089 1066.15 387.714 1065.45L386.942 1064.98L380.704 1062.06C378.926 1061.29 376.511 1060.27 373.425 1059.07L365.878 1056.51C363.366 1055.68 360.813 1055 358.23 1054.47C353.091 1053.16 347.882 1052.2 342.633 1051.59L334.281 1050.9H334.046C333.905 1050.95 333.752 1050.95 333.61 1050.9L333.376 1050.79Z" fill="white"/>
</g>
<g style="mix-blend-mode:soft-light" opacity="0.58">
<path d="M1041.35 1539.36L1077.54 1520.31C1077.71 1520.31 1077.74 1520.31 1077.54 1520.02L995.564 1551.73C984.294 1555.63 974.265 1559.02 965.376 1561.47C954.844 1564.68 943.942 1567.61 932.672 1570.26L898.56 1576.68C887.182 1578.32 875.723 1579.21 864.246 1579.35L847.475 1578.69C843.819 1578.32 841.102 1578 839.325 1577.78C836.977 1577.52 834.293 1577.05 831.308 1576.5L810.478 1570.66L801.892 1567.01C799.577 1565.92 797.397 1564.75 795.384 1563.58C793.942 1562.82 792.03 1561.54 789.246 1559.94C787.972 1559.1 786.06 1557.71 783.611 1555.85L778.412 1551.51C776.802 1550.05 775.259 1548.59 773.716 1547.02L764.727 1536.62L756.576 1524.25C755.008 1521.75 753.585 1519.14 752.316 1516.45L745.306 1500.68H745.105V1500.94L746.346 1505.35C747.501 1509.52 748.902 1513.6 750.539 1517.58C751.511 1520.17 752.685 1522.98 754.161 1526.04C755.637 1529.11 757.348 1532.21 759.293 1535.56C760.267 1537.31 761.331 1538.99 762.48 1540.6L770.295 1550.96C771.704 1552.6 773.247 1554.28 774.957 1556.03C776.618 1557.79 778.365 1559.44 780.19 1560.99C782.001 1562.6 783.913 1564.17 785.993 1565.7C787.301 1566.72 789.347 1568.22 792.232 1570.11C794.11 1571.39 796.357 1572.71 798.94 1574.13L803.804 1576.68H804.307L806.084 1577.59C808.569 1578.77 811.111 1579.79 813.698 1580.66L821.614 1583.32C823.09 1583.8 825.841 1584.53 829.765 1585.47L838.251 1587.12L853.312 1588.83L864.28 1589.23C876.158 1589.3 888.025 1588.48 899.801 1586.79L934.651 1579.93C945.653 1577.16 956.688 1574.02 967.69 1570.26C977.753 1566.9 987.816 1563.18 997.878 1559.1L1041.35 1539.36Z" fill="white"/>
</g>
</g>
</svg>
