<?xml version="1.0" standalone="no"?>
<svg xmlns:xlink="http://www.w3.org/1999/xlink" id="wave" style="transform:rotate(0deg); transition: 0.3s" viewBox="0 0 1440 260" version="1.1" xmlns="http://www.w3.org/2000/svg"><defs><linearGradient id="sw-gradient-0" x1="0" x2="0" y1="1" y2="0"><stop stop-color="rgba(30, 100, 106, 1)" offset="0%"/><stop stop-color="rgba(30, 100, 106, 1)" offset="100%"/></linearGradient></defs><path style="transform:translate(0, 0px); opacity:1" fill="url(#sw-gradient-0)" d="M0,130L80,108.3C160,87,320,43,480,52C640,61,800,121,960,151.7C1120,182,1280,182,1440,160.3C1600,139,1760,95,1920,95.3C2080,95,2240,139,2400,156C2560,173,2720,165,2880,169C3040,173,3200,191,3360,177.7C3520,165,3680,121,3840,86.7C4000,52,4160,26,4320,52C4480,78,4640,156,4800,164.7C4960,173,5120,113,5280,78C5440,43,5600,35,5760,52C5920,69,6080,113,6240,125.7C6400,139,6560,121,6720,104C6880,87,7040,69,7200,56.3C7360,43,7520,35,7680,39C7840,43,8000,61,8160,95.3C8320,130,8480,182,8640,190.7C8800,199,8960,165,9120,156C9280,147,9440,165,9600,169C9760,173,9920,165,10080,151.7C10240,139,10400,121,10560,134.3C10720,147,10880,191,11040,212.3C11200,234,11360,234,11440,234L11520,234L11520,260L11440,260C11360,260,11200,260,11040,260C10880,260,10720,260,10560,260C10400,260,10240,260,10080,260C9920,260,9760,260,9600,260C9440,260,9280,260,9120,260C8960,260,8800,260,8640,260C8480,260,8320,260,8160,260C8000,260,7840,260,7680,260C7520,260,7360,260,7200,260C7040,260,6880,260,6720,260C6560,260,6400,260,6240,260C6080,260,5920,260,5760,260C5600,260,5440,260,5280,260C5120,260,4960,260,4800,260C4640,260,4480,260,4320,260C4160,260,4000,260,3840,260C3680,260,3520,260,3360,260C3200,260,3040,260,2880,260C2720,260,2560,260,2400,260C2240,260,2080,260,1920,260C1760,260,1600,260,1440,260C1280,260,1120,260,960,260C800,260,640,260,480,260C320,260,160,260,80,260L0,260Z"/></svg>