<svg width="395" height="36" viewBox="0 0 395 36" fill="none" xmlns="http://www.w3.org/2000/svg">
<g filter="url(#filter0_d_202_416)">
<path d="M270.552 18.3914C270.552 19.7834 270.448 21.0234 270.24 22.1114C270.032 23.1994 269.696 24.1274 269.232 24.8954C268.784 25.6474 268.192 26.2234 267.456 26.6234C266.736 27.0234 265.864 27.2234 264.84 27.2234C263.56 27.2234 262.496 26.8714 261.648 26.1674C260.816 25.4634 260.192 24.4554 259.776 23.1434C259.376 21.8154 259.176 20.2314 259.176 18.3914C259.176 16.5354 259.36 14.9514 259.728 13.6394C260.112 12.3274 260.72 11.3274 261.552 10.6394C262.384 9.9354 263.48 9.5834 264.84 9.5834C266.12 9.5834 267.184 9.9354 268.032 10.6394C268.88 11.3274 269.512 12.3274 269.928 13.6394C270.344 14.9514 270.552 16.5354 270.552 18.3914ZM261.288 18.3914C261.288 19.9594 261.4 21.2634 261.624 22.3034C261.864 23.3434 262.24 24.1274 262.752 24.6554C263.28 25.1674 263.976 25.4234 264.84 25.4234C265.704 25.4234 266.392 25.1674 266.904 24.6554C267.432 24.1434 267.816 23.3674 268.056 22.3274C268.296 21.2714 268.416 19.9594 268.416 18.3914C268.416 16.8234 268.296 15.5274 268.056 14.5034C267.816 13.4634 267.432 12.6874 266.904 12.1754C266.392 11.6474 265.704 11.3834 264.84 11.3834C263.976 11.3834 263.28 11.6474 262.752 12.1754C262.24 12.6874 261.864 13.4634 261.624 14.5034C261.4 15.5274 261.288 16.8234 261.288 18.3914ZM285.462 23.0954H282.966V26.9834H280.926V23.0954H272.718V21.2954L280.782 9.7514H282.966V21.1994H285.462V23.0954ZM280.926 15.7994C280.926 15.3834 280.926 15.0074 280.926 14.6714C280.942 14.3194 280.958 13.9914 280.974 13.6874C280.99 13.3834 280.998 13.0954 280.998 12.8234C281.014 12.5354 281.03 12.2634 281.046 12.0074H280.95C280.822 12.3114 280.662 12.6394 280.47 12.9914C280.278 13.3434 280.094 13.6394 279.918 13.8794L274.782 21.1994H280.926V15.7994ZM288.157 25.6874C288.157 25.0954 288.301 24.6794 288.589 24.4394C288.877 24.1994 289.221 24.0794 289.621 24.0794C290.037 24.0794 290.389 24.1994 290.677 24.4394C290.981 24.6794 291.133 25.0954 291.133 25.6874C291.133 26.2634 290.981 26.6794 290.677 26.9354C290.389 27.1914 290.037 27.3194 289.621 27.3194C289.221 27.3194 288.877 27.1914 288.589 26.9354C288.301 26.6794 288.157 26.2634 288.157 25.6874ZM301.851 26.9834H299.787V15.0074C299.787 14.5434 299.787 14.1514 299.787 13.8314C299.803 13.5114 299.819 13.2154 299.835 12.9434C299.851 12.6554 299.867 12.3594 299.883 12.0554C299.627 12.3114 299.395 12.5274 299.187 12.7034C298.979 12.8794 298.715 13.1034 298.395 13.3754L296.571 14.8634L295.467 13.4474L300.099 9.8474H301.851V26.9834ZM314.385 9.6074C315.393 9.6074 316.281 9.7674 317.049 10.0874C317.817 10.3914 318.417 10.8474 318.849 11.4554C319.297 12.0634 319.521 12.8154 319.521 13.7114C319.521 14.3994 319.369 14.9994 319.065 15.5114C318.777 16.0234 318.385 16.4794 317.889 16.8794C317.393 17.2634 316.849 17.6074 316.257 17.9114C316.961 18.2474 317.601 18.6314 318.177 19.0634C318.753 19.4794 319.209 19.9674 319.545 20.5274C319.897 21.0874 320.073 21.7594 320.073 22.5434C320.073 23.5034 319.841 24.3354 319.377 25.0394C318.913 25.7274 318.257 26.2634 317.409 26.6474C316.577 27.0314 315.593 27.2234 314.457 27.2234C313.225 27.2234 312.177 27.0394 311.313 26.6714C310.465 26.3034 309.817 25.7834 309.369 25.1114C308.937 24.4234 308.721 23.5914 308.721 22.6154C308.721 21.8314 308.881 21.1514 309.201 20.5754C309.537 19.9994 309.977 19.5034 310.521 19.0874C311.065 18.6714 311.649 18.3194 312.273 18.0314C311.713 17.7114 311.201 17.3514 310.737 16.9514C310.289 16.5354 309.929 16.0634 309.657 15.5354C309.401 15.0074 309.273 14.3914 309.273 13.6874C309.273 12.8074 309.497 12.0714 309.945 11.4794C310.393 10.8714 311.001 10.4074 311.769 10.0874C312.537 9.7674 313.409 9.6074 314.385 9.6074ZM310.785 22.6394C310.785 23.4714 311.081 24.1674 311.673 24.7274C312.265 25.2714 313.177 25.5434 314.409 25.5434C315.193 25.5434 315.849 25.4154 316.377 25.1594C316.905 24.9034 317.305 24.5514 317.577 24.1034C317.865 23.6554 318.009 23.1434 318.009 22.5674C318.009 22.0074 317.857 21.5194 317.553 21.1034C317.265 20.6714 316.849 20.2874 316.305 19.9514C315.777 19.6154 315.145 19.3114 314.409 19.0394L314.025 18.8954C313.321 19.1994 312.729 19.5274 312.249 19.8794C311.769 20.2314 311.401 20.6314 311.145 21.0794C310.905 21.5274 310.785 22.0474 310.785 22.6394ZM314.361 11.3114C313.481 11.3114 312.753 11.5274 312.177 11.9594C311.617 12.3754 311.337 12.9834 311.337 13.7834C311.337 14.3754 311.473 14.8714 311.745 15.2714C312.033 15.6714 312.417 16.0154 312.897 16.3034C313.377 16.5754 313.905 16.8394 314.481 17.0954C315.041 16.8554 315.537 16.5914 315.969 16.3034C316.417 16.0154 316.769 15.6714 317.025 15.2714C317.297 14.8554 317.433 14.3594 317.433 13.7834C317.433 12.9834 317.153 12.3754 316.593 11.9594C316.033 11.5274 315.289 11.3114 314.361 11.3114ZM323.487 25.6874C323.487 25.0954 323.631 24.6794 323.919 24.4394C324.207 24.1994 324.551 24.0794 324.951 24.0794C325.367 24.0794 325.719 24.1994 326.007 24.4394C326.311 24.6794 326.463 25.0954 326.463 25.6874C326.463 26.2634 326.311 26.6794 326.007 26.9354C325.719 27.1914 325.367 27.3194 324.951 27.3194C324.551 27.3194 324.207 27.1914 323.919 26.9354C323.631 26.6794 323.487 26.2634 323.487 25.6874ZM347.856 26.9834H336.528V25.2314L341.016 20.6954C341.88 19.8314 342.608 19.0634 343.2 18.3914C343.792 17.7194 344.24 17.0634 344.544 16.4234C344.848 15.7674 345 15.0554 345 14.2874C345 13.3434 344.72 12.6314 344.16 12.1514C343.6 11.6554 342.872 11.4074 341.976 11.4074C341.144 11.4074 340.408 11.5514 339.768 11.8394C339.144 12.1274 338.504 12.5274 337.848 13.0394L336.72 11.6234C337.168 11.2394 337.656 10.8954 338.184 10.5914C338.728 10.2874 339.312 10.0474 339.936 9.8714C340.576 9.6954 341.256 9.6074 341.976 9.6074C343.048 9.6074 343.968 9.7914 344.736 10.1594C345.504 10.5274 346.096 11.0554 346.512 11.7434C346.944 12.4154 347.16 13.2234 347.16 14.1674C347.16 14.8394 347.056 15.4794 346.848 16.0874C346.64 16.6794 346.344 17.2634 345.96 17.8394C345.576 18.4154 345.112 18.9994 344.568 19.5914C344.024 20.1834 343.424 20.7994 342.768 21.4394L339.192 24.9674V25.0634H347.856V26.9834ZM362.142 18.3914C362.142 19.7834 362.038 21.0234 361.83 22.1114C361.622 23.1994 361.286 24.1274 360.822 24.8954C360.374 25.6474 359.782 26.2234 359.046 26.6234C358.326 27.0234 357.454 27.2234 356.43 27.2234C355.15 27.2234 354.086 26.8714 353.238 26.1674C352.406 25.4634 351.782 24.4554 351.366 23.1434C350.966 21.8154 350.766 20.2314 350.766 18.3914C350.766 16.5354 350.95 14.9514 351.318 13.6394C351.702 12.3274 352.31 11.3274 353.142 10.6394C353.974 9.9354 355.07 9.5834 356.43 9.5834C357.71 9.5834 358.774 9.9354 359.622 10.6394C360.47 11.3274 361.102 12.3274 361.518 13.6394C361.934 14.9514 362.142 16.5354 362.142 18.3914ZM352.878 18.3914C352.878 19.9594 352.99 21.2634 353.214 22.3034C353.454 23.3434 353.83 24.1274 354.342 24.6554C354.87 25.1674 355.566 25.4234 356.43 25.4234C357.294 25.4234 357.982 25.1674 358.494 24.6554C359.022 24.1434 359.406 23.3674 359.646 22.3274C359.886 21.2714 360.006 19.9594 360.006 18.3914C360.006 16.8234 359.886 15.5274 359.646 14.5034C359.406 13.4634 359.022 12.6874 358.494 12.1754C357.982 11.6474 357.294 11.3834 356.43 11.3834C355.566 11.3834 354.87 11.6474 354.342 12.1754C353.83 12.6874 353.454 13.4634 353.214 14.5034C352.99 15.5274 352.878 16.8234 352.878 18.3914ZM376.284 26.9834H364.956V25.2314L369.444 20.6954C370.308 19.8314 371.036 19.0634 371.628 18.3914C372.22 17.7194 372.668 17.0634 372.972 16.4234C373.276 15.7674 373.428 15.0554 373.428 14.2874C373.428 13.3434 373.148 12.6314 372.588 12.1514C372.028 11.6554 371.3 11.4074 370.404 11.4074C369.572 11.4074 368.836 11.5514 368.196 11.8394C367.572 12.1274 366.932 12.5274 366.276 13.0394L365.148 11.6234C365.596 11.2394 366.084 10.8954 366.612 10.5914C367.156 10.2874 367.74 10.0474 368.364 9.8714C369.004 9.6954 369.684 9.6074 370.404 9.6074C371.476 9.6074 372.396 9.7914 373.164 10.1594C373.932 10.5274 374.524 11.0554 374.94 11.7434C375.372 12.4154 375.588 13.2234 375.588 14.1674C375.588 14.8394 375.484 15.4794 375.276 16.0874C375.068 16.6794 374.772 17.2634 374.388 17.8394C374.004 18.4154 373.54 18.9994 372.996 19.5914C372.452 20.1834 371.852 20.7994 371.196 21.4394L367.62 24.9674V25.0634H376.284V26.9834ZM390.499 26.9834H379.171V25.2314L383.659 20.6954C384.523 19.8314 385.251 19.0634 385.843 18.3914C386.435 17.7194 386.883 17.0634 387.187 16.4234C387.491 15.7674 387.643 15.0554 387.643 14.2874C387.643 13.3434 387.363 12.6314 386.803 12.1514C386.243 11.6554 385.515 11.4074 384.619 11.4074C383.787 11.4074 383.051 11.5514 382.411 11.8394C381.787 12.1274 381.147 12.5274 380.491 13.0394L379.363 11.6234C379.811 11.2394 380.299 10.8954 380.827 10.5914C381.371 10.2874 381.955 10.0474 382.579 9.8714C383.219 9.6954 383.899 9.6074 384.619 9.6074C385.691 9.6074 386.611 9.7914 387.379 10.1594C388.147 10.5274 388.739 11.0554 389.155 11.7434C389.587 12.4154 389.803 13.2234 389.803 14.1674C389.803 14.8394 389.699 15.4794 389.491 16.0874C389.283 16.6794 388.987 17.2634 388.603 17.8394C388.219 18.4154 387.755 18.9994 387.211 19.5914C386.667 20.1834 386.067 20.7994 385.411 21.4394L381.835 24.9674V25.0634H390.499V26.9834Z" fill="#D3D6B1"/>
<path d="M15.552 18.3914C15.552 19.7834 15.448 21.0234 15.24 22.1114C15.032 23.1994 14.696 24.1274 14.232 24.8954C13.784 25.6474 13.192 26.2234 12.456 26.6234C11.736 27.0234 10.864 27.2234 9.84 27.2234C8.56 27.2234 7.496 26.8714 6.648 26.1674C5.816 25.4634 5.192 24.4554 4.776 23.1434C4.376 21.8154 4.176 20.2314 4.176 18.3914C4.176 16.5354 4.36 14.9514 4.728 13.6394C5.112 12.3274 5.72 11.3274 6.552 10.6394C7.384 9.9354 8.48 9.5834 9.84 9.5834C11.12 9.5834 12.184 9.9354 13.032 10.6394C13.88 11.3274 14.512 12.3274 14.928 13.6394C15.344 14.9514 15.552 16.5354 15.552 18.3914ZM6.288 18.3914C6.288 19.9594 6.4 21.2634 6.624 22.3034C6.864 23.3434 7.24 24.1274 7.752 24.6554C8.28 25.1674 8.976 25.4234 9.84 25.4234C10.704 25.4234 11.392 25.1674 11.904 24.6554C12.432 24.1434 12.816 23.3674 13.056 22.3274C13.296 21.2714 13.416 19.9594 13.416 18.3914C13.416 16.8234 13.296 15.5274 13.056 14.5034C12.816 13.4634 12.432 12.6874 11.904 12.1754C11.392 11.6474 10.704 11.3834 9.84 11.3834C8.976 11.3834 8.28 11.6474 7.752 12.1754C7.24 12.6874 6.864 13.4634 6.624 14.5034C6.4 15.5274 6.288 16.8234 6.288 18.3914ZM30.4624 23.0954H27.9664V26.9834H25.9264V23.0954H17.7184V21.2954L25.7824 9.7514H27.9664V21.1994H30.4624V23.0954ZM25.9264 15.7994C25.9264 15.3834 25.9264 15.0074 25.9264 14.6714C25.9424 14.3194 25.9584 13.9914 25.9744 13.6874C25.9904 13.3834 25.9984 13.0954 25.9984 12.8234C26.0144 12.5354 26.0304 12.2634 26.0464 12.0074H25.9504C25.8224 12.3114 25.6624 12.6394 25.4704 12.9914C25.2784 13.3434 25.0944 13.6394 24.9184 13.8794L19.7824 21.1994H25.9264V15.7994ZM33.1567 25.6874C33.1567 25.0954 33.3007 24.6794 33.5887 24.4394C33.8767 24.1994 34.2207 24.0794 34.6207 24.0794C35.0367 24.0794 35.3887 24.1994 35.6767 24.4394C35.9807 24.6794 36.1327 25.0954 36.1327 25.6874C36.1327 26.2634 35.9807 26.6794 35.6767 26.9354C35.3887 27.1914 35.0367 27.3194 34.6207 27.3194C34.2207 27.3194 33.8767 27.1914 33.5887 26.9354C33.3007 26.6794 33.1567 26.2634 33.1567 25.6874ZM50.8826 18.3914C50.8826 19.7834 50.7786 21.0234 50.5706 22.1114C50.3626 23.1994 50.0266 24.1274 49.5626 24.8954C49.1146 25.6474 48.5226 26.2234 47.7866 26.6234C47.0666 27.0234 46.1946 27.2234 45.1706 27.2234C43.8906 27.2234 42.8266 26.8714 41.9786 26.1674C41.1466 25.4634 40.5226 24.4554 40.1066 23.1434C39.7066 21.8154 39.5066 20.2314 39.5066 18.3914C39.5066 16.5354 39.6906 14.9514 40.0586 13.6394C40.4426 12.3274 41.0506 11.3274 41.8826 10.6394C42.7146 9.9354 43.8106 9.5834 45.1706 9.5834C46.4506 9.5834 47.5146 9.9354 48.3626 10.6394C49.2106 11.3274 49.8426 12.3274 50.2586 13.6394C50.6746 14.9514 50.8826 16.5354 50.8826 18.3914ZM41.6186 18.3914C41.6186 19.9594 41.7306 21.2634 41.9546 22.3034C42.1946 23.3434 42.5706 24.1274 43.0826 24.6554C43.6106 25.1674 44.3066 25.4234 45.1706 25.4234C46.0346 25.4234 46.7226 25.1674 47.2346 24.6554C47.7626 24.1434 48.1466 23.3674 48.3866 22.3274C48.6266 21.2714 48.7466 19.9594 48.7466 18.3914C48.7466 16.8234 48.6266 15.5274 48.3866 14.5034C48.1466 13.4634 47.7626 12.6874 47.2346 12.1754C46.7226 11.6474 46.0346 11.3834 45.1706 11.3834C44.3066 11.3834 43.6106 11.6474 43.0826 12.1754C42.5706 12.6874 42.1946 13.4634 41.9546 14.5034C41.7306 15.5274 41.6186 16.8234 41.6186 18.3914ZM55.809 26.9834L62.841 11.7674H53.601V9.8474H65.097V11.4794L58.137 26.9834H55.809Z" fill="#D3D6B1"/>
<line x1="75.9956" y1="17.2334" x2="245.996" y2="16.2334" stroke="#D3D6B1" stroke-width="1.5"/>
</g>
<defs>
<filter id="filter0_d_202_416" x="0.176025" y="9.5835" width="394.323" height="25.7358" filterUnits="userSpaceOnUse" color-interpolation-filters="sRGB">
<feFlood flood-opacity="0" result="BackgroundImageFix"/>
<feColorMatrix in="SourceAlpha" type="matrix" values="0 0 0 0 0 0 0 0 0 0 0 0 0 0 0 0 0 0 127 0" result="hardAlpha"/>
<feOffset dy="4"/>
<feGaussianBlur stdDeviation="2"/>
<feComposite in2="hardAlpha" operator="out"/>
<feColorMatrix type="matrix" values="0 0 0 0 0 0 0 0 0 0 0 0 0 0 0 0 0 0 0.25 0"/>
<feBlend mode="normal" in2="BackgroundImageFix" result="effect1_dropShadow_202_416"/>
<feBlend mode="normal" in="SourceGraphic" in2="effect1_dropShadow_202_416" result="shape"/>
</filter>
</defs>
</svg>
