<svg width="420" height="220" viewBox="0 0 420 220" fill="none" xmlns="http://www.w3.org/2000/svg">
<g clip-path="url(#clip0_202_421)" filter="url(#filter0_d_202_421)">
<g filter="url(#filter1_d_202_421)">
<path d="M47.333 62.8804C46.9047 63.0946 46.4763 63.3088 46.048 63.7371C44.5487 65.2363 42.1928 65.6647 40.051 65.2363L35.3392 74.6601C39.4085 71.6616 43.9062 69.3057 48.6181 67.8065L47.9756 80.4429L45.8338 80.2287C45.1913 80.2287 44.3346 80.2287 43.692 80.2287C41.3361 80.4429 38.766 79.8003 36.8384 78.5153L37.4809 84.9406L47.1189 83.4413L47.333 96.7203C45.8338 96.2919 44.5487 95.6494 43.2637 94.7927C41.3361 93.5076 39.1943 92.4367 36.8384 91.58C34.4825 90.7233 32.3407 89.4383 30.6273 87.7249L24.4162 90.0808C24.8445 90.5092 25.2729 90.9375 25.7012 91.1517C26.9863 91.58 28.2713 92.0084 29.5564 92.4367C35.7675 93.936 41.7645 96.9344 46.4763 101.218L18.6334 108.928L16.4916 115.782L34.4825 109.357L15.2066 117.495C24.202 114.069 33.4116 110.642 42.407 107.429C46.6905 105.93 50.974 104.216 55.2576 102.503C62.9679 99.7187 71.1066 99.0762 79.2453 100.79L79.6737 90.5092C70.6783 92.4367 61.897 95.4352 53.7583 99.2904C57.3993 95.4352 61.2545 91.7942 64.8955 88.1532C67.4656 85.7973 70.4641 83.8697 73.8909 83.013L71.3208 78.3011L70.8924 78.5153C64.0388 82.3705 58.0419 87.5107 53.1158 93.5076C53.33 89.8666 54.8292 86.4398 57.1852 83.6555C58.0419 82.5846 58.8986 81.7279 59.7553 80.8712C60.8262 80.0145 62.1112 79.372 63.3963 79.1578L68.7507 68.8773C63.6104 71.0191 58.8986 73.8034 54.8292 77.4444L56.7568 66.5214L58.4702 65.8789L59.1127 65.6647C59.5411 65.4505 59.9694 65.4505 60.1836 65.2363C61.4687 64.3796 63.3963 64.808 64.253 66.3072L66.6089 56.4551C59.9694 57.526 53.5442 59.6678 47.333 62.8804ZM65.9664 13.4056C65.3239 11.6922 63.6104 11.2639 61.0403 11.9064C59.7553 12.3348 58.4702 12.7631 57.1852 12.9773C56.971 12.5489 56.3284 12.3348 55.9001 12.3348C55.2576 13.6198 55.0434 14.9049 54.8292 16.1899C54.8292 16.8325 54.8292 17.6892 54.8292 18.3317C55.2576 20.2593 55.0434 22.1869 53.9725 23.9003C53.5442 24.757 52.9016 25.6137 52.2591 26.2562C50.5457 28.6122 48.8323 30.7539 47.1189 33.1099C42.1928 39.5352 37.4809 45.9605 32.769 52.3858C32.1265 53.2425 31.484 54.0992 30.8415 54.9559C25.7012 62.6662 20.561 70.3766 15.4208 78.0869C19.2759 72.7325 23.1311 67.3781 27.4146 62.2379C30.1989 58.811 32.3407 56.2409 33.6258 54.5275C28.2713 61.8095 25.0587 66.3072 23.7736 68.0206C22.4886 69.734 20.9893 71.8758 19.2759 74.2318C17.5625 76.5877 16.0633 78.9436 14.3499 81.5137C12.6365 84.0839 11.1372 86.654 9.63799 89.6525C9.20964 90.295 8.99546 90.9375 8.56711 91.3659C7.7104 92.6509 7.06788 94.1502 6.8537 95.6494C7.92458 95.6494 8.99546 95.0069 9.63799 94.1502C15.8491 85.1547 22.7028 76.8019 30.1989 68.8773C31.484 67.3781 32.9832 66.093 34.2683 64.5938C36.8384 62.0237 39.1943 59.4536 41.5503 56.8835L52.6875 44.0329C53.33 43.1762 54.1867 42.5336 54.8292 41.6769C57.3993 38.8926 59.9694 36.1083 62.7537 33.5382C63.6104 35.0375 64.4672 36.7509 65.1097 38.2501C65.9664 40.1777 66.6089 42.1053 67.0373 44.0329C69.179 53.0283 71.7492 61.8095 74.7476 70.5908C74.9618 71.4475 75.3902 72.09 75.8185 72.9467C76.461 74.0176 76.8894 75.0885 77.5319 76.3735C77.7461 76.8019 77.9603 77.4444 77.7461 77.8727C77.3177 78.3011 77.3177 78.7295 77.3177 79.372C77.5319 79.372 77.7461 79.372 77.7461 79.372C77.9603 79.372 78.3886 79.1578 78.3886 78.9436L84.8139 72.09C85.2423 71.6616 87.384 69.9482 91.2392 66.9497C84.5997 63.0946 80.102 58.5969 78.1744 53.0283C76.0327 47.4597 74.1051 41.4628 71.7492 35.0375C70.0357 30.3256 68.5365 25.6137 67.4656 20.6876C67.4656 17.9033 66.8231 15.5474 65.9664 13.4056Z" fill="#D3D6B1"/>
</g>
<g filter="url(#filter2_d_202_421)">
<path d="M41.3361 175.109C41.7644 180.249 41.9786 185.389 41.9786 190.958C41.9786 192.671 42.1928 194.599 42.407 196.312C42.8353 199.311 43.0495 202.523 43.4778 205.736L44.5487 205.95C44.7629 205.95 45.4054 206.164 46.4763 206.379L44.3345 189.245C45.6196 194.813 46.6905 200.596 47.5472 206.379C49.4748 206.379 51.1882 207.021 52.2591 208.52C52.9016 208.735 53.1158 208.52 52.6874 208.092C51.8307 205.736 50.974 203.38 50.3315 201.024C47.7614 191.6 46.2621 181.963 45.4054 172.325L41.3361 175.109ZM33.4116 177.036V177.679L26.9863 202.309H28.0571C28.6997 202.952 29.128 203.809 29.7705 204.451C30.6273 205.522 31.484 206.807 32.1265 208.092C32.3407 208.52 32.769 209.163 32.9832 209.591C33.6257 210.662 34.6966 211.305 35.7675 211.519C35.7675 210.876 35.7675 210.234 35.7675 209.591C35.3391 204.665 35.125 199.525 35.125 194.599C35.125 188.602 35.125 182.391 35.3391 176.394L33.1974 177.251L33.4116 177.036ZM53.9725 169.326L52.0449 171.254L52.4733 185.389L53.5441 187.317L53.7583 186.246C57.3993 187.103 60.612 189.03 63.3963 191.386L64.0388 191.815L64.8955 191.386L53.9725 169.326ZM29.128 177.251C27.843 177.036 26.3437 176.822 25.0587 176.608C24.6303 176.394 23.9878 176.608 23.7736 177.251C23.7736 177.251 23.7736 177.251 23.7736 177.465L25.9154 178.107C24.8445 180.463 23.5594 182.819 21.846 185.175C18.4192 190.101 14.9924 195.241 11.5656 200.168C11.1372 200.81 10.923 201.238 10.4947 201.881C9.42379 204.451 7.71038 206.379 5.14026 207.664L4.92609 208.735V208.949C4.92609 209.377 5.14026 209.377 5.35444 209.163C8.35291 206.593 11.9939 203.38 16.7058 199.525C17.9908 195.027 19.9184 190.53 22.2744 186.46C21.2035 190.958 19.7043 195.456 17.5625 199.525C20.561 197.383 22.7027 195.884 24.202 195.027C24.202 193.314 24.4161 191.815 24.6303 190.101C24.8445 189.245 25.0587 188.388 25.487 187.531C27.4146 184.104 28.6997 180.892 29.128 177.251ZM73.6767 121.565L75.1759 115.139L61.6828 118.352L75.1759 113.212C72.3917 113.426 69.8215 113.854 67.0372 114.283C62.9679 114.925 59.1127 115.996 55.2575 117.495C49.0464 119.851 38.5518 123.278 23.9878 128.204C29.3422 127.99 32.1265 128.418 32.3407 129.489C33.8399 137.414 34.2683 145.338 33.6257 153.477C33.1974 157.118 32.5548 160.759 31.6981 164.186C31.2698 165.685 30.6273 167.184 29.7705 168.684C28.9138 170.183 28.0571 171.682 27.2004 173.181C27.4146 173.61 27.6288 174.038 27.843 174.466C28.4855 175.537 29.3422 175.966 30.1989 175.323C36.8384 171.682 43.9062 168.898 51.4024 166.756C53.1158 166.328 54.8292 165.685 56.5426 164.828C57.8277 164.186 59.1127 163.758 60.3978 163.543C61.897 163.115 63.3962 163.115 64.8955 163.329L64.6813 164.4H66.8231C66.3947 167.613 65.9664 171.04 66.1805 174.252C66.1805 177.679 66.3947 180.892 66.8231 184.318C67.0373 186.674 67.2514 189.03 67.0372 191.172C66.8231 191.6 66.3947 191.815 66.1805 192.243C65.7522 192.671 65.1097 193.1 64.4671 193.528C63.8246 193.956 62.9679 194.385 62.1112 194.813C61.2545 195.027 60.3978 195.456 59.5411 195.456L56.5426 190.101L56.3284 190.744C55.9001 192.243 55.9001 193.742 55.9001 195.241C55.9001 196.527 56.1143 197.597 56.3284 198.882C56.5426 199.953 56.7568 201.024 57.1851 202.095C59.3269 201.238 61.4687 200.168 63.3963 199.097C64.6813 198.454 66.1805 198.026 67.6798 197.812C70.2499 197.597 73.0342 197.383 75.6043 197.597C75.1759 194.171 74.7476 190.958 74.5334 187.531C73.8909 181.963 73.6767 176.394 73.8909 170.825C74.1051 165.471 75.176 160.331 77.5319 155.405L76.2468 152.192C73.6767 152.835 71.1066 153.477 68.7507 154.12C64.4671 155.619 59.9694 157.332 55.9001 159.26L56.1143 154.976L73.6767 149.408L74.1051 150.693L73.8909 139.77C71.3208 140.412 68.7507 141.269 66.1805 142.34C62.3254 144.053 58.4702 145.981 54.8292 147.908V142.554L73.8909 134.63L74.5334 135.272L75.8185 127.133L54.8292 134.415L54.615 127.133C55.0434 126.705 55.4717 126.491 55.9001 126.277C57.3993 125.634 58.8985 124.992 60.3978 124.563C62.3254 123.921 64.253 123.064 66.1805 122.636L67.6798 122.207C69.8215 121.779 71.7491 121.351 73.6767 121.565ZM47.9755 136.343C47.9755 136.557 47.7614 136.557 47.9755 136.343L40.4794 139.556C40.4794 138.271 40.2652 137.2 40.2652 136.557C40.051 135.272 40.6936 133.987 41.5503 133.13L48.4039 129.918C48.4039 131.845 48.1897 133.773 47.9755 135.915V136.343ZM48.4039 143.411L47.9755 150.05L44.3345 152.192C43.9062 152.406 43.692 152.62 43.4778 152.835C42.6211 153.905 41.3361 154.334 40.051 153.905C40.4794 152.192 40.9077 150.479 41.5503 148.765C42.1928 145.553 45.1913 143.411 48.4039 143.411ZM48.8323 155.405C49.0464 155.405 49.0464 155.619 49.0464 155.833C48.6181 157.546 48.1897 159.474 47.5472 161.187C46.9047 161.187 46.2621 161.402 45.6196 161.83C43.2637 163.115 41.1219 164.614 39.1943 166.328C38.5518 166.97 38.1234 167.184 37.9093 166.756C37.9093 165.899 38.3376 165.257 38.766 164.4C41.3361 160.545 44.7629 157.546 48.8323 155.405ZM41.5503 159.902C41.1219 159.902 41.5503 159.902 41.5503 159.902V159.902Z" fill="#D3D6B1"/>
</g>
<g filter="url(#filter3_d_202_421)">
<path d="M97.4503 173.181C97.4503 173.181 97.6645 173.181 97.8787 173.181C102.162 169.969 106.017 166.542 109.444 162.472C114.37 156.69 121.224 154.762 130.005 156.261L158.491 170.397C155.706 162.472 153.565 154.334 152.279 145.981C151.851 143.839 151.637 141.697 151.423 139.77C150.78 133.987 150.566 128.418 150.352 122.636L132.147 136.557L124.437 130.989L124.651 129.703L122.081 130.774L111.158 152.192C109.444 155.619 107.302 158.831 105.161 162.044C102.591 165.685 100.02 169.326 97.4503 173.181ZM107.945 163.329L106.017 164.186L107.088 162.258L107.945 163.329ZM136.002 143.411C137.501 143.197 138.358 143.411 138.358 144.696C138.572 144.696 138.786 144.696 139.215 144.696C140.5 144.482 141.356 145.338 141.785 147.266L128.934 150.907L128.506 144.91C131.076 144.267 133.432 143.839 136.002 143.411ZM173.911 93.5077C173.697 92.651 173.697 91.7943 173.483 91.1517L147.568 85.5831L117.583 105.502L113.514 110.428L114.799 111.498C111.8 116.853 108.373 121.779 104.518 126.491C102.591 128.633 100.663 130.774 98.7354 132.916C96.1653 135.272 94.8802 138.485 95.0944 141.912C113.299 128.847 133.004 117.71 153.779 108.928L158.062 107.215C158.062 108.5 158.276 109.785 158.276 111.07C158.491 114.925 158.491 118.566 158.062 122.421C156.349 142.982 159.99 163.758 168.343 182.605L169.414 185.175L125.293 162.901C124.865 164.614 124.651 166.328 124.651 168.041C124.651 168.684 124.437 169.112 124.222 169.754C119.939 176.18 115.227 182.605 110.301 189.03C109.658 189.887 109.016 190.744 108.587 191.386C117.797 190.53 127.221 189.887 136.43 189.887C153.565 189.673 168.343 193.742 180.979 201.667C181.193 201.667 181.193 201.881 181.407 201.881L176.053 155.833C178.409 135.058 177.552 114.069 173.911 93.5077ZM178.837 0.769287C163.202 1.41182 147.782 4.19611 133.004 9.33634C138.786 20.0452 141.571 31.8249 141.356 43.8187C137.287 43.8187 133.218 43.8187 129.148 43.6046C123.794 43.3904 118.654 42.5337 113.514 41.2486C110.301 40.3919 107.088 39.9636 103.661 40.1777L102.591 63.523L99.3779 66.0931C102.376 65.2364 105.375 64.3797 108.159 62.8804C119.939 57.3119 132.789 53.885 145.854 52.3858C136.43 60.7387 127.435 69.3057 118.868 77.8728C117.369 79.372 116.298 80.8713 115.227 82.5847C112.228 87.2966 107.945 91.1517 102.805 93.7218C96.1653 97.1487 89.3116 99.933 82.0296 101.861C79.6737 102.503 77.3177 103.146 74.7476 103.574L75.176 103.788C77.3177 104.002 79.6737 104.216 82.0296 104.216C86.5273 104.216 90.8108 105.073 94.8802 106.787C96.8078 107.643 98.9495 108.286 100.877 108.714L151.637 58.3827C155.706 62.2379 159.561 66.5214 162.774 71.0191C169.842 80.6571 177.338 89.8667 185.048 99.2904L185.263 99.7188L217.817 84.9406C216.747 84.5123 215.676 84.0839 214.605 83.4414C204.539 77.0161 194.472 70.3766 184.834 63.523C178.409 59.0253 172.198 54.5276 165.987 49.8157C171.984 49.6015 177.766 50.4582 183.335 52.1716L184.62 52.6C187.19 53.4567 189.546 54.0992 192.116 54.9559V54.7417C192.545 41.4628 197.042 28.398 205.395 18.1176H204.967C197.899 20.9019 191.045 23.9003 184.406 26.8988C175.196 31.3965 166.201 36.5368 157.42 42.1053C162.346 27.113 169.199 12.9773 178.837 0.769287Z" fill="#D3D6B1"/>
</g>
<g filter="url(#filter4_d_202_421)">
<path d="M256.155 64.1654C255.727 62.8804 254.87 61.8095 253.585 61.1669C252.514 62.452 251.657 63.9512 251.015 65.6646C246.089 78.0869 242.234 90.9375 239.663 104.002L234.523 105.287L247.802 39.9635H248.016C248.016 39.5351 248.23 39.3209 248.445 38.8926C248.659 38.4642 248.445 37.8217 248.23 37.3934C248.016 36.965 247.802 36.7508 247.588 36.3225L235.166 12.3347C234.523 21.3301 234.523 30.1114 235.166 39.1068C235.594 45.1037 235.38 50.8865 234.737 56.8834C233.881 65.0221 232.381 73.1608 230.454 81.0854C229.383 85.3689 228.526 89.6524 227.67 93.9359C226.17 102.503 223.386 110.856 219.317 118.78L232.596 119.637C229.597 126.919 227.027 134.201 224.671 141.697C220.816 154.12 215.461 166.113 208.608 177.251C210.964 182.819 212.035 189.03 211.606 195.027C212.677 195.241 213.534 195.241 214.605 195.027C216.961 194.599 219.317 193.742 221.244 192.243C223.6 190.529 225.742 188.388 227.67 186.032C233.881 178.321 240.52 170.825 247.588 163.972L258.297 211.305C258.297 211.09 258.511 210.876 258.511 210.662C258.083 205.736 257.654 200.596 256.798 195.67C255.512 186.888 254.87 177.893 255.298 169.112C255.941 156.261 257.012 143.411 258.939 130.56C259.153 128.847 259.582 127.133 260.224 125.42C261.724 120.708 261.938 115.568 260.653 110.856L248.23 109.785C246.731 119.209 246.303 128.633 247.588 138.056C248.016 141.697 247.588 145.552 246.303 148.979C245.446 151.335 244.161 153.477 242.448 155.19C236.879 160.545 230.882 165.471 224.457 169.54C228.74 159.902 232.381 150.05 235.38 139.984C238.593 129.703 242.448 119.637 246.945 109.785C251.657 99.9329 257.012 90.5091 263.437 81.7279L262.58 81.0854C261.724 80.4428 261.081 79.5861 260.653 78.7294C259.796 77.4443 259.368 75.9451 258.939 74.4459C258.083 71.0191 257.226 67.5922 256.155 64.1654ZM300.918 44.6754C301.132 47.4596 300.918 50.2439 300.49 52.8141C296.634 74.8742 295.992 97.3628 298.562 119.637C299.419 126.705 298.99 133.773 297.063 140.626C295.778 145.767 294.707 150.907 294.064 156.047L274.574 119.851L269.648 138.913C270.933 139.984 272.004 141.055 273.075 142.34C275.003 144.91 276.502 147.48 277.787 150.479C285.283 167.613 293.85 184.104 303.488 200.167C303.916 201.024 304.987 201.667 306.058 201.238C306.272 201.024 306.486 200.81 306.701 200.596C306.915 199.953 307.129 199.311 307.343 198.668C307.772 197.597 307.986 196.526 308.414 195.241C308.842 193.314 309.271 191.172 309.271 189.244C309.485 184.104 310.127 178.964 310.984 173.824C312.269 165.471 313.34 156.904 313.554 148.551C314.411 127.562 315.696 106.572 317.195 85.5831C318.695 65.8788 321.693 46.1746 326.191 26.8987C326.405 26.042 326.191 25.1853 325.334 24.7569C320.836 24.9711 316.339 25.6137 312.055 26.8987C301.989 29.683 292.137 33.1098 282.713 37.6075C277.358 40.1777 275.003 40.1777 270.719 42.9619L266.007 44.4612L263.437 44.6754L262.58 47.6738C262.794 48.1022 262.794 48.5305 262.794 49.1731C263.651 49.1731 284.64 39.7493 292.993 37.1792L262.152 51.3148C262.794 52.1715 263.437 52.8141 264.08 53.8849C263.865 54.9558 263.651 56.2409 263.651 57.3118C263.651 58.811 264.08 60.3102 264.722 61.8095C264.722 62.0236 264.936 62.2378 265.15 62.2378H265.365C268.363 61.8095 268.791 102.289 271.362 100.79C277.787 96.9344 286.354 51.3148 292.137 46.8171C294.921 45.1037 297.919 44.247 300.918 44.6754Z" fill="#D3D6B1"/>
</g>
<g filter="url(#filter5_d_202_421)">
<path d="M360.673 45.1037L365.813 20.4735C361.316 21.116 357.032 22.6152 353.391 25.1853C350.393 27.3271 346.966 28.6122 343.325 29.2547L340.541 26.8987C340.112 27.5413 340.112 28.398 340.541 29.2547C341.826 31.3965 342.468 33.9666 342.682 36.5367C342.682 37.6076 342.896 38.6785 343.111 39.7493C344.182 44.0329 344.824 48.5306 345.038 53.0283L349.108 50.4582C348.465 52.1716 347.608 53.885 346.966 55.8126C346.109 57.526 344.396 58.811 342.468 59.0252L341.611 59.2394C341.183 59.2394 340.969 59.4536 340.755 59.8819C338.185 63.7371 336.9 68.2348 336.9 72.7325L366.884 48.1022C361.744 49.8156 357.032 52.1716 352.749 55.17C353.605 53.0283 354.462 51.1007 355.533 48.9589C356.818 47.2455 358.531 45.7463 360.673 45.1037ZM346.752 36.3225L355.105 30.3256L348.251 38.6785L346.752 36.3225ZM350.393 44.0329L349.964 44.247L356.818 34.8233C356.175 36.7509 355.961 38.6785 355.961 40.8202C354.034 41.8911 352.106 42.962 350.393 44.0329ZM366.884 74.8743L367.313 75.0884L385.732 96.9344C385.732 95.8636 385.732 95.0069 385.946 93.936C386.16 92.6509 386.374 91.58 386.803 90.295C388.088 87.2965 388.944 84.298 389.801 81.0854L386.803 81.5137C384.875 81.7279 382.947 81.5137 381.02 81.2996H380.806C378.45 80.2287 375.88 79.1578 373.524 78.0869C372.024 77.4444 370.525 76.5877 369.24 75.3026C368.383 74.6601 367.527 74.0176 366.67 73.8034L366.884 74.8743C367.098 74.8743 367.098 74.8743 366.884 74.8743ZM361.958 67.1639C362.815 66.3072 363.457 65.0222 363.457 63.9513C363.457 62.6662 363.029 61.5953 362.172 60.7386C361.958 60.7386 361.53 60.7386 361.316 60.7386C359.816 60.9528 358.531 61.3812 357.246 62.2379C354.034 64.1654 351.035 66.5214 348.251 69.0915C348.037 69.3057 347.608 69.734 347.394 69.9482C346.537 71.4474 345.038 72.5183 343.325 72.5183C343.111 72.7325 343.111 72.9467 343.111 73.1609C342.896 74.0176 342.468 74.8743 342.254 75.731C341.611 77.016 341.397 78.5153 342.04 80.0145C344.182 79.8003 346.323 78.9436 348.037 77.4444L348.251 77.2302C343.325 84.0839 339.47 91.3659 336.257 99.2904L350.607 81.9421L348.465 100.79L344.824 93.7218L343.753 100.361C344.396 100.79 344.824 101.218 345.038 101.86C345.895 103.788 346.538 105.502 347.18 107.429C347.394 108.714 348.251 109.571 349.108 110.428C349.536 109.999 349.964 109.571 350.393 108.928C352.32 105.287 353.819 101.432 354.89 97.3628C356.175 92.6509 356.818 87.7249 357.032 82.7988L360.459 90.295L362.387 96.2919C362.815 95.4352 363.243 94.3643 363.243 93.2934C363.243 92.4367 363.457 91.58 363.457 90.7233C363.672 83.8697 361.958 77.2302 358.317 71.4474C359.174 69.9482 360.673 68.6632 361.958 67.1639ZM354.462 70.8049C353.391 71.0191 352.534 71.4474 351.678 72.3041C350.178 74.4459 349.322 74.4459 349.108 72.09L353.605 68.8773L355.533 66.9497C356.818 66.093 356.39 67.3781 354.462 70.8049ZM391.086 42.3194C389.373 43.8187 387.874 45.3179 386.374 46.603C382.733 50.0298 379.306 53.6708 375.88 57.3118C372.881 60.5244 369.883 63.9513 367.313 67.5923L366.028 68.8773L372.024 66.7356C373.524 66.3072 375.023 65.8789 376.736 65.4505L377.593 65.2363C379.735 64.808 381.877 64.5938 384.018 64.5938C385.089 64.5938 386.374 64.5938 387.445 64.808C388.73 65.0222 390.015 65.6647 391.3 66.3072L391.515 43.3903L382.947 51.7432L391.086 42.3194ZM385.303 15.7616C385.089 14.9049 384.661 14.2623 383.804 13.834C383.376 14.4765 382.947 14.9049 382.733 15.5474C382.305 16.4041 382.091 17.2608 381.877 18.3317C380.163 26.6846 377.165 34.8233 373.095 42.3194C372.667 42.962 372.239 43.8187 371.596 44.4612C370.525 45.9604 369.454 47.4597 368.598 48.9589L368.812 49.8156C369.026 49.6014 369.24 49.1731 369.454 48.9589C371.382 47.2455 373.31 45.7463 375.451 44.4612C376.522 43.8187 377.807 42.962 378.878 42.1053C382.733 39.1068 386.803 36.5367 391.3 34.3949L389.587 32.2532C388.088 29.8972 387.231 27.3271 386.803 24.5428C386.588 21.7585 385.946 18.76 385.303 15.7616Z" fill="#D3D6B1"/>
</g>
<g filter="url(#filter6_d_202_421)">
<path d="M374.595 140.627C373.31 143.839 372.453 147.48 372.239 151.121L367.741 152.406L367.527 143.197L362.815 144.053C364.314 147.266 364.743 150.907 364.528 154.548C363.457 154.976 362.172 155.191 360.887 154.976C360.673 154.976 360.245 154.976 360.031 154.976C359.816 154.976 359.602 154.976 359.602 155.191C358.317 156.904 357.461 158.832 357.461 161.188L363.243 159.26C363.457 160.117 363.457 160.973 363.243 161.83C363.243 162.044 363.243 162.258 363.243 162.258L363.029 162.901C363.029 163.115 362.815 163.329 362.601 163.543C360.887 164.614 358.746 165.257 356.604 165.257L356.175 171.468L361.53 169.326C361.316 171.896 361.102 174.252 360.887 176.822C360.673 187.317 355.319 197.812 356.818 208.306C362.601 199.525 373.31 190.316 377.593 180.892L376.951 180.463C376.736 180.463 376.522 180.678 376.308 180.892C371.81 185.604 369.669 185.604 366.028 190.744C366.028 187.317 363.886 189.03 363.886 185.604C363.886 180.035 364.528 174.252 366.242 168.898C372.025 167.184 377.807 165.899 383.59 165.257L384.447 158.189L376.308 161.616L378.45 156.047C378.664 156.047 379.092 156.047 379.307 155.833H379.521H379.735C380.592 155.405 381.448 154.976 382.091 154.548C382.948 154.12 383.804 153.906 384.875 153.906L385.518 147.48L377.379 151.55L380.806 141.269L374.595 140.627ZM369.24 157.761L371.382 157.118L371.596 160.545L368.812 161.402L369.24 157.761ZM376.522 118.138C376.308 118.352 376.094 118.566 375.88 118.781C372.667 120.708 369.24 121.993 365.599 122.636C364.314 122.85 363.243 123.064 362.172 123.492C359.174 124.349 355.961 124.135 353.177 122.85C352.32 122.422 351.678 121.993 351.249 121.351C350.607 120.28 349.536 119.423 348.465 118.995C348.465 119.423 348.465 119.637 348.679 119.851C349.108 120.28 349.108 120.708 349.322 121.351C349.75 126.919 349.75 132.488 348.893 137.842C346.752 153.691 343.753 169.112 339.898 184.533C338.827 189.245 337.542 193.957 336.043 198.668C335.4 201.024 334.544 203.38 333.473 205.522C333.259 206.165 333.259 206.593 333.473 206.807C336.043 201.239 340.541 196.955 342.682 191.172C344.61 185.389 346.966 179.821 349.536 174.466C352.534 168.47 353.177 161.402 354.248 158.403C355.319 155.405 356.604 151.335 358.317 146.838C360.031 142.34 360.887 139.77 361.102 139.342C361.316 138.913 362.815 138.271 365.171 137.414C367.527 136.557 371.596 135.486 377.165 133.987C377.379 133.987 377.379 133.987 377.593 133.987C379.735 134.63 381.662 135.915 382.948 137.842C383.59 139.127 384.875 139.984 386.16 140.198C386.374 135.058 385.518 129.918 384.018 124.778C382.519 119.851 382.091 114.711 382.948 109.571V108.072C380.592 111.499 378.45 114.925 376.522 118.138ZM362.815 133.987C363.029 133.987 363.029 133.987 362.815 133.987V133.987ZM360.031 128.419L363.029 129.061L373.738 126.491L374.809 128.847L358.96 134.844L360.031 128.419ZM370.097 169.969L370.311 170.611C371.596 171.682 372.881 172.967 373.952 174.252C375.023 175.537 376.094 176.608 377.379 177.893C384.875 184.961 392.585 193.1 400.51 202.309H400.938C400.938 202.095 400.938 201.667 401.153 201.667C401.581 201.239 397.94 197.598 390.23 190.53C394.513 193.528 398.368 197.383 401.581 201.667C402.438 201.239 403.294 201.024 404.151 201.024C405.436 201.453 406.507 201.667 407.792 201.881C409.077 202.095 410.362 202.095 411.433 201.667C411.433 201.667 411.433 201.453 411.219 201.453C408.22 199.739 405.436 198.026 402.866 195.67C400.51 193.742 398.368 191.601 396.226 189.459L370.097 169.969ZM396.226 189.245C394.085 187.103 391.943 185.389 389.373 184.104C383.59 180.678 378.45 176.822 373.524 172.325C372.453 171.468 371.382 170.611 370.311 169.969L396.226 189.245ZM389.159 163.115C387.874 166.328 386.374 169.112 384.447 171.896C383.804 172.539 383.59 173.61 383.59 174.466C383.804 174.466 384.018 174.466 384.233 174.466C385.732 173.824 387.231 172.753 388.302 171.468C390.015 169.54 392.157 168.041 394.513 167.184L389.159 163.115Z" fill="#D3D6B1"/>
</g>
</g>
<defs>
<filter id="filter0_d_202_421" x="-4" y="0.983398" width="428" height="221.534" filterUnits="userSpaceOnUse" color-interpolation-filters="sRGB">
<feFlood flood-opacity="0" result="BackgroundImageFix"/>
<feColorMatrix in="SourceAlpha" type="matrix" values="0 0 0 0 0 0 0 0 0 0 0 0 0 0 0 0 0 0 127 0" result="hardAlpha"/>
<feOffset dy="4"/>
<feGaussianBlur stdDeviation="2"/>
<feComposite in2="hardAlpha" operator="out"/>
<feColorMatrix type="matrix" values="0 0 0 0 0 0 0 0 0 0 0 0 0 0 0 0 0 0 0.25 0"/>
<feBlend mode="normal" in2="BackgroundImageFix" result="effect1_dropShadow_202_421"/>
<feBlend mode="normal" in="SourceGraphic" in2="effect1_dropShadow_202_421" result="shape"/>
</filter>
<filter id="filter1_d_202_421" x="2.8537" y="11.6228" width="92.3855" height="113.873" filterUnits="userSpaceOnUse" color-interpolation-filters="sRGB">
<feFlood flood-opacity="0" result="BackgroundImageFix"/>
<feColorMatrix in="SourceAlpha" type="matrix" values="0 0 0 0 0 0 0 0 0 0 0 0 0 0 0 0 0 0 127 0" result="hardAlpha"/>
<feOffset dy="4"/>
<feGaussianBlur stdDeviation="2"/>
<feComposite in2="hardAlpha" operator="out"/>
<feColorMatrix type="matrix" values="0 0 0 0 0 0 0 0 0 0 0 0 0 0 0 0 0 0 0.25 0"/>
<feBlend mode="normal" in2="BackgroundImageFix" result="effect1_dropShadow_202_421"/>
<feBlend mode="normal" in="SourceGraphic" in2="effect1_dropShadow_202_421" result="shape"/>
</filter>
<filter id="filter2_d_202_421" x="0.926086" y="113.212" width="80.6058" height="106.307" filterUnits="userSpaceOnUse" color-interpolation-filters="sRGB">
<feFlood flood-opacity="0" result="BackgroundImageFix"/>
<feColorMatrix in="SourceAlpha" type="matrix" values="0 0 0 0 0 0 0 0 0 0 0 0 0 0 0 0 0 0 127 0" result="hardAlpha"/>
<feOffset dy="4"/>
<feGaussianBlur stdDeviation="2"/>
<feComposite in2="hardAlpha" operator="out"/>
<feColorMatrix type="matrix" values="0 0 0 0 0 0 0 0 0 0 0 0 0 0 0 0 0 0 0.25 0"/>
<feBlend mode="normal" in2="BackgroundImageFix" result="effect1_dropShadow_202_421"/>
<feBlend mode="normal" in="SourceGraphic" in2="effect1_dropShadow_202_421" result="shape"/>
</filter>
<filter id="filter3_d_202_421" x="70.7476" y="0.769287" width="151.07" height="209.112" filterUnits="userSpaceOnUse" color-interpolation-filters="sRGB">
<feFlood flood-opacity="0" result="BackgroundImageFix"/>
<feColorMatrix in="SourceAlpha" type="matrix" values="0 0 0 0 0 0 0 0 0 0 0 0 0 0 0 0 0 0 127 0" result="hardAlpha"/>
<feOffset dy="4"/>
<feGaussianBlur stdDeviation="2"/>
<feComposite in2="hardAlpha" operator="out"/>
<feColorMatrix type="matrix" values="0 0 0 0 0 0 0 0 0 0 0 0 0 0 0 0 0 0 0.25 0"/>
<feBlend mode="normal" in2="BackgroundImageFix" result="effect1_dropShadow_202_421"/>
<feBlend mode="normal" in="SourceGraphic" in2="effect1_dropShadow_202_421" result="shape"/>
</filter>
<filter id="filter4_d_202_421" x="204.608" y="12.3347" width="125.66" height="206.97" filterUnits="userSpaceOnUse" color-interpolation-filters="sRGB">
<feFlood flood-opacity="0" result="BackgroundImageFix"/>
<feColorMatrix in="SourceAlpha" type="matrix" values="0 0 0 0 0 0 0 0 0 0 0 0 0 0 0 0 0 0 127 0" result="hardAlpha"/>
<feOffset dy="4"/>
<feGaussianBlur stdDeviation="2"/>
<feComposite in2="hardAlpha" operator="out"/>
<feColorMatrix type="matrix" values="0 0 0 0 0 0 0 0 0 0 0 0 0 0 0 0 0 0 0.25 0"/>
<feBlend mode="normal" in2="BackgroundImageFix" result="effect1_dropShadow_202_421"/>
<feBlend mode="normal" in="SourceGraphic" in2="effect1_dropShadow_202_421" result="shape"/>
</filter>
<filter id="filter5_d_202_421" x="332.257" y="13.834" width="63.2575" height="104.594" filterUnits="userSpaceOnUse" color-interpolation-filters="sRGB">
<feFlood flood-opacity="0" result="BackgroundImageFix"/>
<feColorMatrix in="SourceAlpha" type="matrix" values="0 0 0 0 0 0 0 0 0 0 0 0 0 0 0 0 0 0 127 0" result="hardAlpha"/>
<feOffset dy="4"/>
<feGaussianBlur stdDeviation="2"/>
<feComposite in2="hardAlpha" operator="out"/>
<feColorMatrix type="matrix" values="0 0 0 0 0 0 0 0 0 0 0 0 0 0 0 0 0 0 0.25 0"/>
<feBlend mode="normal" in2="BackgroundImageFix" result="effect1_dropShadow_202_421"/>
<feBlend mode="normal" in="SourceGraphic" in2="effect1_dropShadow_202_421" result="shape"/>
</filter>
<filter id="filter6_d_202_421" x="329.312" y="108.072" width="86.1208" height="108.235" filterUnits="userSpaceOnUse" color-interpolation-filters="sRGB">
<feFlood flood-opacity="0" result="BackgroundImageFix"/>
<feColorMatrix in="SourceAlpha" type="matrix" values="0 0 0 0 0 0 0 0 0 0 0 0 0 0 0 0 0 0 127 0" result="hardAlpha"/>
<feOffset dy="4"/>
<feGaussianBlur stdDeviation="2"/>
<feComposite in2="hardAlpha" operator="out"/>
<feColorMatrix type="matrix" values="0 0 0 0 0 0 0 0 0 0 0 0 0 0 0 0 0 0 0.25 0"/>
<feBlend mode="normal" in2="BackgroundImageFix" result="effect1_dropShadow_202_421"/>
<feBlend mode="normal" in="SourceGraphic" in2="effect1_dropShadow_202_421" result="shape"/>
</filter>
<clipPath id="clip0_202_421">
<rect width="420" height="213.534" fill="white" transform="translate(0 0.983398)"/>
</clipPath>
</defs>
</svg>
