<svg id="圖層_1" data-name="圖層 1" xmlns="http://www.w3.org/2000/svg" viewBox="0 0 59.53 70.87"><defs><style>.cls-1{fill:#fff;}.cls-2{fill:#57ba8d;}.cls-3{fill:#040000;}</style></defs><title>首頁圖層用</title><path class="cls-1" d="M23.34,14.33q.21.95-2.21,4.46t-9.77,6.27L14.78,31a16,16,0,0,0,10.34-5c2.72-2.88,4.12-5.36,4.18-7.44q-2.78-1.92-6-4.2"/><path class="cls-2" d="M8.24,3.22Q4,.1,2.28.29c-1.14.13-1.81,1-2,2.58a30.77,30.77,0,0,0,2.39,5.3q2,3.83,4.73,9.29c1.83,3.64,3.15,6.17,4,7.61q7.35-2.76,9.77-6.28t2.21-4.46c-1.36-1-2.84-2.05-4.46-3.25L8.24,3.22M56.58,21.87a19.22,19.22,0,0,0-3.94-3.57L41.82,26.91c2,1.1,3.85,2.21,5.72,3.34-1.87-1.13-3.77-2.24-5.72-3.34q-6.27-4.1-12.52-8.38c-.06,2.08-1.46,4.56-4.18,7.44a16,16,0,0,1-10.34,5c.59,1.06,1.19,2.11,1.8,3.16q2.93,5.07,5.92,10.08,1.3,2.19,2.64,4.37Q23.81,46.4,22.5,44.2c-1.58,1.33-3,2.61-4.28,3.86A26.82,26.82,0,0,0,18,54.25q.42,6,.38,12.07c0,1.08,1,2,3,2.81l10.25-8.42q9-6.83,15.08-12t8.65-7.38c1.7-1.49,2.84-2.51,3.42-3.08s.65-1.93.18-4.09-.95-4.62-1.46-7.37-.82-4.4-.9-5m0,14.86a19.68,19.68,0,0,0-.29-2.65q-.28-1.83-.93-5.67T54,20.56q.76,4,1.43,7.85t.93,5.67a19.68,19.68,0,0,1,.29,2.65q-.88,1-1.65,1.74l-.18.19L21.56,65.79,54.78,38.66l.18-.19q.76-.77,1.65-1.74M41,44.33a22.43,22.43,0,0,0,7.21-12.09A22.43,22.43,0,0,1,41,44.33q-5.74,5.27-12,5.56,6.21-.28,12-5.56M24,31.65a.94.94,0,0,1-.05-.3l4.8.2-.6-3.85,3-.07-.92-4.05,8.28,3.76-5-1.13.88,4c-2.19-.33-3.24.13-3.17,1.36s.1,2.27.13,3.09c-.82.07-1.8.08-2.93.06-.56,0-1.12,0-1.68,0l-.11,5.43Q25.24,35.89,24,31.65"/><path class="cls-3" d="M24,31.35a.73.73,0,0,0,.06.3q1.18,4.24,2.58,8.46l.11-5.43c.56,0,1.12,0,1.68,0,1.13,0,2.11,0,2.93,0,0-.82-.07-1.84-.13-3.09s1-1.69,3.17-1.36l-.88-4,5,1.13-8.27-3.76.91,4-3,.08.6,3.85Z"/><path class="cls-1" d="M21.36,69.41l-.1,0c-2.13-.83-3.2-1.87-3.2-3.07,0-4-.11-8.06-.38-12A26.89,26.89,0,0,1,18,48a.28.28,0,0,1,.08-.15c1.22-1.2,2.61-2.45,4.11-3.72-1.95-3.27-3.9-6.59-5.8-9.88-.61-1-1.21-2.11-1.8-3.16h0l-3.41-5.88h0c-.8-1.44-2.14-4-4-7.62S3.75,10.83,2.42,8.3A31.17,31.17,0,0,1,0,2.94a.34.34,0,0,1,0-.1C.21,1.11,1,.16,2.25,0S5.48.85,8.41,3l10.64,7.86c1.6,1.19,3.1,2.28,4.45,3.24h0c2.1,1.51,4.1,2.92,5.95,4.19h0c4.09,2.8,8.24,5.58,12.35,8.26l10.66-8.49a.27.27,0,0,1,.32,0,19.27,19.27,0,0,1,4,3.62.2.2,0,0,1,.06.14c.09.56.39,2.23.9,5s1,5.21,1.47,7.36.4,3.71-.26,4.35-1.74,1.61-3.44,3.08-4.61,4-8.65,7.39-9.11,7.44-15.1,12L21.54,69.35a.3.3,0,0,1-.18.06M18.48,48.19a26.66,26.66,0,0,0-.25,6c.28,4,.41,8.07.38,12.09,0,.93.91,1.77,2.7,2.49l10.12-8.32c6-4.52,11-8.54,15.08-12s6.94-5.9,8.64-7.38,2.84-2.51,3.42-3.07c.35-.33.65-1.28.1-3.83-.46-2.16-1-4.64-1.46-7.37s-.8-4.27-.89-4.9a18.94,18.94,0,0,0-3.67-3.34L42.32,26.88c1.81,1,3.62,2.08,5.36,3.13a.27.27,0,0,1,.1.38.28.28,0,0,1-.38.1c-1.86-1.12-3.78-2.24-5.71-3.33h0c-4-2.64-8.11-5.37-12.13-8.12-.25,2-1.67,4.43-4.22,7.13a16.24,16.24,0,0,1-10.09,5c.52.93,1.06,1.87,1.6,2.79,1.93,3.36,3.92,6.75,5.91,10.08h0c.87,1.46,1.76,2.93,2.64,4.36a.28.28,0,0,1-.48.29c-.82-1.34-1.65-2.72-2.47-4.09C21,45.84,19.66,47,18.48,48.19m-6.72-23,3.17,5.45a15.79,15.79,0,0,0,10-4.88c2.6-2.75,4-5.13,4.1-7.1-1.7-1.18-3.52-2.46-5.42-3.83A13.57,13.57,0,0,1,21.36,19c-1.6,2.33-4.83,4.43-9.6,6.26M.56,2.85A31.22,31.22,0,0,0,2.92,8c1.32,2.54,2.91,5.67,4.73,9.29,1.73,3.45,3,5.93,3.83,7.39,4.71-1.79,7.88-3.84,9.43-6.09,1.86-2.71,2.18-3.75,2.17-4.14-1.33-1-2.8-2-4.36-3.19L8.08,3.44c-2.77-2-4.71-3-5.77-2.88S.74,1.43.56,2.85M26.63,40.38a.28.28,0,0,1-.26-.19c-.93-2.79-1.8-5.63-2.59-8.45a1,1,0,0,1-.07-.39.27.27,0,0,1,.08-.19.25.25,0,0,1,.21-.08l4.46.18-.54-3.52a.25.25,0,0,1,.06-.22.26.26,0,0,1,.2-.1l2.66-.07L30,23.64a.3.3,0,0,1,.1-.28.27.27,0,0,1,.29,0l8.27,3.75a.3.3,0,0,1,.15.35.29.29,0,0,1-.33.18l-4.6-1,.78,3.55a.26.26,0,0,1-.07.25.27.27,0,0,1-.24.09c-1.63-.25-2.31,0-2.59.26a.92.92,0,0,0-.26.8c.06,1.25.1,2.29.13,3.1a.28.28,0,0,1-.26.28,27.22,27.22,0,0,1-2.95.06c-.47,0-.94,0-1.4,0l-.11,5.16a.27.27,0,0,1-.24.27h0m-2.3-8.74c.64,2.27,1.33,4.56,2.06,6.82l.07-3.79a.3.3,0,0,1,.27-.27c.57,0,1.14,0,1.71,0,1,0,1.87,0,2.62,0,0-.77-.06-1.71-.12-2.81a1.49,1.49,0,0,1,.45-1.25A3.38,3.38,0,0,1,34,29.86l-.8-3.59a.26.26,0,0,1,.08-.25.27.27,0,0,1,.25-.08l2.42.54-5.32-2.42.79,3.5a.27.27,0,0,1-.05.23.26.26,0,0,1-.21.11L28.51,28l.55,3.54a.28.28,0,0,1-.06.23.31.31,0,0,1-.22.09Z"/><path class="cls-1" d="M48.21,32.32v-.08s0,0,0,0,0,0,0,0l-.11.38v0l-.69,2.06-.78,1.8-.06.11,0,.06-.39.74L44.55,40l-1.16,1.48L41.86,43.1l0,0-1,1h0l-1.75,1.5,0,0-.08.07-1.71,1.22-.7.43h0l0,0-.69.4-2.07,1-2,.66h-.05l-1.05.24h-.05L29,49.88s0,0,0,0h0l.8,0H30l.27,0c.51,0,1-.12,1.37-.19a17.93,17.93,0,0,0,1.75-.41l1.15-.41L36.38,48l1.32-.77,1.66-1.15,0,0,.13-.09c.3-.24.64-.51,1-.83l.25-.21.06-.06.07,0,.3-.28.06-.05,1.35-1.32.05-.07.66-.72c.2-.23.47-.56.82-1l.19-.26,0-.06.67-1L46.33,38l.61-1.32.7-1.91c.11-.35.23-.8.35-1.33ZM54,20.54s0,0,0,0l2.21,13.91.18,1.76c0,.14,0,.27,0,.39l-1.53,1.61,0,0,0,0h0l-.14.15h0l-20,16.33-13.09,11v0s0,0,0,0l5.6-4.4L54.93,38.86l0,0,1.83-2h0a.25.25,0,0,0,.05-.16,4.7,4.7,0,0,0,0-.53l0-.51c0-.21-.07-.55-.14-1L54.8,24.57l-.83-4s0,0,0,0"/><path class="cls-3" d="M11.32,16c-.34.24-.45.71-.33,1.4a5.55,5.55,0,0,0,.95,2.16,5.69,5.69,0,0,0,1.68,1.65c.61.36,1.09.42,1.43.18s.46-.71.34-1.4a5.52,5.52,0,0,0-1-2.16,5.46,5.46,0,0,0-1.68-1.65c-.6-.36-1.08-.42-1.43-.18"/><path class="cls-1" d="M14.57,21.78a2.21,2.21,0,0,1-1.09-.36,5.82,5.82,0,0,1-1.77-1.74,5.87,5.87,0,0,1-1-2.26c-.14-.81,0-1.37.45-1.67a1.54,1.54,0,0,1,1.73.17,5.67,5.67,0,0,1,1.77,1.73,5.87,5.87,0,0,1,1,2.26,1.57,1.57,0,0,1-.45,1.68,1.1,1.1,0,0,1-.64.19M11.8,16.11a.57.57,0,0,0-.32.09c-.25.17-.32.55-.22,1.13a5.19,5.19,0,0,0,.91,2,5.36,5.36,0,0,0,1.59,1.57c.5.3.88.36,1.13.19s.32-.55.22-1.12A5.17,5.17,0,0,0,14.2,18a5.36,5.36,0,0,0-1.59-1.57,1.66,1.66,0,0,0-.81-.28"/><path class="cls-3" d="M15.62,11.56c-.35.24-.46.71-.34,1.4a5.49,5.49,0,0,0,1,2.16,5.69,5.69,0,0,0,1.68,1.65c.61.36,1.09.42,1.43.18s.46-.71.34-1.4a5.49,5.49,0,0,0-.95-2.16A5.6,5.6,0,0,0,17,11.74c-.6-.36-1.08-.42-1.42-.18"/><path class="cls-1" d="M18.87,17.37a2.25,2.25,0,0,1-1.1-.36A5.76,5.76,0,0,1,16,15.28,5.85,5.85,0,0,1,15,13a1.57,1.57,0,0,1,.46-1.67,1.53,1.53,0,0,1,1.72.17A5.67,5.67,0,0,1,19,13.24a5.72,5.72,0,0,1,1,2.26,1.57,1.57,0,0,1-.45,1.68,1.07,1.07,0,0,1-.63.19M16.09,11.7a.57.57,0,0,0-.32.09c-.24.17-.32.55-.22,1.13a5.34,5.34,0,0,0,.91,2,5.16,5.16,0,0,0,1.6,1.57c.5.3.88.36,1.13.19s.32-.55.21-1.12a5.34,5.34,0,0,0-.9-2A5.39,5.39,0,0,0,16.9,12a1.78,1.78,0,0,0-.81-.28"/></svg>