<svg id="圖層_1" data-name="圖層 1" xmlns="http://www.w3.org/2000/svg" xmlns:xlink="http://www.w3.org/1999/xlink" viewBox="0 0 419.53 612.28"><defs><style>.cls-1{fill:none;}.cls-2{clip-path:url(#clip-path);}.cls-3{fill:#f6ae67;}.cls-4{fill:#f3ee72;}.cls-5{fill:#ec661a;}.cls-6{fill:#86c897;}.cls-7{fill:#5460aa;}.cls-8{fill:#6da6da;}</style><clipPath id="clip-path"><path class="cls-1" d="M110.94,49a.21.21,0,0,0,0,.38c0,.1.11.15.19.15a.23.23,0,0,0,.22-.15.27.27,0,0,0,0-.38.25.25,0,0,0-.22-.11.23.23,0,0,0-.19.11"/></clipPath></defs><title>首頁圖層用</title><path class="cls-3" d="M213.19,19.25c2.38,3.84,3,5.9,2,6.19q37.6,33.15,63.74,68.09t39.57,69.95q13.39,35,14.18,68.81a187.32,187.32,0,0,1-10,65.19q-11.16,32.63-34.48,67.5A413.42,413.42,0,0,1,232,431.5a459.7,459.7,0,0,1-71.24,56.19,449,449,0,0,1-79.17,40.42Q86,536.5,91.87,545.75t32,11.11a487.75,487.75,0,0,0,71-46.49,484,484,0,0,0,64.64-61.12,438.51,438.51,0,0,0,50.84-70.8q21-36.87,30.62-71a199.25,199.25,0,0,0,7-68.19Q345.5,204,330.39,167.38t-42.87-73q-27.75-36.48-66.55-71-1.33.57-7.78-4.13"/><path class="cls-4" d="M217,16.29q5.7,6.3,4,7.09,38.8,34.49,66.55,71t42.87,73Q345.5,204,347.91,239.3a199.25,199.25,0,0,1-7,68.19q-9.65,34.1-30.62,71a438.51,438.51,0,0,1-50.84,70.8,484.48,484.48,0,0,1-64.63,61.12,488.37,488.37,0,0,1-71,46.49q-.24,12.5,10.79,16.75t29.62.58a521,521,0,0,0,63.77-50.76,503.69,503.69,0,0,0,58.42-64.83,465.1,465.1,0,0,0,45.61-73.8q18.68-38.1,26.82-72.89a207.28,207.28,0,0,0,4-69.88q-4-36.24-20.72-73.75T296.26,93.45Q267,56.1,227.21,20.91q-1.32.46-10.2-4.62"/><path class="cls-5" d="M203.81,18.78q6.84,7.34,4.75,7.2,37.68,32.75,63.65,67.12t39.09,68.71q13.09,34.37,13.62,67.54a182.94,182.94,0,0,1-10.46,64q-11.4,32.3-35.92,66.28A382.64,382.64,0,0,1,219.19,424a436,436,0,0,1-76,52.81A428,428,0,0,1,57.5,512.35Q56.45,516.87,59,523.7t22.6,4.41a449,449,0,0,0,79.17-40.42A460.3,460.3,0,0,0,232,431.5,413.42,413.42,0,0,0,288.17,365q23.31-34.87,34.48-67.5a187.32,187.32,0,0,0,10-65.19q-.78-33.79-14.17-68.81T278.9,93.53q-26.14-34.94-63.74-68.09-1.28.31-11.35-6.66"/><path class="cls-6" d="M363,383.11q15.35-38.46,21-72.75,5.54-33.53-.87-69.78t-25.67-73.84q-19.29-37.58-50.59-74.89a598.33,598.33,0,0,0-73-72.3q-1.45,0-23.69-19.55,18.9,20.22,17,20.91,39.84,35.19,69,72.54t45.93,74.83q16.74,37.5,20.72,73.75a207.53,207.53,0,0,1-4,69.88q-8.16,34.79-26.83,72.89a465.64,465.64,0,0,1-45.61,73.81,504.26,504.26,0,0,1-58.42,64.82,522,522,0,0,1-63.77,50.77q1.44,9.09,12.57,12,11,2.87,40.67-4.78A661.56,661.56,0,0,0,274,525.72a498.41,498.41,0,0,0,50.59-67.33A478.84,478.84,0,0,0,363,383.11"/><path class="cls-7" d="M371.35,166q21.56,37.38,30.53,73.44t5.72,69.23q-3.25,33.59-15.23,72.07A503.09,503.09,0,0,1,361.22,457a506.2,506.2,0,0,1-42.61,69.54,465.84,465.84,0,0,1-47.79,55.58q6.09,4.67,15.37,3.49a125.33,125.33,0,0,0,12.61-2,488.56,488.56,0,0,0,42-58.08A563.13,563.13,0,0,0,378,454a564.82,564.82,0,0,0,27-76.7q10.26-38.25,12.88-71t-7-68.44q-9.62-35.7-31.75-72.79t-56-73.76a651.3,651.3,0,0,0-77.27-70.62c-.76-.07-4.06-2.27-9.9-6.63q5.42,6.13,3.53,5.82a650.26,650.26,0,0,1,76.78,71.59q33.44,37,55.07,74.46"/><path class="cls-8" d="M401.88,239.43q-9-36.08-30.53-73.45T316.28,91.52A651.1,651.1,0,0,0,239.5,19.93q-1.17-.21-13.31-10.64,9.38,10.22,7.74,10.26a599,599,0,0,1,73,72.3q31.31,37.31,50.59,74.89t25.67,73.84q6.4,36.25.88,69.78-5.7,34.29-21,72.75a479.63,479.63,0,0,1-38.45,75.28A499.3,499.3,0,0,1,274,525.72a661.56,661.56,0,0,1-56.44,55.74q14.17,17.07,53.29.63a464.91,464.91,0,0,0,47.79-55.57A506.2,506.2,0,0,0,361.22,457a503.09,503.09,0,0,0,31.15-76.26q12-38.49,15.23-72.07,3.16-33.19-5.72-69.22"/></svg>