<svg id="圖層_1" data-name="圖層 1" xmlns="http://www.w3.org/2000/svg" viewBox="0 0 56.69 56.69"><defs><style>.cls-1{fill:#fff;}.cls-2{fill:#f29666;}.cls-3{fill:#040000;}</style></defs><title>首頁圖層用</title><path class="cls-1" d="M36.43,18c-.26,2.56-2.53,4.66-6.84,6.31a12.71,12.71,0,0,1-9.65-1q-4.86-2.44-3.18-10.51l-2.77,8a9.54,9.54,0,0,0,1.78,4.69q3.91,4.66,11.58,3.77t10.82-4.78a9.38,9.38,0,0,0,1.55-6.71l-.18-.26-3-4.12A16.4,16.4,0,0,1,36.43,18"/><path class="cls-2" d="M28.47,2.81l-.6-.62q-4.07-4.14-7.26.62a52.78,52.78,0,0,0-3.85,10q-1.68,8.07,3.18,10.51a12.71,12.71,0,0,0,9.65,1Q36,21.81,36.43,18a16.4,16.4,0,0,0,.09-4.63l-1.85-2.69L30,4.62c-.57-.68-1.1-1.29-1.57-1.81m5,.7A2.61,2.61,0,0,0,31.27,4,10.66,10.66,0,0,1,30,4.62l4.63,6,1.85,2.69,3,4.12.18.26q2.84,4.11,5,7.18-2.16-3.07-5-7.18a9.34,9.34,0,0,1-1.56,6.71Q35,28.32,27.35,29.21T15.77,25.44A9.45,9.45,0,0,1,14,20.75L12.06,27,14,20.75l2.77-8L1.91,22.53c-.14.12-.26.25-.38.37q-2.41,2.49-.21,5.4l.21.28,21.71,23.3a3.4,3.4,0,0,0,4.18,1.61L55.29,31.56a3.91,3.91,0,0,0,.1-5.4.64.64,0,0,0-.1-.13L35.28,5a6,6,0,0,0-1.86-1.45"/><path class="cls-1" d="M26.17,54A3.67,3.67,0,0,1,23,52L1.33,28.76s0,0,0,0l-.2-.28c-1.55-2.05-1.47-4,.23-5.75l.38-.38,0,0,14.78-9.68a52,52,0,0,1,3.84-9.94h0Q22,.2,24,0c1.29-.12,2.67.55,4.08,2l.6.63c.45.48.93,1,1.46,1.67l1-.55a2.82,2.82,0,0,1,2.38-.49,6.18,6.18,0,0,1,1.95,1.52l20,21.07a1,1,0,0,1,.13.15,4.17,4.17,0,0,1-.12,5.73l0,0L27.59,53.7l-.09,0a4.65,4.65,0,0,1-1.33.21M1.73,28.41,23.43,51.7l0,0a3.13,3.13,0,0,0,3.84,1.52L55.1,31.37a3.64,3.64,0,0,0,.08-5.05l-.08-.1-20-21.08a5.74,5.74,0,0,0-1.77-1.38,2.37,2.37,0,0,0-1.92.45l-.95.52,4.43,5.76,1.86,2.69h0l3,4.11.19.27h0c1.89,2.72,3.57,5.13,5,7.17a.27.27,0,0,1-.07.37.28.28,0,0,1-.37-.06l-4.39-6.3a10.3,10.3,0,0,1-1.72,5.81l0,0c-2.13,2.63-5.82,4.27-11,4.87a19.52,19.52,0,0,1-2.37.14c-4,0-7.21-1.34-9.44-4a0,0,0,0,1,0,0A10.72,10.72,0,0,1,13.9,22l-1.59,5.16a.26.26,0,1,1-.5-.16l1.92-6.29h0l2.52-7.22L2.07,22.74l-.35.34C.21,24.66.14,26.31,1.53,28.14l.2.27M16,25.28c2.54,3,6.35,4.24,11.34,3.66S35.91,26.79,38,24.28a9.16,9.16,0,0,0,1.52-6.45l-.15-.21L36.9,14.31A33.38,33.38,0,0,1,36.69,18c-.26,2.66-2.62,4.85-7,6.53h0a12.94,12.94,0,0,1-9.85-1c-2.75-1.38-4-4.08-3.71-8l-1.85,5.31A9.4,9.4,0,0,0,16,25.28m1-12.43c-1.08,5.22-.06,8.65,3,10.21a12.46,12.46,0,0,0,9.44,1c4.18-1.6,6.42-3.65,6.66-6.08a16.46,16.46,0,0,0,.12-4.49L34.45,10.8l-4.62-6c-.56-.68-1.09-1.28-1.56-1.8l-.59-.61C26.38,1.06,25.15.44,24,.54s-2.19.92-3.2,2.41A52.87,52.87,0,0,0,17,12.85"/><path class="cls-3" d="M22.88,15.36a1.87,1.87,0,0,0-1.36,1,2.65,2.65,0,0,0-.32,1.87,2.72,2.72,0,0,0,.89,1.69,1.93,1.93,0,0,0,1.6.52,1.85,1.85,0,0,0,1.36-1,2.93,2.93,0,0,0-.57-3.56,1.9,1.9,0,0,0-1.6-.52"/><path class="cls-1" d="M23.41,20.68a2.24,2.24,0,0,1-1.5-.6,3.22,3.22,0,0,1-.62-3.9,2.09,2.09,0,0,1,1.55-1.08,2.15,2.15,0,0,1,1.82.58,3,3,0,0,1,1,1.84,3,3,0,0,1-.36,2.06,2.12,2.12,0,0,1-1.55,1.08,1.77,1.77,0,0,1-.32,0m-.24-5.08-.25,0a1.62,1.62,0,0,0-1.18.84,2.42,2.42,0,0,0-.28,1.69,2.42,2.42,0,0,0,.81,1.53,1.61,1.61,0,0,0,1.38.45,1.54,1.54,0,0,0,1.17-.82,2.41,2.41,0,0,0,.3-1.7,2.48,2.48,0,0,0-.82-1.53,1.66,1.66,0,0,0-1.13-.48"/><path class="cls-3" d="M32.38,12.19a1.89,1.89,0,0,0-1.37,1A2.71,2.71,0,0,0,30.69,15a2.73,2.73,0,0,0,.9,1.69,1.89,1.89,0,0,0,1.6.52,1.87,1.87,0,0,0,1.36-1,2.71,2.71,0,0,0,.33-1.87A2.82,2.82,0,0,0,34,12.71a1.9,1.9,0,0,0-1.59-.52"/><path class="cls-1" d="M32.89,17.52a2.2,2.2,0,0,1-1.49-.61,3,3,0,0,1-1-1.85,3,3,0,0,1,.36-2,2.1,2.1,0,0,1,1.55-1.09,2.18,2.18,0,0,1,1.82.58,3.05,3.05,0,0,1,1,1.85h0a3,3,0,0,1-.36,2.05,2.12,2.12,0,0,1-1.55,1.08,1.84,1.84,0,0,1-.33,0m-.23-5.08a1.06,1.06,0,0,0-.25,0,1.58,1.58,0,0,0-1.18.83A2.42,2.42,0,0,0,31,15a2.46,2.46,0,0,0,.8,1.53,1.67,1.67,0,0,0,1.39.46,1.58,1.58,0,0,0,1.17-.83,2.46,2.46,0,0,0,.3-1.7,2.51,2.51,0,0,0-.82-1.53,1.64,1.64,0,0,0-1.13-.47"/><path class="cls-3" d="M36.36,33.07l1.46-2.84,3.77,1.94L36.47,27.7,35,30.6l-2.67-.66-1.63,2.71-4.09-1.28a.57.57,0,0,0-.12.21c-.9,2.08-1.72,4.16-2.49,6.24l3.16-3.58q.73.18,1.44.42c1,.29,1.84.5,2.6.65.43-.55,1-1.24,1.62-2.09s1.8-.88,3.53-.15"/><path class="cls-1" d="M24,38.08a.31.31,0,0,1-.13,0,.26.26,0,0,1-.11-.32c.75-2.07,1.59-4.17,2.48-6.24a.83.83,0,0,1,.17-.3.27.27,0,0,1,.28-.08l3.88,1.22,1.53-2.52a.28.28,0,0,1,.29-.13l2.47.61,1.36-2.71a.3.3,0,0,1,.19-.14.25.25,0,0,1,.22.06L41.77,32a.26.26,0,0,1,0,.35.25.25,0,0,1-.34.08l-3.53-1.81-1.35,2.6a.26.26,0,0,1-.34.13c-1.59-.68-2.67-.65-3.21.06s-1.19,1.55-1.62,2.09a.26.26,0,0,1-.26.1c-.77-.15-1.65-.37-2.62-.66-.42-.14-.85-.26-1.28-.37L24.21,38a.25.25,0,0,1-.2.09m2.73-6.4h0c-.69,1.62-1.35,3.25-2,4.87L27,34.07a.27.27,0,0,1,.26-.09c.5.12,1,.27,1.47.42.88.27,1.69.47,2.4.62.42-.52.92-1.18,1.52-2s1.88-1,3.61-.33l1.36-2.62a.26.26,0,0,1,.35-.12l1.83.94-3.22-2.8-1.3,2.59a.27.27,0,0,1-.3.14l-2.48-.61-1.54,2.54a.28.28,0,0,1-.31.12Z"/><path class="cls-1" d="M45,29l.43-1.87s0,0,0,0h0l-.28,1.07-.63,1.85-.08.19,0,.07-.1.24,0,0-.61,1.32-.93,1.58c-.3.44-.62.88-1,1.3l-.63.72,0,0-.49.51a15.74,15.74,0,0,1-2.93,2.26c-.27.17-.55.33-.84.49l-.88.44-.06,0-.29.13h0l-.54.23c-.31.13-.63.25-1,.36s-.64.22-1,.31l-.49.15H32.6l-2.12.41-2.37.22H25.82L24,40.84l-1.08-.25-1.09-.33L20,39.47l-1.72-1-.86-.64c-.4-.33-.8-.68-1.2-1.07a13,13,0,0,1-1-1.08l-1-1.16L13.1,32.83l-.73-1.21-.25-.44h0s0,0,0,0l.39.8,1.06,1.83,0,0v0l1.65,2.24,1.35,1.42.87.76,1.11.83,1.24.75,1,.47,1.26.5a15.77,15.77,0,0,0,4,.79h.26l.14,0h.78l1.25,0,1.78-.18q.95-.12,2.07-.36l2-.6,1-.38.53-.23h0l1.4-.7.75-.45a15.65,15.65,0,0,0,3-2.39l1.26-1.46,0,0,.48-.67,1.19-2.12.42-1A18.31,18.31,0,0,0,45,29"/><path class="cls-1" d="M54.7,30.29h0l-9.1,6.9L25.91,52.38,6.18,31.5,1.53,26.68h0v0l4.49,5L25.67,53a.31.31,0,0,0,.18.09.29.29,0,0,0,.2-.07L44,38.87l10.7-8.56s0,0,0,0"/></svg>