<svg id="圖層_1" data-name="圖層 1" xmlns="http://www.w3.org/2000/svg" viewBox="0 0 198.43 104.88"><defs><style>.cls-1{fill:#d0d3af;}</style></defs><title>首頁圖層用</title><path class="cls-1" d="M20.61,30.23a3.4,3.4,0,0,0-.59.4,3.12,3.12,0,0,1-2.88.7L14.8,36h0a23.52,23.52,0,0,1,6.5-3.33L21,38.82l-1-.08a5.68,5.68,0,0,0-1,0,4.65,4.65,0,0,1-3.31-.89L15.94,41l4.67-.68.12,6.45a7.26,7.26,0,0,1-2-.9,16.7,16.7,0,0,0-3.16-1.59,9.54,9.54,0,0,1-3.06-1.84l-3,1.12a1.44,1.44,0,0,0,.67.52,14.9,14.9,0,0,0,1.82.6,19.4,19.4,0,0,1,8.3,4.33L6.68,52.77,5.62,56.12,14.38,53,4.94,57Q11.58,54.46,18.25,52c2.09-.75,4.16-1.54,6.24-2.35a21.12,21.12,0,0,1,11.71-.87l.21-5a51.91,51.91,0,0,0-12.62,4.28q2.68-2.79,5.45-5.47a10.33,10.33,0,0,1,4.38-2.51l-1.26-2.28a.51.51,0,0,0-.17.07,32.9,32.9,0,0,0-8.67,7.3,8,8,0,0,1,2-4.81,12.49,12.49,0,0,1,1.27-1.25,3.66,3.66,0,0,1,1.78-.86l2.59-5.06a26.3,26.3,0,0,0-6.84,4.17l.94-5.33.88-.35.3-.1c.19-.07.39-.15.58-.24a1.43,1.43,0,0,1,1.93.5l1.19-4.76a30.88,30.88,0,0,0-9.52,3.12M29.72,6.09c-.36-.83-1.16-1.06-2.41-.68a13.27,13.27,0,0,1-1.9.53.74.74,0,0,0-.62-.34,5.59,5.59,0,0,0-.52,1.87,3.42,3.42,0,0,0,.05,1.06,3.45,3.45,0,0,1-.4,2.71c-.26.4-.52.8-.8,1.19-.81,1.14-1.65,2.26-2.51,3.36-2.4,3.1-4.75,6.25-7,9.44-.31.42-.61.85-.91,1.27Q8.77,32.05,5,37.7q2.81-3.93,5.83-7.7l3.07-3.72c-2.56,3.57-4.15,5.77-4.79,6.61s-1.37,1.82-2.19,3S5.33,38.19,4.56,39.4,3,41.94,2.21,43.4q-.22.41-.48.78a4.64,4.64,0,0,0-.84,2,1.5,1.5,0,0,0,1.37-.77A102.76,102.76,0,0,1,12.34,33.14c.67-.69,1.34-1.37,2-2.05q1.82-1.83,3.54-3.78c1.82-2.09,3.64-4.16,5.46-6.23l1-1.15c1.25-1.38,2.56-2.71,3.9-4,.42.75.79,1.51,1.13,2.28a16.36,16.36,0,0,1,1,2.83q1.64,6.53,3.7,13a9.56,9.56,0,0,0,.47,1.15q.42.81.81,1.65a1.29,1.29,0,0,1,.14.74.08.08,0,0,1,0,0,.67.67,0,0,0-.18.7.57.57,0,0,0,.26,0,.68.68,0,0,0,.36-.2l3.15-3.34c.22-.23,1.27-1.08,3.17-2.55q-4.91-2.76-6.39-6.79t-3.12-8.84a61.87,61.87,0,0,1-2.07-7,17.56,17.56,0,0,0-1-3.45"/><path class="cls-1" d="M17.75,85.08c.15,2.47.26,5.06.35,7.74,0,.88.09,1.75.2,2.62.18,1.52.33,3,.47,4.56l.54.1c.13,0,.45.11,1,.26L19.21,92a68.41,68.41,0,0,1,1.52,8.4,2.85,2.85,0,0,1,2.31,1.1h0c.29.13.37.05.26-.25a28.71,28.71,0,0,1-1.14-3.43,86.28,86.28,0,0,1-2.44-14Zm-3.95.86,0,.36-3,12,.57,0c.29.32.57.65.83,1a15.72,15.72,0,0,1,1.16,1.8,5,5,0,0,0,.44.69,2.24,2.24,0,0,0,1.34,1,3.87,3.87,0,0,0,0-1c-.23-2.44-.35-4.89-.36-7.33q0-4.47.15-8.91l-1.09.45m10-3.82-.92,1L23.09,90l.54.91.09-.52A11.47,11.47,0,0,1,28.41,93l.29.26.37-.15-5.25-11M11.74,86.07a12.47,12.47,0,0,1-2-.36A.48.48,0,0,0,9.1,86l1,.29a24.2,24.2,0,0,1-1.95,3.44q-2.46,3.65-5,7.28a4.55,4.55,0,0,0-.47.87,5.36,5.36,0,0,1-2.6,2.84l-.13.51s0,.07,0,.1.09.21.21.11q2.17-1.8,5.62-4.62a26.18,26.18,0,0,1,2.69-6.39,27,27,0,0,1-2.28,6.36c1.49-1,2.57-1.78,3.22-2.22a11.23,11.23,0,0,1,.23-2.4A4.55,4.55,0,0,1,10.15,91a14.67,14.67,0,0,0,1.59-4.91M33.47,58.85l.72-3.13-6.55,1.67,6.6-2.47c-1.33.1-2.66.27-4,.5a34,34,0,0,0-5.75,1.52Q20,58.58,9.29,62.13c2.63-.1,4,.09,4.08.58A39.05,39.05,0,0,1,14,74.4a37,37,0,0,1-.9,5.17,8.48,8.48,0,0,1-.9,2.25c-.46.77-.86,1.5-1.23,2.19a4.2,4.2,0,0,0,.3.6c.33.54.72.7,1.18.45a51.74,51.74,0,0,1,10.3-4.19A18.5,18.5,0,0,0,25.2,80a14.28,14.28,0,0,1,1.9-.67,4.91,4.91,0,0,1,2.16-.1l-.14.55,1.05,0a28.46,28.46,0,0,0-.37,4.81,40.05,40.05,0,0,0,.36,4.88,18.53,18.53,0,0,1,.13,3.4s0,0,0,0a3,3,0,0,1-.44.49A8.57,8.57,0,0,1,29,94a6.79,6.79,0,0,1-1.14.58,7.65,7.65,0,0,1-1.29.35l-1.46-2.6c0,.12-.07.23-.1.36a8.15,8.15,0,0,0-.23,2.15A13.15,13.15,0,0,0,25,96.54a8.54,8.54,0,0,0,.45,1.57c1-.46,2.05-.93,3.06-1.43a6.54,6.54,0,0,1,2.13-.62,20.31,20.31,0,0,1,3.9-.07c-.19-1.63-.39-3.26-.58-4.9a49.58,49.58,0,0,1-.29-8.16,19,19,0,0,1,1.76-7.52l-.58-1.55c-1.24.27-2.46.59-3.67,1a56.35,56.35,0,0,0-6.26,2.51l.16-2.12,8.55-2.75.18.66-.13-5.33A21.26,21.26,0,0,0,30,69.07q-2.82,1.26-5.52,2.73l0-2.63,9.26-3.88.32.36.62-4L24.4,65.22l-.07-3.58a2.46,2.46,0,0,1,.63-.38c.71-.3,1.43-.59,2.15-.86.95-.35,1.9-.67,2.87-1l.77-.22a11,11,0,0,1,2.72-.36M20.92,66.12c0,.08-.05.08-.08,0l-3.63,1.59c0-.66-.07-1.14-.08-1.44a2,2,0,0,1,.62-1.66l3.38-1.52A27.42,27.42,0,0,1,21,66l0,.09-.07,0m.25,3.44-.23,3.24c-.61.34-1.22.68-1.82,1a1.68,1.68,0,0,0-.43.36,1.4,1.4,0,0,1-1.67.5,25.34,25.34,0,0,1,.68-2.49,3.62,3.62,0,0,1,3.47-2.64m.24,5.9a.14.14,0,0,1,.13.2c-.22.9-.45,1.78-.69,2.66a3.27,3.27,0,0,0-1,.3,13.41,13.41,0,0,0-3.17,2.17c-.34.31-.56.39-.64.21a2.48,2.48,0,0,1,.37-1.11,12,12,0,0,1,4.9-4.39l.06,0m-3.67,2.09s0,0-.06,0,.05,0,.06,0"/><path class="cls-1" d="M45.07,84.11s.06,0,.25,0A35.26,35.26,0,0,0,51,78.89q3.57-4.2,10-3l14,6.81a68.85,68.85,0,0,1-3-11.89c-.16-1-.29-2-.4-3.06a83.3,83.3,0,0,1-.5-8.34l-8.88,6.85-3.76-2.74.13-.64-1.39.48-5.31,10.5a35,35,0,0,1-2.94,4.81q-1.95,2.7-3.8,5.43m5.12-4.81-.95.48.57-.92.38.44M64,69.59c.75-.13,1.13.06,1.15.58a2,2,0,0,0,.36,0c.64-.1,1.06.33,1.28,1.27l-6.22,1.73-.25-2.84c1.22-.27,2.45-.5,3.68-.7M82.46,45.26c-.07-.4-.15-.8-.23-1.19L69.54,41.32,54.85,51.05,53,53.44l.64.57a42.93,42.93,0,0,1-5,7.29c-.91,1.06-1.85,2.09-2.84,3.1A5.34,5.34,0,0,0,44,68.78h0A145.85,145.85,0,0,1,72.65,52.68l2.11-.89c0,.62.09,1.23.12,1.85a40.81,40.81,0,0,1-.08,5.53,60,60,0,0,0,5.06,29.39c.18.42.36.84.53,1.27L58.69,79.1a7.2,7.2,0,0,0-.29,2.44,1.29,1.29,0,0,1-.21.79Q55,87.07,51.4,91.75c-.29.4-.58.79-.85,1.2q6.78-.7,13.63-.75,12.57-.11,21.73,5.71a.65.65,0,0,0,.22.11L83.51,75.59a107.1,107.1,0,0,0-1.05-30.33M84.81,0A75.89,75.89,0,0,0,62.45,4.09,34.09,34.09,0,0,1,66.57,21c-2,.06-4,0-5.95-.07A45.14,45.14,0,0,1,53,19.81a18.87,18.87,0,0,0-4.79-.57l-.57,11.42L46,31.84a22.46,22.46,0,0,0,4.27-1.54A58.38,58.38,0,0,1,68.7,25.14q-6.91,6.11-13.15,12.45a11.39,11.39,0,0,0-1.79,2.31,14.79,14.79,0,0,1-6,5.46,50.7,50.7,0,0,1-10.11,4c-1.15.33-2.33.62-3.53.88l.22.08c1.08.09,2.19.15,3.31.18h0A17.87,17.87,0,0,1,44,51.74a16.18,16.18,0,0,0,3,.91L71.7,28.1a48.18,48.18,0,0,1,5.47,6.17q5.2,7,10.93,13.79l.14.16L104.18,41a6.42,6.42,0,0,1-1.59-.72Q95.15,35.6,88.1,30.62q-4.66-3.3-9.16-6.72a24.87,24.87,0,0,1,8.48,1.16l.68.23c1.25.4,2.45.77,3.62,1.12a.14.14,0,0,0,0-.09,29.78,29.78,0,0,1,6.5-17.89h-.18q-5.19,2-10,4.34A119.33,119.33,0,0,0,75,20.16,52.46,52.46,0,0,1,84.81,0"/><path class="cls-1" d="M122.52,30.89a2.24,2.24,0,0,0-1.22-1.46A7.75,7.75,0,0,0,120,31.58a114.87,114.87,0,0,0-5.55,18.71L112,51,118.43,19l.09,0a1.46,1.46,0,0,1,.15-.47.88.88,0,0,0-.11-.76c-.17-.32-.26-.47-.29-.47l-6-11.73a97.82,97.82,0,0,0,0,13,48.08,48.08,0,0,1-.15,8.65,90.17,90.17,0,0,1-2.09,11.85q-.78,3.13-1.38,6.33a45.38,45.38,0,0,1-4.11,12.08l6.52.44a109.84,109.84,0,0,0-3.86,10.74,75.32,75.32,0,0,1-7.88,17.3,19.36,19.36,0,0,1,1.47,8.68,5.25,5.25,0,0,0,1.48,0,7.16,7.16,0,0,0,3.28-1.33,16,16,0,0,0,3.14-3,109.4,109.4,0,0,1,9.76-10.76l5.18,23.08a.55.55,0,0,0,.06-.28c-.17-2.43-.44-4.86-.83-7.29a63.43,63.43,0,0,1-.73-13q.43-9.42,1.75-18.8a14.29,14.29,0,0,1,.58-2.51,12.07,12.07,0,0,0,.2-7.11l-6-.5A46.09,46.09,0,0,0,118.35,67a11.52,11.52,0,0,1-.57,5.35,7.66,7.66,0,0,1-1.89,2.94,54.91,54.91,0,0,1-8.83,7,138.85,138.85,0,0,0,5.33-14.45,113.29,113.29,0,0,1,5.68-14.7,88.23,88.23,0,0,1,8-13.68l-.37-.29a4.11,4.11,0,0,1-1-1.11,7.46,7.46,0,0,1-.82-2c-.41-1.73-.88-3.45-1.4-5.14m21.81-9.38a16.67,16.67,0,0,1-.24,4,110.9,110.9,0,0,0-.91,32.63,26.81,26.81,0,0,1-.73,10.24A49.83,49.83,0,0,0,141,76l-9.54-17.68-2.39,9.29a9,9,0,0,1,1.62,1.65A20.76,20.76,0,0,1,133,73.14a230.07,230.07,0,0,0,12.56,24.24,1,1,0,0,0,1.28.52.58.58,0,0,0,.28-.3c.12-.3.23-.6.34-.9a17.39,17.39,0,0,0,.93-4.57,69.84,69.84,0,0,1,.84-7.51,102.18,102.18,0,0,0,1.33-12.43q.69-15.36,1.79-30.73a179,179,0,0,1,4.39-28.61.9.9,0,0,0-.41-1,30.23,30.23,0,0,0-6.48,1.06,88.7,88.7,0,0,0-14.29,5.25c-2.6,1.22-3.78,1.21-5.83,2.64l-2.29.75-1.2.09-.38,1.45a1.35,1.35,0,0,1,.1.7c.38,0,10.71-4.61,14.74-5.91l-15,6.86a8.13,8.13,0,0,1,.93,1.21,7.23,7.23,0,0,0-.15,1.73,5.35,5.35,0,0,0,.52,2.16.63.63,0,0,0,.2.23l.07,0c1.47-.2,1.63,19.58,2.91,18.81,3.12-1.87,7.33-24.18,10.19-26.38a5,5,0,0,1,4-1"/><path class="cls-1" d="M173.59,21.62l2.49-12A13.71,13.71,0,0,0,170,12a12.22,12.22,0,0,1-4.94,2l-1.33-1.1a1,1,0,0,0,0,1.11,7.75,7.75,0,0,1,1.08,3.57,7.76,7.76,0,0,0,.26,1.59,26.73,26.73,0,0,1,.94,6.44l2-1.24c-.34.87-.69,1.72-1,2.57a2.58,2.58,0,0,1-2.2,1.51l-.45.16a.72.72,0,0,0-.39.29,11.24,11.24,0,0,0-1.86,6.29l14.57-12a25.83,25.83,0,0,0-6.9,3.41,18.33,18.33,0,0,1,1.4-3,4.54,4.54,0,0,1,2.43-2m-6.85-4.3,4-2.87-3.37,4.08-.68-1.21m1.81,3.79-.22.14,3.35-4.6a10.33,10.33,0,0,0-.41,2.88c-1,.54-1.88,1.08-2.72,1.58m8.07,15,.18.1,9,10.61a14.48,14.48,0,0,1,.08-1.47,7,7,0,0,1,.44-1.76,36.43,36.43,0,0,0,1.46-4.47l-1.43.24a9.31,9.31,0,0,1-2.84-.13.39.39,0,0,1-.14-.05c-1.18-.55-2.37-1.08-3.58-1.57a7.59,7.59,0,0,1-2.13-1.32,3.76,3.76,0,0,0-1.26-.77l.17.53v.06m-2.38-3.69a2.3,2.3,0,0,0,.68-1.6,2.05,2.05,0,0,0-.64-1.6,2.36,2.36,0,0,0-.46,0,5.54,5.54,0,0,0-2,.71,23.45,23.45,0,0,0-4.38,3.33,1.91,1.91,0,0,0-.39.47,2.71,2.71,0,0,1-2,1.3,1.46,1.46,0,0,0-.16.3,9.37,9.37,0,0,1-.46,1.25,2.55,2.55,0,0,0-.11,2s0,0,0,0a5.38,5.38,0,0,0,2.92-1.24l.15-.13A52.46,52.46,0,0,0,161.56,48l7-8.43-1,9.23-1.78-3.5-.52,3.26a1.58,1.58,0,0,1,.61.68,17,17,0,0,1,1,2.76,2.38,2.38,0,0,0,1,1.42,2.76,2.76,0,0,0,.62-.76A25.11,25.11,0,0,0,170.6,47a35.5,35.5,0,0,0,1-7.16l1.62,3.65.94,2.94A3.49,3.49,0,0,0,174.6,45c0-.42.06-.84.08-1.27a16.38,16.38,0,0,0-2.45-9.38c.68-.64,1.35-1.3,2-2m-3.66,1.81a3.5,3.5,0,0,0-1.34.68c-.78,1.1-1.19,1.07-1.24-.1l2.23-1.55.94-.9c.54-.52.35.11-.59,1.87m17.86-14c-.77.69-1.54,1.4-2.29,2.13q-2.62,2.54-5.13,5.2a55.73,55.73,0,0,0-4.16,5l-.65.68,2.89-1.08a17.78,17.78,0,0,1,2.28-.6l.38-.08a19.06,19.06,0,0,1,3.11-.31,6.37,6.37,0,0,1,1.63.12,5.65,5.65,0,0,1,1.87.75l.12-11.22-4.15,4.11,4.1-4.66m-2.85-13a1.3,1.3,0,0,0-.73-.91,5.31,5.31,0,0,0-.55.89,5.82,5.82,0,0,0-.46,1.35,40.74,40.74,0,0,1-4.29,11.7,8.31,8.31,0,0,1-.68,1.06,19.14,19.14,0,0,0-1.45,2.25l.14.45a1.22,1.22,0,0,1,.29-.41,15.73,15.73,0,0,1,2.93-2.25,15.44,15.44,0,0,0,1.63-1.15,27.5,27.5,0,0,1,6.1-3.73l-.79-1.06a8.28,8.28,0,0,1-1.34-3.71,34.19,34.19,0,0,0-.8-4.48"/><path class="cls-1" d="M180.38,68.18s0,0,0,0a14.54,14.54,0,0,0-1.1,5.1l-2.25.63-.13-4.47-2.28.4s0,0,0,0a11.14,11.14,0,0,1,.87,5.12,2.88,2.88,0,0,1-1.75.21,2.56,2.56,0,0,0-.47,0,.27.27,0,0,0-.24.1,4.7,4.7,0,0,0-1,2.87l2.81-.94a2.83,2.83,0,0,1,0,1.26,1,1,0,0,1-.06.25l-.12.35a.65.65,0,0,1-.23.31,4.82,4.82,0,0,1-2.87.82l-.24,3.06L174,82.19c-.15,1.21-.24,2.42-.28,3.64-.15,5.13-2.74,10.26-2,15.41,2.79-4.31,8.09-8.78,10.14-13.39l-.3-.22a.81.81,0,0,0-.32.21c-2.19,2.29-3.24,2.29-5,4.85-.06-1.64-1-.86-1-2.5a27.06,27.06,0,0,1,1.14-8.12,54.27,54.27,0,0,1,8.49-1.82l.43-3.47-4,1.63,1-2.7a1.63,1.63,0,0,0,.46-.09l.09,0,.07,0c.4-.22.8-.44,1.18-.67a2.51,2.51,0,0,1,1.34-.36l.3-3.11-4,2,1.69-5Zm-2.61,8.41,1.07-.35.15,1.68-1.34.41.12-1.74m3.5-19.32a1,1,0,0,1-.31.32,14.38,14.38,0,0,1-5,1.9c-.58.12-1.15.25-1.7.39a6.57,6.57,0,0,1-4.45-.32,2,2,0,0,1-.93-.77,3.44,3.44,0,0,0-1.38-1.22.58.58,0,0,0,.11.46,1.4,1.4,0,0,1,.29.72,35.4,35.4,0,0,1-.21,8.1,227.68,227.68,0,0,1-4.41,22.84q-.85,3.47-1.9,6.9a26.21,26.21,0,0,1-1.28,3.35c-.16.34-.14.55,0,.63,1.23-2.73,3.47-4.82,4.51-7.62A81.8,81.8,0,0,1,168,84.76c1.43-2.9,1.74-6.35,2.26-7.88s1.17-3.41,2-5.65,1.25-3.46,1.37-3.68.78-.55,2-1,3.18-1,5.84-1.68a.41.41,0,0,1,.22,0,4.24,4.24,0,0,1,2.58,1.93,2.8,2.8,0,0,0,1.59,1.2,21.89,21.89,0,0,0-1-7.48,15.54,15.54,0,0,1-.54-7.41v-.89q-1.46,2.52-3,5M174.7,65l.1,0a.16.16,0,0,1-.1,0m-1.35-2.76,1.43.29L180,61.2l.56,1.11-7.67,2.92.42-3m4.91,20.31.09.28a14.75,14.75,0,0,1,1.74,1.8,19.09,19.09,0,0,0,1.63,1.75q5.43,5.22,11.27,12l.19,0a.37.37,0,0,1,.14-.37c.18-.17-1.58-2-5.3-5.47a23.54,23.54,0,0,1,5.54,5.43,4.63,4.63,0,0,1,1.3-.36c.59.15,1.19.29,1.79.4a2.92,2.92,0,0,0,1.78-.1.32.32,0,0,0-.09-.08,24.72,24.72,0,0,1-4.06-2.79q-1.71-1.45-3.26-3m0,0a15.6,15.6,0,0,0-3.37-2.56,45.38,45.38,0,0,1-7.82-5.63,12.29,12.29,0,0,0-1.57-1.2m9.17-3.34s0,0,0,.06a18.71,18.71,0,0,1-2.33,4.29,1.5,1.5,0,0,0-.36,1.25.55.55,0,0,0,.31-.05,5.64,5.64,0,0,0,2-1.49,6.72,6.72,0,0,1,3.06-2.06Z"/></svg>