<svg width="171" height="209" viewBox="0 0 171 209" fill="none" xmlns="http://www.w3.org/2000/svg">
<g filter="url(#filter0_d_202_420)">
<path d="M16.472 24.3034C14.1467 24.3034 12.0667 23.7701 10.232 22.7034C8.39733 21.6367 6.95733 20.1754 5.912 18.3194C4.888 16.4421 4.376 14.3407 4.376 12.0154C4.376 9.75406 4.89867 7.71673 5.944 5.9034C6.98933 4.09006 8.44 2.6714 10.296 1.6474C12.152 0.623397 14.2427 0.111397 16.568 0.111397C17.8267 0.111397 18.9573 0.228731 19.96 0.463398C20.984 0.676731 21.816 0.932731 22.456 1.2314C23.096 1.50873 23.5333 1.75406 23.768 1.9674L22.36 4.9754C21.0373 3.90873 19.0853 3.3754 16.504 3.3754C14.7973 3.3754 13.3147 3.74873 12.056 4.4954C10.7973 5.24206 9.83733 6.2554 9.176 7.5354C8.51467 8.8154 8.184 10.2447 8.184 11.8234C8.184 13.6154 8.536 15.2154 9.24 16.6234C9.96533 18.0314 10.9573 19.1301 12.216 19.9194C13.496 20.6874 14.936 21.0714 16.536 21.0714C17.5387 21.0714 18.4987 20.9541 19.416 20.7194C20.3333 20.4634 21.112 20.0687 21.752 19.5354V14.9914H16.92V11.6954H25.304V20.9114C24.536 21.8714 23.3733 22.6821 21.816 23.3434C20.28 23.9834 18.4987 24.3034 16.472 24.3034ZM40.7645 24.3034C38.6312 24.3034 36.6578 23.8127 34.8445 22.8314C33.0525 21.8287 31.6232 20.4101 30.5565 18.5754C29.4898 16.7407 28.9565 14.6074 28.9565 12.1754C28.9565 9.72206 29.4898 7.58873 30.5565 5.7754C31.6232 3.94073 33.0525 2.53273 34.8445 1.5514C36.6578 0.570064 38.6312 0.0793972 40.7645 0.0793972C42.8978 0.0793972 44.8605 0.570064 46.6525 1.5514C48.4658 2.53273 49.9058 3.94073 50.9725 5.7754C52.0392 7.58873 52.5725 9.72206 52.5725 12.1754C52.5725 14.6074 52.0392 16.7407 50.9725 18.5754C49.9058 20.4101 48.4658 21.8287 46.6525 22.8314C44.8605 23.8127 42.8978 24.3034 40.7645 24.3034ZM40.7645 21.0714C42.2365 21.0714 43.5805 20.7301 44.7965 20.0474C46.0125 19.3434 46.9725 18.3301 47.6765 17.0074C48.4018 15.6634 48.7645 14.0634 48.7645 12.2074C48.7645 10.3301 48.4018 8.73006 47.6765 7.4074C46.9725 6.0634 46.0125 5.05006 44.7965 4.3674C43.6018 3.68473 42.2578 3.3434 40.7645 3.3434C39.2712 3.3434 37.9165 3.68473 36.7005 4.3674C35.4845 5.05006 34.5245 6.0634 33.8205 7.4074C33.1165 8.73006 32.7645 10.3301 32.7645 12.2074C32.7645 14.0634 33.1272 15.6634 33.8525 17.0074C34.5778 18.3301 35.5485 19.3434 36.7645 20.0474C38.0018 20.7301 39.3352 21.0714 40.7645 21.0714ZM57.2135 0.463398H60.8295V20.7834H67.5815V23.9834H57.2135V0.463398ZM71.666 0.463398H77.33C82.066 0.463398 85.3727 1.5834 87.25 3.8234C89.1487 6.0634 90.098 8.73006 90.098 11.8234C90.098 13.9781 89.6927 15.9727 88.882 17.8074C88.0713 19.6207 86.7273 21.1034 84.85 22.2554C82.994 23.4074 80.5513 23.9834 77.522 23.9834H71.666V0.463398ZM77.906 20.8154C80.85 20.8154 82.9833 19.9834 84.306 18.3194C85.65 16.6341 86.322 14.5221 86.322 11.9834C86.322 9.50873 85.65 7.49273 84.306 5.9354C82.962 4.37806 80.8287 3.5994 77.906 3.5994H75.25V20.8154H77.906ZM94.3052 0.463398H104.609V3.5994H97.8572V10.0954H103.297V13.2954H97.8572V20.8154H105.665V23.9834H94.3052V0.463398ZM113.403 8.7514L113.499 11.3114V23.9834H109.915V0.431396H110.363L124.187 15.8554L124.059 13.1674V0.463398H127.643V23.9834H127.163L113.403 8.7514ZM5.464 44.4634H9.048V54.0634H17.336V44.4634H20.92V67.9834H17.336V57.0714H9.048V67.9834H5.464V44.4634ZM37.327 68.3034C35.1937 68.3034 33.2203 67.8127 31.407 66.8314C29.615 65.8287 28.1857 64.4101 27.119 62.5754C26.0523 60.7407 25.519 58.6074 25.519 56.1754C25.519 53.7221 26.0523 51.5887 27.119 49.7754C28.1857 47.9407 29.615 46.5327 31.407 45.5514C33.2203 44.5701 35.1937 44.0794 37.327 44.0794C39.4603 44.0794 41.423 44.5701 43.215 45.5514C45.0283 46.5327 46.4683 47.9407 47.535 49.7754C48.6017 51.5887 49.135 53.7221 49.135 56.1754C49.135 58.6074 48.6017 60.7407 47.535 62.5754C46.4683 64.4101 45.0283 65.8287 43.215 66.8314C41.423 67.8127 39.4603 68.3034 37.327 68.3034ZM37.327 65.0714C38.799 65.0714 40.143 64.7301 41.359 64.0474C42.575 63.3434 43.535 62.3301 44.239 61.0074C44.9643 59.6634 45.327 58.0634 45.327 56.2074C45.327 54.3301 44.9643 52.7301 44.239 51.4074C43.535 50.0634 42.575 49.0501 41.359 48.3674C40.1643 47.6847 38.8203 47.3434 37.327 47.3434C35.8337 47.3434 34.479 47.6847 33.263 48.3674C32.047 49.0501 31.087 50.0634 30.383 51.4074C29.679 52.7301 29.327 54.3301 29.327 56.2074C29.327 58.0634 29.6897 59.6634 30.415 61.0074C31.1403 62.3301 32.111 63.3434 33.327 64.0474C34.5643 64.7301 35.8977 65.0714 37.327 65.0714ZM65.52 67.9834L60.784 59.0874C59.8027 59.1301 58.928 59.1514 58.16 59.1514H57.264V67.9834H53.776V44.4634H59.12C61.8293 44.4634 64.0587 45.0287 65.808 46.1594C67.5573 47.2687 68.432 49.0821 68.432 51.5994C68.432 53.1781 68.0587 54.5434 67.312 55.6954C66.5867 56.8261 65.4987 57.7007 64.048 58.3194L69.648 67.9834H65.52ZM59.536 56.2394C61.6267 56.2394 63.056 55.7914 63.824 54.8954C64.6133 53.9781 65.008 52.8901 65.008 51.6314C65.008 48.8367 63.1413 47.4394 59.408 47.4394H57.264V56.2394H59.536ZM79.3552 68.3034C78.0752 68.3034 76.8059 68.0794 75.5472 67.6314C74.2886 67.1834 73.3819 66.6821 72.8272 66.1274L74.5232 63.0874C74.9712 63.4927 75.6646 63.9194 76.6032 64.3674C77.5632 64.7941 78.4806 65.0074 79.3552 65.0074C80.4859 65.0074 81.4032 64.7407 82.1072 64.2074C82.8326 63.6741 83.1952 62.9381 83.1952 61.9994C83.1952 61.2741 83.0032 60.6447 82.6192 60.1114C82.2352 59.5781 81.7659 59.1407 81.2112 58.7994C80.6566 58.4367 79.8672 57.9994 78.8432 57.4874C77.6272 56.8901 76.7952 56.4421 76.3472 56.1434C74.2779 54.7567 73.2432 52.8367 73.2432 50.3834C73.2432 48.3567 73.9152 46.8101 75.2592 45.7434C76.6032 44.6554 78.2992 44.1114 80.3472 44.1114C82.5446 44.1114 84.4112 44.7407 85.9472 45.9994L84.2512 48.9114C83.8459 48.4847 83.2699 48.1221 82.5232 47.8234C81.7979 47.5034 81.0192 47.3434 80.1872 47.3434C79.1206 47.3434 78.2779 47.5887 77.6592 48.0794C77.0619 48.5487 76.7632 49.2527 76.7632 50.1914C76.7632 50.8527 76.9552 51.4501 77.3392 51.9834C77.7232 52.4954 78.2032 52.9434 78.7792 53.3274C79.3766 53.7114 80.1766 54.1807 81.1792 54.7354C82.1392 55.2687 82.8752 55.6954 83.3872 56.0154C83.8992 56.3141 84.3792 56.6767 84.8272 57.1034C85.4459 57.6581 85.9472 58.3194 86.3312 59.0874C86.7152 59.8554 86.9072 60.6981 86.9072 61.6154C86.9072 63.0447 86.5766 64.2607 85.9152 65.2634C85.2752 66.2661 84.3792 67.0234 83.2272 67.5354C82.0966 68.0474 80.8059 68.3034 79.3552 68.3034ZM91.3677 44.4634H101.672V47.5994H94.9197V54.0954H100.36V57.2954H94.9197V64.8154H102.728V67.9834H91.3677V44.4634ZM5.464 88.4634H16.504V91.5674H9.016V98.2234H14.84V101.359H9.016V111.983H5.464V88.4634ZM27.9315 88.4314L39.2595 111.983H35.1315L33.1155 107.375H22.3315L20.3155 111.983H16.3155L27.5795 88.4314H27.9315ZM26.3315 98.4474L23.7715 104.143H31.7075L29.1795 98.4794L27.8035 95.2474H27.7395L26.3315 98.4474ZM45.3577 96.7514L45.4537 99.3114V111.983H41.8697V88.4314H42.3177L56.1418 103.855L56.0138 101.167V88.4634H59.5977V111.983H59.1178L45.3577 96.7514ZM69.7085 91.5994H63.6925V88.4634H79.3405V91.5994H73.2605V111.983H69.7085V91.5994ZM90.1327 88.4314L101.461 111.983H97.3327L95.3167 107.375H84.5327L82.5167 111.983H78.5167L89.7807 88.4314H90.1327ZM88.5327 98.4474L85.9727 104.143H93.9087L91.3807 98.4794L90.0047 95.2474H89.9407L88.5327 98.4474ZM109.479 112.303C108.199 112.303 106.93 112.079 105.671 111.631C104.412 111.183 103.506 110.682 102.951 110.127L104.647 107.087C105.095 107.493 105.788 107.919 106.727 108.367C107.687 108.794 108.604 109.007 109.479 109.007C110.61 109.007 111.527 108.741 112.231 108.207C112.956 107.674 113.319 106.938 113.319 105.999C113.319 105.274 113.127 104.645 112.743 104.111C112.359 103.578 111.89 103.141 111.335 102.799C110.78 102.437 109.991 101.999 108.967 101.487C107.751 100.89 106.919 100.442 106.471 100.143C104.402 98.7567 103.367 96.8367 103.367 94.3834C103.367 92.3567 104.039 90.8101 105.383 89.7434C106.727 88.6554 108.423 88.1114 110.471 88.1114C112.668 88.1114 114.535 88.7407 116.071 89.9994L114.375 92.9114C113.97 92.4847 113.394 92.1221 112.647 91.8234C111.922 91.5034 111.143 91.3434 110.311 91.3434C109.244 91.3434 108.402 91.5887 107.783 92.0794C107.186 92.5487 106.887 93.2527 106.887 94.1914C106.887 94.8527 107.079 95.4501 107.463 95.9834C107.847 96.4954 108.327 96.9434 108.903 97.3274C109.5 97.7114 110.3 98.1807 111.303 98.7354C112.263 99.2687 112.999 99.6954 113.511 100.015C114.023 100.314 114.503 100.677 114.951 101.103C115.57 101.658 116.071 102.319 116.455 103.087C116.839 103.855 117.031 104.698 117.031 105.615C117.031 107.045 116.7 108.261 116.039 109.263C115.399 110.266 114.503 111.023 113.351 111.535C112.22 112.047 110.93 112.303 109.479 112.303ZM125.035 91.5994H119.019V88.4634H134.667V91.5994H128.587V111.983H125.035V91.5994ZM139.173 88.4634H142.757V111.983H139.173V88.4634ZM159.491 112.207C157.059 112.207 154.947 111.663 153.155 110.575C151.385 109.487 150.03 108.037 149.091 106.223C148.153 104.389 147.683 102.373 147.683 100.175C147.683 97.8501 148.185 95.7701 149.187 93.9354C150.211 92.1007 151.641 90.6714 153.475 89.6474C155.31 88.6021 157.39 88.0794 159.715 88.0794C160.761 88.0794 161.731 88.1967 162.627 88.4314C163.545 88.6447 164.302 88.9007 164.899 89.1994C165.497 89.4767 165.891 89.7114 166.083 89.9034L164.515 93.1034C163.214 91.9514 161.518 91.3754 159.427 91.3754C157.955 91.3754 156.622 91.7381 155.427 92.4634C154.233 93.1887 153.294 94.2234 152.611 95.5674C151.929 96.9114 151.587 98.4687 151.587 100.239C151.587 101.861 151.886 103.333 152.483 104.655C153.102 105.978 153.998 107.023 155.171 107.791C156.345 108.559 157.742 108.943 159.363 108.943C161.241 108.943 163.054 108.41 164.803 107.343L165.859 110.383C165.39 110.81 164.526 111.226 163.267 111.631C162.03 112.015 160.771 112.207 159.491 112.207ZM5.464 132.463H16.504V135.567H9.016V142.223H14.84V145.359H9.016V155.983H5.464V132.463ZM21.4895 132.463H25.0735V155.983H21.4895V132.463ZM31.1198 132.463H34.7358V152.783H41.4878V155.983H31.1198V132.463ZM51.6202 145.007L50.1482 141.679L49.4762 145.007L47.3002 155.983H43.7482L48.6122 132.463H48.9962L55.4602 145.167L57.3802 149.423L59.3002 145.167L65.6362 132.463H65.9882L71.0442 155.983H67.5243L65.1562 145.007L64.4522 141.679L63.1722 145.007L57.4762 155.983H57.2842L51.6202 145.007ZM5.464 176.463H16.504V179.567H9.016V186.223H14.84V189.359H9.016V199.983H5.464V176.463ZM21.0415 176.463H31.3455V179.599H24.5935V186.095H30.0335V189.295H24.5935V196.815H32.4015V199.983H21.0415V176.463ZM42.059 200.303C40.779 200.303 39.5097 200.079 38.251 199.631C36.9923 199.183 36.0857 198.682 35.531 198.127L37.227 195.087C37.675 195.493 38.3683 195.919 39.307 196.367C40.267 196.794 41.1843 197.007 42.059 197.007C43.1897 197.007 44.107 196.741 44.811 196.207C45.5363 195.674 45.899 194.938 45.899 193.999C45.899 193.274 45.707 192.645 45.323 192.111C44.939 191.578 44.4697 191.141 43.915 190.799C43.3603 190.437 42.571 189.999 41.547 189.487C40.331 188.89 39.499 188.442 39.051 188.143C36.9817 186.757 35.947 184.837 35.947 182.383C35.947 180.357 36.619 178.81 37.963 177.743C39.307 176.655 41.003 176.111 43.051 176.111C45.2483 176.111 47.115 176.741 48.651 177.999L46.955 180.911C46.5497 180.485 45.9737 180.122 45.227 179.823C44.5017 179.503 43.723 179.343 42.891 179.343C41.8243 179.343 40.9817 179.589 40.363 180.079C39.7657 180.549 39.467 181.253 39.467 182.191C39.467 182.853 39.659 183.45 40.043 183.983C40.427 184.495 40.907 184.943 41.483 185.327C42.0803 185.711 42.8803 186.181 43.883 186.735C44.843 187.269 45.579 187.695 46.091 188.015C46.603 188.314 47.083 188.677 47.531 189.103C48.1497 189.658 48.651 190.319 49.035 191.087C49.419 191.855 49.611 192.698 49.611 193.615C49.611 195.045 49.2803 196.261 48.619 197.263C47.979 198.266 47.083 199.023 45.931 199.535C44.8003 200.047 43.5097 200.303 42.059 200.303ZM57.6147 179.599H51.5987V176.463H67.2467V179.599H61.1667V199.983H57.6147V179.599ZM71.7532 176.463H75.3372V199.983H71.7532V176.463ZM78.3755 176.463H82.4395L89.4795 192.623L96.5515 176.463H100.583L89.7355 199.983H89.2555L78.3755 176.463ZM110.069 176.431L121.397 199.983H117.269L115.253 195.375H104.469L102.453 199.983H98.453L109.717 176.431H110.069ZM108.469 186.447L105.909 192.143H113.845L111.317 186.479L109.941 183.247H109.877L108.469 186.447ZM124.007 176.463H127.623V196.783H134.375V199.983H124.007V176.463Z" fill="#D3D6B1"/>
</g>
<defs>
<filter id="filter0_d_202_420" x="0.375977" y="0.0793457" width="169.708" height="208.224" filterUnits="userSpaceOnUse" color-interpolation-filters="sRGB">
<feFlood flood-opacity="0" result="BackgroundImageFix"/>
<feColorMatrix in="SourceAlpha" type="matrix" values="0 0 0 0 0 0 0 0 0 0 0 0 0 0 0 0 0 0 127 0" result="hardAlpha"/>
<feOffset dy="4"/>
<feGaussianBlur stdDeviation="2"/>
<feComposite in2="hardAlpha" operator="out"/>
<feColorMatrix type="matrix" values="0 0 0 0 0 0 0 0 0 0 0 0 0 0 0 0 0 0 0.25 0"/>
<feBlend mode="normal" in2="BackgroundImageFix" result="effect1_dropShadow_202_420"/>
<feBlend mode="normal" in="SourceGraphic" in2="effect1_dropShadow_202_420" result="shape"/>
</filter>
</defs>
</svg>
