<svg id="圖層_1" data-name="圖層 1" xmlns="http://www.w3.org/2000/svg" viewBox="0 0 300.47 153.07"><defs><style>.cls-1{fill:#89cfda;}.cls-2{fill:#87c8ac;}.cls-3{fill:#869f9e;}.cls-4{fill:#fff;}</style></defs><title>首頁圖層用</title><path class="cls-1" d="M29.45,18.61l-.31.26c-.58.45-1.39,1.19-2.45,2.19s-1.93,1.88-2.47,2.43q-1.35,1.38-2.31,2.58a28.34,28.34,0,0,0-3.63,6A35.59,35.59,0,0,0,16,38.74a31.74,31.74,0,0,0-.95,8.17,21.06,21.06,0,0,0,1.63,8,23.59,23.59,0,0,0,2.76,4.67c.12.16.24.32.38.49a25,25,0,0,0,7.83-.7l.52-.14.3-.1a7.63,7.63,0,0,0,1.73-.89,7.52,7.52,0,0,0,2.85-4.64,33.92,33.92,0,0,1,3.58.85l-.86-.61a11,11,0,0,1-1.4-1.21,11.19,11.19,0,0,1-2.1-3.25,16.66,16.66,0,0,1-1.18-3.64,18.64,18.64,0,0,1-.36-3.81,28.18,28.18,0,0,1,.36-3.82c.14-.86.38-2.11.73-3.77.2-.89.36-1.56.48-2A11.52,11.52,0,0,1,33,30.38a11,11,0,0,1,3.18-3.71l.55-.42.7-.52a9.48,9.48,0,0,0,1.18-1,4.6,4.6,0,0,0,.91-1.29,3.7,3.7,0,0,0,.27-.86,8.38,8.38,0,0,1-6.84.62v0c-.24-.23-.47-.48-.7-.74a14.52,14.52,0,0,1-1.47-2,12,12,0,0,0-1.35-1.81M284.59,136.05l-.33-.11a39.43,39.43,0,0,0-4.46-1.29,14.79,14.79,0,0,0-2-.28h-.47l-3.73-1.06h0a18.25,18.25,0,0,0-1.61,2.3,24.17,24.17,0,0,0-1.48,3c0,.1-.07.2-.11.31,1,.1,2,.15,3.1.16a14.13,14.13,0,0,1,4.41.73c.43.16.84.33,1.23.52l.3.17a8.78,8.78,0,0,1,2.27,1.84,26.38,26.38,0,0,1,2.92,3.76c.33-.73.67-1.52,1-2.38.5-1.29.88-2.25,1.14-2.89.44-1.13.84-2.08,1.19-2.85.05-.12.13-.29.25-.54l-.42-.18c-1.06-.42-2.11-.82-3.17-1.19m-35.51-23.18a5.52,5.52,0,0,0-.9,0,12.28,12.28,0,0,0-4.78,1.9,5.62,5.62,0,0,1-.9.42c-1.27,1.31-2,2.12-2.32,2.44a17.59,17.59,0,0,0-2.46,3.49,17.93,17.93,0,0,0-.95,2.25c-.19.57-.43,1.35-.72,2.35-.54,1.93-.92,3.51-1.15,4.75a23.37,23.37,0,0,0-.44,4.14h0l.06,0v0h0l0,0,2.12,1h0s0,0,.06,0l.39.16a19.82,19.82,0,0,0,2.87,1l1,.22h.06s0,0,.07,0l1.13.14a11.42,11.42,0,0,0,1.43,0,11.29,11.29,0,0,0,2.81-.5,9.09,9.09,0,0,0,2.18-1,21.18,21.18,0,0,1,.14-4.88,28,28,0,0,1,2.57-8.32,18.3,18.3,0,0,1,1.48-2.64,9.85,9.85,0,0,1,2-2.2,9.56,9.56,0,0,1,1.94-1.15q-.76-.63-1.5-1.14c-.74-.5-1.45-.93-2.12-1.3a9.65,9.65,0,0,0-4.2-1.36M143,88.91l0-.06,0,.06h0m2.52-23.29c-.49-.24-1-.5-1.44-.78a26.3,26.3,0,0,0-3.27,4.92,34.82,34.82,0,0,0-2.88,7.54s0,0,0,0a3.8,3.8,0,0,1,.69.36,3.06,3.06,0,0,1,1.32,1.76l.06.2q.78,2.55,1.44,5.13c0,.09.05.19.08.29v0a0,0,0,0,1,0,0,20,20,0,0,0,1.16,3.12l0,.1a.16.16,0,0,1,0,.07,1.06,1.06,0,0,0,.11.21c0,.08.07.15.1.22l0,.06,0,0h0l1.36,2.26,0,0,0,.05a.18.18,0,0,1,0,.07l.07.09,0,0a2.11,2.11,0,0,0,.19.23,13.88,13.88,0,0,0,1.61,1.83l0,0s0,0,0,0l0,0,0,0s0,0,0,0l0,0,0,0h0L150,96.6h0l0,0h0l0,0h0a0,0,0,0,0,0,0l0,0h0a32.8,32.8,0,0,1-1.38-5.63,30.56,30.56,0,0,1-.24-7.86,47.46,47.46,0,0,1,.82-4.91c.28-1.3.54-2.38.79-3.24A21.79,21.79,0,0,1,151.3,72a12.6,12.6,0,0,1,1.81-2.8,12.89,12.89,0,0,1,1-1.06c-.92-.12-1.83-.28-2.74-.49q-.57-.12-1.14-.27a26.84,26.84,0,0,1-4.18-1.45h0l-.56-.26M69.27,21.68a25.64,25.64,0,0,0-3.09,2.41,36.85,36.85,0,0,0-4.51,4.84,55.68,55.68,0,0,0-3.54,5.13,22.15,22.15,0,0,0-2.66,6.43A24.53,24.53,0,0,0,54.79,47c.08,2.33.22,4.67.41,7a22.94,22.94,0,0,0,1.57,6.66,18.71,18.71,0,0,0,3.6,5.75,49.22,49.22,0,0,1,4.22,5.25c1.26,1.8,2.54,3.57,3.84,5.33a6.11,6.11,0,0,0,2.91,2.17l.37.13h5.11a30.84,30.84,0,0,0,5-4.52,36.59,36.59,0,0,0,4.05-5.52q1.45-2.41,2.93-4.81a6.15,6.15,0,0,0-2.08,1.58,8.58,8.58,0,0,1-3,2.3,1.85,1.85,0,0,1-1.06.1,12.75,12.75,0,0,1-6.07-3.08,22.63,22.63,0,0,1-4.36-5.3,18.47,18.47,0,0,1-2.39-6.5,14.58,14.58,0,0,1,.35-6.47A26.65,26.65,0,0,1,73,40.69q1.72-2.85,3.54-5.67l.14-.21q6.93-8,15.64-2c0-.17,0-.33.07-.5a51.87,51.87,0,0,0,.31-12.14q-1.11-1.41-7.25-4T69.27,21.68M134.32,48.4a20.66,20.66,0,0,0-4.5-7.06,25.65,25.65,0,0,0-18.55-8.05,15.37,15.37,0,0,0-5.91,5.26,33.12,33.12,0,0,0-5.75,19.76,14.57,14.57,0,0,1,10.84,4.58l.24.26a49.39,49.39,0,0,1,1.07-6.84,20.63,20.63,0,0,1,6.08-10.58q9.27-8.67,16.48,2.67m79.9,50.13q-1.8,1.81-4.23,3.82c-.85.7-1.6,1.29-2.27,1.78a25.85,25.85,0,0,1-2.39,1.55,26.71,26.71,0,0,1-2.78,1.34q-1.29.54-2.91,1a42.13,42.13,0,0,1-6.43,1.6,29.14,29.14,0,0,1-5.09.37c-.33,1.57-.6,3.16-.79,4.76a.13.13,0,0,1,0,.06v0h0s0,0,0,.06h0a9.93,9.93,0,0,0-.06,1.72v.08a11.35,11.35,0,0,0,.35,2.24,10.12,10.12,0,0,0,.38,1.18l.06.16a18.94,18.94,0,0,0,1.24,2.56l.87.1a44.75,44.75,0,0,0,9.55-.06c1.43-.17,3-.43,4.59-.77,1.34-.28,2.85-.65,4.53-1.1,1.51-.42,2.77-.8,3.78-1.16a25.84,25.84,0,0,0,3.63-1.57,21.94,21.94,0,0,0,5.23-4,27.09,27.09,0,0,0,4-5.25,40.2,40.2,0,0,0,4.46-12.35,1,1,0,0,1,0-.18c-1.07-.23-2.12-.48-3.17-.75l-.63-.17a20.69,20.69,0,0,1-4.82-2.07,19,19,0,0,1-2.09-1.46c-.41.7-.85,1.38-1.33,2a34.06,34.06,0,0,1-3.7,4.34M188.27,72.32a11.23,11.23,0,0,0-1.44-.6,11.87,11.87,0,0,0-7.3-.08l8.74.68m-9.13-.57h.05a.16.16,0,0,0-.07,0h0M191,74.11l0,0,3.36,3.52A20.25,20.25,0,0,0,191,74.11m3.63-14.86a23.55,23.55,0,0,0-6.18-2.49l-.52-.13c-.27.31-.54.63-.81,1Q186,59,184.54,61.17c-.94,1.36-1.73,2.57-2.36,3.62a37.62,37.62,0,0,0-2,3.81,30.5,30.5,0,0,0-1.23,3.22h.17l0,0a.16.16,0,0,1,.07,0h.18l0,0,.1,0h0a11.87,11.87,0,0,1,7.3.08,11.23,11.23,0,0,1,1.44.6l0,0A14.29,14.29,0,0,1,191,74.1h0a20.25,20.25,0,0,1,3.38,3.55l0,0s0-.09,0-.14a15.59,15.59,0,0,1,.48-1.63,17.47,17.47,0,0,1,.81-1.82l.9-1.78c.2-.44.57-1.35,1.11-2.72.46-1.13.86-2,1.2-2.68a18.69,18.69,0,0,1,1.83-2.66l-.87-.88A32.75,32.75,0,0,0,197.26,61l-.73-.54c-.61-.45-1.24-.86-1.89-1.25"/><path class="cls-2" d="M29.14,18.87l.31-.26a9.88,9.88,0,0,0-6.84-3.16A21.84,21.84,0,0,0,14,16.58,17.82,17.82,0,0,0,6,22a22.79,22.79,0,0,0-4.6,8.76A31.15,31.15,0,0,0,.3,40.14a25.75,25.75,0,0,0,2,9.13,14.56,14.56,0,0,0,6.47,7.36,26.89,26.89,0,0,0,9,3.17c.7.12,1.41.19,2.1.24l-.37-.49a23.59,23.59,0,0,1-2.76-4.67,21,21,0,0,1-1.63-8A31.74,31.74,0,0,1,16,38.74a36.31,36.31,0,0,1,2.27-6.67,28.79,28.79,0,0,1,3.64-6q1-1.2,2.31-2.58c.54-.55,1.36-1.36,2.48-2.43s1.86-1.74,2.44-2.19"/><path class="cls-3" d="M288.23,137.44l-.05,0-.25.54c-.35.77-.75,1.72-1.19,2.85-.26.64-.64,1.6-1.14,2.89-.35.86-.69,1.65-1,2.38a6.84,6.84,0,0,1,.56,1.12,10.2,10.2,0,0,0,9.7,4.22q4.95-.43,5.08-2,1.49-2.91-5-7.4c-4.32-3-6.56-4.5-6.7-4.57m-53.67-2.75h0m-.08,0h0l.11,0v0l-.06,0M146.6,93.8A30.47,30.47,0,0,0,150,96.61L146.6,93.8m-70-59-.14.21Q74.68,37.84,73,40.69a26.65,26.65,0,0,0-2.78,6.41,14.58,14.58,0,0,0-.35,6.47,18.47,18.47,0,0,0,2.39,6.5,22.63,22.63,0,0,0,4.36,5.3,12.7,12.7,0,0,0,6.07,3.08,1.85,1.85,0,0,0,1.06-.1,8.71,8.71,0,0,0,3.06-2.3,6,6,0,0,1,2.07-1.58l1.29-2a6.16,6.16,0,0,1,1.65-1.69,13.89,13.89,0,0,1,5.75-2.33l2.09-.17a33.12,33.12,0,0,1,5.75-19.76,15.37,15.37,0,0,1,5.91-5.26l-.53,0A61.34,61.34,0,0,0,97,36.38a37.76,37.76,0,0,1-5.51.83c.29-1.47.55-2.93.76-4.4q-8.72-6-15.64,2m156.48,62.4c-1.05-.19-2.1-.4-3.15-.62a1.16,1.16,0,0,0,0,.18,40.2,40.2,0,0,1-4.46,12.35,27.09,27.09,0,0,1-4,5.25,21.94,21.94,0,0,1-5.23,4,25.84,25.84,0,0,1-3.63,1.57c-1,.36-2.27.74-3.78,1.15q-2.52.69-4.53,1.11c-1.63.34-3.16.6-4.59.77a44.75,44.75,0,0,1-9.55.06l-.88-.1a17.26,17.26,0,0,0,8.65,7.44,18.1,18.1,0,0,0,11.3.9q3.14-.75,6.3-1.57a18.84,18.84,0,0,1,9.83,0,6.91,6.91,0,0,1,2.29,1l.08.05.08.06.22.14.07.05.13.09a.28.28,0,0,1,.11.08l.22.14.11.06.16.12,5.58,3.17,0,0h0a23.37,23.37,0,0,1,.44-4.14c.23-1.24.61-2.82,1.15-4.75.29-1,.53-1.78.72-2.35a17.93,17.93,0,0,1,.95-2.25,17.59,17.59,0,0,1,2.46-3.49c.28-.32,1-1.13,2.32-2.44a3.58,3.58,0,0,1-2.05,0,5.71,5.71,0,0,1-2.56-1.54,20.48,20.48,0,0,1-6.29,5.2l-.61.32.61-.32a20.48,20.48,0,0,0,6.29-5.2,10.61,10.61,0,0,0,1.87-6.87,11.85,11.85,0,0,0-4.41-8.58,4.85,4.85,0,0,0-2.24-1M179.05,71.78h0m.26-.08h0l0,0h0l.08,0"/><path class="cls-2" d="M252.93,120a18.3,18.3,0,0,0-1.48,2.64,27.89,27.89,0,0,0-2.57,8.32,20.64,20.64,0,0,0-.14,4.88,9.53,9.53,0,0,0,2.29-2,22.94,22.94,0,0,0,3.37-5.4q2.09-.47,4.28,3.56a11.73,11.73,0,0,0,5.78,5.51,21.14,21.14,0,0,0,5.89,1.39c0-.11.08-.21.11-.31a24.17,24.17,0,0,1,1.48-3,18.25,18.25,0,0,1,1.61-2.3c-.6-.27-1.24-.6-1.92-1l-.1-.05c-2.42-1.36-5.07-4-8-8.07a40.89,40.89,0,0,0-6.67-7.51,9.38,9.38,0,0,0-1.94,1.15,9.85,9.85,0,0,0-2,2.2"/><path class="cls-2" d="M92.65,20.17a16.65,16.65,0,0,0-3.05-7.41,31.39,31.39,0,0,0-4.66-5.12A32.13,32.13,0,0,0,77,2.45,22.56,22.56,0,0,0,67.77.29,26.86,26.86,0,0,0,58.3,1.85a28.94,28.94,0,0,0-4.45,2.07,16.35,16.35,0,0,0-6.48,6.9,41.13,41.13,0,0,0-2,4.74A14.08,14.08,0,0,1,42,20.83a10.51,10.51,0,0,1-2.21,1.71,3.7,3.7,0,0,1-.27.86,4.6,4.6,0,0,1-.91,1.29,9.48,9.48,0,0,1-1.18,1l-.7.52-.55.42A11,11,0,0,0,33,30.38a10.73,10.73,0,0,0-.71,1.93c-.13.44-.29,1.11-.49,2-.35,1.66-.59,2.91-.73,3.77a28.18,28.18,0,0,0-.36,3.82,18.57,18.57,0,0,0,.36,3.81,16.66,16.66,0,0,0,1.18,3.64,11.19,11.19,0,0,0,2.1,3.25,11,11,0,0,0,1.4,1.21l.86.61A14,14,0,0,1,40.27,56a6.35,6.35,0,0,1,1.36,1.17,12.61,12.61,0,0,1,2.47,4,5.68,5.68,0,0,1,.51,1.28c.3,1.34.66,2.9,1.07,4.66a26.29,26.29,0,0,0,3.2,7,23.05,23.05,0,0,0,5,5.86,24.7,24.7,0,0,0,2,1.52A12.55,12.55,0,0,0,62,83.66a20.26,20.26,0,0,0,9.58-1.45,26.57,26.57,0,0,0,5.29-2.89H71.71a3.19,3.19,0,0,1-.37-.13A6.11,6.11,0,0,1,68.43,77c-1.3-1.76-2.58-3.53-3.84-5.33a51.47,51.47,0,0,0-4.21-5.25,18.55,18.55,0,0,1-3.61-5.75A22.94,22.94,0,0,1,55.2,54c-.19-2.33-.33-4.65-.41-7a24.56,24.56,0,0,1,.68-6.56,22,22,0,0,1,2.66-6.43,55.68,55.68,0,0,1,3.54-5.13,36.85,36.85,0,0,1,4.51-4.84,26.45,26.45,0,0,1,3.09-2.41q10-8.17,16.13-5.54t7.25,4"/><path class="cls-2" d="M134.32,48.4q-7.2-11.34-16.48-2.67a20.63,20.63,0,0,0-6.08,10.58,49.16,49.16,0,0,0-1.07,6.84,8.23,8.23,0,0,1,1.52,3.13l.09.38a63.66,63.66,0,0,1,1.49,8.21c0,.35.07.71.11,1.06a17.56,17.56,0,0,0,.4,2.41c.1.39.21.77.33,1.13a14.66,14.66,0,0,0,3.51,5.79,8.34,8.34,0,0,0,4,2.31,8.61,8.61,0,0,0,8.92-2.48,15.36,15.36,0,0,0,2.58-3.6,29.13,29.13,0,0,0,1.69-3.89,2.85,2.85,0,0,1,2.49-.26s0,0,0,0a34.83,34.83,0,0,1,2.89-7.54A26.63,26.63,0,0,1,144,64.84a15.55,15.55,0,0,1-5.2-5.16,30.1,30.1,0,0,1-3.29-7.1Z"/><path class="cls-2" d="M184.54,61.17Q186,59,187.13,57.6c.27-.34.54-.66.81-1q-3.12-.75-6.31-1.22a16.26,16.26,0,0,0-6.76.5,1.26,1.26,0,0,0-.5.27,29.6,29.6,0,0,0-4.1,4.7,23.63,23.63,0,0,1-5.2,5.36,9.76,9.76,0,0,1-5,2,26.71,26.71,0,0,1-5.93-.09,11.47,11.47,0,0,0-1,1.06A13,13,0,0,0,151.3,72a20.66,20.66,0,0,0-1.16,3.09c-.26.86-.52,1.94-.8,3.24a44.89,44.89,0,0,0-.82,4.91,30.56,30.56,0,0,0,.24,7.86,32.91,32.91,0,0,0,1.38,5.64l2.21,1.38a2.16,2.16,0,0,0,.3.18,9.22,9.22,0,0,0,8.8.33,4.32,4.32,0,0,0,2.35-2.52q1.39-3.82,2.6-7.72a39.44,39.44,0,0,1,5-10.6,16.31,16.31,0,0,1,4.62-4.56,12.07,12.07,0,0,1,2.7-1.32l.16-.05a30.5,30.5,0,0,1,1.23-3.22,37.62,37.62,0,0,1,2-3.81c.63-1.05,1.42-2.26,2.36-3.62"/><path class="cls-2" d="M200.76,64.26a18.69,18.69,0,0,0-1.83,2.66c-.34.65-.74,1.55-1.2,2.68-.54,1.37-.91,2.28-1.11,2.72l-.9,1.78a18.45,18.45,0,0,0-.81,1.82,16.34,16.34,0,0,0-.48,1.63s0,.09,0,.14l0,0a20.91,20.91,0,0,1,2,3.29,9.46,9.46,0,0,1,.91,5.3A17.22,17.22,0,0,1,194.49,94a37,37,0,0,0-3.21,6,55.16,55.16,0,0,0-3.16,10,29.14,29.14,0,0,0,5.09-.37,42.13,42.13,0,0,0,6.43-1.6q1.62-.51,2.91-1a26.71,26.71,0,0,0,2.78-1.34,25.85,25.85,0,0,0,2.39-1.55c.67-.49,1.42-1.09,2.27-1.78q2.43-2,4.23-3.82a34.06,34.06,0,0,0,3.7-4.34c.48-.67.92-1.35,1.33-2-.31-.23-.61-.48-.9-.74a4.2,4.2,0,0,1-1.11-1.54c-.93-2.22-1.79-4.48-2.58-6.76a29.16,29.16,0,0,0-2.32-5,42.87,42.87,0,0,0-5.64-7.63q-2.92-3.15-5.94-6.17"/><path class="cls-4" d="M293.62,151.75a10.33,10.33,0,0,1-8.71-4.39l0-.06a6.13,6.13,0,0,0-.55-1.08,26.19,26.19,0,0,0-2.88-3.72,8.48,8.48,0,0,0-2.21-1.78l-.29-.16a10.65,10.65,0,0,0-1.19-.51,13.85,13.85,0,0,0-4.32-.71c-1.09,0-2.14-.07-3.13-.17a21.29,21.29,0,0,1-6-1.41,12,12,0,0,1-5.93-5.64c-1.33-2.45-2.62-3.6-3.83-3.44a23.44,23.44,0,0,1-3.35,5.33,9.26,9.26,0,0,1-4.61,3.08,12.18,12.18,0,0,1-2.87.51,12,12,0,0,1-1.47,0l-1.14-.14-.09,0H241l-1-.22h0a19.59,19.59,0,0,1-2.91-1l-.39-.16h0l-.05,0,0,0-2.1-1h0l-.07,0h0l-.09,0,0,0h0l-5.57-3.17,0,0-.14-.1-.1-.06a0,0,0,0,1,0,0l-.23-.14,0,0,0,0,0,0h0l0,0-.11-.07a.39.39,0,0,1-.1-.08l-.2-.12h0l0,0,0,0-.13-.08a6.82,6.82,0,0,0-2.19-1h0a18.84,18.84,0,0,0-9.69,0h0c-2.1.54-4.22,1.07-6.31,1.57a18.39,18.39,0,0,1-11.46-.92h0A17.63,17.63,0,0,1,189,123h0a19.37,19.37,0,0,1-1.25-2.59,1.34,1.34,0,0,1-.07-.18q-.22-.6-.39-1.2h0a11.84,11.84,0,0,1-.35-2.3.09.09,0,0,1,0-.07h0a11.47,11.47,0,0,1,.05-1.76,0,0,0,0,1,0,0h0a.11.11,0,0,1,0-.08h0v0c.19-1.6.46-3.21.79-4.78h0A55.69,55.69,0,0,1,191,99.89h0a38.45,38.45,0,0,1,3.24-6.08h0A17.29,17.29,0,0,0,197,86.22h0a9.44,9.44,0,0,0-.88-5.15h0a21,21,0,0,0-2-3.23l-3.33-3.5,0,0,0,0a14.54,14.54,0,0,0-2.6-1.71l-8.64-.67h-.06a.17.17,0,0,1-.1,0h0l-.05,0a.45.45,0,0,1-.11,0h0l-.07,0-.09,0h0l-.14,0a11.75,11.75,0,0,0-2.64,1.29h0a16.24,16.24,0,0,0-4.53,4.48h0a39.44,39.44,0,0,0-5,10.52h0c-.8,2.59-1.68,5.19-2.61,7.73h0a4.58,4.58,0,0,1-2.49,2.67h0a9.52,9.52,0,0,1-9.06-.34l-.31-.18h0L150,97l-.07,0,0,0h0l0,0h0a29,29,0,0,1-3.38-2.77.24.24,0,0,1-.11-.09h0l0,0,0,0,0,0h0l0,0-.06-.06,0,0a14.89,14.89,0,0,1-1.63-1.85l-.18-.22,0,0h0s0,0,0,0h0l-.12-.15v0h0s0,0,0,0a.22.22,0,0,1-.07-.09l-1.33-2.21v0h0l0,0h0l0,0v0h0c0-.07-.07-.15-.11-.22s-.08-.15-.11-.22v0a.1.1,0,0,1,0-.05l0-.1a19.77,19.77,0,0,1-1.17-3.15.19.19,0,0,1,0-.08,2.29,2.29,0,0,1-.08-.28c-.44-1.7-.92-3.42-1.43-5.11l-.06-.21a2.79,2.79,0,0,0-1.21-1.6,3.25,3.25,0,0,0-.64-.33,2.51,2.51,0,0,0-2.16.19,31.08,31.08,0,0,1-1.68,3.83,15.13,15.13,0,0,1-2.63,3.66,8.86,8.86,0,0,1-9.18,2.55,8.61,8.61,0,0,1-4.18-2.38,15,15,0,0,1-3.57-5.89c-.12-.37-.24-.76-.34-1.15a16.82,16.82,0,0,1-.4-2.46l-.12-1.06A63.17,63.17,0,0,0,112,66.73c0-.13-.07-.27-.1-.39a7.93,7.93,0,0,0-1.46-3c-.08-.08-.15-.17-.23-.24a14.28,14.28,0,0,0-10.63-4.49l-2.07.17A13.46,13.46,0,0,0,91.92,61a5.86,5.86,0,0,0-1.57,1.61c-.43.65-.87,1.31-1.29,2-1,1.59-2,3.21-2.92,4.82A37.75,37.75,0,0,1,82.06,75,32,32,0,0,1,77,79.55a27.61,27.61,0,0,1-5.34,2.92,20.57,20.57,0,0,1-9.71,1.46A12.82,12.82,0,0,1,55.7,81.7a24.6,24.6,0,0,1-2-1.53,23.81,23.81,0,0,1-5.07-5.93,26.7,26.7,0,0,1-3.23-7c-.41-1.76-.76-3.32-1.07-4.66a4.73,4.73,0,0,0-.49-1.21s0,0,0-.06a12.39,12.39,0,0,0-2.41-3.91,6,6,0,0,0-1.3-1.1,13.63,13.63,0,0,0-3.57-1.57,32.63,32.63,0,0,0-3.29-.79,7.67,7.67,0,0,1-2.89,4.54,7.86,7.86,0,0,1-1.8.93l-.3.1c-.19.06-.37.11-.56.15a25.15,25.15,0,0,1-7.91.7,19.55,19.55,0,0,1-2.13-.24,27.25,27.25,0,0,1-9.09-3.2A15,15,0,0,1,2,49.37a26,26,0,0,1-2-9.23,31.67,31.67,0,0,1,1.13-9.45,23.32,23.32,0,0,1,4.66-8.86,18.11,18.11,0,0,1,8.1-5.51,22.06,22.06,0,0,1,8.71-1.15,10.15,10.15,0,0,1,7,3.25A11.92,11.92,0,0,1,31,20.27a13.37,13.37,0,0,0,1.44,1.94,8.79,8.79,0,0,0,.66.7,8.11,8.11,0,0,0,6.54-.62,10.13,10.13,0,0,0,2.14-1.66,13.76,13.76,0,0,0,3.27-5.17,41.7,41.7,0,0,1,2-4.77,16.58,16.58,0,0,1,6.59-7A28.54,28.54,0,0,1,58.2,1.59,27.44,27.44,0,0,1,67.77,0a23.26,23.26,0,0,1,9.38,2.19,32.72,32.72,0,0,1,8,5.24,32,32,0,0,1,4.7,5.17,17,17,0,0,1,3.1,7.53h0a52.48,52.48,0,0,1-.31,12.21c0,.16,0,.33-.07.49-.2,1.35-.43,2.71-.7,4a35.93,35.93,0,0,0,5.09-.78A62.58,62.58,0,0,1,110.71,33l.54,0h0A26,26,0,0,1,130,41.14a21.18,21.18,0,0,1,4.56,7.16v0l1.22,4.18a30.11,30.11,0,0,0,3.26,7,15.29,15.29,0,0,0,5.11,5.07,14.78,14.78,0,0,0,1.41.77l.52.24h0l0,0a27.79,27.79,0,0,0,4.14,1.44c.37.1.75.18,1.13.26a25.43,25.43,0,0,0,2.72.49,27.33,27.33,0,0,0,5.86.09A9.53,9.53,0,0,0,164.89,66a23.77,23.77,0,0,0,5.15-5.3A29.7,29.7,0,0,1,174.18,56a1.46,1.46,0,0,1,.6-.33,16.66,16.66,0,0,1,6.88-.51c2.13.31,4.26.72,6.34,1.23h0l.52.13A23.6,23.6,0,0,1,194.77,59c.65.39,1.3.81,1.92,1.26l.73.55a33.64,33.64,0,0,1,2.66,2.36l.87.88c2,2,4,4.09,6,6.18a43.88,43.88,0,0,1,5.68,7.67A30.08,30.08,0,0,1,214.92,83c.78,2.27,1.65,4.54,2.57,6.75a4,4,0,0,0,1,1.44c.29.26.58.5.88.73a18.15,18.15,0,0,0,2.07,1.43,20.3,20.3,0,0,0,4.75,2.05l.62.17c1,.27,2.1.52,3.16.74s2.1.44,3.14.62a5.07,5.07,0,0,1,2.37,1.1A12.1,12.1,0,0,1,240,106.8a10.85,10.85,0,0,1-1.79,6.85,5.54,5.54,0,0,0,2.28,1.31,3.37,3.37,0,0,0,1.89,0,4.89,4.89,0,0,0,.84-.39,12.46,12.46,0,0,1,4.89-1.94,6.09,6.09,0,0,1,1,0,9.77,9.77,0,0,1,4.32,1.39c.67.37,1.39.82,2.14,1.32.5.34,1,.73,1.52,1.15a41.18,41.18,0,0,1,6.72,7.57c2.85,4,5.5,6.65,7.87,8l.1.06c.65.37,1.29.69,1.87.95h0l3.66,1h.46a15.63,15.63,0,0,1,2.07.3,39.13,39.13,0,0,1,4.49,1.29,2.3,2.3,0,0,1,.34.12c1.05.36,2.12.77,3.17,1.19l.41.17.09,0c.09.05.5.3,6.73,4.59,4.46,3.09,6.12,5.6,5.1,7.71-.14,1.18-1.89,1.9-5.32,2.2-.42,0-.83.06-1.24.06m-8.23-4.69a10,10,0,0,0,9.42,4.08c2.15-.19,4.74-.65,4.82-1.76a.38.38,0,0,1,0-.1c.91-1.79-.74-4.16-4.9-7-5.2-3.58-6.5-4.46-6.66-4.55l0,0-.42-.18c-1-.41-2.1-.81-3.15-1.18l-.32-.11h0a38.29,38.29,0,0,0-4.43-1.28,14.18,14.18,0,0,0-2-.28h-.53l-3.74-1.06s0,0,0,0h0a21,21,0,0,1-1.94-1,.31.31,0,0,1-.1,0c-2.45-1.37-5.15-4.11-8.05-8.15a41,41,0,0,0-6.62-7.46c-.5-.41-1-.79-1.48-1.12-.73-.49-1.44-.92-2.1-1.29a9.33,9.33,0,0,0-4.07-1.32,5,5,0,0,0-.86,0,11.85,11.85,0,0,0-4.67,1.85,4.9,4.9,0,0,1-1,.45,3.87,3.87,0,0,1-2.21,0,6,6,0,0,1-2.47-1.39,20.69,20.69,0,0,1-6.17,5l-.61.32a.28.28,0,1,1-.26-.5l.6-.31a20.29,20.29,0,0,0,6.2-5.12,10.32,10.32,0,0,0,1.81-6.68,11.5,11.5,0,0,0-4.31-8.38,4.47,4.47,0,0,0-2.1-1c-1.06-.19-2.12-.4-3.17-.62s-2.13-.48-3.17-.75l-.65-.18a20.56,20.56,0,0,1-4.88-2.1,19.51,19.51,0,0,1-2.12-1.47c-.31-.24-.61-.49-.91-.75A4.51,4.51,0,0,1,217,90c-.93-2.22-1.8-4.51-2.59-6.78a29,29,0,0,0-2.3-5,42.23,42.23,0,0,0-5.6-7.57c-1.94-2.09-3.93-4.16-5.93-6.17l-.87-.87a34,34,0,0,0-2.61-2.32c-.23-.18-.47-.36-.72-.53a20.88,20.88,0,0,0-1.87-1.24,23.09,23.09,0,0,0-6.1-2.46l-.53-.13c-2.06-.5-4.17-.91-6.28-1.22a16.2,16.2,0,0,0-6.64.49.92.92,0,0,0-.38.21A29.13,29.13,0,0,0,170.49,61a24.17,24.17,0,0,1-5.26,5.42,10,10,0,0,1-5.15,2,27.26,27.26,0,0,1-6-.09,26.34,26.34,0,0,1-2.77-.49c-.38-.08-.77-.17-1.15-.27A28.32,28.32,0,0,1,146,66.16a.16.16,0,0,1-.09,0l-.56-.26a16.45,16.45,0,0,1-6.76-6.05,30.93,30.93,0,0,1-3.31-7.15l-1.22-4.18a20.58,20.58,0,0,0-4.44-7,25.48,25.48,0,0,0-18.34-8l-.51,0a61.61,61.61,0,0,0-13.66,3h0a38.1,38.1,0,0,1-5.55.83.26.26,0,0,1-.23-.1.24.24,0,0,1-.06-.23c.29-1.45.54-2.93.76-4.39,0-.16.05-.33.07-.5a51.73,51.73,0,0,0,.3-12.06,16.38,16.38,0,0,0-3-7.28,31.33,31.33,0,0,0-4.62-5.08A32.21,32.21,0,0,0,76.92,2.7,22.76,22.76,0,0,0,67.76.56a26.79,26.79,0,0,0-9.37,1.55A28.85,28.85,0,0,0,54,4.16a16.16,16.16,0,0,0-6.37,6.78,42.44,42.44,0,0,0-2,4.71A14.39,14.39,0,0,1,42.21,21a10.77,10.77,0,0,1-2.27,1.76,8.68,8.68,0,0,1-7,.64.26.26,0,0,1-.16-.13c-.23-.22-.46-.46-.68-.71a15.33,15.33,0,0,1-1.5-2,11.34,11.34,0,0,0-1.31-1.76,9.62,9.62,0,0,0-6.66-3.07,21.49,21.49,0,0,0-8.49,1.11,17.59,17.59,0,0,0-7.85,5.35,22.65,22.65,0,0,0-4.55,8.65A30.94,30.94,0,0,0,.57,40.13a25.63,25.63,0,0,0,1.93,9,14.43,14.43,0,0,0,6.35,7.23,26.81,26.81,0,0,0,8.89,3.13,18.89,18.89,0,0,0,2.08.23,24.81,24.81,0,0,0,7.76-.68l.5-.14.29-.1A6.83,6.83,0,0,0,30,58a7.27,7.27,0,0,0,2.74-4.47.28.28,0,0,1,.32-.22,34.68,34.68,0,0,1,3.62.86,14.38,14.38,0,0,1,3.71,1.63A6.11,6.11,0,0,1,41.83,57a12.89,12.89,0,0,1,2.52,4.08,5.38,5.38,0,0,1,.52,1.32c.31,1.35.67,2.9,1.07,4.66A26.25,26.25,0,0,0,49.11,74a23.13,23.13,0,0,0,5,5.8,22,22,0,0,0,2,1.49A12.14,12.14,0,0,0,62,83.38,20,20,0,0,0,71.42,82a26.77,26.77,0,0,0,5.23-2.86,31.65,31.65,0,0,0,5-4.48,37.18,37.18,0,0,0,4-5.47c1-1.61,2-3.23,2.93-4.82l1.29-2a6.4,6.4,0,0,1,1.72-1.76,14.18,14.18,0,0,1,5.87-2.37h0L99.58,58h0a14.84,14.84,0,0,1,11,4.66,3.38,3.38,0,0,1,.26.27v0a8.51,8.51,0,0,1,1.56,3.23c0,.13.06.25.1.38a62.73,62.73,0,0,1,1.49,8.24l.11,1.07a15.42,15.42,0,0,0,.39,2.37q.15.57.33,1.11a14.53,14.53,0,0,0,3.44,5.68,8.05,8.05,0,0,0,3.91,2.23,8.39,8.39,0,0,0,8.65-2.39,15.07,15.07,0,0,0,2.54-3.54,30,30,0,0,0,1.67-3.86.37.37,0,0,1,.13-.15,3.13,3.13,0,0,1,2.73-.27,3.71,3.71,0,0,1,.74.38,3.33,3.33,0,0,1,1.44,1.92l.06.19c.52,1.7,1,3.43,1.44,5.14,0,.09.05.19.08.29v0s0,0,0,0a19.6,19.6,0,0,0,1.13,3.06v0l0,.06a.37.37,0,0,1,.05.11l.09.16s0,0,0,0a1.63,1.63,0,0,0,.09.19l0,.06,0,0s0,0,0,0L144.55,91l0,0,0,0,0,0h0l0,.05h0l.06.08a.22.22,0,0,1,.05.08l.17.2v0a14.58,14.58,0,0,0,1.57,1.79h0s0,0,0,0l0,.06h0l0,0,.06,0,0,0,0,0a28,28,0,0,0,3.38,2.77s0,0,0,0h0l0,0h0l0,0h0l2.21,1.38a2.61,2.61,0,0,0,.28.17h0a9,9,0,0,0,8.55.33h0a4,4,0,0,0,2.2-2.37c.93-2.53,1.8-5.12,2.6-7.71a40,40,0,0,1,5.08-10.67h0A16.67,16.67,0,0,1,175.9,73h0a12,12,0,0,1,2.76-1.34h0l.13,0,.07,0h.1l0,0,.09,0,.06,0h0l.05,0a.29.29,0,0,1,.1,0h0l.09,0a11.92,11.92,0,0,1,8.9.7l.07,0a14.6,14.6,0,0,1,2.69,1.76h0s0,0,0,0a20.31,20.31,0,0,1,3.41,3.59h0a21,21,0,0,1,2,3.33h0a9.88,9.88,0,0,1,.93,5.45h0a17.54,17.54,0,0,1-2.82,7.83h0a37.36,37.36,0,0,0-3.19,6,53.93,53.93,0,0,0-3.14,10h0c-.33,1.54-.6,3.13-.79,4.71v.07s0,.05,0,.07v0a9.37,9.37,0,0,0-.06,1.67v.07h0a11,11,0,0,0,.34,2.19h0a11.65,11.65,0,0,0,.37,1.14h0v0a.61.61,0,0,0,.05.12v0a20.2,20.2,0,0,0,1.21,2.52,17.07,17.07,0,0,0,8.51,7.32h0a17.85,17.85,0,0,0,11.13.88h0c2.08-.49,4.2-1,6.29-1.56h0a19.27,19.27,0,0,1,10,0h0a7.18,7.18,0,0,1,2.38,1.1h0l0,0,.12.07.22.14,0,0,0,0h0l0,0,.08.06a.46.46,0,0,1,.15.09l.19.13.1.06h0l0,0,.15.1,5.55,3.16h.06l0,0,0,0a.05.05,0,0,0,0,0l0,0,2.09,1h0l.1.05.37.15h0a18.48,18.48,0,0,0,2.83,1c.31.08.63.16,1,.22h0l.07,0h0l1.13.14a10.71,10.71,0,0,0,1.39,0,11.11,11.11,0,0,0,2.73-.49,8.73,8.73,0,0,0,2.11-.93,9.41,9.41,0,0,0,2.23-2,23.09,23.09,0,0,0,3.33-5.34.28.28,0,0,1,.19-.16c1.53-.33,3.07.91,4.58,3.7a11.58,11.58,0,0,0,5.66,5.39,20.76,20.76,0,0,0,5.8,1.37c1,.1,2,.15,3.07.16a14,14,0,0,1,4.5.75,9.52,9.52,0,0,1,1.26.53l.32.18a8.57,8.57,0,0,1,2.34,1.89,26.19,26.19,0,0,1,2.95,3.8,7.63,7.63,0,0,1,.58,1.13m-8.14-12.46h0m.11-.29v0Zm-3.78-.76h0M187,116.69h0M142.46,88.54h0m-1.24-3.29h0m0-.09h0m40.25-13.65,5.06.39a11.3,11.3,0,0,0-5.06-.39"/><path class="cls-4" d="M76.61,16.48c.22-.62.41-1.13.58-1.55l.55-1.32s0,0,0,0h0l-.42.73c-.08.13-.18.31-.29.53l-1.24,2.7-.47,1.39c-.07.24-.13.45-.17.62s-.1.38-.16.64l-.3,1.94,0,.77v.85c0,.33,0,.59.06.76l.1.78c0,.28.1.54.16.77s.15.55.23.78a8,8,0,0,0,.28.76l.34.74c.15.29.28.53.39.71s.3.46.46.68.32.43.5.65l.74.83,1,.88a15.19,15.19,0,0,0,1.25.95l2.11,1.27,3.31,1.4,1.69.54,4.2,1h.1s0,0,0,0,0,0,0,0l-4.28-1.42-3-1.25a26.88,26.88,0,0,1-2.45-1.33,17.82,17.82,0,0,1-2.4-1.74l-1.21-1.19-.37-.43a7.17,7.17,0,0,1-.45-.6A10.13,10.13,0,0,1,76,26.58c-.08-.21-.15-.45-.22-.71s-.11-.48-.16-.72l-.12-.71c0-.17,0-.4-.07-.72a11,11,0,0,1,0-1.4l0-.61.28-2,.82-3c0-.07,0-.15.08-.23"/><path class="cls-4" d="M43,19.77h0l-1.25,3.57L41,24.78l-.54.81-.11.14,0,0-.45.49-.53.46a5.5,5.5,0,0,1-.59.36l-.08,0,0,0-.12.05h0l0,0,0,0,0,0h0l0,0-.49.12-.33.06-.38,0h-.3a6.88,6.88,0,0,1-1.3-.16l-.67-.18h-.08l-.14,0,0,0-1.2-.44L32,26s0,0,0,0h0l.43.35,1.36.9.94.46.71.26.78.2.91.09.86-.06.4-.09a2.32,2.32,0,0,0,.4-.13h.05l.2-.08.05,0,.1,0a4.72,4.72,0,0,0,.72-.43,6.89,6.89,0,0,0,.63-.55,5.51,5.51,0,0,0,.53-.63,5.41,5.41,0,0,0,.44-.66,5.67,5.67,0,0,0,.36-.67l.15-.35A1,1,0,0,0,42,24.4l.09-.21.44-1.39.35-1.93L43,19.78s0,0,0,0"/><path class="cls-4" d="M21,53.79l-.77.52s0,0,0,0,0,0,0,0l3.37-1h0l.9-.19.14,0,.14,0,.29,0,.15,0,.14,0,1.2-.13c.53,0,.93,0,1.2,0l1.31,0,1.14.12h.06l1.93.36h0l.78.18s0,0,0,0h0l-.73-.41-1.64-.66-.25-.07-.06,0-.4-.1L27.88,52H27.8a11.07,11.07,0,0,0-1.28,0l-1.07.13h-.12l-1.14.25-.84.26-1.22.5-.32.15,0,0Z"/><path class="cls-4" d="M72,70.7l-2,2.44-1.77,2.54-1.95,3.49s0,0,0,0h0l1-1.4,3.3-4.3,2.73-2.92,2.26-2c.28-.23.65-.53,1.13-.9l1.37-1h0l.37-.26,3-1.75c.42-.22.83-.41,1.21-.58L85,63.13c.2-.08.38-.14.55-.19l.65-.22h0l3.1-.82,1.49-.3h-.36l-.55,0H89.8l-.88.09h0L87,62l-2.24.55-1.11.35c-.33.11-.74.26-1.24.46l-2.54,1.17-1.27.71c-.41.24-.82.51-1.25.8l-2.13,1.59L73.07,69.6Z"/><path class="cls-4" d="M125.58,70l-.46.13a2.94,2.94,0,0,0-.43.17l-.11,0-.58.31-.09.06-.35.24-1,.92-.5.64c-.15.22-.33.52-.54.89l-.39.8s0,0,0,0h0l.41-.55a.24.24,0,0,1,.06-.09l0-.08.81-.93.17-.15,0,0,0,0,0-.06.51-.44.92-.6.69-.31h0l.39-.12.1,0h0l.25,0c.09,0,.22,0,.41,0a6.13,6.13,0,0,1,.86,0l.87.12a9.54,9.54,0,0,1,1.75.56,17.62,17.62,0,0,1,1.66.85l1.89,1.25,4.68,3.85s0,0,0,0v0L137,76.27l-1.52-1.67-2.22-2-.74-.57-.81-.53a12,12,0,0,0-1.76-.93l-.47-.19-.47-.16L128,70l-.49-.07c-.16,0-.33,0-.5,0a5.6,5.6,0,0,0-1,.06c-.17,0-.32.06-.47.09"/><path class="cls-4" d="M31.9,33.85l.07,1c0,.34.05.68.09,1l.56,4c.12.62.26,1.28.43,2s.35,1.33.55,2c.13.41.23.73.32,1,.15.43.28.75.37,1a19.08,19.08,0,0,0,.85,1.88c.18.34.35.65.5.9.25.42.44.71.56.87l.3.43.31.42L38,51.67l.78.7,1.08.77c.33.2.64.38.91.52s.62.3,1,.43l1,.34a9.05,9.05,0,0,0,1,.24l1,.16a15.48,15.48,0,0,0,2.09.09c.67,0,1.36-.1,2.07-.2s1.38-.24,2-.41h0l1.32-.18c.4,0,.84-.09,1.33-.13s.84-.07,1.33-.09l1.33,0,2.66.12c.49,0,.93.09,1.33.15l1.32.22c.37.07.81.17,1.3.29l2.55.78c.48.17.89.34,1.24.49s.83.37,1.23.56.84.43,1.18.62l1.16.7c.3.18.67.43,1.12.74h0a0,0,0,0,0,0,0c-.37-.31-.73-.58-1.06-.83l-1.12-.77c-.36-.22-.74-.46-1.17-.7s-.82-.45-1.19-.63S66,55.22,65.6,55l-1.11-.43-2.78-.82-1.34-.27c-.49-.08-.94-.15-1.35-.2l-1.36-.13-1.37-.06c-.31,0-.77,0-1.36,0l-1.37.06-1.36.12-1.36.16h0c-.71.16-1.36.29-2,.37l-1,.12c-.37,0-.7,0-1,.05a12.39,12.39,0,0,1-2-.07A9.89,9.89,0,0,1,43,53.58l-.93-.3c-.23-.09-.52-.22-.88-.39s-.55-.29-.86-.47l-.7-.48-.1-.08a8.19,8.19,0,0,1-.75-.62l-.7-.68c-.27-.29-.49-.54-.65-.74L36.82,49c-.13-.18-.31-.46-.54-.82s-.34-.56-.51-.87-.26-.48-.46-.87l-.42-.91c-.15-.34-.28-.65-.38-.93s-.28-.7-.35-.94q0-.06-.33-1L33,39.82c-.1-.43-.17-.76-.22-1l-.88-5h0Z"/><path class="cls-4" d="M24.49,49.62s0,0,0,0l-4.09.76-3.06.32-1.13,0a15,15,0,0,1-2.34-.16,4.77,4.77,0,0,1-.6-.09l-.29,0H12.9l-.22,0A10.23,10.23,0,0,1,11.53,50l-1.11-.45-.89-.51-.6-.42-.45-.37-.79-.81-.64-.82-.77-1.3-.46-1,0,0-.26-.7v-.06l0,0-.69-2.59v-.06l-.18-.93h0v.9L5,43.27l.29,1.12.42,1.16.77,1.5.28.43q.33.42.36.48a10.41,10.41,0,0,0,.85.92q.15.15.48.42l.51.39a8.83,8.83,0,0,0,1.12.66,8.73,8.73,0,0,0,1.2.5,8.69,8.69,0,0,0,1.25.35,5.36,5.36,0,0,0,.62.13l.4.06h0l.2,0a15.33,15.33,0,0,0,2.46.08l.6,0,1.41-.15.13,0,.4-.06.27,0,.13,0,.13,0,1.21-.26c.51-.12,1.07-.27,1.66-.45l2.34-.81s0,0,0,0"/><path class="cls-4" d="M111.65,51.89a18.44,18.44,0,0,0-2.11-.62l-1.06-.21c-.28-.05-.62-.1-1-.14l-1.91-.1-1.1,0-1,.11-.9.14-1.42.34,0,0-1,.3-.72.27-.25.11-.05,0-1.39.66-.87.49L95,54.52l-.11.09s0,0,0,0,0,0,0,0L96.05,54l0,0,0,0,1.32-.66,1.77-.73,0,0,2.16-.62.4-.09.85-.14.87-.11.91-.06h.94a17,17,0,0,1,1.95.15l1,.17c.33.06.66.14,1,.22l1,.29c.45.15.79.26,1,.35l1,.4,2.21,1.09,2.6,1.62a40.07,40.07,0,0,1,3.5,2.74q1.52,1.32,3.14,3c.86.88,1.77,1.87,2.75,3q1.26,1.44,2.34,2.79l1,1.27.91,1.16,2.66,3.56h0s0,0,0,0l-.28-.47c-.27-.46-.54-.89-.8-1.3l-1.12-1.71-2-2.82c-.74-1-1.49-2-2.24-2.9q-1.33-1.63-2.7-3.09-1.59-1.71-3.14-3.08a35.59,35.59,0,0,0-3.56-2.83l-1-.64-1-.6-2-1.06a21.37,21.37,0,0,0-2.07-.86"/><path class="cls-4" d="M143.18,67.51l-.6-.77h0s0,0,0,0l0,.07,1.16,2,.57.82,1.78,2.11,1.16,1.06.87.65,0,0,0,0,.25.16.06,0,.58.34.07,0,.26.15,1.41.61.91.27.07,0h0l.21,0a7.82,7.82,0,0,0,1.23.19l.66,0h.58a11.14,11.14,0,0,0,1.21-.1c.42-.06.81-.14,1.16-.22l.55-.15,2.06-.77,0,0,.73-.35,1.51-.91,1.41-1,.37-.3.08,0,0,0,.38-.32v0h0l-.24.15-.7.42-2.3,1.22-1.89.8-1.11.35-1,.24c-.35.07-.72.13-1.09.17l-.42,0a.64.64,0,0,0-.14,0l-.56,0a10.63,10.63,0,0,1-1.14,0,9.68,9.68,0,0,1-1.14-.19l-.17,0h0l-1.25-.39-.73-.3a9.77,9.77,0,0,1-1-.52l-.42-.25,0,0,0,0-.63-.42-1.48-1.2-.71-.67-1-1.11,0,0-1.5-1.81Z"/><path class="cls-4" d="M199.3,98.52s0,0,0,0l-.61,2.34c-.09.39-.17.79-.24,1.18s-.14.7-.22,1.19l-.17,1.2c0,.26-.08.66-.13,1.2s-.06.92-.07,1.21,0,.71,0,1.22,0,.86,0,1.22.08.88.13,1.22.13.83.21,1.2.16.73.29,1.19a11.36,11.36,0,0,0,.4,1.17,11.1,11.1,0,0,0,.51,1.14c.19.36.39.72.62,1.07s.46.67.73,1,.55.63.83.92.58.55.93.84.62.48,1,.73l.46.29,0,0,0,0,.4.23.06,0,.07,0c.32.18.69.36,1.11.55a12.17,12.17,0,0,0,1.14.45q.6.22,1.17.39c.45.12.85.23,1.2.3s.78.18,1.19.25.88.15,1.21.19c.81.1,1.62.18,2.44.22l1,0,3.83-.06c.46.09.91.2,1.37.3s1,.25,1.41.38.9.27,1.39.44.91.33,1.36.51.83.34,1.35.58.94.47,1.29.66.84.46,1.26.73l1.22.8,1.24.94,1.05.9c.28.25.63.59,1,1l.69.74,0,0,.27.31c.33.38.64.76.93,1.13s.57.76.87,1.19.6.89.82,1.24.44.74.75,1.27c0,0,0,0,0,0s0,0,0,0c-.18-.39-.4-.83-.66-1.33-.16-.29-.4-.72-.74-1.28-.22-.36-.5-.78-.82-1.25s-.59-.82-.89-1.2l-.23-.28,0,0,0,0-.06-.08-1.64-1.78L230,126.8l0,0,0,0-.07,0q-.57-.42-1.23-.87c-.5-.32-.92-.58-1.27-.78-.5-.29-.94-.52-1.33-.71s-.89-.43-1.36-.63-1-.4-1.39-.55-1-.34-1.42-.48-.94-.27-1.45-.4-.87-.22-1.45-.34h-.11l-3.72,0-1,0c-.78,0-1.57-.12-2.37-.23q-.78-.11-1.17-.18l-1.16-.23c-.36-.08-.74-.18-1.14-.29s-.73-.22-1.12-.36-.68-.25-1.1-.43c-.27-.12-.62-.28-1-.5s-.69-.39-1-.59l-.72-.51,0,0-.2-.15c-.31-.26-.6-.51-.87-.77s-.53-.55-.79-.85a11.23,11.23,0,0,1-.71-.93c-.19-.29-.39-.63-.59-1l-.07-.12-.37-.76v0l-.06-.13c-.15-.36-.28-.72-.41-1.1s-.21-.69-.31-1.13a11,11,0,0,1-.24-1.17c-.06-.34-.11-.73-.16-1.17l-.09-1.19c0-.74,0-1.53,0-2.38,0-.43,0-.82.08-1.2l.11-1.19c.07-.62.18-1.4.33-2.37l.45-2.37s0,0,0,0"/></svg>