<svg id="圖層_1" data-name="圖層 1" xmlns="http://www.w3.org/2000/svg" viewBox="0 0 340.16 405.35"><defs><style>.cls-1{fill:#89cfda;}.cls-2{fill:#7565ab;}.cls-3{fill:#f29666;}.cls-4{fill:#57ba8d;}.cls-5{fill:#5869b0;}.cls-6{fill:#b274ae;}.cls-7{fill:#996ead;}.cls-8{fill:#678ac7;}.cls-9{fill:#72c8d5;}.cls-10{fill:#fff;}.cls-11{fill:#f8c9c9;}</style></defs><title>首頁圖層用</title><path class="cls-1" d="M296.73,281.43v-.09l-.51-3.87-1.59,2.7Zm-6.25-14.36a26.69,26.69,0,0,0-6.73.71,32.75,32.75,0,0,0-6.32,2.24,29.68,29.68,0,0,0-6.09,3.85,38.42,38.42,0,0,0-5.23,5.13,44.05,44.05,0,0,0-3.92,5.41,49.09,49.09,0,0,0-3.1,6,21.62,21.62,0,0,0,9.55,9.63c.23-.74.45-1.49.69-2.23a32.22,32.22,0,0,1,2.45-5.81,31.23,31.23,0,0,1,4.17-5.91,24.38,24.38,0,0,1,5.1-4.34,14.76,14.76,0,0,1,6.5-2.29,16.47,16.47,0,0,1,7.07.73l1.59-2.7.9-1.7a25.07,25.07,0,0,0,2.39-6.65c-.64-.27-1.3-.52-2-.76a24.79,24.79,0,0,0-7-1.29M29.85,95.73h0l0-.07,0,.07m2-8-2.53-.44A39.1,39.1,0,0,0,29.62,94l.21,1.65,0,.07c.07-.42.14-.83.22-1.24a38.88,38.88,0,0,1,1.82-6.79M68.93,13c-.44-.17-.89-.33-1.34-.46a28.31,28.31,0,0,0-14.1-1.15,25.77,25.77,0,0,0-6.2,1.86,30.2,30.2,0,0,0-5.75,3.33c-.16.18-.33.35-.49.54a21.07,21.07,0,0,1-5.61,4.27,29.55,29.55,0,0,1-6.59,2.51q-3.44.88-6.93,1.48a18.48,18.48,0,0,0-6.5,2.51,18.91,18.91,0,0,0-5.18,4.74,53.19,53.19,0,0,0-3.76,5.72q-1.67,2.92-3.16,6T.5,50.55L.29,53.34v0l0,2.76L4.05,69.34l.06.1c.48-2.07,1-4.14,1.67-6.19.69-2.24,1.46-4.44,2.33-6.63s1.89-4.52,3-6.73a70,70,0,0,1,3.48-6.36,14.46,14.46,0,0,1,5.15-5,16.12,16.12,0,0,1,6.13-2.05q3.43-.4,6.9-.5a10.31,10.31,0,0,0,6.61-2.63q2.55-2.24,5.32-4.24a44.39,44.39,0,0,1,5.78-3.56q2.25-1.17,4.6-2.13a27.27,27.27,0,0,1,3.86-2.74,18.78,18.78,0,0,1,6.82-2.36,22.31,22.31,0,0,1,6.92.12l-.39-.72A25.27,25.27,0,0,0,68.93,13M95,92.45a22,22,0,0,1-4.49-2.19,20,20,0,0,1-5.29-4.85l-.64.42-1.14.56a30.24,30.24,0,0,0-6,4,26.74,26.74,0,0,0-4.71,5.25A29.36,29.36,0,0,0,69.48,102a51,51,0,0,1,6.66,1.55,46.9,46.9,0,0,1,5.12,1.89A41.29,41.29,0,0,1,84,101.75a44.6,44.6,0,0,1,4.84-4.88L95,92.45M81.47,61l.07-.22a29,29,0,0,0-5.38-3.43,26,26,0,0,0-6.43-2.19,28.54,28.54,0,0,0-6.9-.66,37.58,37.58,0,0,0-6.85.81,33.63,33.63,0,0,0-6.51,2,42.78,42.78,0,0,0-6.09,3.15A56,56,0,0,0,38,64.3,59.55,59.55,0,0,0,33,68.72a45.69,45.69,0,0,0-4.34,5.07,40,40,0,0,0-3.42,5.61,42.48,42.48,0,0,0-2.5,6.14l6.59,1.72,2.53.44,1.82-3.28a29.86,29.86,0,0,1,7.95-9.16,31.23,31.23,0,0,1,5.75-3.48,34.61,34.61,0,0,1,6.31-2.25,35,35,0,0,1,6.59-1,34.32,34.32,0,0,1,6.87.3,27.58,27.58,0,0,1,7,2,29.81,29.81,0,0,1,6.32,3.76l0-.06,0-.16v-.11A35.66,35.66,0,0,1,80.26,68a32.13,32.13,0,0,1,1.21-7m33.14,25.55a29.18,29.18,0,0,1-2.08,2.22,17,17,0,0,1-6,3.71,16.23,16.23,0,0,1-6.91,1l-1.53,10.69c0,.54-.1,1.08-.16,1.62a57,57,0,0,0-.26,6.26,37.93,37.93,0,0,0,.73,6.8,39.45,39.45,0,0,0,2,6.6l-.19-3.13.19,3.13.18,2.88a17,17,0,0,0,2.63,6.78,13.19,13.19,0,0,0,4.73,4.36,18.9,18.9,0,0,0,6.8,2.26,15.82,15.82,0,0,0,7.1-.64A16.49,16.49,0,0,0,125,139.6c-1.13-1-2.25-2.06-3.35-3.13a39.44,39.44,0,0,1-4.46-5.22,37.51,37.51,0,0,1-3.48-5.89,39.75,39.75,0,0,1-2.42-6.4,36.81,36.81,0,0,1-1.22-6.51,37.87,37.87,0,0,1,0-6.65,56.87,56.87,0,0,1,1-6.59c.43-2.15,1-4.28,1.56-6.39s1.29-4.2,2-6.27m30.16-19.67-.16.05q-1.71,2.59-3.2,5.33a62,62,0,0,0-3.07,6.55,42.81,42.81,0,0,0-2,6.19,29.25,29.25,0,0,0-.81,7.1,32.72,32.72,0,0,0,.85,7.19,15.31,15.31,0,0,1,6.84-2.43,14.89,14.89,0,0,1,3.53,0c-.11-.37-.22-.75-.32-1.13a22.7,22.7,0,0,1,.76-14.43,33.57,33.57,0,0,1,3.24-6.2,37.13,37.13,0,0,1,4.28-5.26A39,39,0,0,1,160,65.39l-5.42-.2-9.79,1.69M260.68,228.6a45,45,0,0,0-4.42,5,48.63,48.63,0,0,0-3.76,5.54,22.21,22.21,0,0,1,4,6.14,23.44,23.44,0,0,1,1.75,6.36q1-1.84,2-3.72a48.93,48.93,0,0,1,3.37-5.49,22.1,22.1,0,0,1,4.95-5.08,23,23,0,0,1,5.71-3.12,32.25,32.25,0,0,1-3.19-4.91,33.32,33.32,0,0,1-2.56-6.14,16.62,16.62,0,0,0-2.31,1.16,30.54,30.54,0,0,0-5.56,4.31m-21.06-37.06h0M223,208.64a33.07,33.07,0,0,0-2.85,6,30.91,30.91,0,0,0-1.53,6.45,38.23,38.23,0,0,0,.78,13.94,40.15,40.15,0,0,0,2,6.23l11.15-5.58c0-.26-.06-.53-.08-.79a46.14,46.14,0,0,1-.1-7.15,55.79,55.79,0,0,1,.91-7q.66-3.39,1.59-6.74c.61-2.23,1.3-4.42,2.07-6.59A40,40,0,0,1,239.9,201a28.24,28.24,0,0,1,4.06-5.41,29.42,29.42,0,0,1,5.24-4.34l-2.4-.18a34.26,34.26,0,0,0-7.15.47h0l-.65.4a34.76,34.76,0,0,1-4.58,5.11,36.15,36.15,0,0,1-5.5,4.14l-.78.48-.87,1a50.09,50.09,0,0,0-4.26,5.92m-39.52-11.87h-1.94a31.47,31.47,0,0,1-2.44,6.13,40.26,40.26,0,0,1-3.92,6.07c-.36.45-.72.91-1.07,1.37a28.51,28.51,0,0,1,3.28-.8q3.42-.61,6.87-1.09,3.22-.47,6.46-1.07a59.21,59.21,0,0,1,6.06-.83,42.36,42.36,0,0,1,6.57-.08,46.53,46.53,0,0,1,6.44,1l5.86-.38a27.56,27.56,0,0,0-11.78-7.59,42.37,42.37,0,0,0-6.5-1.54q-3.49-.6-7-.89t-6.85-.25M169.72,146.9a27.8,27.8,0,0,0-6.76-2.11,34.22,34.22,0,0,0-6.71-.55A35.25,35.25,0,0,0,143,147.16a31.82,31.82,0,0,0-5.89,3.3,35,35,0,0,0-5.2,4.45,24,24,0,0,0-1.37,7.15,21.63,21.63,0,0,0,.87,7.06,19.61,19.61,0,0,0,1,2.66,49.79,49.79,0,0,1,4.72-5.62,41,41,0,0,1,5.57-4.79,28.25,28.25,0,0,1,5.79-3.22,24.29,24.29,0,0,1,6.59-1.68,27.78,27.78,0,0,1,5.16-.06l.79-.29a52.21,52.21,0,0,0,6.68-2.93,48.1,48.1,0,0,0,6.27-3.88,27.08,27.08,0,0,0-4.21-2.41m42.52,10.91c-1.73,1.53-3.5,3-5.31,4.42s-3.89,3-5.91,4.37q-2.6,1.83-5.28,3.54a41.74,41.74,0,0,1-6.46,3.37,54.14,54.14,0,0,1-6.79,2.28,55.24,55.24,0,0,1-6.62,1.28,53.43,53.43,0,0,1-6.8.45,19.09,19.09,0,0,1,6.39,3.15,17.54,17.54,0,0,1,4.65,5.2,21.38,21.38,0,0,1,1.33,2.56,32.6,32.6,0,0,0,5.08-.83,34.7,34.7,0,0,0,5.9-2,50.42,50.42,0,0,0,6.41-3.42l5.59-3.55q2.81-1.78,5.57-3.65t5.27-3.81q2.55-2,5-4.09c1.6-1.43,3.14-2.91,4.61-4.47A13.13,13.13,0,0,1,220.9,165a8.15,8.15,0,0,1-5.77.2,6.76,6.76,0,0,1-2.24-1.28,19,19,0,0,1,.5-3.54,21.81,21.81,0,0,1,2.68-6.42,47.61,47.61,0,0,1-3.83,3.82m-51.49-50.3h0l3.94,8.73a22,22,0,0,1,3.38-2.86,20,20,0,0,1,6.29-2.84,19.72,19.72,0,0,1,6.93-.49,11.74,11.74,0,0,1,6.37,2.67,14.45,14.45,0,0,1,4.17,5.52,21.22,21.22,0,0,0,.19-2.88,29.41,29.41,0,0,0-.89-7.11,30.28,30.28,0,0,0-2.62-6.79,17.44,17.44,0,0,0-6.1-3.28,13.27,13.27,0,0,0-6.88-.16,22,22,0,0,0-6.16,2.51,38.74,38.74,0,0,0-5.52,4,39.66,39.66,0,0,0-3.1,3m156.9,235c-.87.36-1.74.72-2.59,1.09a28.23,28.23,0,0,0-6.06,3.53l5.75,11.31c.45-.42.91-.84,1.38-1.25a16.1,16.1,0,0,1,2.66-1.95,19.42,19.42,0,0,1,3-1.43l-4.12-11.3m-15.09-40.63c-1.6.66-3.16,1.4-4.7,2.2a32.91,32.91,0,0,0-6.06,4.16,37.69,37.69,0,0,0-4.66,4.79,52,52,0,0,1,4.37,5.63c1.05,1.59,2,3.21,2.91,4.88l1.49-2.08a22.57,22.57,0,0,1,5-5,23.94,23.94,0,0,1,6.27-3.34Z"/><path class="cls-2" d="M29.85,95.73h0l0,0ZM.3,56.13A33.66,33.66,0,0,0,1.61,63.3a33,33,0,0,0,2.45,6L.3,56.13M87.19,41.08A24.33,24.33,0,0,0,86.35,34a26,26,0,0,0-2.78-6.62,20.81,20.81,0,0,0-4.48-5.28,20,20,0,0,0-5.63-3.36l-.83-.29a22,22,0,0,0-6.92-.13,18.78,18.78,0,0,0-6.82,2.36A25.82,25.82,0,0,0,55,23.42q-2.36.95-4.6,2.12a43.33,43.33,0,0,0-5.78,3.56q-2.77,2-5.32,4.24A10.25,10.25,0,0,1,32.72,36q-3.46.1-6.9.51a16.12,16.12,0,0,0-6.13,2.05,14.46,14.46,0,0,0-5.15,5,67.51,67.51,0,0,0-3.47,6.36C10,52.1,9,54.35,8.11,56.62S6.47,61,5.78,63.25c-.64,2-1.19,4.12-1.67,6.19A40.15,40.15,0,0,0,7.85,75a35.23,35.23,0,0,0,4.62,4.68,34.86,34.86,0,0,0,6,4.08,25.49,25.49,0,0,0,4.3,1.83,42.48,42.48,0,0,1,2.5-6.14,39.15,39.15,0,0,1,3.43-5.61A44.56,44.56,0,0,1,33,68.72,61.06,61.06,0,0,1,38,64.3a55.67,55.67,0,0,1,5.41-3.82,42.78,42.78,0,0,1,6.09-3.15,33.63,33.63,0,0,1,6.51-2,37.47,37.47,0,0,1,6.85-.81,28.59,28.59,0,0,1,6.9.66,26,26,0,0,1,6.43,2.19,29.38,29.38,0,0,1,5.38,3.43l.07-.25a43.2,43.2,0,0,0,2.94-6.19,44.56,44.56,0,0,0,1.88-6.49,38.46,38.46,0,0,0,.76-6.77m64.65,24.44a54.78,54.78,0,0,0-7.07,1.36l9.79-1.69-2.72.33m87.78,126h0m-.4.09L239,192l.65-.4h0l-.37.09m-61.85,17.89a28.51,28.51,0,0,0-3.28.8,19.5,19.5,0,0,0-2.83,6.73,16.08,16.08,0,0,0,0,6.59,25.19,25.19,0,0,0,2.46,6.8,37.68,37.68,0,0,0,9,11.14,25.1,25.1,0,0,0,5.93,3.7,21.58,21.58,0,0,0,6.93,1.81,31.38,31.38,0,0,0,7.25-.19c2.24-.34,4.44-.76,6.63-1.29a63.28,63.28,0,0,0,6.42-2,58.31,58.31,0,0,0,5.59-2.39,40.15,40.15,0,0,1-2-6.23,38.23,38.23,0,0,1-.78-13.94,30.29,30.29,0,0,1,1.53-6.45,33.07,33.07,0,0,1,2.85-6,50.09,50.09,0,0,1,4.26-5.92l.87-1a33.66,33.66,0,0,1-6.33,3.5,33,33,0,0,1-6.15,1.86l-5.86.38a46.53,46.53,0,0,0-6.44-1,42.36,42.36,0,0,0-6.57.08,59.21,59.21,0,0,0-6.06.83c-2.15.4-4.31.76-6.46,1.07q-3.45.48-6.87,1.09m-3-99a19.82,19.82,0,0,0-6.28,2.84,21.57,21.57,0,0,0-3.39,2.86,20,20,0,0,1,1.3,7,18.81,18.81,0,0,1-.86,5.77,48.85,48.85,0,0,0-9.75,2.59,46.48,46.48,0,0,0-8.18,4,45,45,0,0,0-4,2.76,31.17,31.17,0,0,0-3.67,3.3,29.21,29.21,0,0,0-3.15,4,38.1,38.1,0,0,0-4.07,8.09c-.15.39-.29.79-.44,1.2a35.63,35.63,0,0,1,5.2-4.45,31.82,31.82,0,0,1,5.89-3.3,35.24,35.24,0,0,1,13.29-2.92,34.24,34.24,0,0,1,6.7.55,27.8,27.8,0,0,1,6.76,2.11,27.08,27.08,0,0,1,4.21,2.41,30.92,30.92,0,0,0,3.26-2.35,29.72,29.72,0,0,0,5-5.42l2.46-3.76a41.35,41.35,0,0,0,3.54-6.42,50.42,50.42,0,0,0,2.32-6.4,46.09,46.09,0,0,0,1.35-6.71,14.35,14.35,0,0,0-4.17-5.52,11.83,11.83,0,0,0-6.37-2.68,20,20,0,0,0-6.93.5m-13.61-3h0l-.05-.05.06.06M333.12,384.6v-.06l-11.34-30.78a19.42,19.42,0,0,0-3,1.43,16.1,16.1,0,0,0-2.66,1.95c-.47.41-.93.83-1.38,1.25l14.33,28.1,1.67,3.46.11.19c.58,1.11,1.15,2.25,1.69,3.42s1.08,2.28,1.6,3.34l1.51,3.05a27,27,0,0,1,1.26,3,4,4,0,0,0,1.33,2,.69.69,0,0,0,.36.13,1.23,1.23,0,0,0,1.21-.91,1,1,0,0,0,.05-.51,13.43,13.43,0,0,0-1-3.68c-.48-1.15-.95-2.31-1.4-3.49s-.88-2.36-1.31-3.55c-.24-.67-.47-1.33-.7-2l-.06-.12Z"/><path class="cls-3" d="M27.91,15.91a30.77,30.77,0,0,0-5.79,3.18,59.07,59.07,0,0,0-5.65,4.48q-2.29,2.09-4.39,4.37a40,40,0,0,0-4.39,5,36.22,36.22,0,0,0-3.43,5.6,39.67,39.67,0,0,0-2.38,6,47.65,47.65,0,0,0-1.38,6q1.32-3.13,2.82-6.18t3.16-6a52.22,52.22,0,0,1,3.76-5.72,19.06,19.06,0,0,1,5.18-4.74,18.27,18.27,0,0,1,6.5-2.5c2.33-.41,4.64-.9,6.93-1.49a29.07,29.07,0,0,0,6.59-2.51,21.07,21.07,0,0,0,5.61-4.27c.16-.19.32-.37.49-.54a16.68,16.68,0,0,0-6.83-1.78,15.19,15.19,0,0,0-6.8,1.08M267,210.4a32.68,32.68,0,0,0-2.22-6.07,27.29,27.29,0,0,0-3.74-5.85,20.67,20.67,0,0,0-5.47-4.64,23.71,23.71,0,0,0-6.32-2.59,29.42,29.42,0,0,0-5.24,4.34A28.24,28.24,0,0,0,239.9,201a40,40,0,0,0-2.94,6.38q-1.16,3.26-2.08,6.59t-1.58,6.74a54.24,54.24,0,0,0-.91,7,46.12,46.12,0,0,0,.1,7.15c0,.26,0,.53.08.8a19.4,19.4,0,0,1,6.78-1.62,15.91,15.91,0,0,1,7,1.11,19,19,0,0,1,6.13,3.91,49.09,49.09,0,0,1,3.75-5.55,46.19,46.19,0,0,1,4.43-5,30.54,30.54,0,0,1,5.56-4.31,16.62,16.62,0,0,1,2.31-1.16,29.27,29.27,0,0,1-.67-5.83,27.83,27.83,0,0,0-.93-6.9M42.07.48A37,37,0,0,0,35.41.39a36.57,36.57,0,0,0-6.74,1.17A25.75,25.75,0,0,0,16.52,9a23,23,0,0,0-3.69,5.29,16.23,16.23,0,0,0-1.76,6.86,19.51,19.51,0,0,0,1,6.78q2.1-2.28,4.39-4.37a59.07,59.07,0,0,1,5.65-4.48,30.77,30.77,0,0,1,5.79-3.18,15.19,15.19,0,0,1,6.8-1.08,16.68,16.68,0,0,1,6.83,1.78,30.2,30.2,0,0,1,5.75-3.33,25.77,25.77,0,0,1,6.2-1.86,28.31,28.31,0,0,1,14.1,1.15c.45.14.9.29,1.34.46a24.17,24.17,0,0,0-2.12-2,38.09,38.09,0,0,0-5.72-4,56.1,56.1,0,0,0-6-3,55.08,55.08,0,0,0-6.37-2.2A36.46,36.46,0,0,0,42.07.48"/><path class="cls-4" d="M112.56,92.82c-.6,2.11-1.13,4.24-1.57,6.39a59.05,59.05,0,0,0-.94,6.59,36,36,0,0,0,0,6.65,36.81,36.81,0,0,0,1.22,6.51,39.75,39.75,0,0,0,2.42,6.4,37.51,37.51,0,0,0,3.48,5.89,40.2,40.2,0,0,0,4.46,5.22c1.1,1.07,2.22,2.12,3.35,3.13a21,21,0,0,0,5.65-4.69,19.81,19.81,0,0,0,3.55-6.2,29.93,29.93,0,0,0,1.59-6.74,38.41,38.41,0,0,0,.15-6.78,31.06,31.06,0,0,0-1.21-6.75,10.39,10.39,0,0,1,.35-7,8,8,0,0,1,1.35-2.19,32.72,32.72,0,0,1-.85-7.19,29.36,29.36,0,0,1,.81-7.1,42.81,42.81,0,0,1,2-6.19,62,62,0,0,1,3.07-6.55q1.49-2.73,3.2-5.34c-1.24.51-2.49,1-3.73,1.55-1.95.81-3.86,1.7-5.75,2.66s-3.71,2-5.52,3.1a64.28,64.28,0,0,0-5.36,3.6c-1.73,1.3-3.4,2.67-5,4.14s-3.15,3-4.63,4.58q-1.14,3.11-2,6.27M216.07,154a44.5,44.5,0,0,0,2.82-5.71,11.23,11.23,0,0,0,.58-7,14.21,14.21,0,0,0-3.4-6.47,17.84,17.84,0,0,0-5.79-4.24,17.19,17.19,0,0,0-6.93-1.56,24.13,24.13,0,0,0-7,1,22.69,22.69,0,0,0-6.6,3.11,24.86,24.86,0,0,0-5.14,4.68l-2.46,3.75a29.46,29.46,0,0,1-5,5.43,29.92,29.92,0,0,1-3.26,2.35,48.1,48.1,0,0,1-6.27,3.88,52.21,52.21,0,0,1-6.68,2.93l-.79.29a27.78,27.78,0,0,0-5.16.06,24.29,24.29,0,0,0-6.59,1.68,28.25,28.25,0,0,0-5.79,3.22,41,41,0,0,0-5.57,4.79,50.69,50.69,0,0,0-4.72,5.62,20.23,20.23,0,0,0,4.37,5.82,18,18,0,0,0,5.93,3.71,22.11,22.11,0,0,0,7.15,1.45,16.31,16.31,0,0,0,7.13-1.39,19.09,19.09,0,0,0,5.68-3.83l.63-.6a19.43,19.43,0,0,0-11,2.3,19.43,19.43,0,0,1,11-2.3l5.82.58a53.43,53.43,0,0,0,6.8-.45,52.54,52.54,0,0,0,13.42-3.56,41.23,41.23,0,0,0,6.45-3.37q2.69-1.71,5.28-3.54,3-2.11,5.91-4.37c1.81-1.41,3.58-2.89,5.31-4.42a47.61,47.61,0,0,0,3.83-3.82m84.8,162.42a22.84,22.84,0,0,0-5,5l-1.49,2.08q1.17,1.88,2.36,3.74,1.77,2.81,3.58,5.61l3.1,4.76c1.2,1.85,2.35,3.72,3.45,5.63.71,1.25,1.41,2.54,2.09,3.85a28.06,28.06,0,0,1,6.06-3.53l2.59-1.09-10.51-29.38a24.21,24.21,0,0,0-6.27,3.33"/><path class="cls-5" d="M95,92.45l-6.16,4.42A43.74,43.74,0,0,0,84,101.75a39.46,39.46,0,0,0-2.77,3.69,36.11,36.11,0,0,1,5.92,3.6,30.84,30.84,0,0,1,5,4.61,37.63,37.63,0,0,1,4.11,5.64,55.28,55.28,0,0,1,3.14,6.13c.41.94.78,1.89,1.12,2.86l-.18-2.88a38.53,38.53,0,0,1-2-6.6,38,38,0,0,1-.73-6.8,59.56,59.56,0,0,1,.25-6.26c.07-.54.12-1.08.17-1.62l1.53-10.69Z"/><path class="cls-6" d="M80.9,76.14c-.14-.52-.28-1-.41-1.58a29.81,29.81,0,0,0-6.32-3.76,27.58,27.58,0,0,0-7-2,34.32,34.32,0,0,0-6.87-.3,35,35,0,0,0-6.59,1,35.34,35.34,0,0,0-6.31,2.24,32.19,32.19,0,0,0-5.75,3.49,29.86,29.86,0,0,0-7.95,9.16L31.89,87.7a38.88,38.88,0,0,0-1.82,6.79c-.08.41-.15.82-.22,1.24l0,0a15.09,15.09,0,0,0,4.67,5.6,13.29,13.29,0,0,0,6.54,2.54,29.41,29.41,0,0,0,7.14-.06q3.36-.43,6.68-1.08a44,44,0,0,1,6.76-.86,54,54,0,0,1,6.85,0l1,.07a29.36,29.36,0,0,1,3.31-6.39,26.4,26.4,0,0,1,4.71-5.24,29.85,29.85,0,0,1,6-4l1.14-.56.64-.42-1.77-2.54a32.69,32.69,0,0,1-2.58-6.73m193.4,158a23,23,0,0,0-5.71,3.12,22.1,22.1,0,0,0-4.95,5.08,49.85,49.85,0,0,0-3.37,5.49c-.64,1.25-1.31,2.49-2,3.71a26.1,26.1,0,0,1,.27,6.95c0,.33-.06.65-.09,1q-.74,3.15-1.53,6.34a35.94,35.94,0,0,0-1,6.54,39.8,39.8,0,0,0,.12,6.73,34.13,34.13,0,0,0,1.36,6.74,35.75,35.75,0,0,0,1.74,4.52,49.09,49.09,0,0,1,3.1-6,44.05,44.05,0,0,1,3.92-5.41,39.09,39.09,0,0,1,5.23-5.14,30.35,30.35,0,0,1,6.09-3.84,33,33,0,0,1,6.32-2.24,26.69,26.69,0,0,1,6.73-.71,24.79,24.79,0,0,1,7,1.29c.68.24,1.34.49,2,.76.09-.37.18-.73.28-1.1a27.61,27.61,0,0,0,.79-6.89,25.49,25.49,0,0,0-1.08-7.09,25.05,25.05,0,0,0-3.06-6.57A17.17,17.17,0,0,0,292,242.8a2,2,0,0,0-.49-.23c-1.81-.34-3.62-.68-5.42-1a18.83,18.83,0,0,1-6.68-2.75,21.09,21.09,0,0,1-5.06-4.64"/><path class="cls-7" d="M210,175q-2.76,1.86-5.57,3.65l-5.59,3.55a50.42,50.42,0,0,1-6.41,3.42,34.7,34.7,0,0,1-5.9,2,32.6,32.6,0,0,1-5.08.83,12.88,12.88,0,0,1,.36,7.15c-.1.39-.19.79-.28,1.18h1.94q3.43,0,6.85.25c2.36.2,4.71.49,7.05.89a42.93,42.93,0,0,1,6.5,1.54,27.27,27.27,0,0,1,6.38,3,27.67,27.67,0,0,1,5.39,4.55,33,33,0,0,0,6.15-1.86,33.66,33.66,0,0,0,6.33-3.5l.78-.48a36.15,36.15,0,0,0,5.5-4.14A34.76,34.76,0,0,0,239,192l.25-.31a23.43,23.43,0,0,0,2-2.25,24.48,24.48,0,0,0,3.48-6.31,16.33,16.33,0,0,0,1-6.78,13.69,13.69,0,0,0-2.25-6.68,20.19,20.19,0,0,0-5-5.26,13.28,13.28,0,0,0-6.44-2.55,15.62,15.62,0,0,0-7.21.81c-1.48,1.56-3,3-4.62,4.47s-3.25,2.78-5,4.09-3.48,2.6-5.27,3.81"/><path class="cls-8" d="M172.56,70.86a16.86,16.86,0,0,0-5.85-3.93A21.07,21.07,0,0,0,160,65.39a39,39,0,0,0-5.23,4.46,37.13,37.13,0,0,0-4.28,5.26,33.57,33.57,0,0,0-3.24,6.2,22.7,22.7,0,0,0-.76,14.43c.1.38.21.76.32,1.13a25.09,25.09,0,0,1,6.63,3.11,23.43,23.43,0,0,1,5.17,4.62,23.83,23.83,0,0,1,2.1,2.86l.06.05a39.66,39.66,0,0,1,3.1-3,38.74,38.74,0,0,1,5.52-4A22,22,0,0,1,175.53,98a13.27,13.27,0,0,1,6.88.16,17.44,17.44,0,0,1,6.1,3.28c-.31-.62-.63-1.24-1-1.84a3.25,3.25,0,0,0-.6-.74,14.06,14.06,0,0,0-2.35-1.67,25.27,25.27,0,0,1-5.65-4.45A22.43,22.43,0,0,1,176,89a15.86,15.86,0,0,0,1.57-5.25,13.65,13.65,0,0,0-1-7,19.6,19.6,0,0,0-4-5.87m130,231c-.24-.59-.47-1.18-.7-1.77-.75-1.95-1.45-3.92-2.08-5.91s-1.26-4.17-1.75-6.28-.94-4.27-1.3-6.44l-2.11-1.26-.21.33h0l.21-.33a16.47,16.47,0,0,0-7.07-.73,14.76,14.76,0,0,0-6.5,2.29,24.38,24.38,0,0,0-5.1,4.34,31.23,31.23,0,0,0-4.17,5.91,32.22,32.22,0,0,0-2.45,5.81c-.24.74-.46,1.49-.69,2.23a36.82,36.82,0,0,1,6.73,2.92,32.65,32.65,0,0,1,5.33,3.69,52.52,52.52,0,0,1,4.52,4.3l1.92,2.05a37.69,37.69,0,0,1,4.66-4.79,32.91,32.91,0,0,1,6.06-4.16c1.54-.8,3.1-1.54,4.7-2.2"/><path class="cls-9" d="M330.86,390.14l-.11-.19,6.17,13a27,27,0,0,0-1.26-3l-1.51-3.05c-.52-1.06-1-2.17-1.6-3.34s-1.11-2.31-1.69-3.42"/><path class="cls-10" d="M338.6,405.35h0a1.08,1.08,0,0,1-.5-.18h0a4.27,4.27,0,0,1-1.41-2.13,28.51,28.51,0,0,0-1.25-3c-.48-1-1-2-1.5-3.05s-1.06-2.18-1.61-3.34-1.11-2.31-1.69-3.41a1.62,1.62,0,0,0-.1-.18h0l-1.67-3.46-14.33-28.09-5.74-11.32c-.68-1.3-1.38-2.59-2.09-3.84-1.09-1.89-2.25-3.78-3.44-5.61h0l-3.1-4.75h0c-1.21-1.86-2.41-3.75-3.58-5.61h0c-.78-1.22-1.57-2.48-2.36-3.74h0c-.88-1.66-1.86-3.29-2.89-4.85a53.12,53.12,0,0,0-4.35-5.61l-1.92-2h0a50.57,50.57,0,0,0-4.5-4.28h0a33.14,33.14,0,0,0-5.28-3.66h0a36.45,36.45,0,0,0-6.67-2.89h-.06a21.85,21.85,0,0,1-5.32-3.82h0a22,22,0,0,1-4.33-5.93h0a36.82,36.82,0,0,1-1.75-4.55h0a34.81,34.81,0,0,1-1.38-6.79h0a39.36,39.36,0,0,1-.11-6.78h0a37.42,37.42,0,0,1,1-6.58h0c.53-2.11,1-4.24,1.53-6.32q0-.48.09-1h0a25.84,25.84,0,0,0-.27-6.86v0a23.31,23.31,0,0,0-1.73-6.28,21.78,21.78,0,0,0-3.95-6.05,19.05,19.05,0,0,0-6-3.84h0a15.78,15.78,0,0,0-6.9-1.1h0a19.51,19.51,0,0,0-6.68,1.6l-11.14,5.57h0a60.16,60.16,0,0,1-5.61,2.39h0a61.41,61.41,0,0,1-6.45,2h0c-2.19.53-4.42,1-6.65,1.29h0a31.42,31.42,0,0,1-7.32.19h0a21.61,21.61,0,0,1-7-1.83h0a25.56,25.56,0,0,1-6-3.74h0a37.32,37.32,0,0,1-5-5.17h0a37,37,0,0,1-4-6h0A25.66,25.66,0,0,1,171,223.7h0a16.26,16.26,0,0,1,0-6.7h0a19.78,19.78,0,0,1,2.87-6.81h0c.35-.47.7-.94,1.06-1.38a40.27,40.27,0,0,0,3.9-6h0a31.12,31.12,0,0,0,2.41-6.06c.09-.4.19-.79.28-1.18h0a12.65,12.65,0,0,0-.34-7,21.49,21.49,0,0,0-1.31-2.52h0a17.39,17.39,0,0,0-4.58-5.12h0A19,19,0,0,0,169,177.8l-5.66-.57-.54.51h0a19.42,19.42,0,0,1-5.76,3.88h0a16.51,16.51,0,0,1-7.24,1.4h0a21.94,21.94,0,0,1-7.25-1.47h0a18.38,18.38,0,0,1-6-3.75,21,21,0,0,1-4.43-5.9v0a20,20,0,0,1-1-2.69,22.47,22.47,0,0,1-.89-7.15h0a24.77,24.77,0,0,1,1.39-7.23h0c.14-.4.29-.8.44-1.2h0a38,38,0,0,1,4.1-8.15h0a29,29,0,0,1,3.17-4h0a31.53,31.53,0,0,1,3.69-3.32,45.65,45.65,0,0,1,4-2.78h0a47.07,47.07,0,0,1,8.23-4h0a50.47,50.47,0,0,1,9.63-2.57,18.76,18.76,0,0,0,.8-5.52,20.13,20.13,0,0,0-1.28-6.9l-3.92-8.67,0,0v0h0l0,0a26.32,26.32,0,0,0-2.08-2.83h0a23.37,23.37,0,0,0-5.11-4.56h0a25,25,0,0,0-6.53-3.07,14.66,14.66,0,0,0-3.44,0h0a15.07,15.07,0,0,0-6.69,2.36,8.2,8.2,0,0,0-1.28,2.09,10.12,10.12,0,0,0-.33,6.76h0a32.44,32.44,0,0,1,1.22,6.82h0a37.81,37.81,0,0,1-.16,6.81h0a30.45,30.45,0,0,1-1.6,6.8h0a20.19,20.19,0,0,1-3.6,6.29h0a21.3,21.3,0,0,1-5.72,4.75,16.22,16.22,0,0,1-3.23,1.46h0a16.34,16.34,0,0,1-7.22.66h0a19.45,19.45,0,0,1-6.9-2.29h0a13.69,13.69,0,0,1-4.83-4.46h0a17.22,17.22,0,0,1-2.66-6.86c-.34-.95-.71-1.9-1.11-2.82h0a54,54,0,0,0-3.13-6.1h0a37.54,37.54,0,0,0-4.07-5.6h0a31.24,31.24,0,0,0-5-4.57h0a35.51,35.51,0,0,0-5.87-3.57,48.34,48.34,0,0,0-5.08-1.88h0a53.68,53.68,0,0,0-6.61-1.54c-.33,0-.65,0-1-.06h0a55.09,55.09,0,0,0-6.8,0h0A46.4,46.4,0,0,0,55,103h0c-2.2.43-4.46.79-6.7,1.08h0a29.41,29.41,0,0,1-7.2.07,13.59,13.59,0,0,1-6.68-2.6,15.31,15.31,0,0,1-4.75-5.69h0v0s0,0,0,0v-.08h0l-.21-1.64h0a40.14,40.14,0,0,1-.27-6.57L22.7,85.81h0A25.93,25.93,0,0,1,18.34,84h0a35,35,0,0,1-6-4.12,36.47,36.47,0,0,1-4.66-4.72h0a41,41,0,0,1-3.77-5.54h0l0-.1a34.09,34.09,0,0,1-2.47-6.09h0A33.71,33.71,0,0,1,0,56.15v0l0-2.76s0-.06,0-.09l.21-2.76h0v0a48,48,0,0,1,1.38-6A39.29,39.29,0,0,1,4,38.41H4a36.71,36.71,0,0,1,3.45-5.64h0a40.86,40.86,0,0,1,4.3-4.91,19.6,19.6,0,0,1-1-6.71,16.45,16.45,0,0,1,1.79-7,23.56,23.56,0,0,1,3.73-5.35A26.41,26.41,0,0,1,22,4.12,26,26,0,0,1,28.6,1.29,36.18,36.18,0,0,1,35.38.11,37.7,37.7,0,0,1,42.1.2a37.18,37.18,0,0,1,6.68,1.29A53.09,53.09,0,0,1,61.22,6.7,37.42,37.42,0,0,1,67,10.77a22.26,22.26,0,0,1,2.16,2.07,26.4,26.4,0,0,1,3.35,4.74l.33.62.73.26a20.47,20.47,0,0,1,5.72,3.41,21.21,21.21,0,0,1,4.54,5.36,26.47,26.47,0,0,1,2.81,6.68,25.3,25.3,0,0,1,.85,7.18,40.13,40.13,0,0,1-.77,6.82,43.45,43.45,0,0,1-1.9,6.52,42.26,42.26,0,0,1-2.93,6.2l-.14.45A32.08,32.08,0,0,0,80.54,68a35,35,0,0,0,.17,6.23v0a.22.22,0,0,1,0,.16v0l0,.06v0c.13.52.26,1.05.41,1.57a31.33,31.33,0,0,0,2.55,6.67l1.75,2.52A19.93,19.93,0,0,0,90.69,90a21.46,21.46,0,0,0,4.41,2.16l4.58,1a16.13,16.13,0,0,0,6.78-1,16.67,16.67,0,0,0,5.87-3.65,26.67,26.67,0,0,0,2.06-2.19c1.49-1.6,3.06-3.15,4.66-4.61s3.3-2.86,5-4.15,3.54-2.51,5.38-3.62,3.67-2.14,5.54-3.11,3.83-1.86,5.77-2.67l3.74-1.55h0l.15,0a53.71,53.71,0,0,1,7.11-1.36l2.72-.34h0l5.41.2a21.36,21.36,0,0,1,6.83,1.56,17.23,17.23,0,0,1,5.94,4,20,20,0,0,1,4,6,13.85,13.85,0,0,1,1.06,7.13A15.86,15.86,0,0,1,176.32,89a23.51,23.51,0,0,0,2.82,3.61A24.68,24.68,0,0,0,184.73,97a14.6,14.6,0,0,1,2.39,1.71,2.94,2.94,0,0,1,.65.81c.35.6.68,1.23,1,1.86a30.55,30.55,0,0,1,2.64,6.84,29.48,29.48,0,0,1,.89,7.18,23.6,23.6,0,0,1-.18,2.92,46.81,46.81,0,0,1-1.37,6.74,50.47,50.47,0,0,1-2.33,6.44,40.73,40.73,0,0,1-2,4,24.49,24.49,0,0,1,3.22-2.61,23.12,23.12,0,0,1,6.68-3.15,24.68,24.68,0,0,1,7.07-1,17.36,17.36,0,0,1,7,1.59,18.23,18.23,0,0,1,5.88,4.3,14.55,14.55,0,0,1,3.47,6.59,11.54,11.54,0,0,1-.6,7.15,44.42,44.42,0,0,1-2.83,5.75,21.44,21.44,0,0,0-2.65,6.35,18.56,18.56,0,0,0-.49,3.34,6.48,6.48,0,0,0,2.05,1.15,7.93,7.93,0,0,0,5.57-.2,13,13,0,0,0,3.84-2.36l.1,0a15.9,15.9,0,0,1,7.34-.83,13.57,13.57,0,0,1,6.57,2.6,20.57,20.57,0,0,1,5,5.33,14.08,14.08,0,0,1,2.29,6.82,16.5,16.5,0,0,1-1,6.89,25.08,25.08,0,0,1-3.52,6.39,21.24,21.24,0,0,1-1.38,1.63,34.85,34.85,0,0,1,6.77-.4l2.41.18h0a24,24,0,0,1,6.4,2.62,21,21,0,0,1,5.54,4.7,28.07,28.07,0,0,1,3.78,5.92,33.59,33.59,0,0,1,2.24,6.11,28.81,28.81,0,0,1,.94,7,28,28,0,0,0,.66,5.77,31.63,31.63,0,0,0,2.53,6.07,32.35,32.35,0,0,0,3.17,4.88,20.73,20.73,0,0,0,5,4.58,18.44,18.44,0,0,0,6.58,2.7c1.8.33,3.62.66,5.42,1h0a2.12,2.12,0,0,1,.57.27,17.47,17.47,0,0,1,4.56,4.75,25.11,25.11,0,0,1,3.09,6.64,25.64,25.64,0,0,1,1.09,7.17,27.75,27.75,0,0,1-.8,7l-.27,1.1a25.32,25.32,0,0,1-2.42,6.71l-.85,1.62.49,3.78s0,0,0,.05a0,0,0,0,1,0,0c.36,2.16.79,4.31,1.3,6.43s1.07,4.19,1.74,6.25,1.33,4,2.07,5.9c.24.59.47,1.18.7,1.77L307.39,313l10.51,29.38,4.13,11.3,11.33,30.78s0,0,0,.05h0l2.31,6.22a.09.09,0,0,1,0,0,.22.22,0,0,1,.05.08c.22.66.46,1.33.7,2,.42,1.19.86,2.38,1.31,3.55s.91,2.34,1.39,3.48h0a14,14,0,0,1,1,3.75h0a1.59,1.59,0,0,1-1.53,1.74h0m-.19-.63a.48.48,0,0,0,.2.07,1,1,0,0,0,.94-.73.81.81,0,0,0,0-.38h0a13.6,13.6,0,0,0-.95-3.59h0c-.48-1.15-.95-2.32-1.39-3.5h0c-.44-1.18-.88-2.37-1.31-3.56-.24-.66-.47-1.33-.7-2,0,0,0,0,0,0a.16.16,0,0,1,0-.07l-2.32-6.23a.43.43,0,0,1,0-.05h0L321.5,353.85l-4.12-11.3-10.51-29.37-4.58-11.24c-.23-.6-.46-1.19-.7-1.78-.75-2-1.45-3.94-2.09-5.93s-1.26-4.19-1.75-6.3-.94-4.29-1.3-6.45v-.06a.06.06,0,0,1,0,0l-.4-3.07-1.38,2.31a.31.31,0,0,1-.19.16.3.3,0,0,1-.29-.11.27.27,0,0,1,0-.31l0,0,.19-.31,1.59-2.69.9-1.69a24.76,24.76,0,0,0,2.36-6.58c.1-.38.19-.74.28-1.11a27,27,0,0,0,.78-6.81,24.94,24.94,0,0,0-1.07-7,24.5,24.5,0,0,0-3-6.5,16.9,16.9,0,0,0-4.41-4.59,1.38,1.38,0,0,0-.39-.18c-1.79-.35-3.61-.68-5.4-1a19.18,19.18,0,0,1-6.79-2.79,21.21,21.21,0,0,1-5.12-4.7,34.21,34.21,0,0,1-5.8-11.14v0a28.45,28.45,0,0,1-.68-5.89,28.73,28.73,0,0,0-.92-6.83,33.23,33.23,0,0,0-2.2-6,27.36,27.36,0,0,0-3.71-5.8,20.48,20.48,0,0,0-5.4-4.58,23.63,23.63,0,0,0-6.22-2.55l-2.37-.18a34.27,34.27,0,0,0-7.07.46h-.09l-.25.07-.18.23a35.27,35.27,0,0,1-4.62,5.15h0a36.53,36.53,0,0,1-5.53,4.16h0l-.78.48a34.78,34.78,0,0,1-6.38,3.53,33.32,33.32,0,0,1-6.2,1.87h0l-5.85.38a.28.28,0,0,1-.3-.27.28.28,0,0,1,.26-.29l5.84-.38a32.29,32.29,0,0,0,6.08-1.84,33.6,33.6,0,0,0,6.27-3.47h0l.78-.48h0a34.45,34.45,0,0,0,5.45-4.11h0a33.11,33.11,0,0,0,4.54-5.07h0l.25-.31h0l0,0a20.41,20.41,0,0,0,1.95-2.21,24.74,24.74,0,0,0,3.45-6.24,15.91,15.91,0,0,0,1-6.66,13.43,13.43,0,0,0-2.2-6.55,20,20,0,0,0-4.89-5.19,13,13,0,0,0-6.31-2.49,15.26,15.26,0,0,0-7,.78,13.74,13.74,0,0,1-4,2.42,8.5,8.5,0,0,1-6,.21,7.27,7.27,0,0,1-2.34-1.34.28.28,0,0,1-.09-.23,18.61,18.61,0,0,1,.51-3.58,22.13,22.13,0,0,1,2.71-6.51,45.91,45.91,0,0,0,2.8-5.67,11.06,11.06,0,0,0,.57-6.81,14.08,14.08,0,0,0-3.34-6.35,17.94,17.94,0,0,0-5.7-4.17,16.8,16.8,0,0,0-6.81-1.53,23.65,23.65,0,0,0-6.92.95,22.52,22.52,0,0,0-6.52,3.07,24.69,24.69,0,0,0-5.06,4.62l-2.45,3.74a30.87,30.87,0,0,1-5,5.48,29,29,0,0,1-3.28,2.37,49.57,49.57,0,0,1-6.29,3.9,52.79,52.79,0,0,1-6.72,2.94l-.78.29a.27.27,0,0,1-.36-.16.28.28,0,0,1,.16-.36l.79-.3a51.7,51.7,0,0,0,6.65-2.91,48.19,48.19,0,0,0,6.23-3.86h0a27.27,27.27,0,0,0,3.23-2.33,29.24,29.24,0,0,0,4.93-5.37l2.46-3.74h0a42.59,42.59,0,0,0,3.51-6.38,49.9,49.9,0,0,0,2.3-6.37,44,44,0,0,0,1.35-6.67,20.63,20.63,0,0,0,.19-2.84,29.84,29.84,0,0,0-.88-7,30.24,30.24,0,0,0-2.6-6.73c-.31-.63-.63-1.24-1-1.84a3.06,3.06,0,0,0-.54-.67,14,14,0,0,0-2.3-1.63,25.09,25.09,0,0,1-5.71-4.5,22.55,22.55,0,0,1-3-3.83.26.26,0,0,1,0-.27,15.6,15.6,0,0,0,1.54-5.17,13.42,13.42,0,0,0-1-6.85,19.3,19.3,0,0,0-3.92-5.79,16.74,16.74,0,0,0-5.75-3.86A20.84,20.84,0,0,0,160,65.67l-5.39-.21-2.7.34a54.16,54.16,0,0,0-7,1.35l-.14,0c-1.23.5-2.48,1-3.71,1.54-1.94.8-3.86,1.69-5.73,2.65s-3.71,2-5.51,3.09-3.62,2.31-5.34,3.59-3.39,2.66-5,4.11-3.14,3-4.61,4.57A29.2,29.2,0,0,1,112.72,89a17.32,17.32,0,0,1-6.07,3.77,16.65,16.65,0,0,1-7,1h0l-4.61-1h0a21.79,21.79,0,0,1-4.55-2.22A20.41,20.41,0,0,1,85,85.58L83.25,83l0,0a32.69,32.69,0,0,1-2.6-6.79c-.15-.52-.28-1-.41-1.57l0-.06a.33.33,0,0,1,0-.14h0a.27.27,0,0,1,0-.12.43.43,0,0,1,0,0A36.21,36.21,0,0,1,80,67.93a33.3,33.3,0,0,1,1.21-7l.15-.48,0-.06a43.15,43.15,0,0,0,2.91-6.15,42.36,42.36,0,0,0,1.87-6.44,38.74,38.74,0,0,0,.76-6.72,24.87,24.87,0,0,0-.83-7,26.09,26.09,0,0,0-2.75-6.54,20.68,20.68,0,0,0-4.42-5.22A19.78,19.78,0,0,0,73.36,19l-.8-.29a22.23,22.23,0,0,0-6.81-.12A18.68,18.68,0,0,0,59,20.91a26.7,26.7,0,0,0-3.82,2.71.28.28,0,1,1-.36-.42,26,26,0,0,1,3.9-2.77A19.15,19.15,0,0,1,65.67,18a22.42,22.42,0,0,1,6.44,0L72,17.84a25,25,0,0,0-3.27-4.62,22.45,22.45,0,0,0-2.1-2,37.4,37.4,0,0,0-5.67-4,53.08,53.08,0,0,0-6-3A53.82,53.82,0,0,0,48.62,2,38,38,0,0,0,35.43.67a35,35,0,0,0-6.68,1.16,26.11,26.11,0,0,0-6.42,2.76A26.42,26.42,0,0,0,16.72,9.2a22.8,22.8,0,0,0-3.64,5.23,15.92,15.92,0,0,0-1.73,6.74,19.34,19.34,0,0,0,.85,6.23c1.3-1.4,2.67-2.75,4.08-4A59.66,59.66,0,0,1,22,18.86a30.82,30.82,0,0,1,5.85-3.22,15.58,15.58,0,0,1,6.92-1.09,17.14,17.14,0,0,1,6.94,1.81.27.27,0,0,1,.12.37.28.28,0,0,1-.38.13,16.34,16.34,0,0,0-6.71-1.75A15.05,15.05,0,0,0,28,16.16a30.49,30.49,0,0,0-5.74,3.15,60.19,60.19,0,0,0-5.62,4.47c-1.52,1.37-3,2.84-4.37,4.35,0,0,0,0,0,0a38.71,38.71,0,0,0-4.36,5h0a36.26,36.26,0,0,0-3.4,5.54h0a38.51,38.51,0,0,0-2.36,6A46.47,46.47,0,0,0,.78,50.58L.57,53.36s0,0,0,.06l0,2.7a33.41,33.41,0,0,0,1.29,7.09h0a34.17,34.17,0,0,0,2.43,6h0l0,.1a41,41,0,0,0,3.71,5.46h0a35.94,35.94,0,0,0,4.59,4.64h0a33.39,33.39,0,0,0,6,4h0a24.9,24.9,0,0,0,4.25,1.81L29.41,87l2.53.44a.28.28,0,0,1,.23.32.29.29,0,0,1-.33.23l-2.22-.38A40.2,40.2,0,0,0,29.89,94c.08.54.15,1.08.21,1.63l0,0a14.92,14.92,0,0,0,4.58,5.48h0a12.92,12.92,0,0,0,6.4,2.49h0a28.84,28.84,0,0,0,7.07-.06h0c2.23-.29,4.47-.65,6.66-1.08h0a44.65,44.65,0,0,1,6.81-.86,54.3,54.3,0,0,1,6.87,0h0l1,.07h0a51.26,51.26,0,0,1,6.7,1.56h0a47.45,47.45,0,0,1,5.15,1.9h0a37.09,37.09,0,0,1,6,3.62h0a32.26,32.26,0,0,1,5.05,4.65h0a38.2,38.2,0,0,1,4.13,5.69h0a55,55,0,0,1,3.17,6.16h0c.16.37.31.75.47,1.13l-.26-4.16a.28.28,0,0,1,.55,0l.38,6a16.53,16.53,0,0,0,2.58,6.65h0a13,13,0,0,0,4.63,4.27h0a18.79,18.79,0,0,0,6.7,2.22h0a15.52,15.52,0,0,0,7-.63,16.36,16.36,0,0,0,3.13-1.41h0a20.92,20.92,0,0,0,5.57-4.63h0a19.63,19.63,0,0,0,3.51-6.12h0a30.4,30.4,0,0,0,1.57-6.67h0a37.87,37.87,0,0,0,.15-6.73h0a31.83,31.83,0,0,0-1.2-6.7h0a10.64,10.64,0,0,1,.36-7.13h0a8.54,8.54,0,0,1,1.39-2.26l0,0h0l0,0a15.6,15.6,0,0,1,7-2.47,15.31,15.31,0,0,1,3.58,0h.06a25.25,25.25,0,0,1,6.69,3.14h0a24.22,24.22,0,0,1,5.23,4.67h0a25,25,0,0,1,2.1,2.86l0,0a.25.25,0,0,1,.08.12l3.93,8.71h0a20.52,20.52,0,0,1,1.32,7.09,19.1,19.1,0,0,1-.88,5.86v0h0a.18.18,0,0,1-.07.1.24.24,0,0,1-.11.06h0a49.59,49.59,0,0,0-9.69,2.56h0a45.79,45.79,0,0,0-8.12,3.95h0a46.61,46.61,0,0,0-4,2.75h0a33.19,33.19,0,0,0-3.63,3.27h0a28.64,28.64,0,0,0-3.12,3.93h0a38,38,0,0,0-4,8h0c-.15.39-.29.79-.44,1.19a24.07,24.07,0,0,0-1.36,7.07h0a21.63,21.63,0,0,0,.87,7h0a18.09,18.09,0,0,0,1,2.61,20,20,0,0,0,4.3,5.73h0a18,18,0,0,0,5.84,3.64,21.36,21.36,0,0,0,7.07,1.43h0a16,16,0,0,0,7-1.35h0a19.13,19.13,0,0,0,5.6-3.78h0l.18-.16a18.66,18.66,0,0,0-3.58.14,19.44,19.44,0,0,0-6.62,2.16.27.27,0,0,1-.38-.11.28.28,0,0,1,.12-.38,19.67,19.67,0,0,1,11.13-2.33h0l5.82.58h0a19.4,19.4,0,0,1,6.48,3.18h0a18.2,18.2,0,0,1,4.72,5.28h0a22,22,0,0,1,1.34,2.6v0h0a13.23,13.23,0,0,1,.37,7.3h0c-.1.39-.19.79-.29,1.18v0a31.86,31.86,0,0,1-2.45,6.17h0a39.71,39.71,0,0,1-4,6.12h0c-.35.44-.71.89-1.05,1.35a19.12,19.12,0,0,0-2.79,6.63h0a16,16,0,0,0,0,6.47h0a25.18,25.18,0,0,0,2.44,6.72h0a36.7,36.7,0,0,0,3.94,6h0a36.09,36.09,0,0,0,5,5.08h0a24.79,24.79,0,0,0,5.87,3.66h0a21.09,21.09,0,0,0,6.84,1.79h0a31.42,31.42,0,0,0,7.19-.19h0c2.21-.33,4.43-.76,6.6-1.28h0a58,58,0,0,0,6.39-2h0a54.27,54.27,0,0,0,5.56-2.37h0l11.14-5.57h0a20,20,0,0,1,6.88-1.64h0a16.24,16.24,0,0,1,7.13,1.13h0a19.49,19.49,0,0,1,6.23,4h0a22.35,22.35,0,0,1,4.06,6.21h0a23.52,23.52,0,0,1,1.77,6.42,26.6,26.6,0,0,1,.27,7h0l-.09,1h0a.09.09,0,0,1,0,0c-.48,2.08-1,4.22-1.53,6.33h0a37.37,37.37,0,0,0-1,6.48h0a39.21,39.21,0,0,0,.12,6.68h0a34.56,34.56,0,0,0,1.35,6.68h0a33.71,33.71,0,0,0,1.73,4.48,21.65,21.65,0,0,0,4.22,5.78h0a21.32,21.32,0,0,0,5.18,3.71,37.14,37.14,0,0,1,6.76,2.93,33.16,33.16,0,0,1,5.37,3.72h0a54.4,54.4,0,0,1,4.54,4.31h0c.63.67,1.27,1.36,1.92,2h0a51.63,51.63,0,0,1,4.39,5.67h0c1.05,1.58,2,3.22,2.92,4.89.78,1.26,1.57,2.51,2.35,3.73h0c1.17,1.86,2.37,3.74,3.58,5.61h0c1,1.59,2.07,3.17,3.1,4.75h0c1.2,1.83,2.36,3.73,3.45,5.63h0c.72,1.25,1.42,2.55,2.1,3.86h0L315,358.26l14.33,28.1h0l1.67,3.45.1.19c.58,1.11,1.16,2.26,1.7,3.43s1.08,2.27,1.6,3.33,1,2.08,1.5,3.05a25.93,25.93,0,0,1,1.28,3h0a3.77,3.77,0,0,0,1.23,1.86"/><path class="cls-10" d="M60.92,27.75c-.23-.35-.47-.66-.7-.95a8.76,8.76,0,0,0-.79-.83,7.82,7.82,0,0,0-.86-.68l0,0h0l-.18-.12-.66-.36h0a6.72,6.72,0,0,0-.94-.34l-.11,0-.35-.08-.46-.07H55.7l-.33,0h-.43q-.46,0-.81.06l-.24,0h0l-1.29.31h0L52,24.8l-1.76.8h0l.89-.38,1.38-.45h0l1.19-.23,1-.07h.35l.47,0h.1l.11,0,.7.15.16.06a5.1,5.1,0,0,1,.87.35h0l.56.32,0,0h0l.1.07.08.05,0,0a7.46,7.46,0,0,1,.79.66q.38.39.72.81c.21.28.42.58.64.92s.4.68.57,1,.36.74.51,1.09.31.77.45,1.16l.44,1.37,0,0,.59,2.37.27,1.33.48,3.1.4,3.9c.07.78.13,1.74.19,2.87q.15,2.79.18,5.76c0,1.64,0,3.5,0,5.58L64,73.11l-.23,4s0,0,0,0h0l1-10.18.5-9.36c.06-2,.08-3.84.08-5.6,0-2-.07-4-.17-5.79,0-1-.12-2-.19-2.9s-.18-1.93-.29-2.87L64,36.28l-.29-1.35q-.1-.45-.33-1.32c-.13-.47-.25-.9-.38-1.28s-.25-.73-.43-1.24-.35-.87-.49-1.18-.39-.81-.56-1.12-.43-.76-.62-1"/><path class="cls-10" d="M79.11,101.05l-3-1.39L73,98.56l-1.23-.34h0l0,0-1.82-.43-2.63-.46-.1,0-.2,0-.21,0-.1,0-4.23-.34-2.7,0L56.8,97s0,0,0,0,0,0,0,0h.69l1.58.06h.11l2.67.17,4.57.55.1,0,4.3.9.65.18h.06l1.25.37c.64.21,1.22.4,1.74.6l1,.39,2.38,1,1.64.84c.59.32,1.11.63,1.55.91l1.48,1c.49.35,1,.68,1.38,1l.12.1h0l0,0,1.1.91c.72.6,1.46,1.28,2.21,2l1,1,0,0,1.11,1.27,1.56,2,0,.06.33.45s0,0,0,0,0,0,0,0l-.91-1.46c-.4-.59-.79-1.12-1.16-1.6l-.7-.9,0,0,0,0-.77-.89-.12-.14-.74-.8-2.5-2.33h0l0,0,0,0-.4-.32,0,0L82.27,103l-1.53-1,0,0,0,0Z"/><path class="cls-10" d="M136.13,98h0l-3.05,2.42-1.65,1.51c-.54.54-1.06,1.08-1.54,1.62l-.77.89c-.23.26-.48.58-.77,1-.49.64-1,1.32-1.42,2l-1.06,1.86-.65,1.43c-.16.39-.3.76-.42,1.12l-.38,1.24-.21.94c-.06.29-.12.63-.18,1l-.05.49v.07l0,.65,0,.82.11,1.67v0l.21,1.29,0,.07s0,0,0,0,0,0,0,0l0-1.13c0-.41,0-.84,0-1.29v-.33l.12-1.1.21-1.27.5-1.9c.12-.39.25-.74.37-1l.95-2.13.56-1.06.63-1c.44-.7.9-1.37,1.37-2l1.31-1.68,2.62-2.93,3.26-3.2s0,0,0,0"/><path class="cls-10" d="M77,76.62s0,0,0,0,0,0,0,0l.2,2.06v.13l.36,1.7.5,1.55,0,0v0l.08.21a2.54,2.54,0,0,0,.11.26l.24.53a9.61,9.61,0,0,0,.56,1.06l.67,1.08c.24.33.51.67.8,1L82,87.74,83.58,89c.36.25.75.5,1.15.74l1.2.64,1.21.54.61.25,2.38.76.57.14.11,0,2.64.51,1.22.15,1.41.12,1.23,0s0,0,0,0h0l-4.88-1-2.88-.85-2.17-.85,0,0-2.24-1.14c-.39-.23-.76-.47-1.1-.71l-1.3-1-1.18-1.1-.43-.47c-.26-.3-.53-.62-.78-1a11.27,11.27,0,0,1-.69-1l-.59-1c-.14-.26-.3-.59-.49-1l-.4-1c-.22-.57-.41-1.14-.57-1.72l-.34-1.36Z"/><path class="cls-10" d="M79.72,51.81s0,0,0,0h0l-.43.07-.41.1-1,.39-.14.08h0l-.07,0-.37.22-.71.51c-.25.2-.46.39-.65.57s-.42.4-.62.61l-.57.65-.54.68c-.07.1-.25.33-.51.7l-.84,1.27-2,3.79-.12.25h0l-.87,3.7c-.17.83-.3,1.45-.37,1.87-.16.81-.27,1.44-.33,1.87l-.66,5.68c0,.63-.08,1.27-.1,1.9l0,1.91c0,.74,0,1.38.05,1.91l.26,2.85.14,1L69.56,88l0,.05.33,1.09,0,.05v.06l.1.28v0l.26.7v0l0,0,.55,1.32s0,0,0,0,0,0,0,0l-.37-1.12-.2-.69-.25-.91L69.88,88c-.13-.61-.25-1.23-.35-1.86,0-.08-.06-.39-.14-.93l-.23-2.1L69,80.56c0-.74,0-1.36,0-1.89l.06-1.88c0-.55.07-1.18.13-1.88l.4-3.74c.06-.42.15-1,.28-1.87s.24-1.44.32-1.85.19-1.06.35-1.86l.8-3.67v0l0-.07v0l.71-1.5.18-.39,1.41-2.61L74.59,56c.22-.31.38-.54.5-.69l.52-.66c.16-.18.34-.39.57-.62s.4-.41.61-.6a6.81,6.81,0,0,1,.65-.53l.08-.07,0,0,0,0h0l.09-.07h0l0,0,.11-.06,0,0,.37-.22.09,0,0,0,.53-.24Z"/><path class="cls-10" d="M59.9,91.19l1.72,1.08.14.1.76.54.11.08,1.13.87h0v0l-.65-.68q-.37-.39-.78-.75L61,91.26l-1.83-1.2L58.92,90l-.64-.34c-.25-.12-.55-.26-.91-.41L56.84,89l-.92-.31-.5-.14-.19-.05-.82-.18c-.38-.07-.73-.12-1-.16l-1-.09H50.75l-.37,0-1.7.23-1.93.5-2,.77-1,.5,0,0s0,0,0,0h.07l.84-.27,1-.3L47,89.23l2.2-.36.28,0,.92-.06h1.56l1.29.11h.07l.24,0,.74.13c.33.06.65.13,1,.22l1.71.52.17.07.88.35Z"/><path class="cls-10" d="M172,90.92l-1.61,1.29,0,0,0,0-1.47,1-.65.38a17.83,17.83,0,0,1-2,1l-2.44.83-2,.43-2.56.26-.69,0h-.26l-2.33-.08L153,95.74c-.85-.14-1.68-.3-2.48-.47l-.07,0-3.77-1-2.85-.9s0,0,0,0,0,0,0,0l.07,0,1.1.49,1.38.57.74.29,3.27,1c.78.21,1.61.4,2.5.57l3,.41,2.35.09,2-.11,2.43-.4a11.36,11.36,0,0,0,1.32-.35l.72-.23,1.55-.62,1.7-.91a2.74,2.74,0,0,0,.46-.29A15.61,15.61,0,0,0,170,92.86l.54-.46L172,90.93s0,0,0,0Z"/><path class="cls-10" d="M147.27,142.18h.07l2.65-.31,2.74-.59c.67-.18,1.31-.38,1.93-.6l1.92-.78h0l.62-.31h0l1.38-.79c.34-.21.65-.42.94-.64l.45-.34,1.26-1.1c.26-.26.51-.52.74-.79l.34-.41,0-.05,0-.05.74-1v0l0,0,.89-1.68a11.17,11.17,0,0,0,.52-1.44l.23-.82.23-1.34s0,0,0,0h0l-.6,1.75-.75,1.61-.46.78,0,.05-.48.71c-.23.32-.43.58-.58.76l-.66.75c-.28.3-.52.54-.73.73l-1,.82-1.37,1-.06,0,0,0-2.08,1.16h-.06l-1.81.81c-.59.23-1.21.46-1.86.68l-.39.12-.06,0-4.84,1.3s0,0,0,0,0,0,0,0"/><path class="cls-10" d="M182.55,147.34h0l0,1a9.38,9.38,0,0,0,.12,1.12l.21.85.2.55,0,0,.07.17.41.76.64.83.81.75.42.3a8.72,8.72,0,0,0,.89.53,4.5,4.5,0,0,0,.48.22l.48.2a13.11,13.11,0,0,0,2.07.58,17.7,17.7,0,0,0,2.1.28l.51,0,.52,0h1l2.35-.13,2.81-.39,1.81-.37.06,0s0,0,0,0,0,0,0,0l-5.84.26-1.19,0-1,0-1-.08c-.77-.08-1.44-.17-2-.29a13.88,13.88,0,0,1-1.94-.52,9.19,9.19,0,0,1-1.75-.83,3.87,3.87,0,0,1-.38-.26l-.07,0,0,0-.27-.21-.63-.6c-.09-.09-.18-.2-.28-.32l-.47-.66c-.08-.13-.14-.25-.19-.34l-.13-.25-.36-.92-.3-1.22Z"/><path class="cls-10" d="M215.05,175.28s0,0,0,0,0,0,0,0l-4,1.19-1.08.41c-.82.34-1.61.69-2.37,1.06l-3.36,1.88-.49.32c-.42.28-.85.58-1.28.9l-1.27,1c-.42.33-.83.68-1.23,1l-1.74,1.67c-.25.24-.43.44-.55.58l-1.3,1.46-1.92,2.53L193,191.53l-1.52,2.81,0,.06,0,0-1.09,2.47,0,.09s0,0,0,0h0l0-.09.14-.24,1.78-3.12.63-1,1.78-2.58,2.73-3.34,1.34-1.4,1.71-1.63c.48-.42.88-.76,1.21-1l2.16-1.65.32-.22L206,179.5l3.07-1.71,1-.5,1-.48Z"/><path class="cls-10" d="M202.45,205.39l.46.12,2.2.75,1.16.52s0,0,0,0,0,0,0,0l-.06,0-1-.6a11.9,11.9,0,0,0-1.31-.64,14.78,14.78,0,0,0-1.8-.63,4.8,4.8,0,0,0-.52-.13l-1.71-.28c-.39,0-.8-.05-1.25-.05l-.65,0-.57.05-.08,0-.67.1-.66.14-.66.18-.67.21-.08,0-1,.41-1.45.76a18.9,18.9,0,0,0-2.29,1.61l-1,.9c-.27.24-.58.55-1,.93l-1.47,1.65-1.54,2c-.34.48-.69,1-1.05,1.57l-1.37,2.36s0,0,0,0h0l2.15-2.9,2.87-3.34.88-.89c.41-.39.72-.68.95-.88l1-.85a18.26,18.26,0,0,1,2.22-1.53l1.18-.64c.39-.19.8-.36,1.22-.52l.62-.21.63-.19c.17,0,.37-.1.62-.15l.62-.11c.41-.07.82-.11,1.23-.14l1.9,0,.41.05h.13Z"/><path class="cls-10" d="M199.38,169.79h.05l1.85.23h.05l.34.07h.05l.35.07q.81.21,1.56.45l2.31.91,2.3,1.21,2.58,1.66s0,0,0,0h0l-1.31-1c-.43-.31-.88-.61-1.35-.92l-1.33-.8-1.56-.8c-.48-.23-1-.44-1.53-.64h0l0,0-1.89-.57-1.12-.23h-.1l-1.66-.18a15.5,15.5,0,0,0-1.67,0l-1.56.19-.1,0a14.15,14.15,0,0,0-1.63.39,15.73,15.73,0,0,0-1.57.58c-.47.2-1,.45-1.5.74a16.18,16.18,0,0,0-1.43.87c-.42.28-.87.61-1.34,1s-.84.69-1.25,1.05l0,0-.06.05,0,0c-.22.14-.51.29-.84.46l-.69.31-.12,0,0,0-.68.24-1.67.43-1.63.24-2.41.1-1.27,0h-.13l-2.22-.22-2.59-.44-2.5-.56-1-.26-2-.57c-.61-.18-1.26-.38-2-.61L161,171.7l-5.51-2.22h0s0,0,0,0l5.64,2.62,5.8,2.2,3.49,1,2.28.55,2.82.48.13,0,2.21.21H178l.85,0,2.17-.07,1.58-.2,1.48-.32,1.33-.44c.34-.13.67-.27,1-.42s.65-.35.93-.52l.06,0q.71-.65,1.23-1c.43-.36.86-.68,1.28-1s.89-.58,1.37-.85a15.87,15.87,0,0,1,1.43-.72l.06,0,1.43-.54a12.21,12.21,0,0,1,1.55-.41l1.58-.24a14.43,14.43,0,0,1,1.61,0Z"/><path class="cls-10" d="M229.63,232.41l-1.33-.21-1.34-.14c-.4,0-.84-.05-1.34-.06s-.82,0-1.35,0l-1.35.09-1.34.17c-.42.06-.86.14-1.32.23l-1.48.35-2.42.74-1.26.48-.08.05h0l-1.5,1.08-1.44,1-2.47,1.48-.81.43c-.59.3-1.14.57-1.66.79l-1.7.67-.87.28-.88.23c-.28.07-.57.13-.9.19l-.9.13a7.81,7.81,0,0,1-.9.06c-.3,0-.6,0-.9,0s-.71-.05-.91-.08h-.11l-1.27-.26-.38-.12a8.81,8.81,0,0,1-.85-.31,8.92,8.92,0,0,1-.82-.4c-.29-.16-.55-.31-.78-.46s-.55-.38-.74-.53l-.7-.6a12.43,12.43,0,0,1-1.27-1.33c-.14-.16-.33-.4-.58-.72l-.67-1-.85-1.39h0v0l1.24,2.24.13.2c.17.26.35.52.54.77l.82,1,0,0,1,1,0,0c.24.21.49.41.74.59s.51.35.8.52.61.33.84.44l.11,0,.05,0,.17.07,1.47.49a11.64,11.64,0,0,0,1.89.3c.31,0,.63,0,.95,0s.59,0,1-.05l.95-.12q.5-.07.93-.18c.29-.06.6-.14.92-.23s.62-.17.91-.27l.89-.32.88-.35c.62-.27,1.19-.53,1.71-.8l2.56-1.44,2.25-1.49c.5-.35,1-.71,1.46-1.07l1.2-.47,1.71-.57,2.07-.55,1.29-.25c.51-.09.94-.15,1.3-.19s.74-.08,1.31-.12q.57,0,1.32-.06c.48,0,.92,0,1.31,0l1.32.09,1.31.15c.44.06.87.14,1.31.23l1.29.29,1.83.52,0,0h0l.24.08h0l.35.13c.36.12.78.28,1.25.46h0s0,0,0,0c-.33-.16-.73-.35-1.21-.55l-.7-.29-2.14-.73,0,0-.93-.25c-.38-.1-.82-.19-1.31-.29"/><path class="cls-10" d="M269.24,225.22v0l-.24,3.67.13,3.44.43,3,.56,2.3,1,2.72.31.69,0,0v0l.16.32,0,0,0,0,.2.39.05.08.17.31.9,1.48c.25.37.52.73.81,1.1l1.11,1.3,1.92,1.78,1.64,1.18,2.52,1.4.31.13h0s0,0,0,0l-.29-.18-.34-.22-.94-.62-2.3-1.79,0,0,0,0-1.46-1.42-.8-.91c-.33-.39-.59-.73-.78-1l-.47-.67-1-1.56c-.19-.35-.4-.76-.63-1.22l-.12-.25v0l0,0-.54-1.26-.71-2-.58-2.19-.45-2.44-.21-1.55-.33-6Z"/><path class="cls-10" d="M277.34,299.9h-.1l-1.45-.07-.71,0-1.14.12-.14,0a9.11,9.11,0,0,0-1.08.2l-.89.23-1.08.37s0,0,0,0h0l2-.45c.36-.06.72-.1,1.06-.14l2.05-.05.74.06h.1l1.38.22a16.85,16.85,0,0,1,1.65.45q.9.31,1.71.69l.85.44,1.69,1,.83.6c.57.43,1.11.88,1.62,1.34l.78.74.77.77a40.83,40.83,0,0,1,2.86,3.36l1.3,1.8c.38.55.79,1.16,1.23,1.84l1.14,1.84c.4.66.75,1.28,1.07,1.84.63,1.11,1.27,2.29,1.91,3.55l2.28,4.69,2.4,5.35h0s0,0,0,0L301,327.56c-.06-.13-.09-.23-.12-.3l-1.4-3.46c-.47-1.11-1-2.21-1.49-3.31-.6-1.27-1.21-2.47-1.82-3.61L295.15,315l-2-3.28-1.64-2.3a38.71,38.71,0,0,0-2.93-3.42c-.54-.54-1.08-1.05-1.61-1.52l-.83-.7-.86-.65c-.28-.21-.57-.41-.86-.61l-1.78-1q-.45-.23-.9-.42l-.9-.37-.89-.29c-.26-.08-.55-.15-.87-.23l-1-.19H278Z"/><path class="cls-10" d="M256.66,239.4s0,0,0,0l2,5.77c.2.66.39,1.31.56,1.95l.85,3.7.77,5.13.11,1.14.16,4.79,0,1.27c0,.71-.06,1.38-.11,2l-.19,2c-.07.62-.16,1.29-.28,2l-.82,3.86-.23,1.31c0,.14-.05.36-.08.65a12.65,12.65,0,0,0-.08,1.32,11.48,11.48,0,0,0,.05,1.33l.1.67c0,.21.08.43.13.66s.13.42.21.64.16.42.25.62a4.25,4.25,0,0,0,.33.6l.19.29.51.62.15.15a4.78,4.78,0,0,0,.51.45,5.64,5.64,0,0,0,.55.39l.58.32a7,7,0,0,0,1.24.49,11.47,11.47,0,0,0,1.28.31c.38.07.82.12,1.3.16l1.31.05c.36,0,.79,0,1.29,0l1.3-.12h0s0,0,0,0l-1.29,0c-.5,0-.93,0-1.29,0l-.64,0-.64-.07c-.43-.06-.85-.13-1.27-.22a9.56,9.56,0,0,1-1.22-.36l-.59-.22-.56-.28-.48-.29-.06,0a5,5,0,0,1-.5-.38,5.89,5.89,0,0,1-.45-.42l-.21-.23-.4-.56,0,0v0l-.05-.07,0-.06a5.77,5.77,0,0,1-.29-.55c-.08-.19-.15-.38-.22-.58l-.17-.6a7.6,7.6,0,0,1-.19-1.23c0-.39,0-.81,0-1.26s.05-.84.1-1.26.12-.83.2-1.26l.64-2.51.36-2c.11-.63.21-1.31.29-2l.2-2c.06-.79.1-1.48.12-2.05l0-.77-.13-4.35-.64-5.09-1.45-6c-.2-.64-.41-1.29-.63-1.94l-.71-1.92-1.62-3.74h0"/><path class="cls-10" d="M283.11,294l-1.11-.52-1.16-.65s0,0,0,0h0l.95.77.81.53.78.43h0l.34.16,0,0,0,0,1.15.39c.3.06.59.11.87.14l.35,0h.11l.48,0,.47-.07a4.21,4.21,0,0,0,.48-.12,3.37,3.37,0,0,0,.46-.17,4.48,4.48,0,0,0,.46-.21,3.5,3.5,0,0,0,.43-.26l.16-.11.05,0,0,0,.15-.12.38-.33.35-.36.89-1.18c.14-.21.22-.35.26-.42.15-.26.3-.54.44-.84l.1-.22.09-.21.62-1.67.55-2.07.45-3s0,0,0,0h0L292,288.77l-.49,1.18c-.11.25-.24.51-.39.79l-.41.74-.53.81-.57.7a7.29,7.29,0,0,1-.65.62l-.71.49-.38.2-.4.15a5.17,5.17,0,0,1-.82.2l-.61,0h-.2l-.4,0-.77-.13-.36-.09-.14,0,0,0-.22-.07Z"/><path class="cls-10" d="M232.71,198.8l-2,1.18v0h0l5.12-2.29,1.73-.69c.88-.34,1.73-.64,2.55-.91.37-.12.82-.27,1.36-.42l1.41-.37c.49-.12,1-.23,1.44-.31l.1,0h0l1.33-.18a6.15,6.15,0,0,1,.74-.06l.73,0,1.18.06.26,0,.7.12a6.11,6.11,0,0,1,.68.17,7.24,7.24,0,0,1,1.26.54,5.92,5.92,0,0,1,.56.35l.06.05,0,0,0,0,.07,0,0,0,0,0,0,0,0,0,0,0,.06.05.24.22.06.06.19.2,0,0c.16.19.3.35.4.49s.22.31.35.51l.58,1.11.51,1.47c.09.3.16.62.23.94l.26,1.64.13,1.31h0s0,0,0,0l0-1.39c0-.58-.06-1.12-.12-1.6l-.3-1.57-.31-1-.48-1.07-.06-.1c-.1-.17-.21-.36-.35-.58l-.59-.74-.45-.44,0,0-.38-.32c-.2-.14-.4-.28-.62-.41a6.43,6.43,0,0,0-1.38-.62,6.5,6.5,0,0,0-.74-.21c-.22-.06-.47-.1-.75-.15l-.77-.08q-.35,0-.78,0a13.76,13.76,0,0,0-1.55.08l-.86.1-3.24.74-.35.12c-.44.13-.9.28-1.38.46l-2.55,1-1.16.52-1.06.52Z"/><path class="cls-10" d="M204.46,200.58c-.11-.09-.26-.24-.48-.46l-.88-.92h0v0l.3.42,1.17,1.39.29.3.08.07,1.19,1,1.16.74.52.27,1.13.48.6.19.63.17,1.33.22.68.06.68,0h.71l.7,0,.7-.08.7-.11.69-.13a22.57,22.57,0,0,0,2.7-.78c.89-.32,1.73-.66,2.51-1l2.75-1.46,1.85-1.15c.12-.08.26-.16.41-.27l2.93-2.16v0s0,0,0,0l-2.34,1.41-1.65.93-2.51,1.3-.28.13-1.43.66c-.83.36-1.65.68-2.46,1a25.32,25.32,0,0,1-2.62.73l-1.33.23c-.41.06-.86.11-1.34.14s-.93,0-1.32,0l-.64,0c-.21,0-.43,0-.64-.07a12,12,0,0,1-1.22-.23,10.76,10.76,0,0,1-1.14-.35l-1-.43-.93-.5c-.29-.18-.57-.36-.83-.54Z"/><path class="cls-10" d="M27.16,70.88l.58.48.61.45a12.92,12.92,0,0,0,1.29.84l1.41.72a15.17,15.17,0,0,0,1.48.57l.62.18h0l.1,0c.22.06.48.13.77.19l.48.09.11,0,1,.12.77.06.77,0h.43l1.07-.06a18.44,18.44,0,0,0,2.79-.46c.38-.08.8-.19,1.27-.33l1.17-.37,2.78-1.16.67-.33,1.26-.68v0h0l-3.53,1.35-3.71,1-.58.1-.08,0-2.34.23H37.16l-.73,0-.74-.06c-.52-.07-1-.15-1.47-.25l-.87-.2-.05,0-.54-.16a12.87,12.87,0,0,1-1.4-.54L30,72a15.54,15.54,0,0,1-2.4-1.65l-1.05-.91q-.48-.45-1-1l-.85-1-.39-.47-1-1.34-2.19-3.4h0v0l1.37,2.73L24,67.36l1.2,1.52a17.9,17.9,0,0,0,2,2"/><path class="cls-10" d="M44.44,85.13l-.49.26c-.26.14-.64.32-1.15.57l-1.72.7-1.71.54-1.1.26-1.57.25h-.06l-1.94.13H33.5l-1.61-.14s0,0,0,0h0l2,.39h0l.36,0h0l.78.06h1.16A17.7,17.7,0,0,0,38.37,88l.57-.09,2.25-.57,1.62-.6,2-1h0l.61-.27c.41-.16.81-.3,1.19-.42s.81-.21,1.22-.29l1.68-.18h.75a13.91,13.91,0,0,1,2.28.25l2,.54,1.64.63c.49.21.9.4,1.24.58l1.07.55s0,0,0,0,0,0,0,0L58.28,87l-1.75-1.1-1.14-.59-1.76-.7-1.21-.34L50.94,84l-1.26-.07-.65,0H49l-.58,0-.65.09-.66.13c-.22.05-.44.1-.65.17a11.18,11.18,0,0,0-1.27.43l-.65.29h0l0,0Z"/><path class="cls-10" d="M115.42,90.11l2-2.77s0,0,0,0h0l-4.94,5.48c-.7.72-1.33,1.35-1.9,1.89s-1.37,1.28-2.11,1.92l-2.31,1.82a24.76,24.76,0,0,1-2.47,1.56l-1.27.64-.65.26c-.18.08-.4.16-.64.24l-1.77.44-.79.09-.61,0-.6,0-.57,0-.55-.09a4.87,4.87,0,0,1-.52-.12l-1.06-.35-1.06-.52a6.88,6.88,0,0,1-.61-.36l-1.11-.8h0v0l.26.26a10,10,0,0,0,.77.67c.17.14.36.28.58.43s.47.3.74.45l.43.22,1,.39c.16.06.34.11.53.16s.36.09.57.13a6,6,0,0,0,.61.09,6.16,6.16,0,0,0,.63,0c.19,0,.41,0,.65,0l.46,0h.21a5.78,5.78,0,0,0,.68-.09l.7-.14.68-.18.69-.23,1.19-.49.84-.41a23.44,23.44,0,0,0,2.56-1.61l2.35-1.87c.72-.64,1.42-1.3,2.11-2s1.24-1.3,1.84-2Z"/><path class="cls-11" d="M243.26,251.52h0l1.65-1.18c.29-.19.59-.37.91-.55a11.58,11.58,0,0,1,1.11-.56l.44-.19,0,0,.21-.07,0,0,.72-.23h0l.61-.16h.09l0,0,.5-.08h.14a7.7,7.7,0,0,1,.83,0l.43,0h.42c.29.05.58.11.86.18a6.46,6.46,0,0,1,.87.3,8.06,8.06,0,0,1,.83.42,7.93,7.93,0,0,1,.8.53l.76.63c.2.18.43.42.71.71s.41.47.67.78.46.61.62.84l2.43,3.47.08.11c.48.6,1,1.17,1.46,1.7a27.08,27.08,0,0,0,3.31,3l1.8,1.24,1.85,1.05,1,.45.93.4.93.37,1.38.45,1.72.45h.05l.65.14h.1l3.37.45h.17c.74.05,1.52.06,2.34,0q.63,0,1.5-.09h.23l.3,0s0,0,0,0,0,0,0,0l-2,0c-.32,0-.68,0-1.07,0l-2-.19-3.24-.61-2.38-.71c-.56-.19-1.16-.42-1.81-.69l-.91-.42-.92-.45-1.8-1.06-.88-.59-.81-.59,0-.05a25.09,25.09,0,0,1-3.22-2.93q-.74-.76-1.44-1.65l-.59-.76-1.93-2.77c-.19-.28-.41-.56-.65-.87l-.7-.79c-.2-.21-.45-.45-.76-.74s-.5-.41-.81-.64a8.25,8.25,0,0,0-1.75-1,6.77,6.77,0,0,0-1.85-.45l-.11,0h-.79a7.3,7.3,0,0,0-.87.07l-.81.16-1.21.38-.42.18,0,0,0,0-1.5.81c-.32.19-.61.39-.89.59l-1.59,1.27a0,0,0,0,0,0,0"/><path class="cls-11" d="M243.27,234.42l0,0-.28.2h0l0,0,0,0-.07.06s-.06,0-.06.05l-.58.54,0,0a.47.47,0,0,0-.1.11l0,0,0,0s0,0-.05.06l-.32.41,0,0-.14.2,0,.06-.05.09-.14.25c-.1.18-.17.32-.22.43l-.09.19-.41,1.15s0,0,0,0,0,0,0,0l1.09-1.82h0v0l.12-.15,0,0,.22-.27,0,0,0,0,.4-.41.06,0,0-.05a5.24,5.24,0,0,1,.47-.38l.16-.11,0,0h0l.31-.2h0l.07,0,0,0h0l.44-.2,0,0,.15-.06h.05l.36-.12.16,0,0,0,.12,0h0l.33-.06a4.37,4.37,0,0,1,.68-.06h1l.17,0h.05l1.46.26c.41.1.82.21,1.23.35l.56.19h0l0,0,2.68,1.08s0,0,0,0,0,0,0,0l-1.12-.69-1.36-.7-.69-.29c-.42-.17-.84-.32-1.25-.44l-.5-.13h-.09l-.8-.15a6.92,6.92,0,0,0-.74-.07l-.6,0h-.14a7.4,7.4,0,0,0-.75.07l-.37.07-1,.31,0,0h0l-.49.26h0l0,0Z"/></svg>