<svg id="圖層_1" data-name="圖層 1" xmlns="http://www.w3.org/2000/svg" viewBox="0 0 53.86 53.86"><defs><style>.cls-1{fill:#ea65a0;}.cls-2{fill:#fff;}.cls-3{fill:#040000;}</style></defs><title>首頁圖層用</title><path class="cls-1" d="M9.28,19.05c-.06-.52-.08-2.07-.06-4.66S10.48,9,12.94,5.86q2.89-3.65,4.52-3.79Q5.91,1.74,3.47,2a7.85,7.85,0,0,0-3,.65Q-.18,3,1.78,7.32a72.11,72.11,0,0,0,7.5,11.73M35.1,16.44a.53.53,0,0,0,.33,0q4.77-.69,4.8-6,0-4-.28-7.95L22.89,2.36Q20,2.62,15.25,7.69T14.14,27.27l7.3,10.45Z"/><path class="cls-2" d="M18,2.12a1.22,1.22,0,0,0-.51-.05q-1.62.15-4.52,3.79-3.69,4.63-3.72,8.53c0,2.59,0,4.14.06,4.66a1.28,1.28,0,0,1,.11.2,61,61,0,0,0,4.76,8q-3.76-14.44,1.1-19.58t7.64-5.33Z"/><path class="cls-2" d="M21.44,38a.3.3,0,0,1-.24-.12L13.91,27.44a62.82,62.82,0,0,1-4.78-8.07c0-.05-.05-.11-.08-.16A72.28,72.28,0,0,1,1.52,7.44C0,4.19-.32,2.77.27,2.38a8,8,0,0,1,3.18-.7c1.62-.16,6.34-.12,14,.11a1.36,1.36,0,0,1,.57,0l4.87.24L40,2.19a.29.29,0,0,1,.28.29.28.28,0,0,1-.29.28h0L22.9,2.65c-1.82.17-4.33,1.93-7.44,5.24s-3.5,9.8-1.05,19.26l7.26,10.4a.29.29,0,0,1-.07.4.25.25,0,0,1-.16,0M9.57,19a.89.89,0,0,1,.08.17,63.72,63.72,0,0,0,3.83,6.66c-2.08-8.86-1.56-15,1.56-18.3a21.34,21.34,0,0,1,6.09-4.93L18,2.41l-.08,0a1.15,1.15,0,0,0-.38,0h0c-.69.07-2,.77-4.32,3.68S9.53,11.88,9.51,14.4s0,4,.06,4.56M7,2.16c-1.67,0-2.83,0-3.48.1a7.35,7.35,0,0,0-2.91.6C.55,2.93.36,3.51,2,7.2A68.91,68.91,0,0,0,9,18.11c0-.81,0-2,0-3.72,0-2.65,1.3-5.58,3.78-8.71a15.83,15.83,0,0,1,3.36-3.36C12.19,2.21,9.15,2.16,7,2.16"/><path class="cls-3" d="M4.48,8.48a1.89,1.89,0,0,0-.11,1.66,2.68,2.68,0,0,0,1.25,1.41,2.73,2.73,0,0,0,1.87.36A1.92,1.92,0,0,0,8.89,11,1.83,1.83,0,0,0,9,9.34,2.65,2.65,0,0,0,7.74,7.92a2.75,2.75,0,0,0-1.86-.35,1.89,1.89,0,0,0-1.4.91"/><path class="cls-2" d="M7,12.24a3.22,3.22,0,0,1-1.56-.43A3,3,0,0,1,4.1,10.24a2.14,2.14,0,0,1,.13-1.9,2.17,2.17,0,0,1,1.6-1,3.09,3.09,0,0,1,2.06.38A3,3,0,0,1,9.26,9.24a2.14,2.14,0,0,1-.12,1.9,2.21,2.21,0,0,1-1.6,1.06,4.38,4.38,0,0,1-.5,0m-.7-4.42-.42,0a1.61,1.61,0,0,0-1.19.78A1.58,1.58,0,0,0,4.64,10,2.36,2.36,0,0,0,5.76,11.3a2.44,2.44,0,0,0,1.68.33,1.63,1.63,0,0,0,1.2-.78,1.53,1.53,0,0,0,.08-1.4A2.35,2.35,0,0,0,7.6,8.18a2.49,2.49,0,0,0-1.26-.36"/><path class="cls-3" d="M8.13,3.24A1.86,1.86,0,0,0,8,4.89,2.75,2.75,0,0,0,9.28,6.31a2.75,2.75,0,0,0,1.86.35,1.9,1.9,0,0,0,1.4-.92,1.83,1.83,0,0,0,.11-1.65A2.73,2.73,0,0,0,11.4,2.67a2.78,2.78,0,0,0-1.87-.35,1.89,1.89,0,0,0-1.4.92"/><path class="cls-2" d="M10.69,7a3.13,3.13,0,0,1-1.56-.44A3,3,0,0,1,7.75,5a2.14,2.14,0,0,1,.13-1.9A2.18,2.18,0,0,1,9.48,2a3,3,0,0,1,2.06.39A2.94,2.94,0,0,1,12.91,4a2.09,2.09,0,0,1-.12,1.89A2.22,2.22,0,0,1,11.19,7a4.21,4.21,0,0,1-.5,0M10,2.57a3,3,0,0,0-.41,0A1.58,1.58,0,0,0,8.29,4.8,2.42,2.42,0,0,0,9.42,6.06a2.45,2.45,0,0,0,1.67.33,1.62,1.62,0,0,0,1.2-.79,1.52,1.52,0,0,0,.08-1.4,2.34,2.34,0,0,0-1.12-1.27A2.47,2.47,0,0,0,10,2.57"/><path class="cls-3" d="M23,9.89l-1-3.52,4.67-1.26L19,5.28l1,3.57-2.76,1.5.7,3.52-4.43,2.06a1.15,1.15,0,0,0,.06.28q1.26,3.64,2.69,7.15l-.08-5.43c.52-.28,1-.53,1.54-.76,1-.5,1.94-1,2.69-1.43-.05-.79-.13-1.8-.23-3S21,10.6,23,9.89"/><path class="cls-2" d="M16.26,23.65a.28.28,0,0,1-.26-.18c-.95-2.33-1.86-4.74-2.71-7.17a1.54,1.54,0,0,1-.07-.35.28.28,0,0,1,.17-.28l4.23-2L17,10.4a.3.3,0,0,1,.15-.31L19.66,8.7l-.93-3.34a.31.31,0,0,1,0-.25A.28.28,0,0,1,19,5l7.75-.17a.3.3,0,0,1,.29.25.29.29,0,0,1-.21.32L22.44,6.58l.87,3.23a.29.29,0,0,1-.18.35c-1.87.66-2.76,1.52-2.67,2.54.11,1.21.19,2.23.24,3a.27.27,0,0,1-.14.26c-.76.46-1.67.95-2.71,1.45-.46.21-.92.43-1.38.67l.08,5.26a.29.29,0,0,1-.23.29h-.06m-2.43-7.56v0c.67,1.92,1.37,3.83,2.11,5.7l-.06-3.87a.3.3,0,0,1,.15-.26c.52-.28,1.05-.54,1.57-.77.95-.46,1.79-.91,2.5-1.33-.05-.76-.12-1.71-.22-2.83s.82-2.29,2.79-3L21.8,6.45a.28.28,0,0,1,0-.22A.28.28,0,0,1,22,6.09l2.38-.64-5,.11.9,3.21a.29.29,0,0,1-.14.33l-2.58,1.4.67,3.32a.31.31,0,0,1-.17.32Z"/><path class="cls-1" d="M19.44,11.94V37.7L20,49.23c.06.24.12.48.19.72.73,2.77,2.38,3.59,4.95,2.48A29.39,29.39,0,0,0,29,50.68L50.66,39.59c2-1.54,3-4.08,2.86-7.64V5.58a4.44,4.44,0,0,0-1.07-3.81A4.08,4.08,0,0,0,50,.29L38,2.46,23.58,6.08a5.9,5.9,0,0,0-4.14,5.86m16.11-1.11A12.16,12.16,0,0,0,30.65,15a23.68,23.68,0,0,0-3.88,9,19.37,19.37,0,0,0,.52,9.92,7.53,7.53,0,0,0,7.16,5.61A7.89,7.89,0,0,0,41,37a18.85,18.85,0,0,0,4.78-8.59A15.5,15.5,0,0,0,46,22.19a15.5,15.5,0,0,1-.28,6.22A18.85,18.85,0,0,1,41,37a7.89,7.89,0,0,1-6.51,2.51,7.53,7.53,0,0,1-7.16-5.61A19.37,19.37,0,0,1,26.77,24a23.68,23.68,0,0,1,3.88-9,12.16,12.16,0,0,1,4.9-4.13q5.37-2.51,8.77,1.82-3.41-4.32-8.77-1.82"/><path class="cls-2" d="M23.16,53.2a3,3,0,0,1-1.27-.28,4.15,4.15,0,0,1-2-2.89c-.07-.25-.13-.49-.19-.73a.11.11,0,0,1,0,0l-.57-11.54V11.94a6.19,6.19,0,0,1,4.33-6.13h0L37.88,2.18h0L49.9,0H50a4.3,4.3,0,0,1,2.68,1.57,4.71,4.71,0,0,1,1.16,4V32c.09,3.63-.91,6.28-3,7.86l-.05,0L29.15,50.94a30.38,30.38,0,0,1-3.89,1.76,5.41,5.41,0,0,1-2.1.5m-2.87-4c.06.23.12.45.19.69a3.62,3.62,0,0,0,1.66,2.52,3.46,3.46,0,0,0,2.9-.24h0a29.38,29.38,0,0,0,3.83-1.73L50.51,39.34c1.89-1.47,2.8-4,2.72-7.38V5.55a4.11,4.11,0,0,0-1-3.58A3.89,3.89,0,0,0,50,.58L38,2.74,23.66,6.36A5.58,5.58,0,0,0,19.73,12V37.69Z"/><path class="cls-2" d="M34,12l.31-.22.06,0,.13-.08.07,0,0,0,.28-.17,0,0,.69-.36,0,0,1.25-.53h0l0,0,.89-.25.49-.09.07,0h.06l.36,0a4,4,0,0,1,.48,0h.52l.79.12a2.83,2.83,0,0,1,.4.11l.32.11.05,0,.31.12,0,0,.32.16h0l.42.24.13.09.47.35.39.33,0,0,.2.19,0,0,0,0,.49.55,0,0h0s0,0,0,0l-.19-.24,0,0-.94-1c-.17-.15-.32-.28-.46-.38l-.06-.05-.47-.32h0l0,0-1-.47-.1,0-.41-.14-.9-.17-.48,0h-.5a5.91,5.91,0,0,0-1,.12l-1,.24-.61.21-.55.22-.13.06h0l-1.06.53,0,0-1.45,1-.52.43a12.64,12.64,0,0,0-1,.95l-.75.88,0,0,0,0-.23.31h0l-.35.51,0,0-.3.46,0,0L28.37,18l-.49,1,0,0-.47,1.17,0,0-.75,2.34-.28,1.2v0l0,.3v0L26,25.75l-.13,1.84c0,.28,0,.55,0,.82l0,.94.4,2.82.6,2.16.59,1.37c.09.16.23.41.43.74l.87,1.08.08.07,0,0,.76.67.71.47.94.47.6.22c.27.09.54.16.78.22s.58.12.81.15l.8.09h.81c.36,0,.62,0,.8,0a8.35,8.35,0,0,0,1.55-.31l.74-.27c.23-.1.47-.21.7-.33a8.73,8.73,0,0,0,1.27-.84l.42-.36,0,0,0,0L42,36.29l.06-.06.11-.14q.43-.54.81-1.08a18.17,18.17,0,0,0,1.32-2.21c.16-.32.34-.69.52-1.11s.32-.79.42-1.07.24-.69.34-1l.29-1.12v0h0v0l.15-.77c.06-.33.1-.63.13-.89.06-.54.09-1.07.1-1.59v-.67L46,22.18s0,0,0,0,0,0,0,0l.11,1.58,0,1.39a14.66,14.66,0,0,1-.17,1.55v.1l-.34,1.54v0h0l-.09.29,0,.06-.23.73c-.12.37-.25.71-.37,1l-.45,1c-.12.26-.29.61-.53,1.06s-.44.75-.63,1-.48.73-.72,1-.52.67-.82,1l-1.34,1.42-.07,0-.06.06-1,.77c-.17.11-.37.23-.6.35a5,5,0,0,1-.64.28l-.67.23a6.91,6.91,0,0,1-1.41.26,6.66,6.66,0,0,1-.73,0l-.68,0h0c-.25,0-.5,0-.74-.09s-.41-.07-.74-.14-.49-.14-.71-.22l-.7-.27a6.13,6.13,0,0,1-1.28-.77L29.62,37l-.44-.49a6.8,6.8,0,0,1-.83-1.27l-.47-1.06-.57-1.95-.15-.73a7.09,7.09,0,0,1-.14-.78L26.91,30l-.1-1.78.05-1.67.26-2.13v0l.06-.3v0l.25-1.13,0,0v-.05l.13-.46,1-2.9.49-1.1,0,0,.25-.5,0,0,0-.05.88-1.56.64-1,0,0h0l.45-.62h0l0-.06.42-.51a11.43,11.43,0,0,1,.91-.93l1.16-.94Z"/></svg>