<svg width="42" height="38" viewBox="0 0 42 38" fill="none" xmlns="http://www.w3.org/2000/svg">
<path fill-rule="evenodd" clip-rule="evenodd" d="M37.6666 0.25H4.33329C2.04163 0.25 0.166626 2.125 0.166626 4.41667V33.5833C0.166626 35.875 2.04163 37.75 4.33329 37.75H37.6666C39.9583 37.75 41.8333 35.875 41.8333 33.5833V4.41667C41.8333 2.125 39.9583 0.25 37.6666 0.25ZM16.8333 29.4167H6.41663V25.25H16.8333V29.4167ZM16.8333 21.0833H6.41663V16.9167H16.8333V21.0833ZM16.8333 12.75H6.41663V8.58333H16.8333V12.75ZM26.875 25.25L21 19.3333L23.9375 16.3958L26.875 19.3542L33.4791 12.75L36.4375 15.7083L26.875 25.25Z" fill="white"/>
</svg>
