<svg width="42" height="38" viewBox="0 0 42 38" fill="none" xmlns="http://www.w3.org/2000/svg">
<path d="M41.625 12.5208L39.4375 3.41667C38.9792 1.54167 37.3542 0.25 35.4583 0.25H6.52085C4.64585 0.25 3.00001 1.5625 2.56251 3.41667L0.375014 12.5208C-0.124986 14.6458 0.333347 16.8125 1.66668 18.5208C1.83335 18.75 2.06251 18.9167 2.25001 19.125V33.5833C2.25001 35.875 4.12501 37.75 6.41668 37.75H35.5833C37.875 37.75 39.75 35.875 39.75 33.5833V19.125C39.9375 18.9375 40.1667 18.75 40.3333 18.5417C41.6667 16.8333 42.1458 14.6458 41.625 12.5208ZM35.3958 4.39583L37.5833 13.5C37.7917 14.375 37.6042 15.25 37.0625 15.9375C36.7708 16.3125 36.1458 16.9167 35.1042 16.9167C33.8333 16.9167 32.7292 15.8958 32.5833 14.5417L31.375 4.41667L35.3958 4.39583ZM23.0833 4.41667H27.1667L28.2917 13.8333C28.3958 14.6458 28.1458 15.4583 27.6042 16.0625C27.1458 16.6042 26.4792 16.9167 25.625 16.9167C24.2292 16.9167 23.0833 15.6875 23.0833 14.1875V4.41667ZM13.6875 13.8333L14.8333 4.41667H18.9167V14.1875C18.9167 15.6875 17.7708 16.9167 16.2292 16.9167C15.5208 16.9167 14.875 16.6042 14.375 16.0625C13.8542 15.4583 13.6042 14.6458 13.6875 13.8333ZM4.41668 13.5L6.52085 4.41667H10.625L9.41668 14.5417C9.25001 15.8958 8.16668 16.9167 6.89585 16.9167C5.87501 16.9167 5.22918 16.3125 4.95835 15.9375C4.39585 15.2708 4.20835 14.375 4.41668 13.5ZM6.41668 33.5833V21.0208C6.58335 21.0417 6.72918 21.0833 6.89585 21.0833C8.70835 21.0833 10.3542 20.3333 11.5625 19.1042C12.8125 20.3542 14.4792 21.0833 16.375 21.0833C18.1875 21.0833 19.8125 20.3333 21.0208 19.1458C22.25 20.3333 23.9167 21.0833 25.7917 21.0833C27.5417 21.0833 29.2083 20.3542 30.4583 19.1042C31.6667 20.3333 33.3125 21.0833 35.125 21.0833C35.2917 21.0833 35.4375 21.0417 35.6042 21.0208V33.5833H6.41668Z" fill="white"/>
</svg>
