<?xml version="1.0" encoding="utf-8"?>
<!-- Generator: Adobe Illustrator 23.0.1, SVG Export Plug-In . SVG Version: 6.00 Build 0)  -->
<svg version="1.1" id="圖層_1" xmlns="http://www.w3.org/2000/svg" xmlns:xlink="http://www.w3.org/1999/xlink" x="0px" y="0px"
	 viewBox="0 0 50 50" style="enable-background:new 0 0 50 50;" xml:space="preserve">
<style type="text/css">
	.st0{clip-path:url(#SVGID_2_);}
	.st1{fill:#FFFFFF;stroke:#FFFFFF;}
</style>
<g>
	<defs>
		<rect id="SVGID_1_" y="0" width="50" height="50"/>
	</defs>
	<clipPath id="SVGID_2_">
		<use xlink:href="#SVGID_1_"  style="overflow:visible;"/>
	</clipPath>
	<g class="st0">
		<path class="st1" d="M43.8,40.1h0.5v-0.5V12.5V12h-0.5H25h-0.5v0.5v27.1v0.5H25H43.8z M27.6,25.5h13.6v2.1H27.6V25.5z M27.6,20.3
			h13.6v2.1H27.6V20.3z M27.6,30.7h13.6v2.1H27.6V30.7z M6.2,8.8h37.5c2,0,3.7,1.7,3.7,3.7v27.1c0,2-1.7,3.7-3.7,3.7H6.2
			c-2,0-3.7-1.7-3.7-3.7V12.5C2.6,10.5,4.2,8.8,6.2,8.8z"/>
	</g>
</g>
</svg>
